<svg id="bd706808-52ae-4efd-8c7e-8cf861d73b81" data-name="Behalf" xmlns="http://www.w3.org/2000/svg" viewBox="0 0 570 730"><defs><style>.f730177f-b996-4f8e-9114-b444cce32f7a{fill:#35ac46;}.a825153c-66c4-40a1-be7f-d6c2a0516d49,.b14513cf-4a9b-4e7f-a94c-d644cdee5255,.f730177f-b996-4f8e-9114-b444cce32f7a{fill-rule:evenodd;}.b14513cf-4a9b-4e7f-a94c-d644cdee5255{fill:#00354c;}.a825153c-66c4-40a1-be7f-d6c2a0516d49{fill:#1b70b3;}</style></defs><path d="M76.776,140.843h5.449c2.736,0,5.352,1.272,5.352,4.8a3.449,3.449,0,0,1-1.752,3.1,3.919,3.919,0,0,1,2.616,3.937c0,2.952-2.448,4.968-5.616,4.968H76.776Zm5.352,6.864c1.609,0,2.521-.6,2.521-2.064s-1.1-2.064-2.521-2.064H79.656v4.128Zm3.385,4.969c0-1.585-1.2-2.233-2.784-2.233H79.656v4.465h3.073C84.313,154.908,85.513,154.26,85.513,152.676Z"/><path d="M101.281,151.908c0,.216,0,.648-.024,1.08h-8.5a3.248,3.248,0,0,0,3.193,2.3,4.578,4.578,0,0,0,3.12-1.152l1.44,2.16a7.286,7.286,0,0,1-4.56,1.632,5.98,5.98,0,0,1-6.121-5.976,5.729,5.729,0,1,1,11.449-.048ZM98.4,150.9a2.878,2.878,0,0,0-5.641,0Z"/><path d="M114,150.275v7.369h-2.88V151a2.1,2.1,0,0,0-2.256-2.329,2.811,2.811,0,0,0-2.257,1.488v7.489h-2.879V139.5h2.879v8.136a3.863,3.863,0,0,1,3.217-1.656A4.076,4.076,0,0,1,114,150.275Z"/><path d="M126.865,150.228v7.416H124.2V156.2a4.607,4.607,0,0,1-3.744,1.728,3.847,3.847,0,0,1-4.1-3.816c0-2.184,1.992-3.768,4.464-3.768a5.529,5.529,0,0,1,3.169.816v-.648c0-1.489-1.441-1.969-2.448-1.969a9.235,9.235,0,0,0-3.409.84l-.936-2.376a11.522,11.522,0,0,1,4.489-1.032C124.945,145.979,126.865,147.635,126.865,150.228Zm-2.88,3.984v-1.176a5.744,5.744,0,0,0-2.592-.577c-.889,0-2.113.385-2.113,1.609,0,1.2,1.177,1.464,2.064,1.464A3.374,3.374,0,0,0,123.985,154.212Z"/><path d="M130.08,139.5h2.88v18.145h-2.88Z"/><path d="M135.119,146.267h2.256v-2.784a3.926,3.926,0,0,1,4.081-4.273,4.979,4.979,0,0,1,2.52.6l-1.08,2.424a1.988,1.988,0,0,0-1.152-.337c-.552,0-1.488.313-1.488,1.729v2.64h2.784v2.592h-2.784v8.785h-2.881v-8.785h-2.256Z"/><path d="M76.92,197.183H78.6v14H76.92Z"/><path d="M87.76,196.063h1.68v15.123H87.76Z"/><path d="M100.841,206.625a5.246,5.246,0,0,1-.02.54H93.359a3.118,3.118,0,0,0,3.181,2.7,3.568,3.568,0,0,0,2.781-1.361l1.06,1.1a5.15,5.15,0,0,1-3.841,1.821,4.722,4.722,0,0,1-4.821-4.861A4.6,4.6,0,0,1,96.34,201.7C98.921,201.7,100.841,203.645,100.841,206.625Zm-1.64-.86a2.783,2.783,0,0,0-2.861-2.5,2.868,2.868,0,0,0-2.941,2.5Z"/><path d="M109.581,203.084v-7.021h1.68v15.123h-1.54v-1.34a3.6,3.6,0,0,1-3.121,1.58,4.877,4.877,0,0,1,0-9.722A3.672,3.672,0,0,1,109.581,203.084Zm0,1.781a3.282,3.282,0,0,0-2.721-1.6,3.31,3.31,0,0,0,0,6.6,3.282,3.282,0,0,0,2.721-1.6Z"/><path d="M128.661,197.183h1.681v8.842c0,3.181-1.9,5.4-5.1,5.4s-5.1-2.22-5.1-5.4v-8.842h1.681v8.662c0,2.26,1,3.981,3.42,3.981s3.421-1.721,3.421-3.981Z"/><path d="M137.82,205.305l-3.6,5.881h-1.9l4.521-7.242-4.2-6.761h1.981l3.32,5.441,3.3-5.441h1.881l-4.2,6.761,4.521,7.242h-2Z"/><path d="M145.579,213.847l-1.36-.6,7.942-17.944,1.36.6Z"/><path d="M163.881,197.183h1.681v8.842c0,3.181-1.9,5.4-5.1,5.4s-5.1-2.22-5.1-5.4v-8.842h1.681v8.662c0,2.26,1,3.981,3.42,3.981s3.421-1.721,3.421-3.981Z"/><path d="M169.119,197.183h1.68v14h-1.68Z"/><path d="M185.08,201.944l-.621,1.52a2.338,2.338,0,0,0-1.06-.2,2.57,2.57,0,0,0-2.12,1.561v6.361H179.6v-9.242h1.56v1.42a3.092,3.092,0,0,1,2.581-1.66A3.863,3.863,0,0,1,185.08,201.944Z"/><path d="M194.561,206.625a5.246,5.246,0,0,1-.02.54h-7.462a3.117,3.117,0,0,0,3.18,2.7,3.568,3.568,0,0,0,2.781-1.361l1.06,1.1a5.15,5.15,0,0,1-3.841,1.821,4.722,4.722,0,0,1-4.821-4.861,4.6,4.6,0,0,1,4.622-4.861C192.64,201.7,194.561,203.645,194.561,206.625Zm-1.641-.86a2.783,2.783,0,0,0-2.86-2.5,2.866,2.866,0,0,0-2.941,2.5Z"/><path d="M197.039,208.405a3.564,3.564,0,0,0,2.8,1.5c.94,0,2-.4,2-1.14,0-.8-.68-1.2-2.1-1.481-1.98-.4-3.381-1.18-3.381-2.92,0-1.341,1.341-2.661,3.4-2.661a4.806,4.806,0,0,1,3.421,1.4l-1.1,1.141a3.393,3.393,0,0,0-2.321-1.021c-1.18,0-1.76.581-1.76,1.181,0,.7.72,1.08,2.24,1.4,1.761.38,3.261,1.04,3.261,2.921,0,1.78-1.88,2.7-3.661,2.7a5.067,5.067,0,0,1-3.961-1.94Z"/><path d="M214.06,206.625a5.246,5.246,0,0,1-.02.54h-7.462a3.118,3.118,0,0,0,3.181,2.7,3.568,3.568,0,0,0,2.781-1.361l1.06,1.1a5.15,5.15,0,0,1-3.841,1.821,4.722,4.722,0,0,1-4.821-4.861,4.6,4.6,0,0,1,4.621-4.861C212.14,201.7,214.06,203.645,214.06,206.625Zm-1.641-.86a2.783,2.783,0,0,0-2.86-2.5,2.867,2.867,0,0,0-2.941,2.5Z"/><path d="M223.66,205.1v6.082h-1.541v-1.34a3.905,3.905,0,0,1-3.14,1.58,3.288,3.288,0,0,1-3.441-3.16c0-1.8,1.58-3.081,3.661-3.081a5.172,5.172,0,0,1,2.78.76v-.5a2.106,2.106,0,0,0-2.34-2.181,6.4,6.4,0,0,0-2.761.78l-.7-1.4a6.886,6.886,0,0,1,3.461-.94C222.359,201.7,223.66,203.384,223.66,205.1Zm-1.681,3.441v-1.3a4.427,4.427,0,0,0-2.42-.66c-1.44,0-2.341.72-2.341,1.681,0,1.2,1.08,1.68,2.121,1.68A3.547,3.547,0,0,0,221.979,208.545Z"/><path d="M231.7,201.944l-.62,1.52a2.344,2.344,0,0,0-1.06-.2,2.57,2.57,0,0,0-2.121,1.561v6.361h-1.68v-9.242h1.56v1.42a3.092,3.092,0,0,1,2.581-1.66A3.863,3.863,0,0,1,231.7,201.944Z"/><path d="M240.6,209.646a4.986,4.986,0,0,1-3.781,1.78,4.862,4.862,0,0,1,0-9.722,4.956,4.956,0,0,1,3.681,1.66l-1.141,1.021a3.414,3.414,0,0,0-2.54-1.121,3.309,3.309,0,0,0,0,6.6,3.39,3.39,0,0,0,2.7-1.321Z"/><path d="M250.479,205.245v5.941H248.8v-5.661a2.05,2.05,0,0,0-2.221-2.261,2.91,2.91,0,0,0-2.3,1.561v6.361H242.6V196.063h1.681v7A3.253,3.253,0,0,1,247,201.7,3.363,3.363,0,0,1,250.479,205.245Z"/><path d="M266.319,205.1v6.082h-1.541v-1.34a3.905,3.905,0,0,1-3.14,1.58,3.289,3.289,0,0,1-3.441-3.16c0-1.8,1.58-3.081,3.661-3.081a5.178,5.178,0,0,1,2.781.76v-.5a2.107,2.107,0,0,0-2.341-2.181,6.394,6.394,0,0,0-2.76.78l-.7-1.4a6.886,6.886,0,0,1,3.461-.94C265.019,201.7,266.319,203.384,266.319,205.1Zm-1.68,3.441v-1.3a4.432,4.432,0,0,0-2.421-.66c-1.44,0-2.341.72-2.341,1.681,0,1.2,1.081,1.68,2.121,1.68A3.55,3.55,0,0,0,264.639,208.545Z"/><path d="M268.077,201.944h1.8v-2.82h1.681v2.82h2.88v1.52h-2.88v4.981c0,.9.44,1.421,1.34,1.421a2.193,2.193,0,0,0,1.06-.38l.62,1.38a3.807,3.807,0,0,1-1.92.56,2.7,2.7,0,0,1-2.781-2.9v-5.061h-1.8Z"/><path d="M288.158,199.184a1.741,1.741,0,1,0-3.48,0v2.76h2.06v1.52h-2.06v7.722H283v-7.722h-1.88v-1.52H283v-2.68a3.421,3.421,0,1,1,6.842,0v.2a.841.841,0,1,1-1.681,0Zm0,2.76h1.681v9.242h-1.681Z"/><path d="M300.639,205.245v5.941h-1.681v-5.661a2.049,2.049,0,0,0-2.22-2.261,2.908,2.908,0,0,0-2.3,1.561v6.361h-1.681v-9.242h1.56v1.3a3.288,3.288,0,0,1,2.841-1.54A3.364,3.364,0,0,1,300.639,205.245Z"/><path d="M302.4,201.944h1.8v-2.82h1.68v2.82h2.881v1.52h-2.881v4.981a1.238,1.238,0,0,0,1.341,1.421,2.187,2.187,0,0,0,1.059-.38l.621,1.38a3.807,3.807,0,0,1-1.92.56,2.7,2.7,0,0,1-2.781-2.9v-5.061h-1.8Z"/><path d="M319.2,206.625c0,.18,0,.32-.019.54h-7.462a3.117,3.117,0,0,0,3.18,2.7,3.572,3.572,0,0,0,2.782-1.361l1.059,1.1a5.15,5.15,0,0,1-3.841,1.821,4.723,4.723,0,0,1-4.821-4.861A4.6,4.6,0,0,1,314.7,201.7C317.278,201.7,319.2,203.645,319.2,206.625Zm-1.639-.86a2.785,2.785,0,0,0-2.862-2.5,2.866,2.866,0,0,0-2.94,2.5Z"/><path d="M329.018,209.646a4.984,4.984,0,0,1-3.781,1.78,4.862,4.862,0,0,1,0-9.722,4.953,4.953,0,0,1,3.681,1.66l-1.141,1.021a3.414,3.414,0,0,0-2.54-1.121,3.309,3.309,0,0,0,0,6.6,3.394,3.394,0,0,0,2.7-1.321Z"/><path d="M338.9,205.245v5.941h-1.68v-5.661A2.05,2.05,0,0,0,335,203.264a2.913,2.913,0,0,0-2.3,1.561v6.361h-1.679V196.063H332.7v7a3.256,3.256,0,0,1,2.721-1.36A3.363,3.363,0,0,1,338.9,205.245Z"/><path d="M348.6,201.944v1.34a3.64,3.64,0,0,1,3.121-1.58,4.877,4.877,0,0,1,0,9.722,3.72,3.72,0,0,1-2.981-1.38v5.741h-1.68V201.944Zm.14,6.342a3.284,3.284,0,0,0,2.721,1.58,3.31,3.31,0,0,0,0-6.6,3.284,3.284,0,0,0-2.721,1.581Z"/><path d="M358.476,196.063h1.679v15.123h-1.679Z"/><path d="M370.757,205.1v6.082h-1.54v-1.34a3.906,3.906,0,0,1-3.141,1.58,3.288,3.288,0,0,1-3.441-3.16c0-1.8,1.581-3.081,3.661-3.081a5.172,5.172,0,0,1,2.78.76v-.5a2.105,2.105,0,0,0-2.34-2.181,6.4,6.4,0,0,0-2.76.78l-.7-1.4a6.89,6.89,0,0,1,3.461-.94C369.457,201.7,370.757,203.384,370.757,205.1Zm-1.681,3.441v-1.3a4.427,4.427,0,0,0-2.42-.66c-1.44,0-2.341.72-2.341,1.681,0,1.2,1.081,1.68,2.121,1.68A3.547,3.547,0,0,0,369.076,208.545Z"/><path d="M372.516,201.944h1.8v-2.82H376v2.82h2.881v1.52H376v4.981a1.238,1.238,0,0,0,1.34,1.421,2.193,2.193,0,0,0,1.06-.38l.621,1.38a3.807,3.807,0,0,1-1.92.56,2.7,2.7,0,0,1-2.782-2.9v-5.061h-1.8Z"/><path d="M379.955,201.944h1.92v-3.181a2.83,2.83,0,0,1,2.841-2.94,3.814,3.814,0,0,1,1.94.54l-.62,1.38a2.388,2.388,0,0,0-1.08-.36,1.326,1.326,0,0,0-1.4,1.48v3.081h2.4v1.52h-2.4v7.722h-1.681v-7.722h-1.92Z"/><path d="M396.336,206.565a4.762,4.762,0,1,1-4.761-4.861A4.732,4.732,0,0,1,396.336,206.565Zm-1.681,0a3.088,3.088,0,1,0-3.08,3.3A3.1,3.1,0,0,0,394.655,206.565Z"/><path d="M403.735,201.944l-.62,1.52a2.344,2.344,0,0,0-1.06-.2,2.57,2.57,0,0,0-2.12,1.561v6.361h-1.681v-9.242h1.56v1.42a3.094,3.094,0,0,1,2.581-1.66A3.863,3.863,0,0,1,403.735,201.944Z"/><path d="M418.017,205.245v5.941h-1.681v-5.681c0-1.5-.78-2.241-1.981-2.241a2.382,2.382,0,0,0-1.98,1.481v6.441H410.7v-5.681c0-1.5-.78-2.241-1.98-2.241a2.417,2.417,0,0,0-1.981,1.481v6.441h-1.68v-9.242h1.56v1.36a2.822,2.822,0,0,1,2.561-1.6,2.881,2.881,0,0,1,2.881,1.72,3.05,3.05,0,0,1,2.759-1.72C416.736,201.7,418.017,202.964,418.017,205.245Z"/><path d="M75.48,225.944h1.8v-2.82h1.681v2.82h2.88v1.52h-2.88v4.981c0,.9.44,1.421,1.34,1.421a2.193,2.193,0,0,0,1.06-.38l.62,1.38a3.807,3.807,0,0,1-1.92.56,2.7,2.7,0,0,1-2.781-2.9v-5.061h-1.8Z"/><path d="M92.042,229.245v5.941h-1.68v-5.661a2.05,2.05,0,0,0-2.221-2.261,2.91,2.91,0,0,0-2.3,1.561v6.361H84.16V220.063h1.681v7a3.253,3.253,0,0,1,2.721-1.36A3.363,3.363,0,0,1,92.042,229.245Z"/><path d="M102.282,229.1v6.082h-1.541v-1.34a3.905,3.905,0,0,1-3.14,1.58,3.288,3.288,0,0,1-3.441-3.16c0-1.8,1.58-3.081,3.661-3.081a5.178,5.178,0,0,1,2.781.76v-.5a2.107,2.107,0,0,0-2.341-2.181,6.4,6.4,0,0,0-2.761.78l-.7-1.4a6.886,6.886,0,0,1,3.461-.94C100.981,225.7,102.282,227.384,102.282,229.1Zm-1.68,3.441v-1.3a4.432,4.432,0,0,0-2.421-.66c-1.44,0-2.341.72-2.341,1.681,0,1.2,1.08,1.68,2.121,1.68A3.55,3.55,0,0,0,100.6,232.545Z"/><path d="M104.04,225.944h1.8v-2.82h1.681v2.82h2.88v1.52h-2.88v4.981c0,.9.439,1.421,1.34,1.421a2.193,2.193,0,0,0,1.06-.38l.62,1.38a3.807,3.807,0,0,1-1.92.56,2.7,2.7,0,0,1-2.781-2.9v-5.061h-1.8Z"/><path d="M119.5,225.944v1.34a3.638,3.638,0,0,1,3.121-1.58,4.877,4.877,0,0,1,0,9.722,3.718,3.718,0,0,1-2.981-1.38v5.741h-1.68V225.944Zm.14,6.342a3.286,3.286,0,0,0,2.721,1.58,3.31,3.31,0,0,0,0-6.6,3.286,3.286,0,0,0-2.721,1.581Z"/><path d="M134.5,225.944l-.62,1.52a2.344,2.344,0,0,0-1.06-.2,2.57,2.57,0,0,0-2.121,1.561v6.361h-1.68v-9.242h1.561v1.42a3.09,3.09,0,0,1,2.58-1.66A3.863,3.863,0,0,1,134.5,225.944Z"/><path d="M144.382,230.565a4.762,4.762,0,1,1-4.761-4.861A4.733,4.733,0,0,1,144.382,230.565Zm-1.68,0a3.088,3.088,0,1,0-3.081,3.3A3.1,3.1,0,0,0,142.7,230.565Z"/><path d="M146.7,225.944l2.841,6.262,2.84-6.262H154.1l-4.621,9.642-4.621-9.642Z"/><path d="M156.64,221.843a1.141,1.141,0,1,1-1.14,1.14A1.153,1.153,0,0,1,156.64,221.843Zm-.84,4.1h1.68v9.242H155.8Z"/><path d="M167.161,227.084v-7.021h1.681v15.123H167.3v-1.34a3.6,3.6,0,0,1-3.12,1.58,4.877,4.877,0,0,1,0-9.722A3.671,3.671,0,0,1,167.161,227.084Zm0,1.781a3.282,3.282,0,0,0-2.72-1.6,3.31,3.31,0,0,0,0,6.6,3.282,3.282,0,0,0,2.72-1.6Z"/><path d="M180.242,230.625a5.246,5.246,0,0,1-.02.54H172.76a3.117,3.117,0,0,0,3.18,2.7,3.568,3.568,0,0,0,2.781-1.361l1.06,1.1a5.15,5.15,0,0,1-3.841,1.821,4.721,4.721,0,0,1-4.82-4.861,4.6,4.6,0,0,1,4.621-4.861C178.321,225.7,180.242,227.645,180.242,230.625Zm-1.641-.86a2.783,2.783,0,0,0-2.86-2.5,2.866,2.866,0,0,0-2.941,2.5Z"/><path d="M182.72,232.405a3.564,3.564,0,0,0,2.8,1.5c.939,0,2-.4,2-1.14,0-.8-.68-1.2-2.1-1.481-1.98-.4-3.38-1.18-3.38-2.92,0-1.341,1.34-2.661,3.4-2.661a4.8,4.8,0,0,1,3.421,1.4l-1.1,1.141a3.393,3.393,0,0,0-2.321-1.021c-1.18,0-1.76.581-1.76,1.181,0,.7.72,1.08,2.24,1.4,1.761.38,3.261,1.04,3.261,2.921,0,1.78-1.88,2.7-3.66,2.7a5.064,5.064,0,0,1-3.961-1.94Z"/><path d="M204.761,233.646a4.984,4.984,0,0,1-3.781,1.78,4.862,4.862,0,0,1,0-9.722,4.953,4.953,0,0,1,3.681,1.66l-1.14,1.021a3.415,3.415,0,0,0-2.541-1.121,3.309,3.309,0,0,0,0,6.6,3.391,3.391,0,0,0,2.7-1.321Z"/><path d="M211.88,225.944l-.62,1.52a2.344,2.344,0,0,0-1.06-.2,2.57,2.57,0,0,0-2.12,1.561v6.361H206.4v-9.242h1.561v1.42a3.092,3.092,0,0,1,2.581-1.66A3.86,3.86,0,0,1,211.88,225.944Z"/><path d="M221.361,230.625a5.246,5.246,0,0,1-.02.54h-7.462a3.118,3.118,0,0,0,3.181,2.7,3.568,3.568,0,0,0,2.781-1.361l1.06,1.1a5.15,5.15,0,0,1-3.841,1.821,4.722,4.722,0,0,1-4.821-4.861,4.6,4.6,0,0,1,4.621-4.861C219.441,225.7,221.361,227.645,221.361,230.625Zm-1.64-.86a2.783,2.783,0,0,0-2.861-2.5,2.868,2.868,0,0,0-2.941,2.5Z"/><path d="M230.1,227.084v-7.021h1.68v15.123h-1.54v-1.34a3.6,3.6,0,0,1-3.121,1.58,4.877,4.877,0,0,1,0-9.722A3.672,3.672,0,0,1,230.1,227.084Zm0,1.781a3.282,3.282,0,0,0-2.721-1.6,3.31,3.31,0,0,0,0,6.6,3.282,3.282,0,0,0,2.721-1.6Z"/><path d="M235.839,221.843a1.141,1.141,0,1,1-1.14,1.14A1.153,1.153,0,0,1,235.839,221.843Zm-.839,4.1h1.68v9.242H235Z"/><path d="M238.739,225.944h1.8v-2.82h1.681v2.82h2.88v1.52h-2.88v4.981c0,.9.44,1.421,1.34,1.421a2.193,2.193,0,0,0,1.06-.38l.62,1.38a3.807,3.807,0,0,1-1.92.56,2.7,2.7,0,0,1-2.781-2.9v-5.061h-1.8Z"/><path d="M251.859,225.944h1.8v-2.82h1.681v2.82h2.88v1.52h-2.88v4.981c0,.9.44,1.421,1.34,1.421a2.193,2.193,0,0,0,1.06-.38l.62,1.38a3.807,3.807,0,0,1-1.92.56,2.7,2.7,0,0,1-2.781-2.9v-5.061h-1.8Z"/><path d="M269.061,230.565A4.762,4.762,0,1,1,264.3,225.7,4.732,4.732,0,0,1,269.061,230.565Zm-1.68,0a3.088,3.088,0,1,0-3.081,3.3A3.1,3.1,0,0,0,267.381,230.565Z"/><path d="M289.542,229.245v5.941h-1.681v-5.681c0-1.5-.779-2.241-1.98-2.241a2.38,2.38,0,0,0-1.98,1.481v6.441H282.22v-5.681c0-1.5-.78-2.241-1.98-2.241a2.417,2.417,0,0,0-1.981,1.481v6.441h-1.68v-9.242h1.561v1.36a2.82,2.82,0,0,1,2.56-1.6,2.881,2.881,0,0,1,2.881,1.72,3.053,3.053,0,0,1,2.761-1.72C288.262,225.7,289.542,226.964,289.542,229.245Z"/><path d="M299.78,229.1v6.082h-1.54v-1.34a3.907,3.907,0,0,1-3.14,1.58,3.289,3.289,0,0,1-3.442-3.16c0-1.8,1.58-3.081,3.661-3.081a5.174,5.174,0,0,1,2.781.76v-.5a2.106,2.106,0,0,0-2.34-2.181,6.4,6.4,0,0,0-2.761.78l-.7-1.4a6.881,6.881,0,0,1,3.461-.94C298.48,225.7,299.78,227.384,299.78,229.1Zm-1.68,3.441v-1.3a4.427,4.427,0,0,0-2.42-.66c-1.441,0-2.341.72-2.341,1.681,0,1.2,1.08,1.68,2.12,1.68A3.548,3.548,0,0,0,298.1,232.545Z"/><path d="M310.221,229.245v5.941h-1.682v-5.661a2.049,2.049,0,0,0-2.22-2.261,2.908,2.908,0,0,0-2.3,1.561v6.361h-1.681v-9.242h1.56v1.3a3.288,3.288,0,0,1,2.841-1.54A3.364,3.364,0,0,1,310.221,229.245Z"/><path d="M312.778,231.885v-5.941h1.681v5.661a2.049,2.049,0,0,0,2.22,2.261,2.781,2.781,0,0,0,2.3-1.521v-6.4h1.681v9.242H319.1v-1.42a3.275,3.275,0,0,1-2.841,1.66A3.364,3.364,0,0,1,312.778,231.885Z"/><path d="M322.338,225.944h1.92v-3.181a2.83,2.83,0,0,1,2.841-2.94,3.814,3.814,0,0,1,1.94.54l-.62,1.38a2.393,2.393,0,0,0-1.08-.36,1.326,1.326,0,0,0-1.4,1.48v3.081h2.4v1.52h-2.4v7.722h-1.68v-7.722h-1.92Z"/><path d="M337.6,229.1v6.082h-1.54v-1.34a3.906,3.906,0,0,1-3.141,1.58,3.288,3.288,0,0,1-3.441-3.16c0-1.8,1.581-3.081,3.661-3.081a5.172,5.172,0,0,1,2.78.76v-.5a2.106,2.106,0,0,0-2.34-2.181,6.406,6.406,0,0,0-2.761.78l-.7-1.4a6.89,6.89,0,0,1,3.461-.94C336.3,225.7,337.6,227.384,337.6,229.1Zm-1.681,3.441v-1.3a4.427,4.427,0,0,0-2.42-.66c-1.44,0-2.341.72-2.341,1.681,0,1.2,1.08,1.68,2.12,1.68A3.548,3.548,0,0,0,335.919,232.545Z"/><path d="M348.06,233.646a4.984,4.984,0,0,1-3.781,1.78,4.862,4.862,0,0,1,0-9.722,4.953,4.953,0,0,1,3.681,1.66l-1.141,1.021a3.411,3.411,0,0,0-2.54-1.121,3.309,3.309,0,0,0,0,6.6,3.39,3.39,0,0,0,2.7-1.321Z"/><path d="M348.9,225.944h1.8v-2.82h1.681v2.82h2.881v1.52h-2.881v4.981c0,.9.44,1.421,1.34,1.421a2.193,2.193,0,0,0,1.06-.38l.62,1.38a3.8,3.8,0,0,1-1.92.56,2.7,2.7,0,0,1-2.781-2.9v-5.061h-1.8Z"/><path d="M357.218,231.885v-5.941h1.68v5.661a2.049,2.049,0,0,0,2.22,2.261,2.781,2.781,0,0,0,2.3-1.521v-6.4H365.1v9.242h-1.561v-1.42a3.275,3.275,0,0,1-2.841,1.66A3.363,3.363,0,0,1,357.218,231.885Z"/><path d="M373.139,225.944l-.62,1.52a2.351,2.351,0,0,0-1.061-.2,2.57,2.57,0,0,0-2.12,1.561v6.361h-1.681v-9.242h1.561v1.42a3.092,3.092,0,0,1,2.58-1.66A3.865,3.865,0,0,1,373.139,225.944Z"/><path d="M375.6,221.843a1.141,1.141,0,1,1-1.141,1.14A1.152,1.152,0,0,1,375.6,221.843Zm-.841,4.1h1.681v9.242h-1.681Z"/><path d="M387.179,229.245v5.941H385.5v-5.661a2.05,2.05,0,0,0-2.221-2.261,2.908,2.908,0,0,0-2.3,1.561v6.361H379.3v-9.242h1.56v1.3a3.288,3.288,0,0,1,2.841-1.54A3.364,3.364,0,0,1,387.179,229.245Z"/><path d="M396.558,234.026a3.722,3.722,0,0,1-2.981,1.4,4.877,4.877,0,0,1,0-9.722,3.6,3.6,0,0,1,3.121,1.58v-1.34h1.54v9.282a4.516,4.516,0,0,1-4.861,4.8,5.641,5.641,0,0,1-4.041-1.76l1.02-1.261a4.08,4.08,0,0,0,3.021,1.461,2.881,2.881,0,0,0,3.181-3.161Zm0-5.2a3.329,3.329,0,0,0-2.721-1.561,3.31,3.31,0,0,0,0,6.6,3.286,3.286,0,0,0,2.721-1.56Z"/><path d="M87.463,251.5a9.092,9.092,0,0,1-.88,4.521l2.44,2.2-1.02,1.2-2.4-2.12a6.18,6.18,0,0,1-4.7,2.12c-2.76,0-4.461-1.62-4.461-3.3,0-1.54.56-2.44,3-4.34-1.6-1.441-2.1-2.4-2.1-3.641a3.537,3.537,0,0,1,7.042,0c0,1.18-.4,1.92-2.5,3.661l3.5,3.16s.52-.66.52-3.461Zm-2.981,4.782-3.861-3.441-.06.06c-1.68,1.38-2.44,2.06-2.44,3.02,0,1.4,1.46,1.941,2.78,1.941A4.73,4.73,0,0,0,84.482,256.286Zm-3.721-5.5c1.76-1.54,1.941-1.72,1.941-2.64a1.8,1.8,0,0,0-1.841-1.721,1.774,1.774,0,0,0-1.84,1.721C79.021,249.424,79.841,249.864,80.761,250.784Z"/><path d="M103.8,257.646a4.986,4.986,0,0,1-3.781,1.78,4.862,4.862,0,0,1,0-9.722,4.956,4.956,0,0,1,3.681,1.66l-1.14,1.021a3.417,3.417,0,0,0-2.541-1.121,3.309,3.309,0,0,0,0,6.6,3.39,3.39,0,0,0,2.7-1.321Z"/><path d="M113.121,253.1v6.082h-1.54v-1.34a3.906,3.906,0,0,1-3.141,1.58,3.288,3.288,0,0,1-3.44-3.16c0-1.8,1.58-3.081,3.66-3.081a5.178,5.178,0,0,1,2.781.76v-.5a2.107,2.107,0,0,0-2.341-2.181,6.4,6.4,0,0,0-2.76.78l-.7-1.4a6.884,6.884,0,0,1,3.46-.94C111.821,249.7,113.121,251.384,113.121,253.1Zm-1.68,3.441v-1.3a4.428,4.428,0,0,0-2.421-.66c-1.44,0-2.34.72-2.34,1.681,0,1.2,1.08,1.68,2.12,1.68A3.55,3.55,0,0,0,111.441,256.545Z"/><path d="M117.22,249.944v1.34a3.637,3.637,0,0,1,3.12-1.58,4.877,4.877,0,0,1,0,9.722,3.721,3.721,0,0,1-2.981-1.38v5.741h-1.68V249.944Zm.139,6.342a3.286,3.286,0,0,0,2.721,1.58,3.31,3.31,0,0,0,0-6.6,3.286,3.286,0,0,0-2.721,1.581Z"/><path d="M127.879,245.843a1.141,1.141,0,1,1-1.14,1.14A1.153,1.153,0,0,1,127.879,245.843Zm-.839,4.1h1.68v9.242h-1.68Z"/><path d="M130.779,249.944h1.8v-2.82h1.681v2.82h2.88v1.52h-2.88v4.981c0,.9.44,1.421,1.34,1.421a2.193,2.193,0,0,0,1.06-.38l.62,1.38a3.807,3.807,0,0,1-1.92.56,2.7,2.7,0,0,1-2.781-2.9v-5.061h-1.8Z"/><path d="M146.781,253.1v6.082H145.24v-1.34a3.905,3.905,0,0,1-3.14,1.58,3.288,3.288,0,0,1-3.441-3.16c0-1.8,1.58-3.081,3.661-3.081a5.178,5.178,0,0,1,2.781.76v-.5a2.107,2.107,0,0,0-2.341-2.181,6.394,6.394,0,0,0-2.76.78l-.7-1.4a6.886,6.886,0,0,1,3.461-.94C145.48,249.7,146.781,251.384,146.781,253.1Zm-1.68,3.441v-1.3a4.432,4.432,0,0,0-2.421-.66c-1.44,0-2.341.72-2.341,1.681,0,1.2,1.08,1.68,2.121,1.68A3.55,3.55,0,0,0,145.1,256.545Z"/><path d="M149.7,244.063h1.68v15.123H149.7Z"/><path d="M153.679,253.505h5.341v1.6h-5.341Z"/><path d="M162.1,245.843a1.141,1.141,0,1,1-1.141,1.14A1.153,1.153,0,0,1,162.1,245.843Zm-.84,4.1h1.68v9.242h-1.68Z"/><path d="M173.68,253.245v5.941H172v-5.661a2.05,2.05,0,0,0-2.221-2.261,2.91,2.91,0,0,0-2.3,1.561v6.361H165.8v-9.242h1.561v1.3a3.287,3.287,0,0,1,2.84-1.54A3.363,3.363,0,0,1,173.68,253.245Z"/><path d="M175.438,249.944h1.8v-2.82h1.681v2.82h2.88v1.52h-2.88v4.981c0,.9.44,1.421,1.34,1.421a2.193,2.193,0,0,0,1.06-.38l.62,1.38a3.807,3.807,0,0,1-1.92.56,2.7,2.7,0,0,1-2.781-2.9v-5.061h-1.8Z"/><path d="M192.24,254.625a5.246,5.246,0,0,1-.02.54h-7.462a3.118,3.118,0,0,0,3.181,2.7,3.568,3.568,0,0,0,2.781-1.361l1.06,1.1a5.15,5.15,0,0,1-3.841,1.821,4.722,4.722,0,0,1-4.821-4.861,4.6,4.6,0,0,1,4.621-4.861C190.32,249.7,192.24,251.645,192.24,254.625Zm-1.64-.86a2.783,2.783,0,0,0-2.861-2.5,2.867,2.867,0,0,0-2.941,2.5Z"/><path d="M202.04,253.245v5.941h-1.681v-5.661a2.049,2.049,0,0,0-2.22-2.261,2.913,2.913,0,0,0-2.3,1.561v6.361h-1.68v-9.242h1.561v1.3a3.287,3.287,0,0,1,2.84-1.54A3.364,3.364,0,0,1,202.04,253.245Z"/><path d="M205.158,256.4a3.567,3.567,0,0,0,2.8,1.5c.94,0,2-.4,2-1.14,0-.8-.68-1.2-2.1-1.481-1.981-.4-3.381-1.18-3.381-2.92,0-1.341,1.34-2.661,3.4-2.661a4.806,4.806,0,0,1,3.421,1.4l-1.1,1.141a3.392,3.392,0,0,0-2.32-1.021c-1.18,0-1.76.581-1.76,1.181,0,.7.72,1.08,2.24,1.4,1.76.38,3.261,1.04,3.261,2.921,0,1.78-1.881,2.7-3.661,2.7a5.064,5.064,0,0,1-3.961-1.94Z"/><path d="M214.838,245.843a1.141,1.141,0,1,1-1.14,1.14A1.153,1.153,0,0,1,214.838,245.843Zm-.84,4.1h1.68v9.242H214Z"/><path d="M219.218,249.944l2.841,6.262,2.84-6.262h1.72L222,259.586l-4.622-9.642Z"/><path d="M236.22,254.625a5.246,5.246,0,0,1-.02.54h-7.462a3.117,3.117,0,0,0,3.18,2.7,3.568,3.568,0,0,0,2.781-1.361l1.06,1.1a5.15,5.15,0,0,1-3.841,1.821,4.721,4.721,0,0,1-4.82-4.861,4.6,4.6,0,0,1,4.621-4.861C234.3,249.7,236.22,251.645,236.22,254.625Zm-1.641-.86a2.783,2.783,0,0,0-2.86-2.5,2.866,2.866,0,0,0-2.941,2.5Z"/><path d="M253.24,254.565a4.644,4.644,0,0,1-4.481,4.861,3.6,3.6,0,0,1-3.121-1.58v1.34H244.1V244.063h1.68v7.021a3.672,3.672,0,0,1,2.981-1.38A4.644,4.644,0,0,1,253.24,254.565Zm-7.462,1.7a3.282,3.282,0,0,0,2.721,1.6,3.31,3.31,0,0,0,0-6.6,3.282,3.282,0,0,0-2.721,1.6Z"/><path d="M255.158,255.885v-5.941h1.68v5.661a2.05,2.05,0,0,0,2.221,2.261,2.781,2.781,0,0,0,2.3-1.521v-6.4h1.681v9.242h-1.561v-1.42a3.274,3.274,0,0,1-2.84,1.66A3.363,3.363,0,0,1,255.158,255.885Z"/><path d="M266.158,256.4a3.564,3.564,0,0,0,2.8,1.5c.94,0,2-.4,2-1.14,0-.8-.68-1.2-2.1-1.481-1.98-.4-3.38-1.18-3.38-2.92,0-1.341,1.34-2.661,3.4-2.661a4.8,4.8,0,0,1,3.421,1.4l-1.1,1.141a3.393,3.393,0,0,0-2.321-1.021c-1.18,0-1.76.581-1.76,1.181,0,.7.72,1.08,2.24,1.4,1.761.38,3.261,1.04,3.261,2.921,0,1.78-1.88,2.7-3.661,2.7a5.064,5.064,0,0,1-3.96-1.94Z"/><path d="M275.837,245.843a1.141,1.141,0,1,1-1.14,1.14A1.153,1.153,0,0,1,275.837,245.843Zm-.839,4.1h1.68v9.242H275Z"/><path d="M287.419,253.245v5.941h-1.681v-5.661a2.049,2.049,0,0,0-2.22-2.261,2.913,2.913,0,0,0-2.3,1.561v6.361h-1.68v-9.242H281.1v1.3a3.287,3.287,0,0,1,2.84-1.54A3.364,3.364,0,0,1,287.419,253.245Z"/><path d="M298.459,254.625a5.246,5.246,0,0,1-.02.54h-7.462a3.118,3.118,0,0,0,3.181,2.7,3.565,3.565,0,0,0,2.78-1.361l1.06,1.1a5.147,5.147,0,0,1-3.84,1.821,4.722,4.722,0,0,1-4.821-4.861,4.6,4.6,0,0,1,4.621-4.861C296.539,249.7,298.459,251.645,298.459,254.625Zm-1.641-.86a2.783,2.783,0,0,0-2.86-2.5,2.865,2.865,0,0,0-2.94,2.5Z"/><path d="M300.938,256.4a3.564,3.564,0,0,0,2.8,1.5c.94,0,2-.4,2-1.14,0-.8-.679-1.2-2.1-1.481-1.981-.4-3.381-1.18-3.381-2.92,0-1.341,1.341-2.661,3.4-2.661a4.8,4.8,0,0,1,3.42,1.4l-1.1,1.141a3.393,3.393,0,0,0-2.321-1.021c-1.18,0-1.761.581-1.761,1.181,0,.7.72,1.08,2.241,1.4,1.76.38,3.26,1.04,3.26,2.921,0,1.78-1.88,2.7-3.66,2.7a5.064,5.064,0,0,1-3.961-1.94Z"/><path d="M310.037,256.4a3.567,3.567,0,0,0,2.8,1.5c.939,0,2-.4,2-1.14,0-.8-.681-1.2-2.1-1.481-1.98-.4-3.381-1.18-3.381-2.92,0-1.341,1.341-2.661,3.4-2.661a4.8,4.8,0,0,1,3.42,1.4l-1.1,1.141a3.4,3.4,0,0,0-2.32-1.021c-1.181,0-1.761.581-1.761,1.181,0,.7.72,1.08,2.24,1.4,1.761.38,3.261,1.04,3.261,2.921,0,1.78-1.881,2.7-3.66,2.7a5.062,5.062,0,0,1-3.961-1.94Z"/><path d="M327.058,254.625a5.246,5.246,0,0,1-.02.54h-7.462a3.119,3.119,0,0,0,3.181,2.7,3.571,3.571,0,0,0,2.781-1.361l1.06,1.1a5.153,5.153,0,0,1-3.841,1.821,4.722,4.722,0,0,1-4.821-4.861,4.6,4.6,0,0,1,4.621-4.861C325.138,249.7,327.058,251.645,327.058,254.625Zm-1.64-.86a2.784,2.784,0,0,0-2.861-2.5,2.867,2.867,0,0,0-2.941,2.5Z"/><path d="M329.536,256.4a3.564,3.564,0,0,0,2.8,1.5c.94,0,2-.4,2-1.14,0-.8-.681-1.2-2.1-1.481-1.98-.4-3.381-1.18-3.381-2.92,0-1.341,1.341-2.661,3.4-2.661a4.8,4.8,0,0,1,3.421,1.4l-1.1,1.141a3.4,3.4,0,0,0-2.321-1.021c-1.18,0-1.76.581-1.76,1.181,0,.7.72,1.08,2.24,1.4,1.761.38,3.261,1.04,3.261,2.921,0,1.78-1.881,2.7-3.661,2.7a5.064,5.064,0,0,1-3.961-1.94Z"/><path d="M339.1,257.146a1.14,1.14,0,1,1-1.141,1.14A1.152,1.152,0,0,1,339.1,257.146Z"/><path d="M81.932,301.105l-.756,1.945a2.483,2.483,0,0,0-1.027-.2A2.256,2.256,0,0,0,78.241,304v5.582H76.08v-8.535h2.053v1.243a2.779,2.779,0,0,1,2.323-1.459A4.643,4.643,0,0,1,81.932,301.105Z"/><path d="M90.771,305.283c0,.162,0,.486-.019.81H84.378a2.438,2.438,0,0,0,2.395,1.728,3.435,3.435,0,0,0,2.341-.864l1.08,1.621a5.465,5.465,0,0,1-3.421,1.224,4.486,4.486,0,0,1-4.591-4.483,4.3,4.3,0,1,1,8.589-.036Zm-2.161-.757a2.16,2.16,0,0,0-4.232,0Z"/><path d="M99.842,304.022v5.564h-2v-1.08a3.454,3.454,0,0,1-2.808,1.3,2.885,2.885,0,0,1-3.079-2.863c0-1.638,1.494-2.827,3.349-2.827a4.146,4.146,0,0,1,2.377.613v-.487c0-1.116-1.081-1.476-1.837-1.476a6.933,6.933,0,0,0-2.557.63l-.7-1.783a8.642,8.642,0,0,1,3.367-.774C98.4,300.835,99.842,302.078,99.842,304.022Zm-2.16,2.989v-.882a4.321,4.321,0,0,0-1.945-.432c-.666,0-1.585.288-1.585,1.206,0,.9.883,1.1,1.549,1.1A2.533,2.533,0,0,0,97.682,307.011Z"/><path d="M110.157,309.586h-2V308.47a2.95,2.95,0,0,1-2.575,1.332,4.5,4.5,0,0,1,0-8.967A3.043,3.043,0,0,1,108,301.952v-5.978h2.161ZM108,304.04a2.365,2.365,0,0,0-2.035-1.188,2.47,2.47,0,0,0,0,4.933A2.365,2.365,0,0,0,108,306.6Z"/><path d="M125.672,296.982h2.161v8.031a4.862,4.862,0,0,1-9.723,0v-8.031h2.161v7.761c0,1.8.9,3.007,2.7,3.007,1.783,0,2.7-1.207,2.7-3.007Z"/><path d="M134.562,304.833l-2.754,4.753h-2.431l4.069-6.518-3.817-6.086h2.557l2.575,4.357,2.539-4.357h2.376l-3.817,6.086,4.1,6.518H137.39Z"/><path d="M142.014,312.125l-1.728-.774,7.2-16.169,1.728.774Z"/><path d="M158.432,296.982h2.16v8.031a4.862,4.862,0,0,1-9.722,0v-8.031h2.16v7.761c0,1.8.9,3.007,2.7,3.007,1.783,0,2.7-1.207,2.7-3.007Z"/><path d="M163.505,296.982h2.161v12.6h-2.161Z"/><path d="M179.473,301.105l-.756,1.945a2.483,2.483,0,0,0-1.027-.2A2.256,2.256,0,0,0,175.782,304v5.582h-2.161v-8.535h2.053v1.243A2.779,2.779,0,0,1,178,300.835,4.643,4.643,0,0,1,179.473,301.105Z"/><path d="M188.312,305.283c0,.162,0,.486-.019.81h-6.374a2.438,2.438,0,0,0,2.395,1.728,3.435,3.435,0,0,0,2.341-.864l1.08,1.621a5.465,5.465,0,0,1-3.421,1.224,4.486,4.486,0,0,1-4.591-4.483,4.3,4.3,0,1,1,8.589-.036Zm-2.161-.757a2.16,2.16,0,0,0-4.232,0Z"/><path d="M190.559,306.687a4.011,4.011,0,0,0,2.575,1.225c.882,0,1.62-.253,1.62-.775,0-.558-.4-.666-1.692-.936-1.693-.36-3.169-1.08-3.169-2.7,0-1.332,1.332-2.665,3.673-2.665a5.443,5.443,0,0,1,3.2,1.045l-1.081,1.584a3.962,3.962,0,0,0-2.124-.738c-.81,0-1.548.288-1.548.81s.576.649,2.016.954c1.693.361,2.9.919,2.9,2.683,0,1.459-1.549,2.629-3.727,2.629a5.321,5.321,0,0,1-3.853-1.549Z"/><path d="M206.6,305.283c0,.162,0,.486-.018.81h-6.374a2.436,2.436,0,0,0,2.4,1.728,3.434,3.434,0,0,0,2.34-.864l1.081,1.621A5.469,5.469,0,0,1,202.6,309.8a4.486,4.486,0,0,1-4.591-4.483,4.3,4.3,0,1,1,8.588-.036Zm-2.161-.757a2.159,2.159,0,0,0-4.231,0Z"/><path d="M215.671,304.022v5.564h-2v-1.08a3.455,3.455,0,0,1-2.809,1.3,2.886,2.886,0,0,1-3.079-2.863c0-1.638,1.5-2.827,3.349-2.827a4.143,4.143,0,0,1,2.377.613v-.487c0-1.116-1.08-1.476-1.837-1.476a6.925,6.925,0,0,0-2.556.63l-.7-1.783a8.641,8.641,0,0,1,3.366-.774C214.23,300.835,215.671,302.078,215.671,304.022Zm-2.161,2.989v-.882a4.315,4.315,0,0,0-1.945-.432c-.666,0-1.584.288-1.584,1.206,0,.9.882,1.1,1.548,1.1A2.531,2.531,0,0,0,213.51,307.011Z"/><path d="M223.68,301.105l-.756,1.945a2.483,2.483,0,0,0-1.027-.2A2.256,2.256,0,0,0,219.989,304v5.582h-2.161v-8.535h2.053v1.243a2.779,2.779,0,0,1,2.323-1.459A4.643,4.643,0,0,1,223.68,301.105Z"/><path d="M230.628,306.741l1.422,1.441a4.619,4.619,0,0,1-3.529,1.62,4.485,4.485,0,1,1,0-8.967,4.574,4.574,0,0,1,3.493,1.585l-1.494,1.332a2.653,2.653,0,0,0-2-.9,2.468,2.468,0,0,0,0,4.933A2.522,2.522,0,0,0,230.628,306.741Z"/><path d="M241.411,304.058v5.528H239.25V304.6a1.575,1.575,0,0,0-1.692-1.747,2.109,2.109,0,0,0-1.693,1.116v5.618h-2.16V295.974h2.16v6.1a2.9,2.9,0,0,1,2.413-1.243A3.058,3.058,0,0,1,241.411,304.058Z"/><path d="M249.526,306.687a4.011,4.011,0,0,0,2.575,1.225c.882,0,1.62-.253,1.62-.775,0-.558-.4-.666-1.693-.936-1.692-.36-3.169-1.08-3.169-2.7,0-1.332,1.333-2.665,3.674-2.665a5.447,5.447,0,0,1,3.205,1.045l-1.081,1.584a3.962,3.962,0,0,0-2.124-.738c-.81,0-1.549.288-1.549.81s.577.649,2.017.954c1.692.361,2.9.919,2.9,2.683,0,1.459-1.549,2.629-3.727,2.629a5.324,5.324,0,0,1-3.854-1.549Z"/><path d="M256.87,301.051h1.674v-2.538h2.161v2.538h2.575V303h-2.575v3.439c0,1.044.54,1.35,1.116,1.35a1.711,1.711,0,0,0,.9-.306l.792,1.765a3.888,3.888,0,0,1-2.053.558,2.857,2.857,0,0,1-2.917-3.025V303H256.87Z"/><path d="M265.041,306.579v-5.528H267.2v4.934c0,1.26.594,1.8,1.693,1.8a2.1,2.1,0,0,0,1.692-1.044v-5.69h2.161v8.535h-2.017v-1.242a3.077,3.077,0,0,1-5.69-1.765Z"/><path d="M283.062,309.586h-2V308.47a2.95,2.95,0,0,1-2.574,1.332,4.5,4.5,0,0,1,0-8.967,3.042,3.042,0,0,1,2.412,1.117v-5.978h2.161ZM280.9,304.04a2.364,2.364,0,0,0-2.034-1.188,2.47,2.47,0,0,0,0,4.933A2.364,2.364,0,0,0,280.9,306.6Z"/><path d="M285.759,311.369a2.026,2.026,0,0,0,1.135.558c.738,0,1.044-.217,1.458-1.261l.341-.882-4.158-8.733h2.395l2.881,6.248,2.25-6.248h2.323L290.242,311.5a3.3,3.3,0,0,1-3.205,2.448,3.78,3.78,0,0,1-2.286-.9Z"/><g id="f6f11a15-0938-4041-a687-c0b0e4161460" data-name="Group-2"><g id="bc38f51c-40c8-4d83-ba6a-96835723b067" data-name="Logo-Mark"><path id="f187d5d5-a395-4e59-9aec-317d2010cd99" data-name="Combined-Shape" class="f730177f-b996-4f8e-9114-b444cce32f7a" d="M376.8,630.2q3.231.309,6.637.312l43.443.2.125-38.17a94.951,94.951,0,0,0-1.389-16.853c-4.531-34.5-45.543-57.507-83-28.954C312.652,586.1,339.494,629.373,376.8,630.2Z"/></g></g><g id="bd25a071-2ed6-4f3a-9c48-418a6702d2e2" data-name="Group-2"><g id="a6eb5548-4f60-4b30-9b3c-d65077ef9dbe" data-name="Logo-Mark"><path id="e0df94a5-66f9-4d2e-9a6c-a4b77744ebaf" data-name="Combined-Shape" class="b14513cf-4a9b-4e7f-a94c-d644cdee5255" d="M376.8,361.514q3.231-.31,6.637-.312l43.443-.2L427,399.17a94.931,94.931,0,0,1-1.389,16.852c-4.531,34.5-45.543,57.508-83,28.955C312.652,405.616,339.494,362.337,376.8,361.514Z"/></g></g><g id="ed5e3ee5-7394-4913-ba18-d7256f29ae50" data-name="Logo-Mark"><path id="a212fcfb-fb06-4873-8cbd-7183b9f56483" data-name="Combined-Shape" class="a825153c-66c4-40a1-be7f-d6c2a0516d49" d="M303.18,496.293a48.123,48.123,0,0,1-47.126,51.147c-12.633.236-91.342,1.809-146.822-57.6l.032-.007-.313-.1c61.385-53.284,139.5-43.493,152.038-41.937a48.122,48.122,0,0,1,42.191,48.5Z"/></g></svg>