<svg id="Layer_6" data-name="Layer 6" xmlns="http://www.w3.org/2000/svg" viewBox="0 0 570 730"><defs><style>.cls-1{font-size:24px;}.cls-1,.cls-9{font-family:Europa-Bold;font-weight:700;}.cls-12,.cls-2{font-size:21px;}.cls-2{font-family:Europa-Regular;}.cls-3{letter-spacing:-0.01em;}.cls-4{letter-spacing:-0.02em;}.cls-5{letter-spacing:-0.01em;}.cls-6{letter-spacing:0em;}.cls-7{letter-spacing:-0.01em;}.cls-8{letter-spacing:-0.01em;}.cls-9{font-size:18px;}.cls-10{letter-spacing:-0.02em;}.cls-11{letter-spacing:0em;}.cls-13{fill:#00354c;}.cls-13,.cls-14,.cls-15,.cls-16,.cls-17{fill-rule:evenodd;}.cls-14{fill:#00aa9d;}.cls-15{fill:#1b70b3;}.cls-16{fill:#35ac46;}.cls-17{fill:#00364c;}</style></defs><text class="cls-1" transform="translate(100 154.64)">Behalf</text><text class="cls-2" transform="translate(100 214.94)">a fintech plat<tspan class="cls-3" x="120.41" y="0">f</tspan><tspan x="127.36" y="0">orm that p</tspan><tspan class="cls-4" x="223.4" y="0">r</tspan><tspan class="cls-5" x="230.2" y="0">o</tspan><tspan class="cls-6" x="241.25" y="0">vides c</tspan><tspan class="cls-4" x="304.64" y="0">r</tspan><tspan x="311.45" y="0">edit </tspan><tspan x="0" y="25.2">to manu</tspan><tspan class="cls-7" x="74.09" y="25.2">f</tspan><tspan x="81.12" y="25.2">actoring &amp; capital-intensi</tspan><tspan class="cls-8" x="311.17" y="25.2">v</tspan><tspan x="320.83" y="25.2">e </tspan><tspan x="0" y="50.4">businesses. I led UX/UI </tspan><tspan class="cls-4" x="218.25" y="50.4">r</tspan><tspan x="225.05" y="50.4">esea</tspan><tspan class="cls-4" x="267.2" y="50.4">r</tspan><tspan x="274" y="50.4">ch. </tspan><tspan class="cls-9"><tspan class="cls-10" x="0" y="100.8">r</tspan><tspan x="6.68" y="100.8">ead UX/UI </tspan><tspan class="cls-10" x="97.54" y="100.8">r</tspan><tspan x="104.22" y="100.8">esea</tspan><tspan class="cls-10" x="141.75" y="100.8">r</tspan><tspan class="cls-11" x="148.43" y="100.8">ch study</tspan><tspan class="cls-12" x="219.42" y="100.8"> </tspan></tspan></text><g id="Direction-A"><g id="Behalf_Rebrand_logo_darkblue" data-name="Behalf Rebrand logo darkblue"><g id="Group-2"><g id="Logo-Mark"><path id="Combined-Shape" class="cls-13" d="M275,552.74a11.37,11.37,0,0,1,1.18-.06l7.73,0,0,6.79a16.28,16.28,0,0,1-.25,3,8.56,8.56,0,1,1-8.68-9.69Z"/><path id="Fill-1" class="cls-14" d="M276,548.8h9.81l.24-71.24-9.78,0a13,13,0,0,1-11.24-5.7V554.5a13.14,13.14,0,0,1,11-5.7"/><path id="Fill-8" class="cls-15" d="M327.64,537.06a15.09,15.09,0,0,1-2.3,8.24c-2.58,4.16-6,6.75-14.85,6.75H287.94l0,9a12.27,12.27,0,0,1-4,9.18H311.2c19.9,0,34.35-13.89,34.35-33a32.69,32.69,0,0,0-9.54-23.7,35.81,35.81,0,0,1-16.41,10.29,15,15,0,0,1,8,13.28"/><path id="Fill-15" class="cls-16" d="M288.23,466.64l0,8.85,15.39.07c3.26,0,6,.1,7.67.29a13.51,13.51,0,0,1,11.21,13.4,13.66,13.66,0,0,1-2.09,7.52,11.88,11.88,0,0,1-4,4.16,37.33,37.33,0,0,1,20.17,8.58,34,34,0,0,0,6.3-20.14c0-19.92-15-34.37-35.59-34.37h-24c2.63,1.88,5,5.33,5,11.64"/><path id="Combined-Shape-2" data-name="Combined-Shape" class="cls-13" d="M275,473.24c.38,0,.78.05,1.18.05l7.73,0,0-6.79a16.39,16.39,0,0,0-.25-3,8.56,8.56,0,1,0-8.68,9.7Z"/><path id="Combined-Shape-3" data-name="Combined-Shape" class="cls-17" d="M298.2,512.62a8.57,8.57,0,0,0,8.39,9.1c2.24,0,16.24.32,26.11-10.25h0l.05,0c-10.92-9.48-24.81-7.73-27-7.46a8.57,8.57,0,0,0-7.51,8.63Z"/></g></g></g></g></svg>