<svg id="Behalf" xmlns="http://www.w3.org/2000/svg" viewBox="0 0 570 730"><defs><style>.cls-1{font-size:24px;}.cls-1,.cls-7{font-family:Europa-Bold;font-weight:700;}.cls-10,.cls-2{font-size:21px;}.cls-2{font-family:Europa-Regular;}.cls-3{letter-spacing:-0.01em;}.cls-4{letter-spacing:-0.02em;}.cls-5{letter-spacing:-0.01em;}.cls-6{letter-spacing:-0.01em;}.cls-7{font-size:18px;}.cls-8{letter-spacing:-0.02em;}.cls-9{letter-spacing:0em;}.cls-11{fill:#00354c;}.cls-11,.cls-12,.cls-13,.cls-14,.cls-15{fill-rule:evenodd;}.cls-12{fill:#00aa9d;}.cls-13{fill:#1b70b3;}.cls-14{fill:#35ac46;}.cls-15{fill:#00364c;}</style></defs><text class="cls-1" transform="translate(63 129.64)">Behalf</text><text class="cls-2" transform="translate(63 183.94)">a fintech plat<tspan class="cls-3" x="120.41" y="0">f</tspan><tspan x="127.36" y="0">orm that p</tspan><tspan class="cls-4" x="223.4" y="0">r</tspan><tspan class="cls-5" x="230.2" y="0">o</tspan><tspan x="241.25" y="0">vides </tspan><tspan x="0" y="25.2">c</tspan><tspan class="cls-4" x="10.02" y="25.2">r</tspan><tspan x="16.82" y="25.2">edit lines to manu</tspan><tspan class="cls-6" x="180.28" y="25.2">f</tspan><tspan x="187.32" y="25.2">acturing &amp; </tspan><tspan x="0" y="50.4">capital-intensi</tspan><tspan class="cls-5" x="128.77" y="50.4">v</tspan><tspan x="138.43" y="50.4">e businesses. </tspan><tspan class="cls-7"><tspan class="cls-8" x="0" y="100.8">r</tspan><tspan x="6.68" y="100.8">ead UX/UI </tspan><tspan class="cls-8" x="97.54" y="100.8">r</tspan><tspan x="104.22" y="100.8">esea</tspan><tspan class="cls-8" x="141.75" y="100.8">r</tspan><tspan class="cls-9" x="148.43" y="100.8">ch study</tspan><tspan class="cls-10" x="219.42" y="100.8"> </tspan></tspan></text><g id="Direction-A"><g id="Behalf_Rebrand_logo_darkblue" data-name="Behalf Rebrand logo darkblue"><g id="Group-2"><g id="Logo-Mark"><path id="Combined-Shape" class="cls-11" d="M319.88,603.65a15,15,0,0,1,1.52-.07l10-.05,0,8.77a22.11,22.11,0,0,1-.32,3.87,11.06,11.06,0,1,1-11.21-12.52Z"/><path id="Fill-1" class="cls-12" d="M321.2,598.56h12.68l.31-92-12.64-.05c-6.37,0-11.59-2.84-14.51-7.36V605.93a16.94,16.94,0,0,1,14.16-7.37"/><path id="Fill-8" class="cls-13" d="M387.87,583.41a19.42,19.42,0,0,1-3,10.63c-3.34,5.37-7.73,8.72-19.19,8.72h-29.1l0,11.6a15.9,15.9,0,0,1-5.19,11.85h35.25c25.71,0,44.36-17.93,44.36-42.65,0-12-4.36-22.77-12.31-30.59a46.34,46.34,0,0,1-21.19,13.29,19.33,19.33,0,0,1,10.37,17.15"/><path id="Fill-15" class="cls-14" d="M337,492.47l0,11.42,19.88.09c4.2,0,7.69.14,9.9.38a17.45,17.45,0,0,1,14.48,17.3,17.67,17.67,0,0,1-2.7,9.72,15.42,15.42,0,0,1-5.15,5.37,48.21,48.21,0,0,1,26,11.08,43.9,43.9,0,0,0,8.13-26c0-25.72-19.33-44.38-45.95-44.38h-31c3.4,2.43,6.4,6.88,6.4,15"/><path id="Combined-Shape-2" data-name="Combined-Shape" class="cls-11" d="M319.88,501a15,15,0,0,0,1.52.07l10,.05,0-8.77a22,22,0,0,0-.32-3.87A11.06,11.06,0,1,0,319.88,501Z"/><path id="Combined-Shape-3" data-name="Combined-Shape" class="cls-15" d="M349.87,551.84a11.05,11.05,0,0,0,10.82,11.75c2.9,0,21,.41,33.72-13.23h0l.08,0c-14.1-12.23-32-10-34.92-9.63a11.06,11.06,0,0,0-9.69,11.14Z"/></g></g></g></g></svg>