<svg id="Layer_1" data-name="Layer 1" xmlns="http://www.w3.org/2000/svg" xmlns:xlink="http://www.w3.org/1999/xlink" viewBox="0 0 360 420"><defs><style>.cls-1{fill:url(#linear-gradient);}.cls-2{fill:url(#linear-gradient-2);}.cls-3{fill:url(#linear-gradient-3);}.cls-4{fill:url(#linear-gradient-4);}.cls-5{fill:#dce9ed;}.cls-6{fill:url(#linear-gradient-5);}.cls-7{fill:url(#linear-gradient-6);}.cls-8{fill:url(#linear-gradient-7);}.cls-9{fill:url(#linear-gradient-8);}.cls-10{fill:url(#linear-gradient-9);}.cls-11{fill:none;stroke:#a5b3b8;stroke-linecap:round;stroke-miterlimit:10;stroke-width:2px;}.cls-12{fill:#8c9596;}</style><linearGradient id="linear-gradient" x1="185.27" y1="247.84" x2="181.28" y2="382.18" gradientUnits="userSpaceOnUse"><stop offset="0.23" stop-color="#ecfafe"/><stop offset="0.98" stop-color="#eafafe"/></linearGradient><linearGradient id="linear-gradient-2" x1="240.22" y1="319.37" x2="238.97" y2="247.61" gradientUnits="userSpaceOnUse"><stop offset="0" stop-color="#ecfbff"/><stop offset="0.8" stop-color="#edfbff"/></linearGradient><linearGradient id="linear-gradient-3" x1="-1238.19" y1="376.03" x2="-1229.17" y2="336.95" gradientTransform="matrix(-1, 0, 0, 1, -1084, 0)" xlink:href="#linear-gradient"/><linearGradient id="linear-gradient-4" x1="-1748.09" y1="375.55" x2="-1748.77" y2="336.71" gradientTransform="translate(1958.36)" xlink:href="#linear-gradient"/><linearGradient id="linear-gradient-5" x1="181.29" y1="352.95" x2="181.29" y2="342.95" gradientUnits="userSpaceOnUse"><stop offset="0" stop-color="#e3f1f5"/><stop offset="1" stop-color="#e8f6fa"/></linearGradient><linearGradient id="linear-gradient-6" x1="-130.05" y1="1063.31" x2="-129.91" y2="1063.31" gradientTransform="matrix(0.82, 0.57, 0.48, -0.52, -236.88, 928.57)" gradientUnits="userSpaceOnUse"><stop offset="0" stop-color="#e9f7fb"/><stop offset="0.74" stop-color="#e0eef2"/><stop offset="0.94" stop-color="#ddeaee"/></linearGradient><linearGradient id="linear-gradient-7" x1="620.21" y1="321.12" x2="621.45" y2="249.61" gradientTransform="matrix(-1, 0, 0, 1, 746.36, 0)" gradientUnits="userSpaceOnUse"><stop offset="0" stop-color="#ecfbff"/><stop offset="1" stop-color="#edfbff"/></linearGradient><linearGradient id="linear-gradient-8" x1="137.66" y1="163.88" x2="139.38" y2="163.88" gradientTransform="translate(1.74 -1.45) rotate(0.61)" gradientUnits="userSpaceOnUse"><stop offset="0.01" stop-color="#dbe9ed"/><stop offset="0.14" stop-color="#e2eff4"/><stop offset="0.76" stop-color="#e5f3f7"/><stop offset="1" stop-color="#e8f6fa"/></linearGradient><linearGradient id="linear-gradient-9" x1="220.57" y1="222.92" x2="221.9" y2="47.66" gradientTransform="matrix(0.94, 0, 0, 0.93, -31.78, 13.09)" gradientUnits="userSpaceOnUse"><stop offset="0.01" stop-color="#e9f8fd"/><stop offset="0.47" stop-color="#eaf8fd"/><stop offset="0.85" stop-color="#ecfafe"/><stop offset="1" stop-color="#edfafe"/></linearGradient></defs><path id="belly_only_-_no_armpit_shadow" data-name="belly only - no armpit shadow" class="cls-1" d="M143.25,222.16a33.6,33.6,0,0,1,10.94-6.44A88.77,88.77,0,0,1,196.82,210c8.8,1,18,3.63,23.79,10.3,3.39,3.88,5.33,8.79,7,13.66a193.31,193.31,0,0,1,10.53,62.37c0,7.28-.45,14.75-2.79,21.7a31.29,31.29,0,0,1-4.75,9.31c-1.95,2.5-3.15,5.32-5.11,7.84-.63.8-1.31,1.58-2,2.32s-1.47,1.44-2.25,2.12-1.6,1.31-2.44,1.91-1.71,1.17-2.59,1.7-1.8,1-2.71,1.48-1.85.87-2.79,1.26-1.9.75-2.86,1.09-1.93.65-2.91.93-2,.56-3,.81-2,.47-3,.69-2,.42-3,.61l-3,.54-3,.5c-.66.1-1.34.2-2,.28s-1.39.15-2.1.2-1.42.09-2.14.12-1.43,0-2.16,0-1.44,0-2.16,0-1.43-.07-2.13-.12-1.41-.12-2.1-.2-1.37-.18-2-.28l-3-.5-3-.54c-1-.19-2-.4-3-.61s-2-.45-3-.69-2-.52-3-.81-1.95-.59-2.91-.93-1.91-.7-2.86-1.09-1.87-.81-2.79-1.26-1.82-.95-2.71-1.48-1.75-1.1-2.59-1.7-1.66-1.24-2.44-1.91c-11.53-9.89-12.32-26-12.26-40.18.08-19.64,2.19-38.52,4.69-57.94C135.07,234.24,137.93,227.26,143.25,222.16Z"/><path class="cls-2" d="M223.85,221.92c3.9,4.94,7.62,10,11.1,15.28,11.94,18,22.08,38.73,18.78,61a141,141,0,0,1-5.5,22.75c-2,6.1-4.35,20.71-13.19,20.42-1.94-.07-3.94-1.73-3.67-3.66.17-1.23,1.11-2.67.21-3.53-.53.06-4.41,3.14-4.59,1.45a7.36,7.36,0,0,1,1.13-4.7"/><path class="cls-3" d="M133.44,410.2c-1.53-8-.8-8.14-.9-16.25-.21-16.57,3.36-33.07,3.66-49.63.23-12.39-6.39-25.15-3-37.07-.11,1.6-.82,3.48-.46,5a19.4,19.4,0,0,1,.14,3.66c0,.91.08,1.85.13,2.81s.13,1.95.22,2.94.22,2,.38,3,.35,2,.6,2.94a22.43,22.43,0,0,0,.9,2.81,17.22,17.22,0,0,0,1.26,2.59,13.86,13.86,0,0,0,1.7,2.27,12.48,12.48,0,0,0,2.2,1.88c.85.56,1.72,1.08,2.61,1.57s1.78.95,2.7,1.37,1.85.82,2.79,1.19,1.9.71,2.86,1,1.94.62,2.92.9,2,.54,3,.79,2,.49,3,.71,2,.45,3,.66c2.21.46,4.42.91,6.64,1.33s4.45.81,6.69,1.16c-2.37,13.59-5.71,27.68-6.5,41.45-.61,10.72,1.36,10.57-4.88,20-.66,1-2.19,1.43-3.28,1.88a6.16,6.16,0,0,1-3.46.46,3.76,3.76,0,0,1-2.74-2,8.09,8.09,0,0,1-5.38,2.35,7.22,7.22,0,0,1-5.21-1.93,22.81,22.81,0,0,1-6,1.68A6.81,6.81,0,0,1,133.44,410.2Z"/><path class="cls-4" d="M230.31,408.63c1.53-8,.8-8.14.9-16.25.21-16.57-3.36-33.07-3.67-49.63-.22-12.39,6.4-25.16,3.05-37.07.1,1.59.82,3.48.46,5a18.6,18.6,0,0,0-.14,3.66c0,.9-.08,1.84-.13,2.81s-.13,1.95-.22,2.94-.22,2-.38,3-.35,2-.6,2.95a24.2,24.2,0,0,1-.9,2.81,17.61,17.61,0,0,1-1.26,2.58,14.08,14.08,0,0,1-1.7,2.28,12.56,12.56,0,0,1-2.21,1.87c-.84.56-1.71,1.09-2.6,1.58s-1.79.94-2.7,1.37-1.85.82-2.79,1.19-1.9.71-2.87,1-1.93.62-2.91.9-2,.55-3,.8-2,.48-3,.71-2,.44-3,.65c-2.21.47-4.42.92-6.65,1.34s-4.45.8-6.68,1.15c2.37,13.59,5.71,27.69,6.49,41.46.61,10.72-1.35,10.56,4.89,20.05.66,1,2.19,1.43,3.28,1.88a6.16,6.16,0,0,0,3.46.46,3.77,3.77,0,0,0,2.74-2,8,8,0,0,0,5.37,2.35,7.26,7.26,0,0,0,5.22-1.92,22.81,22.81,0,0,0,6,1.68A6.81,6.81,0,0,0,230.31,408.63Z"/><path id="right_shadow_-_armpit" data-name="right shadow - armpit" class="cls-5" d="M229.13,329.91c.25-2.28,1.29-4.37,1.45-6.76.21-3,.32-6,.36-9.08.08-6.05-.13-12.11-.43-18.16A129.14,129.14,0,0,0,228.63,277a64.45,64.45,0,0,0-7.47-19.74,49.15,49.15,0,0,0,1.64,8.89c.35,1.51.7,3,1.07,4.52s.73,3,1.1,4.5.73,3,1.09,4.5.71,3,1,4.55.65,3.06.94,4.61c.34,1.8.64,3.56.9,5.3s.47,3.45.64,5.15.32,3.38.42,5.06.16,3.34.2,5,0,3.34,0,5-.1,3.37-.19,5.08-.21,3.42-.36,5.17S229.32,328.1,229.13,329.91Z"/><path id="bottom_shadow_-_on_belly" data-name="bottom shadow - on belly" class="cls-6" d="M151.55,346.35c.85.42,1.72.82,2.6,1.18s1.77.7,2.67,1,1.81.6,2.72.87,1.84.52,2.76.75,1.86.44,2.8.65,1.87.38,2.81.56l2.83.51,2.83.46c.62.1,1.26.19,1.9.27s1.3.13,2,.18,1.32.09,2,.12,1.35,0,2,0,1.35,0,2,0,1.33-.07,2-.12,1.32-.11,2-.18,1.28-.17,1.9-.27l2.83-.46q1.41-.24,2.82-.51c.95-.18,1.89-.36,2.82-.56s1.87-.42,2.8-.65,1.84-.48,2.76-.75,1.82-.56,2.72-.87,1.79-.65,2.67-1,1.74-.76,2.6-1.18c.71-.35.7-2.37.77-3.16a1.14,1.14,0,0,0-.77.12c-.86.42-1.72.81-2.6,1.18s-1.77.7-2.67,1-1.81.6-2.72.87-1.84.52-2.76.75-1.86.44-2.8.64-1.87.39-2.82.57l-2.82.51-2.83.46c-.62.1-1.26.19-1.9.26s-1.3.14-2,.19-1.32.09-2,.11-1.35,0-2,0-1.35,0-2,0-1.33-.06-2-.11-1.32-.11-2-.19-1.28-.16-1.9-.26l-2.83-.46-2.83-.51c-.94-.18-1.88-.37-2.81-.57s-1.87-.41-2.8-.64-1.84-.48-2.76-.75-1.82-.56-2.72-.87-1.79-.66-2.67-1-1.75-.76-2.6-1.18c0-.3-.71-.48-.91-.28a5.54,5.54,0,0,0,0,2.4,2.8,2.8,0,0,0,.61.63C151.42,346.25,151.48,346.06,151.55,346.35Z"/><path class="cls-7" d="M168.18,298.24l-.49.32"/><path class="cls-8" d="M140.3,223.47c-3.9,4.93-7.62,10-11.1,15.27-11.95,18-22.08,38.74-18.78,61a141,141,0,0,0,5.5,22.75c2,6.1,4.35,20.71,13.18,20.42,2-.07,3.94-1.73,3.68-3.66-.17-1.23-1.11-2.67-.21-3.53.52.05,4.41,3.14,4.59,1.45a7.34,7.34,0,0,0-1.13-4.7"/><path id="right_shadow_-_armpit-2" data-name="right shadow - armpit" class="cls-5" d="M135,331.46c-.25-2.29-1.29-4.38-1.45-6.76-.21-3-.32-6.05-.36-9.08-.08-6.06.13-12.11.43-18.16a129,129,0,0,1,1.87-18.94A64.47,64.47,0,0,1,143,258.78a50,50,0,0,1-1.64,8.89c-.35,1.51-.7,3-1.07,4.52s-.73,3-1.1,4.5-.73,3-1.09,4.5-.71,3-1,4.54-.65,3.06-1,4.62c-.34,1.79-.63,3.56-.89,5.3s-.47,3.45-.65,5.15-.31,3.38-.41,5.06-.17,3.34-.2,5,0,3.33,0,5,.09,3.37.19,5.07.21,3.43.35,5.18S134.82,329.65,135,331.46Z"/><ellipse class="cls-9" cx="138.52" cy="163.88" rx="0.86" ry="2.01" transform="translate(-1.72 1.47) rotate(-0.61)"/><path class="cls-10" d="M113.05,220.31c-30.49-10.59-44.29-43.95-48.95-75.05A105.36,105.36,0,0,1,169.11,24c27.13.27,55.72,2.23,78.28,17.4,26.32,17.71,39.48,50.32,41.8,82,1.75,23.73-5,47-15.86,68.08C259.75,217.85,227,227.37,198,229.84S140.55,229.86,113.05,220.31Z"/><path class="cls-11" d="M168.9,195.48A29.56,29.56,0,0,0,193,195"/><path class="cls-12" d="M216.91,164.19a14.67,14.67,0,0,1,5.6,1.24c.37.19.74.45.77.78s-.36.61-.78.66a3.93,3.93,0,0,1-1.31-.16,32.47,32.47,0,0,0-14.18,0,2.47,2.47,0,0,1-1.52,0c-2.17-.92,3.28-2.33,3.84-2.43A32,32,0,0,1,216.91,164.19Z"/><path class="cls-12" d="M147.09,164.38a14.67,14.67,0,0,0-5.6,1.24c-.37.19-.74.45-.77.78s.36.6.78.65a3.92,3.92,0,0,0,1.31-.15,32.62,32.62,0,0,1,14.18-.05,2.4,2.4,0,0,0,1.52,0c2.17-.92-3.28-2.34-3.84-2.43A31.47,31.47,0,0,0,147.09,164.38Z"/></svg>