<svg id="a674919c-533b-49ce-9ceb-f1e07504b4f8" data-name="pashi" xmlns="http://www.w3.org/2000/svg" viewBox="0 0 570 730"><defs><style>.a135c04d-6cb6-42a7-8a58-8859f2964dc4{fill:#45b549;}.f3dd1290-d6fc-4c0d-9228-4209c6fe7bd9{fill:#009549;}</style></defs><path class="a135c04d-6cb6-42a7-8a58-8859f2964dc4" d="M433.88286,464.70594c34.04259-3.49791,45.10525-23.61957,45.14137-23.61957a2.26821,2.26821,0,0,1,2.95494-.87079,2.08123,2.08123,0,0,1,1.10177,1.27572c11.31547,35.85675,5.14012,60.57852-7.84856,75.24516a48.74162,48.74162,0,0,1-18.76676,13.0807,49.69331,49.69331,0,0,1-21.30675,3.37421c-13.95164-.911-26.68757-7.87316-32.59806-20.34652a32.1652,32.1652,0,0,1-2.901-10.044,32.61434,32.61434,0,0,1,4.165-20.1328,34.95462,34.95462,0,0,1,17.17778-14.75658,45.6834,45.6834,0,0,1,12.88029-3.20554Z"/><path class="f3dd1290-d6fc-4c0d-9228-4209c6fe7bd9" d="M478.78352,441.84a2.19569,2.19569,0,0,1,4.38016.10035,1.90552,1.90552,0,0,1-.02282.24829c0,.10125-1.914,23.61956-26.48293,47.419l-.22873.22495a125.98235,125.98235,0,0,1-18.9112,14.914l14.75822,2.56444a2.04425,2.04425,0,0,1,1.616,2.46989,2.18349,2.18349,0,0,1-2.35036,1.55664l-19.26036-3.37421c-17.563,10.39263-47.3322,19.98665-49.93233,42.6277a2.16885,2.16885,0,0,1-2.46289,1.75654,2.08793,2.08793,0,0,1-1.89474-2.16146c3.10571-27.14,32.62214-34.1246,52.53246-45.99061l.2769-.16875a125.43616,125.43616,0,0,0,21.94472-16.43247l-1.74546-16.14a2.07712,2.07712,0,0,1,1.87994-2.30121,2.16893,2.16893,0,0,1,2.463,1.75661c.00662.04639.01175.09307.01472.13976l1.32412,12.52956C477.15841,462.09652,478.77148,441.93,478.78352,441.84Z"/><path d="M64.77637,133.84277h5.7124a5.37977,5.37977,0,1,1,0,10.75293H67.65625V150.644H64.77637Zm8.35254,5.37647c0-1.58447-1.03223-2.64063-3.00049-2.64063H67.65625v5.28077h2.47217C72.09668,141.85938,73.12891,140.80322,73.12891,139.21924Z"/><path d="M88.00879,143.22754v7.4165H85.34473V149.2041a4.60584,4.60584,0,0,1-3.74414,1.728,3.847,3.847,0,0,1-4.1045-3.81641c0-2.18408,1.99219-3.76806,4.46436-3.76806a5.529,5.529,0,0,1,3.16846.81591v-.64795c0-1.48828-1.44043-1.96826-2.44825-1.96826a9.23443,9.23443,0,0,0-3.4082.83985l-.93652-2.376a11.52187,11.52187,0,0,1,4.48877-1.03223C86.08887,138.979,88.00879,140.63525,88.00879,143.22754Zm-2.87988,3.98437v-1.17627a5.75182,5.75182,0,0,0-2.59229-.57617c-.88818,0-2.1123.38428-2.1123,1.6084,0,1.2002,1.17627,1.46387,2.064,1.46387A3.37412,3.37412,0,0,0,85.12891,147.21191Z"/><path d="M91.77588,146.77979a5.35,5.35,0,0,0,3.43213,1.63183c1.17627,0,2.16064-.33594,2.16064-1.03174,0-.74414-.52832-.88818-2.25635-1.248-2.25634-.48047-4.2246-1.44043-4.2246-3.60059,0-1.77588,1.77636-3.55225,4.89648-3.55225a7.2609,7.2609,0,0,1,4.27246,1.39209L98.6167,142.4834a5.28387,5.28387,0,0,0-2.83252-.98438c-1.08008,0-2.064.38428-2.064,1.08008,0,.69629.76807.86426,2.688,1.27246,2.25635.48,3.86426,1.22412,3.86426,3.57617,0,1.94434-2.064,3.5044-4.96826,3.5044a7.09373,7.09373,0,0,1-5.13623-2.06445Z"/><path d="M113.08838,143.27539V150.644H110.2085v-6.64843a2.09973,2.09973,0,0,0-2.25635-2.32813,2.81119,2.81119,0,0,0-2.25635,1.48779V150.644h-2.87988v-18.1455h2.87988v8.13671a3.86131,3.86131,0,0,1,3.21631-1.65625A4.076,4.076,0,0,1,113.08838,143.27539Z"/><path d="M117.86377,133.69873a1.896,1.896,0,1,1-1.89648,1.896A1.88457,1.88457,0,0,1,117.86377,133.69873Zm-1.44043,5.56836h2.88037V150.644h-2.88037Z"/><path d="M72.40625,198.55908v6.38281h-1.6167v-1.40673a4.09971,4.09971,0,0,1-3.29639,1.65869,3.45138,3.45138,0,0,1-3.61132-3.31739c0-1.88964,1.65869-3.23339,3.84228-3.23339a5.42962,5.42962,0,0,1,2.91846.79785v-.5249a2.21048,2.21048,0,0,0-2.45654-2.28858,6.718,6.718,0,0,0-2.89747.81885l-.73486-1.46973a7.22706,7.22706,0,0,1,3.63233-.98681C71.0415,194.98975,72.40625,196.75342,72.40625,198.55908Zm-1.76367,3.61133v-1.36475a4.647,4.647,0,0,0-2.54053-.69287c-1.51172,0-2.45654.75586-2.45654,1.76367,0,1.25977,1.13379,1.76368,2.22558,1.76368A3.7243,3.7243,0,0,0,70.64258,202.17041Z"/><path d="M89.269,203.3252a5.23114,5.23114,0,0,1-3.96826,1.86865,5.10315,5.10315,0,0,1,0-10.2041,5.1989,5.1989,0,0,1,3.86328,1.74267l-1.19677,1.0708a3.5848,3.5848,0,0,0-2.66651-1.17578,3.4726,3.4726,0,0,0,0,6.92871,3.55994,3.55994,0,0,0,2.83447-1.38574Z"/><path d="M100.31445,200.0918a4.99815,4.99815,0,1,1-4.99707-5.10205A4.96718,4.96718,0,0,1,100.31445,200.0918Zm-1.76367,0a3.2411,3.2411,0,1,0-3.2334,3.46435A3.25269,3.25269,0,0,0,98.55078,200.0918Z"/><path d="M111.6543,200.0918a4.99815,4.99815,0,1,1-4.99707-5.10205A4.96718,4.96718,0,0,1,111.6543,200.0918Zm-1.76368,0a3.24109,3.24109,0,1,0-3.23339,3.46435A3.25269,3.25269,0,0,0,109.89062,200.0918Z"/><path d="M115.81348,200.23877v4.70312H114.0498v-15.873h1.76368v10.477l4.15722-4.3042h2.30957l-4.53515,4.57715,4.91308,5.123h-2.45654Z"/><path d="M132.61182,200.15479a5.50656,5.50656,0,0,1-.021.56689h-7.83154a3.27166,3.27166,0,0,0,3.33838,2.83447,3.746,3.746,0,0,0,2.91845-1.42773l1.1128,1.15478a5.407,5.407,0,0,1-4.03125,1.91065,4.95618,4.95618,0,0,1-5.06006-5.102,4.82308,4.82308,0,0,1,4.8501-5.10205C130.59619,194.98975,132.61182,197.02637,132.61182,200.15479Zm-1.72168-.90284a2.92048,2.92048,0,0,0-3.00244-2.62451,3.00815,3.00815,0,0,0-3.08643,2.62451Z"/><path d="M141.78906,196.43848v-7.36963h1.76367v15.873H141.936v-1.40673a3.77635,3.77635,0,0,1-3.2754,1.65869,5.119,5.119,0,0,1,0-10.2041A3.85388,3.85388,0,0,1,141.78906,196.43848Zm0,1.86865a3.44535,3.44535,0,0,0-2.85547-1.67969,3.47424,3.47424,0,0,0,0,6.92871,3.44535,3.44535,0,0,0,2.85547-1.67969Z"/><path d="M166.106,198.70605v6.23584h-1.76367V198.979c0-1.5747-.81885-2.35156-2.07862-2.35156a2.49791,2.49791,0,0,0-2.07861,1.55371v6.76074h-1.76367V198.979c0-1.5747-.81885-2.35156-2.07862-2.35156a2.53617,2.53617,0,0,0-2.07861,1.55371v6.76074h-1.76367V195.2417h1.63769v1.42773a2.962,2.962,0,0,1,2.6875-1.67968,3.02205,3.02205,0,0,1,3.02344,1.80566,3.20478,3.20478,0,0,1,2.89746-1.80566C164.76221,194.98975,166.106,196.3125,166.106,198.70605Z"/><path d="M177.69873,200.15479a5.50656,5.50656,0,0,1-.021.56689h-7.83154a3.27166,3.27166,0,0,0,3.33838,2.83447,3.74608,3.74608,0,0,0,2.91846-1.42773l1.11279,1.15478a5.407,5.407,0,0,1-4.03125,1.91065,4.95619,4.95619,0,0,1-5.06006-5.102,4.82308,4.82308,0,0,1,4.8501-5.10205C175.68311,194.98975,177.69873,197.02637,177.69873,200.15479Zm-1.72168-.90284a2.92048,2.92048,0,0,0-3.00244-2.62451,3.00815,3.00815,0,0,0-3.08643,2.62451Z"/><path d="M187.77881,198.55908v6.38281h-1.6167v-1.40673a4.09971,4.09971,0,0,1-3.29639,1.65869,3.45139,3.45139,0,0,1-3.61133-3.31739c0-1.88964,1.6587-3.23339,3.84229-3.23339a5.42962,5.42962,0,0,1,2.91846.79785v-.5249a2.21049,2.21049,0,0,0-2.45655-2.28858,6.718,6.718,0,0,0-2.89746.81885l-.73486-1.46973a7.227,7.227,0,0,1,3.63232-.98681C186.41406,194.98975,187.77881,196.75342,187.77881,198.55908Zm-1.76367,3.61133v-1.36475a4.647,4.647,0,0,0-2.54053-.69287c-1.51172,0-2.45654.75586-2.45654,1.76367,0,1.25977,1.13379,1.76368,2.22558,1.76368A3.7243,3.7243,0,0,0,186.01514,202.17041Z"/><path d="M190.84619,189.06885h1.76367v15.873h-1.76367Z"/><path d="M208.71533,196.43848v-7.36963H210.479v15.873h-1.6167v-1.40673a3.77632,3.77632,0,0,1-3.27539,1.65869,5.119,5.119,0,0,1,0-10.2041A3.85388,3.85388,0,0,1,208.71533,196.43848Zm0,1.86865a3.44535,3.44535,0,0,0-2.85547-1.67969,3.47424,3.47424,0,0,0,0,6.92871,3.44535,3.44535,0,0,0,2.85547-1.67969Z"/><path d="M222.44922,200.15479a5.50656,5.50656,0,0,1-.021.56689h-7.83154a3.27166,3.27166,0,0,0,3.33838,2.83447,3.74608,3.74608,0,0,0,2.91846-1.42773l1.11279,1.15478a5.407,5.407,0,0,1-4.03125,1.91065,4.95619,4.95619,0,0,1-5.06006-5.102,4.82308,4.82308,0,0,1,4.8501-5.10205C220.43359,194.98975,222.44922,197.02637,222.44922,200.15479Zm-1.72168-.90284a2.92048,2.92048,0,0,0-3.00244-2.62451,3.00815,3.00815,0,0,0-3.08643,2.62451Z"/><path d="M224.84473,189.06885h1.76367v15.873h-1.76367Z"/><path d="M230.87109,190.9375a1.19678,1.19678,0,1,1-1.19677,1.19678A1.20993,1.20993,0,0,1,230.87109,190.9375Zm-.88183,4.3042h1.76367v9.70019h-1.76367Z"/><path d="M235.46973,195.2417l2.98144,6.57178,2.98145-6.57178h1.80566l-4.8501,10.12012-4.85009-10.12012Z"/><path d="M253.31836,200.15479a5.50656,5.50656,0,0,1-.021.56689h-7.83154a3.27166,3.27166,0,0,0,3.33838,2.83447,3.74608,3.74608,0,0,0,2.91846-1.42773l1.11279,1.15478a5.407,5.407,0,0,1-4.03125,1.91065,4.95619,4.95619,0,0,1-5.06006-5.102,4.82308,4.82308,0,0,1,4.8501-5.10205C251.30273,194.98975,253.31836,197.02637,253.31836,200.15479Zm-1.72168-.90284a2.92048,2.92048,0,0,0-3.00244-2.62451,3.00815,3.00815,0,0,0-3.08643,2.62451Z"/><path d="M261.08887,195.2417l-.65088,1.5957a2.46025,2.46025,0,0,0-1.11279-.21,2.69749,2.69749,0,0,0-2.22559,1.6377v6.67675h-1.76367V195.2417h1.63769v1.49072a3.24589,3.24589,0,0,1,2.7085-1.74267A4.055,4.055,0,0,1,261.08887,195.2417Z"/><path d="M262.45508,207.88135a2.25737,2.25737,0,0,0,1.15478.5039c.77686,0,1.13379-.54589,1.51172-1.49072l.75586-1.91064-4.53515-9.74219h1.99462l3.40137,7.66357,2.89746-7.66357h1.91065s-4.8711,12.26172-5.102,12.82861a2.8517,2.8517,0,0,1-2.6875,1.95264,3.57956,3.57956,0,0,1-2.05762-.69287Z"/><path d="M286.918,198.55908v6.38281h-1.61621v-1.40673a4.09971,4.09971,0,0,1-3.29639,1.65869,3.45139,3.45139,0,0,1-3.61133-3.31739c0-1.88964,1.65869-3.23339,3.84229-3.23339a5.42962,5.42962,0,0,1,2.91846.79785v-.5249a2.21049,2.21049,0,0,0-2.45655-2.28858,6.718,6.718,0,0,0-2.89746.81885l-.73486-1.46973a7.227,7.227,0,0,1,3.63232-.98681C285.55371,194.98975,286.918,196.75342,286.918,198.55908Zm-1.76318,3.61133v-1.36475a4.64705,4.64705,0,0,0-2.54053-.69287c-1.51172,0-2.45655.75586-2.45655,1.76367,0,1.25977,1.13379,1.76368,2.22559,1.76368A3.7243,3.7243,0,0,0,285.15479,202.17041Z"/><path d="M297.88086,198.70605v6.23584h-1.76367V199a2.15142,2.15142,0,0,0-2.33106-2.37256,3.055,3.055,0,0,0-2.415,1.6377v6.67675h-1.76367V195.2417h1.63867v1.36475a3.448,3.448,0,0,1,2.98047-1.6167A3.53123,3.53123,0,0,1,297.88086,198.70605Z"/><path d="M307.72949,196.43848v-7.36963h1.76367v15.873H307.877v-1.40673a3.77729,3.77729,0,0,1-3.27539,1.65869,5.119,5.119,0,0,1,0-10.2041A3.85456,3.85456,0,0,1,307.72949,196.43848Zm0,1.86865a3.44535,3.44535,0,0,0-2.85547-1.67969,3.47428,3.47428,0,0,0,0,6.92871,3.44535,3.44535,0,0,0,2.85547-1.67969Z"/><path d="M64.93164,227.22363a3.74168,3.74168,0,0,0,2.93945,1.57471c.98682,0,2.09961-.41992,2.09961-1.19678,0-.83984-.71386-1.25976-2.20459-1.55371-2.07861-.41992-3.54834-1.23877-3.54834-3.06543,0-1.40674,1.40674-2.79248,3.56934-2.79248a5.04179,5.04179,0,0,1,3.59033,1.46973l-1.15478,1.19678a3.56186,3.56186,0,0,0-2.43555-1.07081c-1.23877,0-1.84766.60889-1.84766,1.23877,0,.73487.75586,1.13379,2.35157,1.46973,1.84765.39893,3.42236,1.0918,3.42236,3.06543,0,1.86865-1.97363,2.83447-3.84229,2.83447a5.31589,5.31589,0,0,1-4.15722-2.03662Z"/><path d="M73.89844,226.67773v-6.23584h1.76367v5.9419a2.15107,2.15107,0,0,0,2.33057,2.37256,2.91923,2.91923,0,0,0,2.41455-1.59571v-6.71875H82.1709v9.7002H80.5332v-1.49072a3.43705,3.43705,0,0,1-2.98144,1.74267A3.53048,3.53048,0,0,1,73.89844,226.67773Z"/><path d="M94.8335,225.292a4.87378,4.87378,0,0,1-4.70313,5.102,3.77632,3.77632,0,0,1-3.27539-1.65869v1.40674h-1.6167V214.269h1.76367v7.36963a3.8539,3.8539,0,0,1,3.12842-1.44873A4.87378,4.87378,0,0,1,94.8335,225.292Zm-7.83155,1.78467a3.44535,3.44535,0,0,0,2.85547,1.67969,3.47424,3.47424,0,0,0,0-6.92871,3.44535,3.44535,0,0,0-2.85547,1.67968Z"/><path d="M97.43945,227.22363a3.74169,3.74169,0,0,0,2.93946,1.57471c.98681,0,2.09961-.41992,2.09961-1.19678,0-.83984-.71387-1.25976-2.20459-1.55371-2.07862-.41992-3.54834-1.23877-3.54834-3.06543,0-1.40674,1.40673-2.79248,3.56933-2.79248a5.04176,5.04176,0,0,1,3.59033,1.46973l-1.15478,1.19678a3.56186,3.56186,0,0,0-2.43555-1.07081c-1.23877,0-1.84765.60889-1.84765,1.23877,0,.73487.75585,1.13379,2.35156,1.46973,1.84765.39893,3.42236,1.0918,3.42236,3.06543,0,1.86865-1.97363,2.83447-3.84228,2.83447a5.3159,5.3159,0,0,1-4.15723-2.03662Z"/><path d="M114.69971,228.52539a5.23114,5.23114,0,0,1-3.96826,1.86865,5.10315,5.10315,0,0,1,0-10.2041,5.19891,5.19891,0,0,1,3.86328,1.74268l-1.19678,1.0708a3.58479,3.58479,0,0,0-2.6665-1.17578,3.4726,3.4726,0,0,0,0,6.92871,3.56,3.56,0,0,0,2.83447-1.38574Z"/><path d="M122.17578,220.44189l-.65088,1.59571a2.46025,2.46025,0,0,0-1.11279-.21,2.69748,2.69748,0,0,0-2.22559,1.63769v6.67676h-1.76367v-9.7002h1.6377v1.49073a3.24588,3.24588,0,0,1,2.70849-1.74268A4.055,4.055,0,0,1,122.17578,220.44189Z"/><path d="M124.75977,216.1377a1.19678,1.19678,0,1,1-1.19678,1.19677A1.20992,1.20992,0,0,1,124.75977,216.1377Zm-.88184,4.30419h1.76367v9.7002h-1.76367Z"/><path d="M130.26123,220.44189v1.40674a3.81792,3.81792,0,0,1,3.27539-1.65869,5.119,5.119,0,0,1,0,10.2041,3.90225,3.90225,0,0,1-3.12842-1.44873v6.02588h-1.76367v-14.5293Zm.147,6.65577a3.44665,3.44665,0,0,0,2.85547,1.65869,3.47424,3.47424,0,0,0,0-6.92871,3.44665,3.44665,0,0,0-2.85547,1.65869Z"/><path d="M139.41748,220.44189h1.88965v-2.96044h1.76367v2.96044h3.02344v1.59571H143.0708v5.228a1.29879,1.29879,0,0,0,1.40674,1.49073,2.3024,2.3024,0,0,0,1.11279-.39893l.65088,1.44873a3.997,3.997,0,0,1-2.01562.58789,2.83628,2.83628,0,0,1-2.91846-3.04443v-5.312h-1.88965Z"/><path d="M149.3501,216.1377a1.19678,1.19678,0,1,1-1.19678,1.19677A1.20992,1.20992,0,0,1,149.3501,216.1377Zm-.88184,4.30419h1.76367v9.7002h-1.76367Z"/><path d="M162.55713,225.292a4.99815,4.99815,0,1,1-4.99707-5.102A4.96718,4.96718,0,0,1,162.55713,225.292Zm-1.76367,0a3.2411,3.2411,0,1,0-3.2334,3.46436A3.25269,3.25269,0,0,0,160.79346,225.292Z"/><path d="M172.84717,223.90625v6.23584H171.0835V224.2002a2.15107,2.15107,0,0,0-2.33057-2.37256,3.05478,3.05478,0,0,0-2.41455,1.63769v6.67676h-1.76367v-9.7002h1.63769v1.36475a3.45059,3.45059,0,0,1,2.98145-1.6167A3.53049,3.53049,0,0,1,172.84717,223.90625Z"/><path d="M182.00439,227.22363a3.74169,3.74169,0,0,0,2.93946,1.57471c.98681,0,2.09961-.41992,2.09961-1.19678,0-.83984-.71387-1.25976-2.20459-1.55371-2.07862-.41992-3.54834-1.23877-3.54834-3.06543,0-1.40674,1.40674-2.79248,3.56933-2.79248a5.04179,5.04179,0,0,1,3.59034,1.46973l-1.15479,1.19678a3.56186,3.56186,0,0,0-2.43555-1.07081c-1.23877,0-1.84765.60889-1.84765,1.23877,0,.73487.75586,1.13379,2.35156,1.46973,1.84766.39893,3.42236,1.0918,3.42236,3.06543,0,1.86865-1.97363,2.83447-3.84228,2.83447a5.31593,5.31593,0,0,1-4.15723-2.03662Z"/><path d="M199.87354,225.355a5.50665,5.50665,0,0,1-.021.5669H192.021a3.27166,3.27166,0,0,0,3.33838,2.83447,3.746,3.746,0,0,0,2.91845-1.42774l1.11279,1.15479a5.407,5.407,0,0,1-4.03124,1.91064,4.95618,4.95618,0,0,1-5.06006-5.102,4.82308,4.82308,0,0,1,4.85009-5.102C197.85791,220.18994,199.87354,222.22656,199.87354,225.355Zm-1.72168-.90283a2.92048,2.92048,0,0,0-3.00245-2.62451,3.00813,3.00813,0,0,0-3.08642,2.62451Z"/><path d="M207.644,220.44189l-.65088,1.59571a2.46025,2.46025,0,0,0-1.11279-.21,2.69748,2.69748,0,0,0-2.22558,1.63769v6.67676h-1.76368v-9.7002h1.6377v1.49073a3.24588,3.24588,0,0,1,2.70849-1.74268A4.05492,4.05492,0,0,1,207.644,220.44189Z"/><path d="M209.74512,220.44189l2.98144,6.57178,2.98145-6.57178h1.80566l-4.8501,10.12012-4.85009-10.12012Z"/><path d="M220.18213,216.1377a1.19678,1.19678,0,1,1-1.19678,1.19677A1.20992,1.20992,0,0,1,220.18213,216.1377Zm-.88184,4.30419H221.064v9.7002h-1.76367Z"/><path d="M232.36035,228.52539a5.23114,5.23114,0,0,1-3.96826,1.86865,5.10315,5.10315,0,0,1,0-10.2041,5.19889,5.19889,0,0,1,3.86328,1.74268l-1.19678,1.0708a3.58476,3.58476,0,0,0-2.6665-1.17578,3.4726,3.4726,0,0,0,0,6.92871,3.55994,3.55994,0,0,0,2.83447-1.38574Z"/><path d="M242.98584,225.355a5.50665,5.50665,0,0,1-.021.5669H235.1333a3.27167,3.27167,0,0,0,3.33838,2.83447,3.74607,3.74607,0,0,0,2.91846-1.42774l1.11279,1.15479a5.407,5.407,0,0,1-4.03125,1.91064,4.95618,4.95618,0,0,1-5.06006-5.102,4.82308,4.82308,0,0,1,4.8501-5.102C240.97021,220.18994,242.98584,222.22656,242.98584,225.355Zm-1.72168-.90283a2.92047,2.92047,0,0,0-3.00244-2.62451,3.00815,3.00815,0,0,0-3.08643,2.62451Z"/><path d="M250.04346,220.44189h1.88965v-2.96044h1.76367v2.96044h3.02343v1.59571h-3.02343v5.228a1.29879,1.29879,0,0,0,1.40674,1.49073,2.30245,2.30245,0,0,0,1.11279-.39893l.65088,1.44873a3.997,3.997,0,0,1-2.01563.58789,2.83627,2.83627,0,0,1-2.91845-3.04443v-5.312h-1.88965Z"/><path d="M267.42969,223.90625v6.23584H265.666V224.2002a2.15107,2.15107,0,0,0-2.33057-2.37256,3.05478,3.05478,0,0,0-2.41455,1.63769v6.67676h-1.76367V214.269h1.76367v7.34864a3.41447,3.41447,0,0,1,2.85547-1.42774A3.53049,3.53049,0,0,1,267.42969,223.90625Z"/><path d="M278.18164,223.75928v6.38281h-1.6167v-1.40674a4.09971,4.09971,0,0,1-3.29639,1.65869,3.45137,3.45137,0,0,1-3.61132-3.31738c0-1.88965,1.65869-3.2334,3.84228-3.2334a5.42962,5.42962,0,0,1,2.91846.79785v-.5249a2.21048,2.21048,0,0,0-2.45654-2.28857,6.7181,6.7181,0,0,0-2.89747.81884l-.73486-1.46972a7.227,7.227,0,0,1,3.63233-.98682C276.81689,220.18994,278.18164,221.95361,278.18164,223.75928Zm-1.76367,3.61133v-1.36475a4.647,4.647,0,0,0-2.54053-.69287c-1.51172,0-2.45654.75586-2.45654,1.76367,0,1.25977,1.13379,1.76367,2.22558,1.76367A3.7243,3.7243,0,0,0,276.418,227.37061Z"/><path d="M280.03125,220.44189h1.88965v-2.96044h1.76367v2.96044H286.708v1.59571h-3.02344v5.228a1.29879,1.29879,0,0,0,1.40674,1.49073,2.3024,2.3024,0,0,0,1.11279-.39893l.65137,1.44873a3.99857,3.99857,0,0,1-2.01611.58789,2.83628,2.83628,0,0,1-2.91846-3.04443v-5.312h-1.88965Z"/><path d="M302.709,223.75928v6.38281h-1.61621v-1.40674a4.09931,4.09931,0,0,1-3.29589,1.65869,3.45108,3.45108,0,0,1-3.61133-3.31738c0-1.88965,1.6582-3.2334,3.84179-3.2334a5.42478,5.42478,0,0,1,2.918.79785v-.5249a2.21032,2.21032,0,0,0-2.45605-2.28857,6.718,6.718,0,0,0-2.89746.81884l-.73438-1.46972a7.22628,7.22628,0,0,1,3.63184-.98682C301.34473,220.18994,302.709,221.95361,302.709,223.75928Zm-1.76367,3.61133v-1.36475a4.64226,4.64226,0,0,0-2.54-.69287c-1.51172,0-2.456.75586-2.456,1.76367,0,1.25977,1.13281,1.76367,2.22461,1.76367A3.72184,3.72184,0,0,0,300.94531,227.37061Z"/><path d="M305.77637,214.269H307.54v15.87305h-1.76367Z"/><path d="M310.98438,214.269h1.76367v15.87305h-1.76367Z"/><path d="M325.13672,225.292a4.99815,4.99815,0,1,1-4.99707-5.102A4.96718,4.96718,0,0,1,325.13672,225.292Zm-1.76367,0a3.2411,3.2411,0,1,0-3.2334,3.46436A3.253,3.253,0,0,0,323.37305,225.292Z"/><path d="M327.7207,220.44189l2.60352,6.27784,2.5625-6.27784H334.083l2.583,6.27784,2.582-6.27784h1.80566L336.62305,230.562l-3.19141-7.28564-3.19141,7.28564-4.42968-10.12012Z"/><path d="M343.15625,227.22363a3.7428,3.7428,0,0,0,2.93945,1.57471c.98633,0,2.09961-.41992,2.09961-1.19678,0-.83984-.71386-1.25976-2.20508-1.55371-2.07812-.41992-3.54785-1.23877-3.54785-3.06543,0-1.40674,1.40723-2.79248,3.56934-2.79248a5.03858,5.03858,0,0,1,3.58984,1.46973l-1.15429,1.19678a3.56186,3.56186,0,0,0-2.43555-1.07081c-1.23828,0-1.84766.60889-1.84766,1.23877,0,.73487.75586,1.13379,2.35156,1.46973,1.84766.39893,3.42188,1.0918,3.42188,3.06543,0,1.86865-1.97266,2.83447-3.8418,2.83447a5.31589,5.31589,0,0,1-4.15722-2.03662Z"/><path d="M64.34375,251.87744V245.6416h1.76367v5.9419a2.15106,2.15106,0,0,0,2.33057,2.37255,2.91923,2.91923,0,0,0,2.41455-1.5957V245.6416h1.76367v9.7002H70.97852v-1.49073a3.43708,3.43708,0,0,1-2.98145,1.74268A3.53048,3.53048,0,0,1,64.34375,251.87744Z"/><path d="M75.89355,252.42334a3.74169,3.74169,0,0,0,2.93946,1.57471c.98681,0,2.09961-.41993,2.09961-1.19678,0-.83984-.71387-1.25977-2.20459-1.55371-2.07862-.41992-3.54834-1.23877-3.54834-3.06543,0-1.40674,1.40674-2.79248,3.56933-2.79248a5.04179,5.04179,0,0,1,3.59034,1.46973l-1.15479,1.19677a3.56187,3.56187,0,0,0-2.43555-1.0708c-1.23877,0-1.84765.60889-1.84765,1.23877,0,.73486.75586,1.13379,2.35156,1.46973,1.84766.39892,3.42236,1.09179,3.42236,3.06543,0,1.86865-1.97363,2.83447-3.84228,2.83447a5.31593,5.31593,0,0,1-4.15723-2.03662Z"/><path d="M93.7627,250.55469a5.50656,5.50656,0,0,1-.021.56689H85.91016a3.27166,3.27166,0,0,0,3.33838,2.83447,3.746,3.746,0,0,0,2.91845-1.42773l1.1128,1.15479a5.407,5.407,0,0,1-4.03125,1.91064,4.95618,4.95618,0,0,1-5.06006-5.102,4.82308,4.82308,0,0,1,4.85009-5.10205C91.74707,245.38965,93.7627,247.42627,93.7627,250.55469Zm-1.72168-.90283a2.92049,2.92049,0,0,0-3.00245-2.62452,3.00813,3.00813,0,0,0-3.08642,2.62452Z"/><path d="M101.5332,245.6416l-.65088,1.5957a2.46025,2.46025,0,0,0-1.11279-.21A2.69748,2.69748,0,0,0,97.544,248.665v6.67676H95.78027v-9.7002H97.418v1.49072a3.24588,3.24588,0,0,1,2.70849-1.74267A4.05492,4.05492,0,0,1,101.5332,245.6416Z"/><path d="M103.25635,252.42334a3.74168,3.74168,0,0,0,2.93945,1.57471c.98682,0,2.09961-.41993,2.09961-1.19678,0-.83984-.71387-1.25977-2.20459-1.55371-2.07861-.41992-3.54834-1.23877-3.54834-3.06543,0-1.40674,1.40674-2.79248,3.56934-2.79248a5.04179,5.04179,0,0,1,3.59033,1.46973l-1.15479,1.19677a3.56186,3.56186,0,0,0-2.43554-1.0708c-1.23877,0-1.84766.60889-1.84766,1.23877,0,.73486.75586,1.13379,2.35156,1.46973,1.84766.39892,3.42237,1.09179,3.42237,3.06543,0,1.86865-1.97364,2.83447-3.84229,2.83447a5.31593,5.31593,0,0,1-4.15723-2.03662Z"/><path d="M117.26318,245.6416h1.88965v-2.96045h1.76367v2.96045h3.02344v1.5957H120.9165v5.228a1.29879,1.29879,0,0,0,1.40674,1.49072,2.3025,2.3025,0,0,0,1.1128-.39892l.65087,1.44873a3.99712,3.99712,0,0,1-2.01562.58789,2.83628,2.83628,0,0,1-2.91846-3.04443v-5.312h-1.88965Z"/><path d="M135.32129,250.4917a4.99815,4.99815,0,1,1-4.99707-5.10205A4.96718,4.96718,0,0,1,135.32129,250.4917Zm-1.76367,0a3.2411,3.2411,0,1,0-3.2334,3.46435A3.25269,3.25269,0,0,0,133.55762,250.4917Z"/><path d="M151.51221,253.7251a5.23114,5.23114,0,0,1-3.96826,1.86865,5.10315,5.10315,0,0,1,0-10.2041,5.19892,5.19892,0,0,1,3.86328,1.74267l-1.19678,1.0708a3.58479,3.58479,0,0,0-2.6665-1.17578,3.4726,3.4726,0,0,0,0,6.92871,3.56,3.56,0,0,0,2.83447-1.38574Z"/><path d="M153.23535,251.87744V245.6416H154.999v5.9419a2.15106,2.15106,0,0,0,2.33057,2.37255,2.91921,2.91921,0,0,0,2.41455-1.5957V245.6416h1.76367v9.7002h-1.63769v-1.49073a3.43708,3.43708,0,0,1-2.98145,1.74268A3.53048,3.53048,0,0,1,153.23535,251.87744Z"/><path d="M164.78516,252.42334a3.74166,3.74166,0,0,0,2.93945,1.57471c.98682,0,2.09961-.41993,2.09961-1.19678,0-.83984-.71387-1.25977-2.20459-1.55371-2.07861-.41992-3.54834-1.23877-3.54834-3.06543,0-1.40674,1.40674-2.79248,3.56933-2.79248a5.04179,5.04179,0,0,1,3.59034,1.46973l-1.15479,1.19677a3.56187,3.56187,0,0,0-2.43555-1.0708c-1.23876,0-1.84765.60889-1.84765,1.23877,0,.73486.75586,1.13379,2.35156,1.46973,1.84766.39892,3.42236,1.09179,3.42236,3.06543,0,1.86865-1.97363,2.83447-3.84228,2.83447a5.31593,5.31593,0,0,1-4.15723-2.03662Z"/><path d="M172.91211,245.6416h1.88965v-2.96045h1.76367v2.96045h3.02344v1.5957h-3.02344v5.228a1.29879,1.29879,0,0,0,1.40674,1.49072,2.30244,2.30244,0,0,0,1.11279-.39892l.65088,1.44873a3.99712,3.99712,0,0,1-2.01563.58789,2.83627,2.83627,0,0,1-2.91845-3.04443v-5.312h-1.88965Z"/><path d="M190.97021,250.4917a4.99815,4.99815,0,1,1-4.99707-5.10205A4.96718,4.96718,0,0,1,190.97021,250.4917Zm-1.76367,0a3.24109,3.24109,0,1,0-3.2334,3.46435A3.25269,3.25269,0,0,0,189.20654,250.4917Z"/><path d="M206.59326,249.106v6.23584h-1.76367v-5.96289c0-1.57471-.81885-2.35157-2.07861-2.35157a2.49794,2.49794,0,0,0-2.07862,1.55371v6.76075h-1.76367v-5.96289c0-1.57471-.81885-2.35157-2.07861-2.35157a2.53617,2.53617,0,0,0-2.07862,1.55371v6.76075h-1.76367v-9.7002h1.6377v1.42774a2.962,2.962,0,0,1,2.6875-1.67969,3.02205,3.02205,0,0,1,3.02344,1.80566,3.20476,3.20476,0,0,1,2.89746-1.80566C205.24951,245.38965,206.59326,246.7124,206.59326,249.106Z"/><path d="M210.48047,241.3374a1.19678,1.19678,0,1,1-1.19678,1.19678A1.20993,1.20993,0,0,1,210.48047,241.3374Zm-.88184,4.3042h1.76367v9.7002h-1.76367Z"/><path d="M222.40674,245.6416l-5.564,8.0625h5.333v1.6377h-8.44043l5.564-8.0625h-5.27v-1.6377Z"/><path d="M233.13721,250.55469a5.50656,5.50656,0,0,1-.021.56689h-7.83154a3.27166,3.27166,0,0,0,3.33838,2.83447,3.746,3.746,0,0,0,2.91845-1.42773l1.1128,1.15479a5.407,5.407,0,0,1-4.03125,1.91064,4.95618,4.95618,0,0,1-5.06006-5.102,4.82308,4.82308,0,0,1,4.8501-5.10205C231.12158,245.38965,233.13721,247.42627,233.13721,250.55469Zm-1.72168-.90283a2.92048,2.92048,0,0,0-3.00244-2.62452,3.00815,3.00815,0,0,0-3.08643,2.62452Z"/><path d="M249.32812,253.7251a5.23112,5.23112,0,0,1-3.96826,1.86865,5.10315,5.10315,0,0,1,0-10.2041,5.1989,5.1989,0,0,1,3.86328,1.74267l-1.19677,1.0708a3.5848,3.5848,0,0,0-2.66651-1.17578,3.4726,3.4726,0,0,0,0,6.92871,3.56,3.56,0,0,0,2.83448-1.38574Z"/><path d="M259.11377,248.959v6.38282h-1.6167v-1.40674a4.09971,4.09971,0,0,1-3.29639,1.65869,3.45137,3.45137,0,0,1-3.61132-3.31738c0-1.88965,1.65869-3.2334,3.84228-3.2334a5.42962,5.42962,0,0,1,2.91846.79785v-.5249a2.21049,2.21049,0,0,0-2.45655-2.28858,6.718,6.718,0,0,0-2.89746.81885l-.73486-1.46973a7.227,7.227,0,0,1,3.63232-.98681C257.749,245.38965,259.11377,247.15332,259.11377,248.959Zm-1.76367,3.61133v-1.36474a4.647,4.647,0,0,0-2.54053-.69287c-1.51172,0-2.45654.75585-2.45654,1.76367,0,1.25976,1.13379,1.76367,2.22558,1.76367A3.7243,3.7243,0,0,0,257.3501,252.57031Z"/><path d="M262.18115,239.46875h1.76367V255.3418h-1.76367Z"/><path d="M276.333,250.4917a4.99815,4.99815,0,1,1-4.99707-5.10205A4.96718,4.96718,0,0,1,276.333,250.4917Zm-1.76367,0a3.2411,3.2411,0,1,0-3.2334,3.46435A3.2527,3.2527,0,0,0,274.56934,250.4917Z"/><path d="M284.10352,245.6416l-.65088,1.5957a2.46028,2.46028,0,0,0-1.1128-.21,2.69748,2.69748,0,0,0-2.22558,1.6377v6.67676h-1.76367v-9.7002h1.63769v1.49072a3.24589,3.24589,0,0,1,2.7085-1.74267A4.055,4.055,0,0,1,284.10352,245.6416Z"/><path d="M286.6875,241.3374a1.19678,1.19678,0,1,1-1.19678,1.19678A1.21068,1.21068,0,0,1,286.6875,241.3374Zm-.88184,4.3042h1.76368v9.7002h-1.76368Z"/><path d="M299.47461,250.55469a5.38167,5.38167,0,0,1-.02149.56689h-7.83105a3.27145,3.27145,0,0,0,3.33887,2.83447,3.7457,3.7457,0,0,0,2.918-1.42773l1.11328,1.15479a5.4095,5.4095,0,0,1-4.03125,1.91064,4.95659,4.95659,0,0,1-5.06055-5.102,4.823,4.823,0,0,1,4.84961-5.10205C297.459,245.38965,299.47461,247.42627,299.47461,250.55469Zm-1.72168-.90283a2.921,2.921,0,0,0-3.00293-2.62452,3.0076,3.0076,0,0,0-3.08594,2.62452Z"/><path d="M315.666,253.7251a5.23275,5.23275,0,0,1-3.96875,1.86865,5.10315,5.10315,0,0,1,0-10.2041,5.19892,5.19892,0,0,1,3.86328,1.74267l-1.19727,1.0708a3.58307,3.58307,0,0,0-2.666-1.17578,3.4726,3.4726,0,0,0,0,6.92871,3.55846,3.55846,0,0,0,2.834-1.38574Z"/><path d="M326.71094,250.4917a4.99815,4.99815,0,1,1-4.99707-5.10205A4.96718,4.96718,0,0,1,326.71094,250.4917Zm-1.76367,0a3.2411,3.2411,0,1,0-3.2334,3.46435A3.253,3.253,0,0,0,324.94727,250.4917Z"/><path d="M328.72852,251.87744V245.6416h1.76367v5.9419a2.15114,2.15114,0,0,0,2.33008,2.37255,2.91848,2.91848,0,0,0,2.415-1.5957V245.6416H337.001v9.7002h-1.6377v-1.49073a3.43705,3.43705,0,0,1-2.98144,1.74268A3.53048,3.53048,0,0,1,328.72852,251.87744Z"/><path d="M347.96289,249.106v6.23584h-1.76367v-5.9419a2.15116,2.15116,0,0,0-2.33008-2.37256,3.055,3.055,0,0,0-2.415,1.6377v6.67676h-1.76367v-9.7002h1.63769v1.36475a3.45059,3.45059,0,0,1,2.98145-1.6167A3.53048,3.53048,0,0,1,347.96289,249.106Z"/><path d="M349.8125,245.6416h1.88965v-2.96045h1.76367v2.96045h3.02344v1.5957h-3.02344v5.228a1.29892,1.29892,0,0,0,1.40723,1.49072,2.30455,2.30455,0,0,0,1.1123-.39892l.65137,1.44873a3.99838,3.99838,0,0,1-2.01563.58789,2.83614,2.83614,0,0,1-2.91894-3.04443v-5.312H349.8125Z"/><path d="M72.40625,274.15918V280.542h-1.6167v-1.40674a4.0997,4.0997,0,0,1-3.29639,1.6587,3.45138,3.45138,0,0,1-3.61132-3.31739c0-1.88965,1.65869-3.2334,3.84228-3.2334a5.42957,5.42957,0,0,1,2.91846.79786v-.52491a2.21048,2.21048,0,0,0-2.45654-2.28857,6.718,6.718,0,0,0-2.89747.81885l-.73486-1.46973a7.227,7.227,0,0,1,3.63233-.98682C71.0415,270.58984,72.40625,272.35352,72.40625,274.15918Zm-1.76367,3.61133v-1.36475a4.647,4.647,0,0,0-2.54053-.69287c-1.51172,0-2.45654.75586-2.45654,1.76367,0,1.25977,1.13379,1.76367,2.22558,1.76367A3.7243,3.7243,0,0,0,70.64258,277.77051Z"/><path d="M83.36816,274.30615V280.542H81.60449V274.6001a2.15107,2.15107,0,0,0-2.33056-2.37256,3.05478,3.05478,0,0,0-2.41455,1.63769V280.542H75.0957V270.8418h1.6377v1.36474a3.45057,3.45057,0,0,1,2.98144-1.6167A3.53049,3.53049,0,0,1,83.36816,274.30615Z"/><path d="M93.21729,272.03857V264.669H94.981v15.873h-1.6167v-1.40674a3.77634,3.77634,0,0,1-3.27539,1.6587,5.119,5.119,0,0,1,0-10.20411A3.8539,3.8539,0,0,1,93.21729,272.03857Zm0,1.86866a3.44535,3.44535,0,0,0-2.85547-1.67969,3.47423,3.47423,0,0,0,0,6.92871,3.44535,3.44535,0,0,0,2.85547-1.67969Z"/><path d="M117.53418,274.30615V280.542h-1.76367V274.5791c0-1.57471-.81885-2.35156-2.07862-2.35156a2.49791,2.49791,0,0,0-2.07861,1.55371V280.542h-1.76367V274.5791c0-1.57471-.81885-2.35156-2.07861-2.35156a2.53617,2.53617,0,0,0-2.07862,1.55371V280.542h-1.76367V270.8418h1.6377v1.42773a2.962,2.962,0,0,1,2.6875-1.67969,3.022,3.022,0,0,1,3.02343,1.80567,3.20478,3.20478,0,0,1,2.89746-1.80567C116.19043,270.58984,117.53418,271.9126,117.53418,274.30615Z"/><path d="M128.28711,274.15918V280.542h-1.6167v-1.40674a4.0997,4.0997,0,0,1-3.29639,1.6587,3.45138,3.45138,0,0,1-3.61132-3.31739c0-1.88965,1.65869-3.2334,3.84228-3.2334a5.42957,5.42957,0,0,1,2.91846.79786v-.52491a2.21048,2.21048,0,0,0-2.45655-2.28857,6.718,6.718,0,0,0-2.89746.81885l-.73486-1.46973a7.227,7.227,0,0,1,3.63232-.98682C126.92236,270.58984,128.28711,272.35352,128.28711,274.15918Zm-1.76367,3.61133v-1.36475a4.647,4.647,0,0,0-2.54053-.69287c-1.51172,0-2.45654.75586-2.45654,1.76367,0,1.25977,1.13379,1.76367,2.22558,1.76367A3.7243,3.7243,0,0,0,126.52344,277.77051Z"/><path d="M139.27,278.92529a5.23114,5.23114,0,0,1-3.96826,1.86866,5.10316,5.10316,0,0,1,0-10.20411,5.19889,5.19889,0,0,1,3.86328,1.74268l-1.19678,1.0708a3.58476,3.58476,0,0,0-2.6665-1.17578,3.4726,3.4726,0,0,0,0,6.92871,3.55994,3.55994,0,0,0,2.83447-1.38574Z"/><path d="M146.74609,270.8418l-.65088,1.5957a2.4602,2.4602,0,0,0-1.11279-.21,2.69748,2.69748,0,0,0-2.22558,1.63769V280.542h-1.76368V270.8418h1.6377v1.49072a3.24589,3.24589,0,0,1,2.7085-1.74268A4.05476,4.05476,0,0,1,146.74609,270.8418Z"/><path d="M157.11963,275.69189a4.99815,4.99815,0,1,1-4.99707-5.10205A4.96719,4.96719,0,0,1,157.11963,275.69189Zm-1.76367,0a3.2411,3.2411,0,1,0-3.2334,3.46436A3.25269,3.25269,0,0,0,155.356,275.69189Z"/><path d="M167.40967,274.30615V280.542H165.646V274.6001a2.15107,2.15107,0,0,0-2.33057-2.37256,3.05478,3.05478,0,0,0-2.41455,1.63769V280.542h-1.76367V270.8418h1.63769v1.36474a3.45059,3.45059,0,0,1,2.98145-1.6167A3.53049,3.53049,0,0,1,167.40967,274.30615Z"/><path d="M170.09912,277.07764V270.8418h1.76367v5.94189a2.15107,2.15107,0,0,0,2.33057,2.37256,2.91923,2.91923,0,0,0,2.41455-1.5957V270.8418h1.76367V280.542h-1.63769v-1.49072a3.43708,3.43708,0,0,1-2.98145,1.74268A3.53049,3.53049,0,0,1,170.09912,277.07764Z"/><path d="M180.22119,270.8418h1.88965v-2.96045h1.76367v2.96045H186.898v1.5957h-3.02344v5.228a1.29879,1.29879,0,0,0,1.40674,1.49072,2.3024,2.3024,0,0,0,1.11279-.39893l.65088,1.44873a3.997,3.997,0,0,1-2.01562.5879,2.83629,2.83629,0,0,1-2.91846-3.04444v-5.312h-1.88965Z"/><path d="M194.71,270.8418l-.65088,1.5957a2.46025,2.46025,0,0,0-1.11279-.21,2.69748,2.69748,0,0,0-2.22559,1.63769V280.542H188.957V270.8418h1.6377v1.49072a3.24588,3.24588,0,0,1,2.70849-1.74268A4.05485,4.05485,0,0,1,194.71,270.8418Z"/><path d="M197.294,266.5376a1.19678,1.19678,0,1,1-1.19678,1.19678A1.20993,1.20993,0,0,1,197.294,266.5376Zm-.88184,4.3042h1.76367V280.542h-1.76367Z"/><path d="M210.08105,275.75488a5.50926,5.50926,0,0,1-.021.5669h-7.83154a3.27166,3.27166,0,0,0,3.33837,2.83447,3.74605,3.74605,0,0,0,2.91846-1.42773l1.11279,1.15478a5.407,5.407,0,0,1-4.03125,1.91065,4.95618,4.95618,0,0,1-5.06-5.10206,4.82308,4.82308,0,0,1,4.85009-5.10205C208.06543,270.58984,210.08105,272.62646,210.08105,275.75488Zm-1.72167-.90283a2.92048,2.92048,0,0,0-3.00245-2.62451,3.00813,3.00813,0,0,0-3.08642,2.62451Z"/><path d="M220.37109,274.30615V280.542h-1.76367V274.6001a2.15107,2.15107,0,0,0-2.33056-2.37256,3.0548,3.0548,0,0,0-2.41456,1.63769V280.542h-1.76367V270.8418h1.6377v1.36474a3.45057,3.45057,0,0,1,2.98144-1.6167A3.53049,3.53049,0,0,1,220.37109,274.30615Z"/><path d="M222.2207,270.8418h1.88965v-2.96045H225.874v2.96045h3.02344v1.5957H225.874v5.228a1.29879,1.29879,0,0,0,1.40674,1.49072,2.3024,2.3024,0,0,0,1.11279-.39893l.65088,1.44873a3.997,3.997,0,0,1-2.01562.5879,2.83629,2.83629,0,0,1-2.91846-3.04444v-5.312H222.2207Z"/><path d="M231.54443,277.62354a3.74169,3.74169,0,0,0,2.93946,1.5747c.98681,0,2.09961-.41992,2.09961-1.19678,0-.83984-.71387-1.25976-2.20459-1.55371-2.07862-.41992-3.54834-1.23877-3.54834-3.06543,0-1.40673,1.40673-2.79248,3.56933-2.79248a5.04176,5.04176,0,0,1,3.59033,1.46973l-1.15478,1.19678a3.56187,3.56187,0,0,0-2.43555-1.0708c-1.23877,0-1.84765.60888-1.84765,1.23877,0,.73486.75586,1.13379,2.35156,1.46972,1.84765.39893,3.42236,1.0918,3.42236,3.06543,0,1.86865-1.97363,2.83448-3.84228,2.83448a5.3159,5.3159,0,0,1-4.15723-2.03663Z"/><path d="M241.582,278.40039a1.19678,1.19678,0,1,1-1.19678,1.19678A1.20993,1.20993,0,0,1,241.582,278.40039Z"/></svg>