<svg id="bb41600e-bb6b-454e-9ee9-b638bf12adf7" data-name="pashi" xmlns="http://www.w3.org/2000/svg" viewBox="0 0 570 730"><defs><style>.a078bd0c-18c7-4c25-910a-956a4eb61117{fill:#45b549;}</style></defs><path class="a078bd0c-18c7-4c25-910a-956a4eb61117" d="M267.01,438.787c99.434-10.217,131.746-68.99,131.852-68.99a6.624,6.624,0,0,1,8.631-2.543,6.075,6.075,0,0,1,3.218,3.726c33.051,104.733,15.014,176.942-22.925,219.782a142.364,142.364,0,0,1-54.815,38.207,145.159,145.159,0,0,1-62.234,9.856c-40.751-2.661-77.952-23-95.215-59.43a93.937,93.937,0,0,1-8.474-29.337,95.263,95.263,0,0,1,12.166-58.806,102.1,102.1,0,0,1,50.174-43.1,133.415,133.415,0,0,1,37.622-9.363Z"/><path d="M76.776,140.843h5.713a5.38,5.38,0,1,1,0,10.753H79.656v6.048h-2.88Zm8.353,5.376c0-1.584-1.032-2.64-3-2.64H79.656v5.28h2.472C84.1,148.859,85.129,147.8,85.129,146.219Z"/><path d="M100.009,150.228v7.416H97.345V156.2a4.607,4.607,0,0,1-3.744,1.728,3.847,3.847,0,0,1-4.105-3.816c0-2.184,1.992-3.768,4.464-3.768a5.529,5.529,0,0,1,3.169.816v-.648c0-1.489-1.441-1.969-2.448-1.969a9.235,9.235,0,0,0-3.409.84l-.936-2.376a11.522,11.522,0,0,1,4.489-1.032C98.089,145.979,100.009,147.635,100.009,150.228Zm-2.88,3.984v-1.176a5.744,5.744,0,0,0-2.592-.577c-.889,0-2.113.385-2.113,1.609,0,1.2,1.177,1.464,2.064,1.464A3.374,3.374,0,0,0,97.129,154.212Z"/><path d="M103.776,153.78a5.349,5.349,0,0,0,3.432,1.632c1.176,0,2.161-.336,2.161-1.032,0-.744-.529-.888-2.257-1.248-2.256-.481-4.224-1.441-4.224-3.6,0-1.776,1.776-3.552,4.9-3.552a7.261,7.261,0,0,1,4.273,1.392l-1.44,2.112a5.288,5.288,0,0,0-2.833-.984c-1.08,0-2.064.384-2.064,1.08s.768.864,2.688,1.273c2.257.48,3.864,1.224,3.864,3.576,0,1.944-2.064,3.5-4.968,3.5a7.1,7.1,0,0,1-5.136-2.064Z"/><path d="M125.088,150.275v7.369h-2.88V151a2.1,2.1,0,0,0-2.256-2.329,2.811,2.811,0,0,0-2.256,1.488v7.489h-2.88V139.5h2.88v8.136a3.861,3.861,0,0,1,3.216-1.656A4.075,4.075,0,0,1,125.088,150.275Z"/><path d="M129.864,140.7a1.9,1.9,0,1,1-1.9,1.9A1.885,1.885,0,0,1,129.864,140.7Zm-1.441,5.568H131.3v11.377h-2.881Z"/><path d="M76.92,197.183H78.6v14H76.92Z"/><path d="M86.52,201.944h1.92v-3.181a2.83,2.83,0,0,1,2.841-2.94,3.814,3.814,0,0,1,1.94.54l-.62,1.38a2.388,2.388,0,0,0-1.08-.36,1.326,1.326,0,0,0-1.4,1.48v3.081h2.4v1.52h-2.4v7.722H88.44v-7.722H86.52Z"/><path d="M102.9,206.565a4.762,4.762,0,1,1-4.761-4.861A4.733,4.733,0,0,1,102.9,206.565Zm-1.68,0a3.088,3.088,0,1,0-3.081,3.3A3.1,3.1,0,0,0,101.222,206.565Z"/><path d="M104.82,207.885v-5.941h1.68v5.661a2.05,2.05,0,0,0,2.221,2.261,2.781,2.781,0,0,0,2.3-1.521v-6.4H112.7v9.242h-1.561v-1.42a3.274,3.274,0,0,1-2.84,1.66A3.363,3.363,0,0,1,104.82,207.885Z"/><path d="M123.142,205.245v5.941h-1.681v-5.661a2.049,2.049,0,0,0-2.22-2.261,2.91,2.91,0,0,0-2.3,1.561v6.361h-1.68v-9.242h1.56v1.3a3.288,3.288,0,0,1,2.841-1.54A3.364,3.364,0,0,1,123.142,205.245Z"/><path d="M132.521,203.084v-7.021H134.2v15.123h-1.541v-1.34a3.6,3.6,0,0,1-3.12,1.58,4.877,4.877,0,0,1,0-9.722A3.671,3.671,0,0,1,132.521,203.084Zm0,1.781a3.282,3.282,0,0,0-2.72-1.6,3.31,3.31,0,0,0,0,6.6,3.282,3.282,0,0,0,2.72-1.6Z"/><path d="M150.4,205.1v6.082h-1.54v-1.34a3.906,3.906,0,0,1-3.141,1.58,3.288,3.288,0,0,1-3.44-3.16c0-1.8,1.58-3.081,3.66-3.081a5.174,5.174,0,0,1,2.781.76v-.5a2.106,2.106,0,0,0-2.341-2.181,6.4,6.4,0,0,0-2.76.78l-.7-1.4a6.884,6.884,0,0,1,3.46-.94C149.1,201.7,150.4,203.384,150.4,205.1Zm-1.68,3.441v-1.3a4.428,4.428,0,0,0-2.421-.66c-1.44,0-2.34.72-2.34,1.681,0,1.2,1.08,1.68,2.121,1.68A3.547,3.547,0,0,0,148.721,208.545Z"/><path d="M160.841,205.245v5.941h-1.68v-5.661a2.05,2.05,0,0,0-2.221-2.261,2.91,2.91,0,0,0-2.3,1.561v6.361h-1.681v-9.242h1.561v1.3a3.287,3.287,0,0,1,2.84-1.54A3.363,3.363,0,0,1,160.841,205.245Z"/><path d="M170.221,203.084v-7.021h1.68v15.123h-1.54v-1.34a3.6,3.6,0,0,1-3.121,1.58,4.877,4.877,0,0,1,0-9.722A3.672,3.672,0,0,1,170.221,203.084Zm0,1.781a3.282,3.282,0,0,0-2.721-1.6,3.31,3.31,0,0,0,0,6.6,3.282,3.282,0,0,0,2.721-1.6Z"/><path d="M180.779,196.063h1.681v15.123h-1.681Z"/><path d="M193.861,206.625a5.246,5.246,0,0,1-.02.54h-7.462a3.118,3.118,0,0,0,3.181,2.7,3.568,3.568,0,0,0,2.781-1.361l1.06,1.1a5.15,5.15,0,0,1-3.841,1.821,4.722,4.722,0,0,1-4.821-4.861,4.6,4.6,0,0,1,4.621-4.861C191.941,201.7,193.861,203.645,193.861,206.625Zm-1.64-.86a2.783,2.783,0,0,0-2.861-2.5,2.868,2.868,0,0,0-2.941,2.5Z"/><path d="M203.461,205.1v6.082H201.92v-1.34a3.905,3.905,0,0,1-3.14,1.58,3.289,3.289,0,0,1-3.441-3.16c0-1.8,1.58-3.081,3.661-3.081a5.178,5.178,0,0,1,2.781.76v-.5a2.107,2.107,0,0,0-2.341-2.181,6.4,6.4,0,0,0-2.76.78l-.7-1.4a6.886,6.886,0,0,1,3.461-.94C202.161,201.7,203.461,203.384,203.461,205.1Zm-1.68,3.441v-1.3a4.432,4.432,0,0,0-2.421-.66c-1.44,0-2.34.72-2.34,1.681,0,1.2,1.08,1.68,2.12,1.68A3.55,3.55,0,0,0,201.781,208.545Z"/><path d="M212.84,203.084v-7.021h1.681v15.123H212.98v-1.34a3.6,3.6,0,0,1-3.12,1.58,4.877,4.877,0,0,1,0-9.722A3.671,3.671,0,0,1,212.84,203.084Zm0,1.781a3.282,3.282,0,0,0-2.72-1.6,3.31,3.31,0,0,0,0,6.6,3.282,3.282,0,0,0,2.72-1.6Z"/><path d="M224.58,201.944v1.34a3.637,3.637,0,0,1,3.12-1.58,4.877,4.877,0,0,1,0,9.722,3.721,3.721,0,0,1-2.981-1.38v5.741h-1.68V201.944Zm.139,6.342a3.286,3.286,0,0,0,2.721,1.58,3.31,3.31,0,0,0,0-6.6,3.286,3.286,0,0,0-2.721,1.581Z"/><path d="M239.58,201.944l-.62,1.52a2.344,2.344,0,0,0-1.06-.2,2.57,2.57,0,0,0-2.121,1.561v6.361H234.1v-9.242h1.561v1.42a3.09,3.09,0,0,1,2.58-1.66A3.863,3.863,0,0,1,239.58,201.944Z"/><path d="M249.461,206.565A4.762,4.762,0,1,1,244.7,201.7,4.733,4.733,0,0,1,249.461,206.565Zm-1.68,0a3.088,3.088,0,1,0-3.081,3.3A3.1,3.1,0,0,0,247.781,206.565Z"/><path d="M258.2,203.084v-7.021h1.681v15.123H258.34v-1.34a3.6,3.6,0,0,1-3.12,1.58,4.877,4.877,0,0,1,0-9.722A3.671,3.671,0,0,1,258.2,203.084Zm0,1.781a3.282,3.282,0,0,0-2.72-1.6,3.31,3.31,0,0,0,0,6.6,3.282,3.282,0,0,0,2.72-1.6Z"/><path d="M262.8,207.885v-5.941h1.68v5.661a2.05,2.05,0,0,0,2.221,2.261,2.781,2.781,0,0,0,2.3-1.521v-6.4h1.681v9.242H269.12v-1.42a3.274,3.274,0,0,1-2.84,1.66A3.363,3.363,0,0,1,262.8,207.885Z"/><path d="M281.141,209.646a4.986,4.986,0,0,1-3.781,1.78,4.862,4.862,0,0,1,0-9.722,4.956,4.956,0,0,1,3.681,1.66l-1.141,1.021a3.414,3.414,0,0,0-2.54-1.121,3.309,3.309,0,0,0,0,6.6,3.39,3.39,0,0,0,2.7-1.321Z"/><path d="M281.978,201.944h1.8v-2.82h1.681v2.82h2.881v1.52h-2.881v4.981c0,.9.44,1.421,1.34,1.421a2.193,2.193,0,0,0,1.06-.38l.62,1.38a3.8,3.8,0,0,1-1.92.56,2.7,2.7,0,0,1-2.781-2.9v-5.061h-1.8Z"/><path d="M304.78,206.565a4.762,4.762,0,1,1-4.76-4.861A4.732,4.732,0,0,1,304.78,206.565Zm-1.68,0a3.088,3.088,0,1,0-3.08,3.3A3.1,3.1,0,0,0,303.1,206.565Z"/><path d="M305.818,201.944h1.92v-3.181a2.83,2.83,0,0,1,2.841-2.94,3.819,3.819,0,0,1,1.941.54l-.621,1.38a2.382,2.382,0,0,0-1.08-.36,1.326,1.326,0,0,0-1.4,1.48v3.081h2.4v1.52h-2.4v7.722h-1.681v-7.722h-1.92Z"/><path d="M326.84,205.1v6.082H325.3v-1.34a3.906,3.906,0,0,1-3.141,1.58,3.288,3.288,0,0,1-3.441-3.16c0-1.8,1.581-3.081,3.661-3.081a5.172,5.172,0,0,1,2.78.76v-.5a2.105,2.105,0,0,0-2.34-2.181,6.4,6.4,0,0,0-2.76.78l-.7-1.4a6.89,6.89,0,0,1,3.461-.94C325.54,201.7,326.84,203.384,326.84,205.1Zm-1.681,3.441v-1.3a4.427,4.427,0,0,0-2.42-.66c-1.44,0-2.341.72-2.341,1.681,0,1.2,1.081,1.68,2.121,1.68A3.547,3.547,0,0,0,325.159,208.545Z"/><path d="M342.9,209.646a4.98,4.98,0,0,1-3.78,1.78,4.862,4.862,0,0,1,0-9.722,4.956,4.956,0,0,1,3.681,1.66l-1.141,1.021a3.411,3.411,0,0,0-2.54-1.121,3.309,3.309,0,0,0,0,6.6,3.39,3.39,0,0,0,2.7-1.321Z"/><path d="M353.42,206.565a4.762,4.762,0,1,1-4.761-4.861A4.732,4.732,0,0,1,353.42,206.565Zm-1.681,0a3.088,3.088,0,1,0-3.08,3.3A3.1,3.1,0,0,0,351.739,206.565Z"/><path d="M364.22,206.565a4.763,4.763,0,1,1-4.761-4.861A4.732,4.732,0,0,1,364.22,206.565Zm-1.681,0a3.088,3.088,0,1,0-3.08,3.3A3.1,3.1,0,0,0,362.539,206.565Z"/><path d="M368.178,206.705v4.481H366.5V196.063h1.68v9.982l3.961-4.1h2.2l-4.321,4.361,4.68,4.881h-2.34Z"/><path d="M384.179,206.625a5.246,5.246,0,0,1-.02.54H376.7a3.119,3.119,0,0,0,3.181,2.7,3.571,3.571,0,0,0,2.781-1.361l1.06,1.1a5.153,5.153,0,0,1-3.841,1.821,4.722,4.722,0,0,1-4.821-4.861,4.6,4.6,0,0,1,4.621-4.861C382.259,201.7,384.179,203.645,384.179,206.625Zm-1.64-.86a2.784,2.784,0,0,0-2.861-2.5,2.867,2.867,0,0,0-2.941,2.5Z"/><path d="M392.918,203.084v-7.021H394.6v15.123h-1.54v-1.34a3.6,3.6,0,0,1-3.121,1.58,4.877,4.877,0,0,1,0-9.722A3.671,3.671,0,0,1,392.918,203.084Zm0,1.781a3.282,3.282,0,0,0-2.721-1.6,3.31,3.31,0,0,0,0,6.6,3.282,3.282,0,0,0,2.721-1.6Z"/><path d="M89.243,229.245v5.941H87.562v-5.681c0-1.5-.779-2.241-1.98-2.241a2.38,2.38,0,0,0-1.98,1.481v6.441H81.921v-5.681c0-1.5-.78-2.241-1.98-2.241a2.418,2.418,0,0,0-1.981,1.481v6.441H76.28v-9.242h1.561v1.36a2.821,2.821,0,0,1,2.56-1.6,2.879,2.879,0,0,1,2.881,1.72,3.053,3.053,0,0,1,2.76-1.72C87.963,225.7,89.243,226.964,89.243,229.245Z"/><path d="M100.282,230.625a5.246,5.246,0,0,1-.02.54H92.8a3.117,3.117,0,0,0,3.18,2.7,3.568,3.568,0,0,0,2.781-1.361l1.06,1.1a5.15,5.15,0,0,1-3.841,1.821,4.721,4.721,0,0,1-4.82-4.861,4.6,4.6,0,0,1,4.621-4.861C98.361,225.7,100.282,227.645,100.282,230.625Zm-1.641-.86a2.783,2.783,0,0,0-2.86-2.5,2.866,2.866,0,0,0-2.941,2.5Z"/><path d="M109.881,229.1v6.082h-1.54v-1.34a3.906,3.906,0,0,1-3.141,1.58,3.288,3.288,0,0,1-3.44-3.16c0-1.8,1.58-3.081,3.66-3.081a5.174,5.174,0,0,1,2.781.76v-.5a2.106,2.106,0,0,0-2.341-2.181,6.4,6.4,0,0,0-2.76.78l-.7-1.4a6.884,6.884,0,0,1,3.46-.94C108.581,225.7,109.881,227.384,109.881,229.1Zm-1.68,3.441v-1.3a4.428,4.428,0,0,0-2.421-.66c-1.44,0-2.34.72-2.34,1.681,0,1.2,1.08,1.68,2.121,1.68A3.547,3.547,0,0,0,108.2,232.545Z"/><path d="M112.8,220.063h1.681v15.123H112.8Z"/><path d="M129.821,227.084v-7.021h1.68v15.123h-1.54v-1.34a3.6,3.6,0,0,1-3.121,1.58,4.877,4.877,0,0,1,0-9.722A3.672,3.672,0,0,1,129.821,227.084Zm0,1.781a3.282,3.282,0,0,0-2.72-1.6,3.31,3.31,0,0,0,0,6.6,3.282,3.282,0,0,0,2.72-1.6Z"/><path d="M142.9,230.625a5.246,5.246,0,0,1-.02.54h-7.462a3.119,3.119,0,0,0,3.181,2.7,3.568,3.568,0,0,0,2.781-1.361l1.06,1.1a5.15,5.15,0,0,1-3.841,1.821,4.722,4.722,0,0,1-4.821-4.861A4.6,4.6,0,0,1,138.4,225.7C140.981,225.7,142.9,227.645,142.9,230.625Zm-1.64-.86a2.783,2.783,0,0,0-2.861-2.5,2.868,2.868,0,0,0-2.941,2.5Z"/><path d="M145.179,220.063h1.681v15.123h-1.681Z"/><path d="M150.919,221.843a1.141,1.141,0,1,1-1.14,1.14A1.153,1.153,0,0,1,150.919,221.843Zm-.839,4.1h1.68v9.242h-1.68Z"/><path d="M155.3,225.944l2.841,6.262,2.84-6.262H162.7l-4.621,9.642-4.621-9.642Z"/><path d="M172.3,230.625a5.246,5.246,0,0,1-.02.54h-7.462a3.118,3.118,0,0,0,3.181,2.7,3.568,3.568,0,0,0,2.781-1.361l1.06,1.1A5.15,5.15,0,0,1,168,235.426a4.722,4.722,0,0,1-4.821-4.861A4.6,4.6,0,0,1,167.8,225.7C170.381,225.7,172.3,227.645,172.3,230.625Zm-1.64-.86a2.783,2.783,0,0,0-2.861-2.5,2.867,2.867,0,0,0-2.941,2.5Z"/><path d="M179.7,225.944l-.62,1.52a2.344,2.344,0,0,0-1.06-.2,2.572,2.572,0,0,0-2.121,1.561v6.361h-1.68v-9.242h1.561v1.42a3.092,3.092,0,0,1,2.58-1.66A3.863,3.863,0,0,1,179.7,225.944Z"/><path d="M181,237.987a2.15,2.15,0,0,0,1.1.48c.74,0,1.081-.52,1.441-1.421l.72-1.82-4.321-9.282h1.9l3.241,7.3,2.76-7.3h1.821s-4.641,11.682-4.861,12.223a2.717,2.717,0,0,1-2.561,1.86,3.41,3.41,0,0,1-1.96-.66Z"/><path d="M204.3,229.1v6.082H202.76v-1.34a3.905,3.905,0,0,1-3.14,1.58,3.288,3.288,0,0,1-3.441-3.16c0-1.8,1.58-3.081,3.661-3.081a5.178,5.178,0,0,1,2.781.76v-.5a2.107,2.107,0,0,0-2.341-2.181,6.394,6.394,0,0,0-2.76.78l-.7-1.4a6.886,6.886,0,0,1,3.461-.94C203,225.7,204.3,227.384,204.3,229.1Zm-1.68,3.441v-1.3a4.432,4.432,0,0,0-2.421-.66c-1.44,0-2.341.72-2.341,1.681,0,1.2,1.08,1.68,2.121,1.68A3.55,3.55,0,0,0,202.621,232.545Z"/><path d="M214.741,229.245v5.941H213.06v-5.661a2.049,2.049,0,0,0-2.22-2.261,2.91,2.91,0,0,0-2.3,1.561v6.361h-1.68v-9.242h1.56v1.3a3.288,3.288,0,0,1,2.841-1.54A3.364,3.364,0,0,1,214.741,229.245Z"/><path d="M224.12,227.084v-7.021H225.8v15.123H224.26v-1.34a3.6,3.6,0,0,1-3.12,1.58,4.877,4.877,0,0,1,0-9.722A3.671,3.671,0,0,1,224.12,227.084Zm0,1.781a3.282,3.282,0,0,0-2.72-1.6,3.31,3.31,0,0,0,0,6.6,3.282,3.282,0,0,0,2.72-1.6Z"/><path d="M234.879,232.405a3.564,3.564,0,0,0,2.8,1.5c.94,0,2-.4,2-1.14,0-.8-.68-1.2-2.1-1.481-1.981-.4-3.381-1.18-3.381-2.92,0-1.341,1.34-2.661,3.4-2.661a4.806,4.806,0,0,1,3.421,1.4l-1.1,1.141a3.392,3.392,0,0,0-2.32-1.021c-1.181,0-1.761.581-1.761,1.181,0,.7.721,1.08,2.241,1.4,1.76.38,3.26,1.04,3.26,2.921,0,1.78-1.88,2.7-3.66,2.7a5.064,5.064,0,0,1-3.961-1.94Z"/><path d="M243.418,231.885v-5.941H245.1v5.661a2.049,2.049,0,0,0,2.22,2.261,2.783,2.783,0,0,0,2.3-1.521v-6.4h1.68v9.242h-1.56v-1.42a3.276,3.276,0,0,1-2.841,1.66A3.364,3.364,0,0,1,243.418,231.885Z"/><path d="M263.36,230.565a4.643,4.643,0,0,1-4.481,4.861,3.6,3.6,0,0,1-3.12-1.58v1.34h-1.541V220.063H255.9v7.021a3.671,3.671,0,0,1,2.98-1.38A4.643,4.643,0,0,1,263.36,230.565Zm-7.461,1.7a3.282,3.282,0,0,0,2.721,1.6,3.31,3.31,0,0,0,0-6.6,3.282,3.282,0,0,0-2.721,1.6Z"/><path d="M265.838,232.405a3.567,3.567,0,0,0,2.8,1.5c.94,0,2-.4,2-1.14,0-.8-.681-1.2-2.1-1.481-1.98-.4-3.381-1.18-3.381-2.92,0-1.341,1.341-2.661,3.4-2.661a4.806,4.806,0,0,1,3.421,1.4l-1.1,1.141a3.392,3.392,0,0,0-2.32-1.021c-1.18,0-1.76.581-1.76,1.181,0,.7.72,1.08,2.24,1.4,1.76.38,3.261,1.04,3.261,2.921,0,1.78-1.881,2.7-3.661,2.7a5.067,5.067,0,0,1-3.961-1.94Z"/><path d="M282.28,233.646a4.986,4.986,0,0,1-3.781,1.78,4.862,4.862,0,0,1,0-9.722,4.956,4.956,0,0,1,3.681,1.66l-1.14,1.021a3.417,3.417,0,0,0-2.541-1.121,3.309,3.309,0,0,0,0,6.6,3.39,3.39,0,0,0,2.7-1.321Z"/><path d="M289.4,225.944l-.62,1.52a2.341,2.341,0,0,0-1.059-.2,2.57,2.57,0,0,0-2.121,1.561v6.361h-1.681v-9.242h1.561v1.42a3.092,3.092,0,0,1,2.581-1.66A3.86,3.86,0,0,1,289.4,225.944Z"/><path d="M291.857,221.843a1.141,1.141,0,1,1-1.14,1.14A1.153,1.153,0,0,1,291.857,221.843Zm-.839,4.1H292.7v9.242h-1.679Z"/><path d="M297.1,225.944v1.34a3.638,3.638,0,0,1,3.121-1.58,4.877,4.877,0,0,1,0,9.722,3.722,3.722,0,0,1-2.982-1.38v5.741h-1.68V225.944Zm.139,6.342a3.284,3.284,0,0,0,2.721,1.58,3.31,3.31,0,0,0,0-6.6,3.284,3.284,0,0,0-2.721,1.581Z"/><path d="M305.816,225.944h1.8v-2.82H309.3v2.82h2.88v1.52H309.3v4.981a1.238,1.238,0,0,0,1.341,1.421,2.193,2.193,0,0,0,1.059-.38l.62,1.38a3.807,3.807,0,0,1-1.92.56,2.7,2.7,0,0,1-2.781-2.9v-5.061h-1.8Z"/><path d="M315.277,221.843a1.141,1.141,0,1,1-1.14,1.14A1.153,1.153,0,0,1,315.277,221.843Zm-.839,4.1h1.679v9.242h-1.679Z"/><path d="M327.858,230.565a4.762,4.762,0,1,1-4.76-4.861A4.732,4.732,0,0,1,327.858,230.565Zm-1.68,0a3.088,3.088,0,1,0-3.08,3.3A3.1,3.1,0,0,0,326.178,230.565Z"/><path d="M337.658,229.245v5.941h-1.68v-5.661a2.05,2.05,0,0,0-2.221-2.261,2.91,2.91,0,0,0-2.3,1.561v6.361h-1.681v-9.242h1.561v1.3a3.288,3.288,0,0,1,2.841-1.54A3.363,3.363,0,0,1,337.658,229.245Z"/><path d="M346.376,232.405a3.562,3.562,0,0,0,2.8,1.5c.94,0,2-.4,2-1.14,0-.8-.681-1.2-2.1-1.481-1.98-.4-3.381-1.18-3.381-2.92,0-1.341,1.341-2.661,3.4-2.661a4.806,4.806,0,0,1,3.421,1.4l-1.1,1.141a3.4,3.4,0,0,0-2.321-1.021c-1.18,0-1.76.581-1.76,1.181,0,.7.72,1.08,2.24,1.4,1.761.38,3.261,1.04,3.261,2.921,0,1.78-1.881,2.7-3.661,2.7a5.064,5.064,0,0,1-3.961-1.94Z"/><path d="M363.4,230.625c0,.18,0,.32-.019.54h-7.462a3.118,3.118,0,0,0,3.181,2.7,3.571,3.571,0,0,0,2.781-1.361l1.06,1.1a5.153,5.153,0,0,1-3.841,1.821,4.722,4.722,0,0,1-4.821-4.861A4.6,4.6,0,0,1,358.9,225.7C361.477,225.7,363.4,227.645,363.4,230.625Zm-1.639-.86a2.784,2.784,0,0,0-2.861-2.5,2.867,2.867,0,0,0-2.941,2.5Z"/><path d="M370.8,225.944l-.62,1.52a2.351,2.351,0,0,0-1.061-.2,2.57,2.57,0,0,0-2.12,1.561v6.361h-1.681v-9.242h1.561v1.42a3.092,3.092,0,0,1,2.58-1.66A3.865,3.865,0,0,1,370.8,225.944Z"/><path d="M372.794,225.944l2.841,6.262,2.841-6.262h1.72l-4.621,9.642-4.621-9.642Z"/><path d="M382.734,221.843a1.141,1.141,0,1,1-1.14,1.14A1.153,1.153,0,0,1,382.734,221.843Zm-.84,4.1h1.68v9.242h-1.68Z"/><path d="M394.335,233.646a4.983,4.983,0,0,1-3.78,1.78,4.862,4.862,0,0,1,0-9.722,4.952,4.952,0,0,1,3.68,1.66l-1.14,1.021a3.414,3.414,0,0,0-2.54-1.121,3.309,3.309,0,0,0,0,6.6,3.393,3.393,0,0,0,2.7-1.321Z"/><path d="M404.455,230.625c0,.18,0,.32-.019.54h-7.462a3.117,3.117,0,0,0,3.18,2.7,3.572,3.572,0,0,0,2.782-1.361l1.059,1.1a5.15,5.15,0,0,1-3.841,1.821,4.721,4.721,0,0,1-4.82-4.861,4.6,4.6,0,0,1,4.62-4.861C402.535,225.7,404.455,227.645,404.455,230.625Zm-1.64-.86a2.784,2.784,0,0,0-2.861-2.5,2.866,2.866,0,0,0-2.94,2.5Z"/><path d="M81.08,249.944h1.8v-2.82h1.681v2.82h2.88v1.52h-2.88v4.981c0,.9.44,1.421,1.34,1.421a2.193,2.193,0,0,0,1.06-.38l.621,1.38a3.813,3.813,0,0,1-1.921.56,2.7,2.7,0,0,1-2.781-2.9v-5.061h-1.8Z"/><path d="M97.642,253.245v5.941h-1.68v-5.661a2.05,2.05,0,0,0-2.221-2.261,2.91,2.91,0,0,0-2.3,1.561v6.361H89.76V244.063h1.681v7a3.253,3.253,0,0,1,2.721-1.36A3.363,3.363,0,0,1,97.642,253.245Z"/><path d="M107.882,253.1v6.082h-1.541v-1.34a3.905,3.905,0,0,1-3.14,1.58,3.289,3.289,0,0,1-3.441-3.16c0-1.8,1.58-3.081,3.661-3.081a5.178,5.178,0,0,1,2.781.76v-.5a2.107,2.107,0,0,0-2.341-2.181,6.394,6.394,0,0,0-2.76.78l-.7-1.4a6.886,6.886,0,0,1,3.461-.94C106.582,249.7,107.882,251.384,107.882,253.1Zm-1.68,3.441v-1.3a4.432,4.432,0,0,0-2.421-.66c-1.44,0-2.341.72-2.341,1.681,0,1.2,1.081,1.68,2.121,1.68A3.55,3.55,0,0,0,106.2,256.545Z"/><path d="M109.64,249.944h1.8v-2.82h1.681v2.82H116v1.52h-2.88v4.981c0,.9.44,1.421,1.34,1.421a2.193,2.193,0,0,0,1.06-.38l.62,1.38a3.807,3.807,0,0,1-1.92.56,2.7,2.7,0,0,1-2.781-2.9v-5.061h-1.8Z"/><path d="M131.242,253.1v6.082H129.7v-1.34a3.905,3.905,0,0,1-3.14,1.58,3.288,3.288,0,0,1-3.441-3.16c0-1.8,1.58-3.081,3.661-3.081a5.178,5.178,0,0,1,2.781.76v-.5a2.107,2.107,0,0,0-2.341-2.181,6.4,6.4,0,0,0-2.761.78l-.7-1.4a6.886,6.886,0,0,1,3.461-.94C129.941,249.7,131.242,251.384,131.242,253.1Zm-1.68,3.441v-1.3a4.432,4.432,0,0,0-2.421-.66c-1.44,0-2.341.72-2.341,1.681,0,1.2,1.08,1.68,2.121,1.68A3.55,3.55,0,0,0,129.562,256.545Z"/><path d="M134.16,244.063h1.68v15.123h-1.68Z"/><path d="M139.12,244.063h1.68v15.123h-1.68Z"/><path d="M152.6,254.565a4.762,4.762,0,1,1-4.761-4.861A4.733,4.733,0,0,1,152.6,254.565Zm-1.681,0a3.088,3.088,0,1,0-3.08,3.3A3.1,3.1,0,0,0,150.921,254.565Z"/><path d="M155.06,249.944l2.48,5.981,2.44-5.981h1.141l2.461,5.981,2.46-5.981h1.72l-4.22,9.642-3.042-6.941-3.04,6.941-4.221-9.642Z"/><path d="M169.759,256.4a3.567,3.567,0,0,0,2.8,1.5c.94,0,2-.4,2-1.14,0-.8-.681-1.2-2.1-1.481-1.981-.4-3.381-1.18-3.381-2.92,0-1.341,1.34-2.661,3.4-2.661a4.806,4.806,0,0,1,3.421,1.4l-1.1,1.141a3.392,3.392,0,0,0-2.32-1.021c-1.18,0-1.76.581-1.76,1.181,0,.7.719,1.08,2.24,1.4,1.76.38,3.261,1.04,3.261,2.921,0,1.78-1.881,2.7-3.661,2.7a5.064,5.064,0,0,1-3.961-1.94Z"/><path d="M183.9,255.885v-5.941h1.681v5.661a2.049,2.049,0,0,0,2.22,2.261,2.783,2.783,0,0,0,2.3-1.521v-6.4h1.68v9.242h-1.56v-1.42a3.276,3.276,0,0,1-2.841,1.66A3.364,3.364,0,0,1,183.9,255.885Z"/><path d="M194.9,256.4a3.564,3.564,0,0,0,2.8,1.5c.94,0,2-.4,2-1.14,0-.8-.68-1.2-2.1-1.481-1.981-.4-3.381-1.18-3.381-2.92,0-1.341,1.34-2.661,3.4-2.661a4.806,4.806,0,0,1,3.421,1.4l-1.1,1.141a3.392,3.392,0,0,0-2.32-1.021c-1.181,0-1.761.581-1.761,1.181,0,.7.72,1.08,2.241,1.4,1.76.38,3.26,1.04,3.26,2.921,0,1.78-1.88,2.7-3.66,2.7a5.064,5.064,0,0,1-3.961-1.94Z"/><path d="M211.92,254.625a5.246,5.246,0,0,1-.02.54h-7.462a3.119,3.119,0,0,0,3.181,2.7,3.568,3.568,0,0,0,2.781-1.361l1.06,1.1a5.15,5.15,0,0,1-3.841,1.821,4.722,4.722,0,0,1-4.821-4.861,4.6,4.6,0,0,1,4.621-4.861C210,249.7,211.92,251.645,211.92,254.625Zm-1.64-.86a2.783,2.783,0,0,0-2.861-2.5,2.866,2.866,0,0,0-2.94,2.5Z"/><path d="M219.32,249.944l-.62,1.52a2.344,2.344,0,0,0-1.06-.2,2.57,2.57,0,0,0-2.121,1.561v6.361h-1.68v-9.242h1.56v1.42a3.092,3.092,0,0,1,2.581-1.66A3.863,3.863,0,0,1,219.32,249.944Z"/><path d="M220.958,256.4a3.567,3.567,0,0,0,2.8,1.5c.94,0,2-.4,2-1.14,0-.8-.68-1.2-2.1-1.481-1.98-.4-3.381-1.18-3.381-2.92,0-1.341,1.341-2.661,3.4-2.661a4.806,4.806,0,0,1,3.421,1.4l-1.1,1.141a3.393,3.393,0,0,0-2.321-1.021c-1.18,0-1.76.581-1.76,1.181,0,.7.72,1.08,2.24,1.4,1.76.38,3.261,1.04,3.261,2.921,0,1.78-1.88,2.7-3.661,2.7a5.067,5.067,0,0,1-3.961-1.94Z"/><path d="M234.3,249.944h1.8v-2.82h1.681v2.82h2.88v1.52h-2.88v4.981c0,.9.44,1.421,1.34,1.421a2.193,2.193,0,0,0,1.06-.38l.62,1.38a3.807,3.807,0,0,1-1.92.56,2.7,2.7,0,0,1-2.781-2.9v-5.061h-1.8Z"/><path d="M251.5,254.565a4.762,4.762,0,1,1-4.761-4.861A4.733,4.733,0,0,1,251.5,254.565Zm-1.68,0a3.088,3.088,0,1,0-3.081,3.3A3.1,3.1,0,0,0,249.82,254.565Z"/><path d="M266.92,257.646a4.984,4.984,0,0,1-3.781,1.78,4.862,4.862,0,0,1,0-9.722,4.953,4.953,0,0,1,3.681,1.66l-1.14,1.021a3.417,3.417,0,0,0-2.541-1.121,3.309,3.309,0,0,0,0,6.6,3.39,3.39,0,0,0,2.7-1.321Z"/><path d="M268.558,255.885v-5.941h1.68v5.661a2.05,2.05,0,0,0,2.221,2.261,2.781,2.781,0,0,0,2.3-1.521v-6.4h1.681v9.242h-1.561v-1.42a3.274,3.274,0,0,1-2.84,1.66A3.363,3.363,0,0,1,268.558,255.885Z"/><path d="M279.558,256.4a3.567,3.567,0,0,0,2.8,1.5c.94,0,2-.4,2-1.14,0-.8-.68-1.2-2.1-1.481-1.981-.4-3.381-1.18-3.381-2.92,0-1.341,1.34-2.661,3.4-2.661a4.806,4.806,0,0,1,3.421,1.4l-1.1,1.141a3.392,3.392,0,0,0-2.32-1.021c-1.18,0-1.76.581-1.76,1.181,0,.7.719,1.08,2.24,1.4,1.76.38,3.261,1.04,3.261,2.921,0,1.78-1.881,2.7-3.661,2.7a5.064,5.064,0,0,1-3.961-1.94Z"/><path d="M287.3,249.944h1.8v-2.82h1.68v2.82h2.88v1.52h-2.88v4.981a1.238,1.238,0,0,0,1.341,1.421,2.193,2.193,0,0,0,1.06-.38l.62,1.38a3.813,3.813,0,0,1-1.92.56,2.7,2.7,0,0,1-2.781-2.9v-5.061h-1.8Z"/><path d="M304.5,254.565a4.762,4.762,0,1,1-4.762-4.861A4.733,4.733,0,0,1,304.5,254.565Zm-1.681,0a3.088,3.088,0,1,0-3.081,3.3A3.1,3.1,0,0,0,302.819,254.565Z"/><path d="M319.38,253.245v5.941H317.7v-5.681c0-1.5-.78-2.241-1.98-2.241a2.38,2.38,0,0,0-1.981,1.481v6.441h-1.68v-5.681c0-1.5-.781-2.241-1.981-2.241a2.416,2.416,0,0,0-1.98,1.481v6.441h-1.68v-9.242h1.561v1.36a2.82,2.82,0,0,1,2.56-1.6,2.879,2.879,0,0,1,2.88,1.72,3.053,3.053,0,0,1,2.761-1.72C318.1,249.7,319.38,250.964,319.38,253.245Z"/><path d="M323.078,245.843a1.141,1.141,0,1,1-1.14,1.14A1.153,1.153,0,0,1,323.078,245.843Zm-.841,4.1h1.681v9.242h-1.681Z"/><path d="M334.439,249.944l-5.3,7.681h5.081v1.561h-8.042l5.3-7.682h-5.022v-1.56Z"/><path d="M344.658,254.625c0,.18,0,.32-.019.54h-7.462a3.117,3.117,0,0,0,3.18,2.7,3.572,3.572,0,0,0,2.782-1.361l1.059,1.1a5.15,5.15,0,0,1-3.841,1.821,4.721,4.721,0,0,1-4.82-4.861,4.6,4.6,0,0,1,4.62-4.861C342.738,249.7,344.658,251.645,344.658,254.625Zm-1.639-.86a2.785,2.785,0,0,0-2.862-2.5,2.866,2.866,0,0,0-2.94,2.5Z"/><path d="M360.077,257.646a4.983,4.983,0,0,1-3.78,1.78,4.862,4.862,0,0,1,0-9.722,4.956,4.956,0,0,1,3.681,1.66l-1.141,1.021a3.411,3.411,0,0,0-2.54-1.121,3.309,3.309,0,0,0,0,6.6,3.39,3.39,0,0,0,2.7-1.321Z"/><path d="M369.4,253.1v6.082h-1.54v-1.34a3.905,3.905,0,0,1-3.14,1.58,3.289,3.289,0,0,1-3.442-3.16c0-1.8,1.581-3.081,3.662-3.081a5.172,5.172,0,0,1,2.78.76v-.5a2.106,2.106,0,0,0-2.34-2.181,6.406,6.406,0,0,0-2.761.78l-.7-1.4a6.886,6.886,0,0,1,3.461-.94C368.1,249.7,369.4,251.384,369.4,253.1Zm-1.68,3.441v-1.3a4.427,4.427,0,0,0-2.42-.66c-1.441,0-2.341.72-2.341,1.681,0,1.2,1.08,1.68,2.12,1.68A3.548,3.548,0,0,0,367.717,256.545Z"/><path d="M372.316,244.063H374v15.123h-1.68Z"/><path d="M385.8,254.565a4.763,4.763,0,1,1-4.761-4.861A4.732,4.732,0,0,1,385.8,254.565Zm-1.681,0a3.088,3.088,0,1,0-3.08,3.3A3.1,3.1,0,0,0,384.117,254.565Z"/><path d="M393.2,249.944l-.62,1.52a2.344,2.344,0,0,0-1.06-.2,2.572,2.572,0,0,0-2.121,1.561v6.361h-1.68v-9.242h1.56v1.42a3.094,3.094,0,0,1,2.58-1.66A3.865,3.865,0,0,1,393.2,249.944Z"/><path d="M395.656,245.843a1.141,1.141,0,1,1-1.14,1.14A1.153,1.153,0,0,1,395.656,245.843Zm-.841,4.1H396.5v9.242h-1.681Z"/><path d="M407.837,254.625a5.246,5.246,0,0,1-.02.54h-7.462a3.119,3.119,0,0,0,3.181,2.7,3.571,3.571,0,0,0,2.781-1.361l1.06,1.1a5.15,5.15,0,0,1-3.841,1.821,4.722,4.722,0,0,1-4.821-4.861,4.6,4.6,0,0,1,4.621-4.861C405.917,249.7,407.837,251.645,407.837,254.625Zm-1.64-.86a2.784,2.784,0,0,0-2.861-2.5,2.866,2.866,0,0,0-2.94,2.5Z"/><path d="M84.182,281.646a4.984,4.984,0,0,1-3.781,1.78,4.862,4.862,0,0,1,0-9.722,4.953,4.953,0,0,1,3.681,1.66l-1.14,1.021a3.415,3.415,0,0,0-2.541-1.121,3.309,3.309,0,0,0,0,6.6,3.391,3.391,0,0,0,2.7-1.321Z"/><path d="M94.7,278.565a4.762,4.762,0,1,1-4.761-4.861A4.732,4.732,0,0,1,94.7,278.565Zm-1.68,0a3.088,3.088,0,1,0-3.081,3.3A3.1,3.1,0,0,0,93.022,278.565Z"/><path d="M96.62,279.885v-5.941H98.3v5.661a2.05,2.05,0,0,0,2.221,2.261,2.781,2.781,0,0,0,2.3-1.521v-6.4H104.5v9.242h-1.561v-1.42a3.274,3.274,0,0,1-2.84,1.66A3.363,3.363,0,0,1,96.62,279.885Z"/><path d="M114.942,277.245v5.941h-1.681v-5.661a2.049,2.049,0,0,0-2.22-2.261,2.913,2.913,0,0,0-2.3,1.561v6.361h-1.68v-9.242h1.561v1.3a3.285,3.285,0,0,1,2.84-1.54A3.364,3.364,0,0,1,114.942,277.245Z"/><path d="M116.7,273.944h1.8v-2.82h1.681v2.82h2.88v1.52h-2.88v4.981c0,.9.44,1.421,1.34,1.421a2.193,2.193,0,0,0,1.06-.38l.62,1.38a3.807,3.807,0,0,1-1.92.56,2.7,2.7,0,0,1-2.781-2.9v-5.061h-1.8Z"/><path d="M138.3,277.1v6.082h-1.541v-1.34a3.905,3.905,0,0,1-3.14,1.58,3.288,3.288,0,0,1-3.441-3.16c0-1.8,1.58-3.081,3.661-3.081a5.178,5.178,0,0,1,2.781.76v-.5a2.107,2.107,0,0,0-2.341-2.181,6.394,6.394,0,0,0-2.76.78l-.7-1.4a6.886,6.886,0,0,1,3.461-.94C137,273.7,138.3,275.384,138.3,277.1Zm-1.68,3.441v-1.3a4.432,4.432,0,0,0-2.421-.66c-1.44,0-2.341.72-2.341,1.681,0,1.2,1.08,1.68,2.121,1.68A3.55,3.55,0,0,0,136.622,280.545Z"/><path d="M148.742,277.245v5.941h-1.681v-5.661a2.049,2.049,0,0,0-2.22-2.261,2.91,2.91,0,0,0-2.3,1.561v6.361h-1.68v-9.242h1.56v1.3a3.288,3.288,0,0,1,2.841-1.54A3.364,3.364,0,0,1,148.742,277.245Z"/><path d="M158.121,275.084v-7.021H159.8v15.123h-1.541v-1.34a3.6,3.6,0,0,1-3.12,1.58,4.877,4.877,0,0,1,0-9.722A3.671,3.671,0,0,1,158.121,275.084Zm0,1.781a3.282,3.282,0,0,0-2.72-1.6,3.31,3.31,0,0,0,0,6.6,3.282,3.282,0,0,0,2.72-1.6Z"/><path d="M181.283,277.245v5.941H179.6v-5.681c0-1.5-.78-2.241-1.98-2.241a2.38,2.38,0,0,0-1.98,1.481v6.441h-1.681v-5.681c0-1.5-.78-2.241-1.981-2.241a2.416,2.416,0,0,0-1.98,1.481v6.441h-1.68v-9.242h1.56v1.36a2.824,2.824,0,0,1,2.561-1.6,2.879,2.879,0,0,1,2.88,1.72,3.055,3.055,0,0,1,2.761-1.72C180,273.7,181.283,274.964,181.283,277.245Z"/><path d="M191.521,277.1v6.082H189.98v-1.34a3.905,3.905,0,0,1-3.14,1.58,3.289,3.289,0,0,1-3.441-3.16c0-1.8,1.58-3.081,3.661-3.081a5.178,5.178,0,0,1,2.781.76v-.5a2.107,2.107,0,0,0-2.341-2.181,6.4,6.4,0,0,0-2.76.78l-.7-1.4a6.88,6.88,0,0,1,3.46-.94C190.221,273.7,191.521,275.384,191.521,277.1Zm-1.68,3.441v-1.3a4.432,4.432,0,0,0-2.421-.66c-1.44,0-2.34.72-2.34,1.681,0,1.2,1.08,1.68,2.12,1.68A3.55,3.55,0,0,0,189.841,280.545Z"/><path d="M201.981,281.646a4.984,4.984,0,0,1-3.781,1.78,4.862,4.862,0,0,1,0-9.722,4.953,4.953,0,0,1,3.681,1.66l-1.14,1.021a3.417,3.417,0,0,0-2.541-1.121,3.309,3.309,0,0,0,0,6.6,3.39,3.39,0,0,0,2.7-1.321Z"/><path d="M209.1,273.944l-.62,1.52a2.344,2.344,0,0,0-1.06-.2,2.57,2.57,0,0,0-2.121,1.561v6.361h-1.68v-9.242h1.561v1.42a3.092,3.092,0,0,1,2.58-1.66A3.863,3.863,0,0,1,209.1,273.944Z"/><path d="M218.981,278.565a4.762,4.762,0,1,1-4.761-4.861A4.733,4.733,0,0,1,218.981,278.565Zm-1.68,0a3.088,3.088,0,1,0-3.081,3.3A3.1,3.1,0,0,0,217.3,278.565Z"/><path d="M228.781,277.245v5.941H227.1v-5.661a2.049,2.049,0,0,0-2.22-2.261,2.91,2.91,0,0,0-2.3,1.561v6.361H220.9v-9.242h1.56v1.3a3.288,3.288,0,0,1,2.841-1.54A3.364,3.364,0,0,1,228.781,277.245Z"/><path d="M231.339,279.885v-5.941h1.68v5.661a2.05,2.05,0,0,0,2.221,2.261,2.781,2.781,0,0,0,2.3-1.521v-6.4h1.681v9.242H237.66v-1.42a3.274,3.274,0,0,1-2.84,1.66A3.363,3.363,0,0,1,231.339,279.885Z"/><path d="M240.979,273.944h1.8v-2.82h1.68v2.82h2.881v1.52h-2.881v4.981a1.238,1.238,0,0,0,1.341,1.421,2.193,2.193,0,0,0,1.06-.38l.62,1.38a3.807,3.807,0,0,1-1.92.56,2.7,2.7,0,0,1-2.781-2.9v-5.061h-1.8Z"/><path d="M254.78,273.944l-.62,1.52a2.344,2.344,0,0,0-1.06-.2,2.57,2.57,0,0,0-2.121,1.561v6.361H249.3v-9.242h1.56v1.42a3.092,3.092,0,0,1,2.581-1.66A3.863,3.863,0,0,1,254.78,273.944Z"/><path d="M257.239,269.843a1.141,1.141,0,1,1-1.14,1.14A1.153,1.153,0,0,1,257.239,269.843Zm-.84,4.1h1.68v9.242H256.4Z"/><path d="M269.42,278.625a5.246,5.246,0,0,1-.02.54h-7.462a3.119,3.119,0,0,0,3.181,2.7,3.568,3.568,0,0,0,2.781-1.361l1.06,1.1a5.15,5.15,0,0,1-3.841,1.821,4.722,4.722,0,0,1-4.821-4.861,4.6,4.6,0,0,1,4.621-4.861C267.5,273.7,269.42,275.645,269.42,278.625Zm-1.64-.86a2.783,2.783,0,0,0-2.861-2.5,2.866,2.866,0,0,0-2.94,2.5Z"/><path d="M279.22,277.245v5.941h-1.68v-5.661a2.05,2.05,0,0,0-2.221-2.261,2.91,2.91,0,0,0-2.3,1.561v6.361h-1.681v-9.242H272.9v1.3a3.287,3.287,0,0,1,2.84-1.54A3.363,3.363,0,0,1,279.22,277.245Z"/><path d="M280.978,273.944h1.8v-2.82h1.681v2.82h2.881v1.52h-2.881v4.981c0,.9.44,1.421,1.34,1.421a2.193,2.193,0,0,0,1.06-.38l.62,1.38a3.8,3.8,0,0,1-1.92.56,2.7,2.7,0,0,1-2.781-2.9v-5.061h-1.8Z"/><path d="M289.858,280.4a3.567,3.567,0,0,0,2.8,1.5c.941,0,2-.4,2-1.14,0-.8-.681-1.2-2.1-1.481-1.981-.4-3.381-1.18-3.381-2.92,0-1.341,1.341-2.661,3.4-2.661A4.8,4.8,0,0,1,296,275.1l-1.1,1.141a3.392,3.392,0,0,0-2.32-1.021c-1.181,0-1.761.581-1.761,1.181,0,.7.721,1.08,2.241,1.4,1.76.38,3.261,1.04,3.261,2.921,0,1.78-1.881,2.7-3.661,2.7a5.067,5.067,0,0,1-3.961-1.94Z"/><path d="M299.418,281.146a1.14,1.14,0,1,1-1.141,1.14A1.153,1.153,0,0,1,299.418,281.146Z"/><path d="M81.932,325.105l-.756,1.945a2.483,2.483,0,0,0-1.027-.2A2.256,2.256,0,0,0,78.241,328v5.582H76.08v-8.535h2.053v1.243a2.779,2.779,0,0,1,2.323-1.459A4.643,4.643,0,0,1,81.932,325.105Z"/><path d="M90.771,329.283c0,.162,0,.486-.019.81H84.378a2.438,2.438,0,0,0,2.395,1.728,3.435,3.435,0,0,0,2.341-.864l1.08,1.621a5.465,5.465,0,0,1-3.421,1.224,4.486,4.486,0,0,1-4.591-4.483,4.3,4.3,0,1,1,8.589-.036Zm-2.161-.757a2.16,2.16,0,0,0-4.232,0Z"/><path d="M99.842,328.022v5.564h-2v-1.08a3.454,3.454,0,0,1-2.808,1.3,2.885,2.885,0,0,1-3.079-2.863c0-1.638,1.494-2.827,3.349-2.827a4.146,4.146,0,0,1,2.377.613v-.487c0-1.116-1.081-1.476-1.837-1.476a6.933,6.933,0,0,0-2.557.63l-.7-1.783a8.642,8.642,0,0,1,3.367-.774C98.4,324.835,99.842,326.078,99.842,328.022Zm-2.16,2.989v-.882a4.321,4.321,0,0,0-1.945-.432c-.666,0-1.585.288-1.585,1.206,0,.9.883,1.1,1.549,1.1A2.533,2.533,0,0,0,97.682,331.011Z"/><path d="M110.157,333.586h-2V332.47a2.95,2.95,0,0,1-2.575,1.332,4.5,4.5,0,0,1,0-8.967A3.043,3.043,0,0,1,108,325.952v-5.978h2.161ZM108,328.04a2.365,2.365,0,0,0-2.035-1.188,2.47,2.47,0,0,0,0,4.933A2.365,2.365,0,0,0,108,330.6Z"/><path d="M123.979,330.741l1.423,1.441a4.619,4.619,0,0,1-3.529,1.62,4.485,4.485,0,1,1,0-8.967,4.574,4.574,0,0,1,3.493,1.585l-1.494,1.332a2.656,2.656,0,0,0-2-.9,2.468,2.468,0,0,0,0,4.933A2.519,2.519,0,0,0,123.979,330.741Z"/><path d="M134.294,328.022v5.564h-2v-1.08a3.454,3.454,0,0,1-2.808,1.3,2.885,2.885,0,0,1-3.079-2.863c0-1.638,1.494-2.827,3.349-2.827a4.146,4.146,0,0,1,2.377.613v-.487c0-1.116-1.081-1.476-1.837-1.476a6.933,6.933,0,0,0-2.557.63l-.7-1.783a8.649,8.649,0,0,1,3.367-.774C132.854,324.835,134.294,326.078,134.294,328.022Zm-2.16,2.989v-.882a4.321,4.321,0,0,0-1.945-.432c-.666,0-1.585.288-1.585,1.206,0,.9.883,1.1,1.549,1.1A2.533,2.533,0,0,0,132.134,331.011Z"/><path d="M137.118,330.687a4.011,4.011,0,0,0,2.574,1.225c.883,0,1.621-.253,1.621-.775,0-.558-.4-.666-1.693-.936-1.692-.36-3.169-1.08-3.169-2.7,0-1.332,1.333-2.665,3.674-2.665a5.447,5.447,0,0,1,3.205,1.045l-1.081,1.584a3.962,3.962,0,0,0-2.124-.738c-.811,0-1.549.288-1.549.81s.576.649,2.017.954c1.692.361,2.9.919,2.9,2.683,0,1.459-1.549,2.629-3.727,2.629a5.324,5.324,0,0,1-3.854-1.549Z"/><path d="M153.158,329.283c0,.162,0,.486-.018.81h-6.374a2.437,2.437,0,0,0,2.4,1.728,3.434,3.434,0,0,0,2.34-.864l1.081,1.621a5.469,5.469,0,0,1-3.421,1.224,4.486,4.486,0,0,1-4.592-4.483,4.3,4.3,0,1,1,8.589-.036Zm-2.16-.757a1.985,1.985,0,0,0-2.143-1.728,1.964,1.964,0,0,0-2.089,1.728Z"/><path d="M160.7,330.687a4.011,4.011,0,0,0,2.574,1.225c.883,0,1.621-.253,1.621-.775,0-.558-.4-.666-1.693-.936-1.692-.36-3.169-1.08-3.169-2.7,0-1.332,1.333-2.665,3.674-2.665a5.447,5.447,0,0,1,3.2,1.045l-1.081,1.584a3.962,3.962,0,0,0-2.124-.738c-.81,0-1.549.288-1.549.81s.576.649,2.017.954c1.692.361,2.9.919,2.9,2.683,0,1.459-1.549,2.629-3.727,2.629a5.324,5.324,0,0,1-3.854-1.549Z"/><path d="M168.041,325.051h1.674v-2.538h2.161v2.538h2.575V327h-2.575v3.439c0,1.044.54,1.35,1.116,1.35a1.711,1.711,0,0,0,.9-.306l.792,1.765a3.888,3.888,0,0,1-2.053.558,2.857,2.857,0,0,1-2.917-3.025V327h-1.674Z"/><path d="M176.213,330.579v-5.528h2.161v4.934c0,1.26.594,1.8,1.692,1.8a2.1,2.1,0,0,0,1.693-1.044v-5.69h2.16v8.535H181.9v-1.242a3.077,3.077,0,0,1-5.69-1.765Z"/><path d="M194.233,333.586h-2V332.47a2.95,2.95,0,0,1-2.574,1.332,4.5,4.5,0,0,1,0-8.967,3.042,3.042,0,0,1,2.412,1.117v-5.978h2.161Zm-2.161-5.546a2.364,2.364,0,0,0-2.034-1.188,2.47,2.47,0,0,0,0,4.933,2.364,2.364,0,0,0,2.034-1.188Z"/><path d="M196.931,335.369a2.025,2.025,0,0,0,1.134.558c.739,0,1.044-.217,1.458-1.261l.343-.882-4.159-8.733H198.1l2.881,6.248,2.251-6.248h2.323L201.414,335.5a3.3,3.3,0,0,1-3.2,2.448,3.78,3.78,0,0,1-2.286-.9Z"/></svg>