<svg id="pashi" xmlns="http://www.w3.org/2000/svg" viewBox="0 0 570 730"><defs><style>.cls-1{fill:#45b549;}.cls-2{fill:#009549;}.cls-3{font-size:24px;}.cls-3,.cls-9{font-family:Europa-Bold;font-weight:700;}.cls-11,.cls-4{font-size:21px;}.cls-4{font-family:Europa-Regular;}.cls-5{letter-spacing:-0.02em;}.cls-6{letter-spacing:-0.01em;}.cls-7{letter-spacing:-0.01em;}.cls-8{letter-spacing:-0.01em;}.cls-9{font-size:18px;}.cls-10{letter-spacing:-0.02em;}</style></defs><path class="cls-1" d="M342.18,515.45c45.79-4.71,60.67-31.78,60.72-31.78a3.06,3.06,0,0,1,4-1.17,2.8,2.8,0,0,1,1.48,1.72c15.22,48.23,6.91,81.49-10.56,101.22A65.48,65.48,0,0,1,372.56,603a66.77,66.77,0,0,1-28.67,4.54C325.13,606.35,308,597,300,580.2a43.57,43.57,0,0,1,1.7-40.59,47,47,0,0,1,23.11-19.85,61.2,61.2,0,0,1,17.33-4.31Z"/><path class="cls-2" d="M402.58,484.69a3,3,0,0,1,5.89.13,2,2,0,0,1,0,.34c0,.13-2.57,31.77-35.62,63.78l-.31.31a169.91,169.91,0,0,1-25.44,20.06l19.85,3.45a2.74,2.74,0,0,1,2.17,3.32,2.92,2.92,0,0,1-3.16,2.09L340,573.64c-23.62,14-63.67,26.88-67.16,57.34a2.92,2.92,0,0,1-3.32,2.36,2.81,2.81,0,0,1-2.55-2.91c4.18-36.51,43.89-45.9,70.67-61.86l.37-.23a168.64,168.64,0,0,0,29.52-22.1l-2.35-21.72a2.8,2.8,0,0,1,2.53-3.09,2.92,2.92,0,0,1,3.32,2.36c0,.06,0,.13,0,.19l1.78,16.85c27.54-28.89,29.71-56,29.73-56.14Z"/><text class="cls-3" transform="translate(63 129.64)">Pashi</text><text class="cls-4" transform="translate(63 183.94)">a coo<tspan class="cls-5" x="49.33" y="0">k</tspan><tspan x="59.37" y="0">ed meal deli</tspan><tspan class="cls-6" x="170.41" y="0">v</tspan><tspan x="180.07" y="0">ery and subscription service </tspan><tspan x="0" y="25.2">that all</tspan><tspan class="cls-7" x="64.93" y="25.2">o</tspan><tspan x="76.1" y="25.2">ws use</tspan><tspan class="cls-8" x="138.56" y="25.2">r</tspan><tspan x="145.44" y="25.2">s to customize calorie count and </tspan><tspan x="0" y="50.4">mac</tspan><tspan class="cls-5" x="37.06" y="50.4">r</tspan><tspan x="43.87" y="50.4">onutrients. </tspan><tspan class="cls-9"><tspan class="cls-10" x="0" y="100.8">r</tspan><tspan x="6.68" y="100.8">ead case study</tspan><tspan class="cls-11" x="130.59" y="100.8"> </tspan></tspan></text></svg>