<svg id="phonomenal" xmlns="http://www.w3.org/2000/svg" viewBox="0 0 570 730"><defs><style>.cls-1{font-size:24px;font-family:Europa-Bold;font-weight:700;}.cls-2{fill:#f7f0e6;}.cls-3{fill:#eee2d4;}.cls-4{fill:#ffbe50;}.cls-5{fill:#ffcd6e;}.cls-6{fill:#addf6e;}.cls-7{fill:#ffe6a0;}.cls-8{fill:#ffdc8c;}.cls-9{fill:#d2eb5f;}.cls-10{fill:#f5dcb4;}.cls-11{fill:#e6c8a5;}</style></defs><text class="cls-1" transform="translate(63 129.64)">Phonomenal</text><path d="M72.41,177.56v6.38H70.79v-1.4a4.1,4.1,0,0,1-3.3,1.65,3.45,3.45,0,0,1-3.61-3.31c0-1.89,1.66-3.24,3.84-3.24a5.41,5.41,0,0,1,2.92.8v-.52a2.21,2.21,0,0,0-2.45-2.29,6.73,6.73,0,0,0-2.9.82L64.55,175a7.26,7.26,0,0,1,3.64-1C71,174,72.41,175.75,72.41,177.56Zm-1.77,3.61v-1.36a4.59,4.59,0,0,0-2.54-.7c-1.51,0-2.45.76-2.45,1.77,0,1.26,1.13,1.76,2.22,1.76A3.72,3.72,0,0,0,70.64,181.17Z"/><path d="M81.69,174.24l3,6.57,3-6.57h1.81l-4.85,10.12-4.85-10.12Z"/><path d="M92.13,169.94a1.2,1.2,0,1,1-1.2,1.19A1.2,1.2,0,0,1,92.13,169.94Zm-.89,4.3H93v9.7H91.24Z"/><path d="M104.91,179.15c0,.19,0,.34,0,.57H97.06a3.28,3.28,0,0,0,3.34,2.84,3.75,3.75,0,0,0,2.92-1.43l1.11,1.15a5.41,5.41,0,0,1-4,1.91,5,5,0,0,1-5.06-5.1,4.82,4.82,0,0,1,4.85-5.1C102.9,174,104.91,176,104.91,179.15Zm-1.72-.9a2.92,2.92,0,0,0-3-2.62,3,3,0,0,0-3.09,2.62Z"/><path d="M106.09,174.24H108v-3h1.76v3h3v1.6h-3v5.23a1.3,1.3,0,0,0,1.41,1.49,2.26,2.26,0,0,0,1.11-.4l.66,1.45a4,4,0,0,1-2,.58,2.83,2.83,0,0,1-2.92-3v-5.31h-1.89Z"/><path d="M123.1,177.71v6.23h-1.76V178a2.15,2.15,0,0,0-2.33-2.37,3.06,3.06,0,0,0-2.42,1.64v6.67h-1.76v-9.7h1.63v1.37a3.47,3.47,0,0,1,3-1.62A3.53,3.53,0,0,1,123.1,177.71Z"/><path d="M133.85,177.56v6.38h-1.62v-1.4a4.1,4.1,0,0,1-3.29,1.65,3.45,3.45,0,0,1-3.61-3.31c0-1.89,1.66-3.24,3.84-3.24a5.45,5.45,0,0,1,2.92.8v-.52a2.21,2.21,0,0,0-2.46-2.29,6.73,6.73,0,0,0-2.9.82L126,175a7.2,7.2,0,0,1,3.63-1C132.49,174,133.85,175.75,133.85,177.56Zm-1.76,3.61v-1.36a4.63,4.63,0,0,0-2.54-.7c-1.51,0-2.46.76-2.46,1.77,0,1.26,1.13,1.76,2.23,1.76A3.72,3.72,0,0,0,132.09,181.17Z"/><path d="M150.15,177.71v6.23h-1.77v-6c0-1.58-.82-2.35-2.08-2.35a2.49,2.49,0,0,0-2.07,1.55v6.76h-1.77v-6c0-1.58-.82-2.35-2.08-2.35a2.55,2.55,0,0,0-2.08,1.55v6.76h-1.76v-9.7h1.64v1.43a3,3,0,0,1,2.69-1.68,3,3,0,0,1,3,1.81,3.21,3.21,0,0,1,2.9-1.81C148.8,174,150.15,175.31,150.15,177.71Z"/><path d="M161.74,179.15c0,.19,0,.34,0,.57h-7.83a3.27,3.27,0,0,0,3.34,2.84,3.72,3.72,0,0,0,2.91-1.43l1.12,1.15a5.41,5.41,0,0,1-4,1.91,5,5,0,0,1-5.06-5.1A4.82,4.82,0,0,1,157,174C159.72,174,161.74,176,161.74,179.15Zm-1.72-.9a2.92,2.92,0,0,0-3-2.62,3,3,0,0,0-3.09,2.62Z"/><path d="M164.34,181a3.74,3.74,0,0,0,2.94,1.58c1,0,2.1-.42,2.1-1.2s-.71-1.26-2.2-1.55c-2.08-.42-3.55-1.24-3.55-3.07,0-1.4,1.41-2.79,3.57-2.79a5,5,0,0,1,3.59,1.47l-1.15,1.2a3.58,3.58,0,0,0-2.44-1.07c-1.24,0-1.85.6-1.85,1.23s.76,1.14,2.35,1.47c1.85.4,3.43,1.1,3.43,3.07s-2,2.83-3.85,2.83a5.3,5.3,0,0,1-4.15-2Z"/><path d="M182.21,179.15c0,.19,0,.34,0,.57h-7.83a3.28,3.28,0,0,0,3.34,2.84,3.75,3.75,0,0,0,2.92-1.43l1.11,1.15a5.41,5.41,0,0,1-4,1.91,5,5,0,0,1-5.06-5.1,4.82,4.82,0,0,1,4.85-5.1C180.2,174,182.21,176,182.21,179.15Zm-1.72-.9a2.92,2.92,0,0,0-3-2.62,3,3,0,0,0-3.09,2.62Z"/><path d="M190.49,169.24h3.8c3.06,0,5,1.62,5,4.43s-2,4.43-5,4.43h-2v5.84h-1.76Zm3.69,7.19c2,0,3.36-.89,3.36-2.76s-1.36-2.75-3.36-2.75h-1.93v5.51Z"/><path d="M209.85,177.71v6.23h-1.76V178a2.15,2.15,0,0,0-2.33-2.37,3.06,3.06,0,0,0-2.42,1.64v6.67h-1.76V168.07h1.76v7.35A3.42,3.42,0,0,1,206.2,174,3.53,3.53,0,0,1,209.85,177.71Z"/><path d="M221.86,179.09a5,5,0,1,1-5-5.1A5,5,0,0,1,221.86,179.09Zm-1.76,0a3.24,3.24,0,1,0-3.24,3.47A3.25,3.25,0,0,0,220.1,179.09Z"/><path d="M228.54,187.11a1.71,1.71,0,0,0,.74.28c.48,0,1.11-.13,1.11-1.5V174.24h1.76v11.82c0,2.31-1.55,3-2.6,3a3.09,3.09,0,0,1-1.64-.44Zm2.73-17.17a1.2,1.2,0,1,1-1.2,1.19A1.21,1.21,0,0,1,231.27,169.94Z"/><path d="M244.48,179.09a5,5,0,1,1-5-5.1A5,5,0,0,1,244.48,179.09Zm-1.77,0a3.24,3.24,0,1,0-3.23,3.47A3.25,3.25,0,0,0,242.71,179.09Z"/><path d="M247.69,169.94a1.2,1.2,0,1,1-1.19,1.19A1.21,1.21,0,0,1,247.69,169.94Zm-.88,4.3h1.76v9.7h-1.76Z"/><path d="M259.85,177.71v6.23h-1.76V178a2.15,2.15,0,0,0-2.33-2.37,3.06,3.06,0,0,0-2.42,1.64v6.67h-1.76v-9.7h1.63v1.37a3.47,3.47,0,0,1,3-1.62A3.53,3.53,0,0,1,259.85,177.71Z"/><path d="M261.7,174.24h1.89v-3h1.76v3h3v1.6h-3v5.23a1.3,1.3,0,0,0,1.41,1.49,2.26,2.26,0,0,0,1.11-.4l.65,1.45a4,4,0,0,1-2,.58,2.83,2.83,0,0,1-2.92-3v-5.31H261.7Z"/><path d="M277,169.24h1.76v14.7H277Z"/><path d="M296.05,177.56v6.38h-1.61v-1.4a4.13,4.13,0,0,1-3.3,1.65,3.45,3.45,0,0,1-3.61-3.31c0-1.89,1.66-3.24,3.84-3.24a5.41,5.41,0,0,1,2.92.8v-.52a2.21,2.21,0,0,0-2.46-2.29,6.66,6.66,0,0,0-2.89.82L288.2,175a7.2,7.2,0,0,1,3.63-1C294.69,174,296.05,175.75,296.05,177.56Zm-1.76,3.61v-1.36a4.63,4.63,0,0,0-2.54-.7c-1.51,0-2.46.76-2.46,1.77,0,1.26,1.14,1.76,2.23,1.76A3.72,3.72,0,0,0,294.29,181.17Z"/><path d="M307,182.33a5.25,5.25,0,0,1-4,1.86,5.1,5.1,0,0,1,0-10.2,5.21,5.21,0,0,1,3.86,1.74l-1.2,1.07a3.57,3.57,0,0,0-2.66-1.17,3.47,3.47,0,0,0,0,6.93,3.54,3.54,0,0,0,2.83-1.39Z"/><path d="M317.68,174.24v14.53h-1.76v-6a3.91,3.91,0,0,1-3.13,1.44,5.12,5.12,0,0,1,0-10.2,3.83,3.83,0,0,1,3.28,1.66v-1.41Zm-1.76,3a3.44,3.44,0,0,0-2.86-1.66,3.48,3.48,0,0,0,0,6.93,3.44,3.44,0,0,0,2.86-1.66Z"/><path d="M320.37,180.48v-6.24h1.77v5.94a2.16,2.16,0,0,0,2.33,2.38,2.9,2.9,0,0,0,2.41-1.6v-6.72h1.77v9.7H327v-1.49a3.43,3.43,0,0,1-3,1.74A3.53,3.53,0,0,1,320.37,180.48Z"/><path d="M332.53,169.94a1.2,1.2,0,1,1-1.2,1.19A1.21,1.21,0,0,1,332.53,169.94Zm-.88,4.3h1.76v9.7h-1.76Z"/><path d="M342.17,174.24l-.65,1.6a2.46,2.46,0,0,0-1.11-.21,2.69,2.69,0,0,0-2.23,1.64v6.67h-1.76v-9.7h1.63v1.49a3.26,3.26,0,0,1,2.71-1.74A4.1,4.1,0,0,1,342.17,174.24Z"/><path d="M352.12,179.15c0,.19,0,.34,0,.57h-7.83a3.28,3.28,0,0,0,3.34,2.84,3.75,3.75,0,0,0,2.92-1.43l1.11,1.15a5.41,5.41,0,0,1-4,1.91,5,5,0,0,1-5.06-5.1,4.82,4.82,0,0,1,4.85-5.1C350.11,174,352.12,176,352.12,179.15Zm-1.72-.9a2.92,2.92,0,0,0-3-2.62,3,3,0,0,0-3.09,2.62Z"/><path d="M361.3,175.44v-7.37h1.76v15.87h-1.61v-1.4a3.79,3.79,0,0,1-3.28,1.65,5.12,5.12,0,0,1,0-10.2A3.86,3.86,0,0,1,361.3,175.44Zm0,1.87a3.43,3.43,0,0,0-2.85-1.68,3.47,3.47,0,0,0,0,6.93,3.43,3.43,0,0,0,2.85-1.68Z"/><path d="M380.07,177.56v6.38h-1.61v-1.4a4.1,4.1,0,0,1-3.3,1.65,3.45,3.45,0,0,1-3.61-3.31c0-1.89,1.66-3.24,3.84-3.24a5.41,5.41,0,0,1,2.92.8v-.52a2.21,2.21,0,0,0-2.46-2.29,6.66,6.66,0,0,0-2.89.82l-.74-1.47a7.2,7.2,0,0,1,3.63-1C378.71,174,380.07,175.75,380.07,177.56Zm-1.76,3.61v-1.36a4.63,4.63,0,0,0-2.54-.7c-1.51,0-2.46.76-2.46,1.77,0,1.26,1.14,1.76,2.23,1.76A3.72,3.72,0,0,0,378.31,181.17Z"/><path d="M391,177.71v6.23h-1.77V178a2.15,2.15,0,0,0-2.33-2.37,3.05,3.05,0,0,0-2.41,1.64v6.67h-1.77v-9.7h1.64v1.37a3.45,3.45,0,0,1,3-1.62A3.54,3.54,0,0,1,391,177.71Z"/><path d="M400.88,175.44v-7.37h1.77v15.87H401v-1.4a3.77,3.77,0,0,1-3.27,1.65,5.12,5.12,0,0,1,0-10.2A3.83,3.83,0,0,1,400.88,175.44Zm0,1.87a3.43,3.43,0,0,0-2.85-1.68,3.48,3.48,0,0,0,0,6.93,3.43,3.43,0,0,0,2.85-1.68Z"/><path d="M417.35,174.24l-.65,1.6a2.46,2.46,0,0,0-1.11-.21,2.69,2.69,0,0,0-2.23,1.64v6.67H411.6v-9.7h1.63v1.49a3.26,3.26,0,0,1,2.71-1.74A4.1,4.1,0,0,1,417.35,174.24Z"/><path d="M426.55,177.56v6.38h-1.62v-1.4a4.1,4.1,0,0,1-3.3,1.65,3.45,3.45,0,0,1-3.61-3.31c0-1.89,1.66-3.24,3.85-3.24a5.39,5.39,0,0,1,2.91.8v-.52a2.21,2.21,0,0,0-2.45-2.29,6.73,6.73,0,0,0-2.9.82l-.74-1.47a7.26,7.26,0,0,1,3.64-1C425.18,174,426.55,175.75,426.55,177.56Zm-1.77,3.61v-1.36a4.59,4.59,0,0,0-2.54-.7c-1.51,0-2.45.76-2.45,1.77,0,1.26,1.13,1.76,2.22,1.76A3.72,3.72,0,0,0,424.78,181.17Z"/><path d="M437.51,177.71v6.23h-1.76V178a2.15,2.15,0,0,0-2.34-2.37,3.05,3.05,0,0,0-2.41,1.64v6.67h-1.76v-9.7h1.63v1.37a3.47,3.47,0,0,1,3-1.62A3.53,3.53,0,0,1,437.51,177.71Z"/><path d="M447.28,169.94a1.2,1.2,0,1,1-1.2,1.19A1.2,1.2,0,0,1,447.28,169.94Zm-.89,4.3h1.77v9.7h-1.77Z"/><path d="M459.43,177.71v6.23h-1.76V178a2.15,2.15,0,0,0-2.33-2.37,3.06,3.06,0,0,0-2.42,1.64v6.67h-1.76v-9.7h1.64v1.37a3.45,3.45,0,0,1,3-1.62A3.53,3.53,0,0,1,459.43,177.71Z"/><path d="M476.06,177.56v6.38h-1.61v-1.4a4.1,4.1,0,0,1-3.3,1.65,3.45,3.45,0,0,1-3.61-3.31c0-1.89,1.66-3.24,3.84-3.24a5.41,5.41,0,0,1,2.92.8v-.52a2.21,2.21,0,0,0-2.46-2.29,6.72,6.72,0,0,0-2.89.82l-.74-1.47a7.2,7.2,0,0,1,3.63-1C474.7,174,476.06,175.75,476.06,177.56Zm-1.76,3.61v-1.36a4.63,4.63,0,0,0-2.54-.7c-1.51,0-2.46.76-2.46,1.77,0,1.26,1.14,1.76,2.23,1.76A3.72,3.72,0,0,0,474.3,181.17Z"/><path d="M487,177.71v6.23h-1.77V178a2.15,2.15,0,0,0-2.33-2.37,3.05,3.05,0,0,0-2.41,1.64v6.67h-1.77v-9.7h1.64v1.37a3.45,3.45,0,0,1,3-1.62A3.54,3.54,0,0,1,487,177.71Z"/><path d="M503.66,177.56v6.38H502v-1.4a4.1,4.1,0,0,1-3.29,1.65,3.45,3.45,0,0,1-3.62-3.31c0-1.89,1.66-3.24,3.85-3.24a5.39,5.39,0,0,1,2.91.8v-.52a2.21,2.21,0,0,0-2.45-2.29,6.73,6.73,0,0,0-2.9.82l-.73-1.47a7.2,7.2,0,0,1,3.63-1C502.29,174,503.66,175.75,503.66,177.56Zm-1.77,3.61v-1.36a4.59,4.59,0,0,0-2.54-.7c-1.51,0-2.45.76-2.45,1.77,0,1.26,1.13,1.76,2.22,1.76A3.72,3.72,0,0,0,501.89,181.17Z"/><path d="M505.51,174.24h1.89v-3h1.76v3h3v1.6h-3v5.23a1.3,1.3,0,0,0,1.41,1.49,2.31,2.31,0,0,0,1.11-.4l.65,1.45a4,4,0,0,1-2,.58,2.83,2.83,0,0,1-2.92-3v-5.31h-1.89Z"/><path d="M513.59,178h5.61v1.68h-5.61Z"/><path d="M63.5,199.44h1.89v-3h1.77v3h3V201h-3v5.23c0,.94.46,1.49,1.4,1.49a2.32,2.32,0,0,0,1.12-.4l.65,1.45a4,4,0,0,1-2,.58,2.84,2.84,0,0,1-2.92-3V201H63.5Z"/><path d="M81.14,204.35c0,.19,0,.34,0,.57H73.29a3.27,3.27,0,0,0,3.34,2.84,3.75,3.75,0,0,0,2.92-1.43l1.11,1.15a5.41,5.41,0,0,1-4,1.91,5,5,0,0,1-5.06-5.1,4.82,4.82,0,0,1,4.85-5.1C79.13,199.19,81.14,201.23,81.14,204.35Zm-1.72-.9a2.92,2.92,0,0,0-3-2.62,3,3,0,0,0-3.09,2.62Z"/><path d="M96.77,202.91v6.23H95v-6c0-1.58-.82-2.35-2.08-2.35a2.5,2.5,0,0,0-2.08,1.55v6.76H89.08v-6c0-1.58-.82-2.35-2.08-2.35a2.53,2.53,0,0,0-2.08,1.55v6.76H83.16v-9.7H84.8v1.43a3,3,0,0,1,2.68-1.68,3,3,0,0,1,3,1.81,3.21,3.21,0,0,1,2.9-1.81C95.42,199.19,96.77,200.51,96.77,202.91Z"/><path d="M101.07,199.44v1.41a3.83,3.83,0,0,1,3.28-1.66,5.12,5.12,0,0,1,0,10.2,3.91,3.91,0,0,1-3.13-1.44v6H99.46V199.44Zm.15,6.66a3.44,3.44,0,0,0,2.85,1.66,3.47,3.47,0,0,0,0-6.93,3.44,3.44,0,0,0-2.85,1.66Z"/><path d="M110.23,199.44h1.89v-3h1.76v3h3V201h-3v5.23a1.3,1.3,0,0,0,1.41,1.49,2.31,2.31,0,0,0,1.11-.4l.65,1.45a4,4,0,0,1-2,.58,2.83,2.83,0,0,1-2.92-3V201h-1.89Z"/><path d="M124,199.44h1.89v-3h1.77v3h3V201h-3v5.23c0,.94.46,1.49,1.4,1.49a2.32,2.32,0,0,0,1.12-.4l.65,1.45a4,4,0,0,1-2,.58,2.84,2.84,0,0,1-2.92-3V201H124Z"/><path d="M142.06,204.29a5,5,0,1,1-5-5.1A5,5,0,0,1,142.06,204.29Zm-1.76,0a3.24,3.24,0,1,0-3.23,3.47A3.25,3.25,0,0,0,140.3,204.29Z"/><path d="M149.12,199.44H151v-3h1.76v3h3V201h-3v5.23a1.3,1.3,0,0,0,1.41,1.49,2.26,2.26,0,0,0,1.11-.4l.65,1.45a4,4,0,0,1-2,.58,2.83,2.83,0,0,1-2.92-3V201h-1.89Z"/><path d="M165.92,202.76v6.38H164.3v-1.4a4.1,4.1,0,0,1-3.29,1.65,3.45,3.45,0,0,1-3.62-3.31c0-1.89,1.66-3.24,3.85-3.24a5.39,5.39,0,0,1,2.91.8v-.52a2.2,2.2,0,0,0-2.45-2.29,6.73,6.73,0,0,0-2.9.82l-.73-1.47a7.2,7.2,0,0,1,3.63-1C164.55,199.19,165.92,201,165.92,202.76Zm-1.77,3.61V205a4.59,4.59,0,0,0-2.54-.7c-1.51,0-2.45.76-2.45,1.77,0,1.26,1.13,1.76,2.22,1.76A3.72,3.72,0,0,0,164.15,206.37Z"/><path d="M170.75,204.44v4.7H169V193.27h1.76v10.48l4.16-4.31h2.31L172.68,204l4.91,5.12h-2.45Z"/><path d="M187.55,204.35c0,.19,0,.34,0,.57H179.7a3.27,3.27,0,0,0,3.33,2.84,3.75,3.75,0,0,0,2.92-1.43l1.11,1.15a5.38,5.38,0,0,1-4,1.91,5,5,0,0,1-5.06-5.1,4.83,4.83,0,0,1,4.85-5.1C185.53,199.19,187.55,201.23,187.55,204.35Zm-1.72-.9a2.93,2.93,0,0,0-3-2.62,3,3,0,0,0-3.08,2.62Z"/><path d="M203.51,202.76v6.38h-1.62v-1.4a4.1,4.1,0,0,1-3.3,1.65,3.45,3.45,0,0,1-3.61-3.31c0-1.89,1.66-3.24,3.85-3.24a5.39,5.39,0,0,1,2.91.8v-.52a2.21,2.21,0,0,0-2.45-2.29,6.73,6.73,0,0,0-2.9.82l-.73-1.47a7.2,7.2,0,0,1,3.63-1C202.14,199.19,203.51,201,203.51,202.76Zm-1.77,3.61V205a4.59,4.59,0,0,0-2.54-.7c-1.51,0-2.45.76-2.45,1.77,0,1.26,1.13,1.76,2.22,1.76A3.72,3.72,0,0,0,201.74,206.37Z"/><path d="M222.05,204.29a4.87,4.87,0,0,1-4.7,5.1,3.79,3.79,0,0,1-3.28-1.65v1.4h-1.61V193.27h1.76v7.37a3.86,3.86,0,0,1,3.13-1.45A4.88,4.88,0,0,1,222.05,204.29Zm-7.83,1.79a3.43,3.43,0,0,0,2.85,1.68,3.47,3.47,0,0,0,0-6.93,3.43,3.43,0,0,0-2.85,1.68Z"/><path d="M229.82,199.44l-.65,1.6a2.46,2.46,0,0,0-1.11-.21,2.69,2.69,0,0,0-2.23,1.64v6.67h-1.76v-9.7h1.64v1.49a3.24,3.24,0,0,1,2.7-1.74A4.1,4.1,0,0,1,229.82,199.44Z"/><path d="M239.78,204.35a3.89,3.89,0,0,1,0,.57h-7.83a3.28,3.28,0,0,0,3.34,2.84,3.75,3.75,0,0,0,2.92-1.43l1.11,1.15a5.41,5.41,0,0,1-4,1.91,5,5,0,0,1-5.06-5.1,4.82,4.82,0,0,1,4.85-5.1C237.76,199.19,239.78,201.23,239.78,204.35Zm-1.73-.9a2.92,2.92,0,0,0-3-2.62,3,3,0,0,0-3.09,2.62Z"/><path d="M249.86,202.76v6.38h-1.62v-1.4a4.1,4.1,0,0,1-3.3,1.65,3.45,3.45,0,0,1-3.61-3.31c0-1.89,1.66-3.24,3.84-3.24a5.41,5.41,0,0,1,2.92.8v-.52a2.21,2.21,0,0,0-2.45-2.29,6.73,6.73,0,0,0-2.9.82l-.74-1.47a7.21,7.21,0,0,1,3.64-1C248.49,199.19,249.86,201,249.86,202.76Zm-1.77,3.61V205a4.59,4.59,0,0,0-2.54-.7c-1.51,0-2.46.76-2.46,1.77,0,1.26,1.14,1.76,2.23,1.76A3.72,3.72,0,0,0,248.09,206.37Z"/><path d="M254.69,204.44v4.7h-1.77V193.27h1.77v10.48l4.15-4.31h2.31L256.62,204l4.91,5.12h-2.46Z"/><path d="M267.87,199.44h2V196.1a3,3,0,0,1,3-3.08,4,4,0,0,1,2,.56l-.65,1.45a2.51,2.51,0,0,0-1.14-.38,1.4,1.4,0,0,0-1.47,1.56v3.23h2.52V201h-2.52v8.1h-1.76V201h-2Z"/><path d="M281.75,199.44l-.65,1.6a2.41,2.41,0,0,0-1.11-.21,2.71,2.71,0,0,0-2.23,1.64v6.67H276v-9.7h1.64v1.49a3.24,3.24,0,0,1,2.71-1.74A4,4,0,0,1,281.75,199.44Z"/><path d="M292.13,204.29a5,5,0,1,1-5-5.1A5,5,0,0,1,292.13,204.29Zm-1.77,0a3.24,3.24,0,1,0-3.23,3.47A3.25,3.25,0,0,0,290.36,204.29Z"/><path d="M307.75,202.91v6.23H306v-6c0-1.58-.82-2.35-2.08-2.35a2.5,2.5,0,0,0-2.08,1.55v6.76h-1.76v-6c0-1.58-.82-2.35-2.08-2.35a2.53,2.53,0,0,0-2.08,1.55v6.76h-1.77v-9.7h1.64v1.43a3,3,0,0,1,2.69-1.68,3,3,0,0,1,3,1.81,3.21,3.21,0,0,1,2.9-1.81C306.41,199.19,307.75,200.51,307.75,202.91Z"/><path d="M315.48,199.44h1.89v-3h1.76v3h3V201h-3v5.23a1.3,1.3,0,0,0,1.41,1.49,2.26,2.26,0,0,0,1.11-.4l.65,1.45a4,4,0,0,1-2,.58,2.83,2.83,0,0,1-2.92-3V201h-1.89Z"/><path d="M332.87,202.91v6.23H331.1V203.2a2.15,2.15,0,0,0-2.33-2.37,3.05,3.05,0,0,0-2.41,1.64v6.67h-1.77V193.27h1.77v7.35a3.4,3.4,0,0,1,2.85-1.43A3.54,3.54,0,0,1,332.87,202.91Z"/><path d="M344.46,204.35c0,.19,0,.34,0,.57h-7.83a3.27,3.27,0,0,0,3.33,2.84,3.75,3.75,0,0,0,2.92-1.43l1.11,1.15a5.38,5.38,0,0,1-4,1.91,5,5,0,0,1-5.06-5.1,4.83,4.83,0,0,1,4.85-5.1C342.44,199.19,344.46,201.23,344.46,204.35Zm-1.72-.9a2.93,2.93,0,0,0-3-2.62,3,3,0,0,0-3.08,2.62Z"/><path d="M353.09,199.44l2.6,6.28,2.57-6.28h1.19l2.59,6.28,2.58-6.28h1.8L362,209.56l-3.19-7.28-3.19,7.28-4.43-10.12Z"/><path d="M377.09,204.29a5,5,0,1,1-5-5.1A5,5,0,0,1,377.09,204.29Zm-1.76,0a3.24,3.24,0,1,0-3.24,3.47A3.25,3.25,0,0,0,375.33,204.29Z"/><path d="M384.86,199.44l-.65,1.6a2.46,2.46,0,0,0-1.11-.21,2.71,2.71,0,0,0-2.23,1.64v6.67h-1.76v-9.7h1.64v1.49a3.24,3.24,0,0,1,2.71-1.74A4.07,4.07,0,0,1,384.86,199.44Z"/><path d="M388.39,204.44v4.7h-1.76V193.27h1.76v10.48l4.16-4.31h2.31L390.32,204l4.92,5.12h-2.46Z"/><path d="M411.83,204.29a5,5,0,1,1-5-5.1A5,5,0,0,1,411.83,204.29Zm-1.77,0a3.24,3.24,0,1,0-3.23,3.47A3.25,3.25,0,0,0,410.06,204.29Z"/><path d="M418.78,201h-2.12v8.1h-1.77V201h-2v-1.6h2v-2.81A3.5,3.5,0,0,1,418.5,193a3.63,3.63,0,0,1,2.73,1.17,3.54,3.54,0,0,1,2.71-1.17,3.49,3.49,0,0,1,3.59,3.61v.21a.88.88,0,1,1-1.76,0v-.3a1.77,1.77,0,0,0-1.83-1.89,1.75,1.75,0,0,0-1.82,1.83v3h2.16V201h-2.16v8.1h-1.77v-12.6a1.85,1.85,0,1,0-3.69,0v2.9h2.12Zm7-1.6h1.76v9.7h-1.76Z"/><path d="M438.89,207.53a5.21,5.21,0,0,1-4,1.86,5.1,5.1,0,0,1,0-10.2,5.21,5.21,0,0,1,3.86,1.74l-1.2,1.07a3.57,3.57,0,0,0-2.66-1.17,3.47,3.47,0,0,0,0,6.93,3.54,3.54,0,0,0,2.83-1.39Z"/><path d="M449.52,204.35c0,.19,0,.34,0,.57h-7.83a3.27,3.27,0,0,0,3.34,2.84,3.72,3.72,0,0,0,2.91-1.43l1.12,1.15a5.41,5.41,0,0,1-4,1.91,5,5,0,0,1-5.06-5.1,4.82,4.82,0,0,1,4.84-5.1C447.5,199.19,449.52,201.23,449.52,204.35Zm-1.72-.9a2.93,2.93,0,0,0-3-2.62,3,3,0,0,0-3.08,2.62Z"/><path d="M466.32,204.35c0,.19,0,.34,0,.57h-7.83a3.27,3.27,0,0,0,3.33,2.84,3.73,3.73,0,0,0,2.92-1.43l1.12,1.15a5.42,5.42,0,0,1-4,1.91,5,5,0,0,1-5.05-5.1,4.82,4.82,0,0,1,4.85-5.1C464.3,199.19,466.32,201.23,466.32,204.35Zm-1.72-.9a2.92,2.92,0,0,0-3-2.62,3,3,0,0,0-3.09,2.62Z"/><path d="M476.61,202.91v6.23h-1.76V203.2a2.15,2.15,0,0,0-2.33-2.37,3.06,3.06,0,0,0-2.42,1.64v6.67h-1.76v-9.7H470v1.37a3.47,3.47,0,0,1,3-1.62A3.53,3.53,0,0,1,476.61,202.91Z"/><path d="M480,199.44l3,6.57,3-6.57h1.8l-4.85,10.12-4.85-10.12Z"/><path d="M490.45,195.14a1.2,1.2,0,1,1-1.2,1.19A1.21,1.21,0,0,1,490.45,195.14Zm-.88,4.3h1.76v9.7h-1.76Z"/><path d="M500.09,199.44l-.65,1.6a2.49,2.49,0,0,0-1.12-.21,2.69,2.69,0,0,0-2.22,1.64v6.67h-1.77v-9.7H496v1.49a3.24,3.24,0,0,1,2.71-1.74A4.1,4.1,0,0,1,500.09,199.44Z"/><path d="M510.46,204.29a5,5,0,1,1-5-5.1A5,5,0,0,1,510.46,204.29Zm-1.76,0a3.24,3.24,0,1,0-3.24,3.47A3.25,3.25,0,0,0,508.7,204.29Z"/><path d="M520.75,202.91v6.23H519V203.2a2.15,2.15,0,0,0-2.33-2.37,3.06,3.06,0,0,0-2.42,1.64v6.67h-1.76v-9.7h1.64v1.37a3.45,3.45,0,0,1,3-1.62A3.53,3.53,0,0,1,520.75,202.91Z"/><path d="M522.79,203.18h5.61v1.68h-5.61Z"/><path d="M78,228.11v6.23H76.19v-6c0-1.58-.82-2.35-2.08-2.35A2.5,2.5,0,0,0,72,227.58v6.76H70.26v-6c0-1.58-.81-2.35-2.07-2.35a2.53,2.53,0,0,0-2.08,1.55v6.76H64.34v-9.7H66v1.43a3,3,0,0,1,2.69-1.68,3,3,0,0,1,3,1.81,3.21,3.21,0,0,1,2.9-1.81C76.61,224.39,78,225.71,78,228.11Z"/><path d="M89.54,229.55c0,.19,0,.34,0,.57H81.69A3.27,3.27,0,0,0,85,233,3.75,3.75,0,0,0,88,231.53l1.11,1.15a5.41,5.41,0,0,1-4,1.91,5,5,0,0,1-5.06-5.1,4.82,4.82,0,0,1,4.85-5.1C87.53,224.39,89.54,226.43,89.54,229.55Zm-1.72-.9a2.92,2.92,0,0,0-3-2.62,3,3,0,0,0-3.09,2.62Z"/><path d="M99.83,228.11v6.23H98.07V228.4A2.15,2.15,0,0,0,95.74,226a3.06,3.06,0,0,0-2.42,1.64v6.67H91.56v-9.7H93.2V226a3.45,3.45,0,0,1,3-1.62A3.53,3.53,0,0,1,99.83,228.11Z"/><path d="M101.68,224.64h1.89v-3h1.76v3h3v1.6h-3v5.23a1.3,1.3,0,0,0,1.41,1.49,2.26,2.26,0,0,0,1.11-.4l.66,1.45a4,4,0,0,1-2,.58,2.83,2.83,0,0,1-2.92-3v-5.31h-1.89Z"/><path d="M111.49,232.2a1.2,1.2,0,1,1-1.2,1.2A1.22,1.22,0,0,1,111.49,232.2Z"/><path d="M130.18,221.32H126v-1.68h10.2v1.68h-4.22v13h-1.76Z"/><path d="M136.42,230.88v-6.24h1.76v5.94a2.16,2.16,0,0,0,2.33,2.38,2.9,2.9,0,0,0,2.41-1.6v-6.72h1.77v9.7h-1.64v-1.49a3.43,3.43,0,0,1-3,1.74A3.53,3.53,0,0,1,136.42,230.88Z"/><path d="M153.13,224.64l-.65,1.6a2.46,2.46,0,0,0-1.11-.21,2.69,2.69,0,0,0-2.23,1.64v6.67h-1.76v-9.7H149v1.49a3.24,3.24,0,0,1,2.7-1.74A4.1,4.1,0,0,1,153.13,224.64Z"/><path d="M162.79,228.11v6.23H161V228.4A2.15,2.15,0,0,0,158.7,226a3.06,3.06,0,0,0-2.42,1.64v6.67h-1.76v-9.7h1.64V226a3.45,3.45,0,0,1,3-1.62A3.53,3.53,0,0,1,162.79,228.11Z"/><path d="M174.38,229.55c0,.19,0,.34,0,.57h-7.83a3.27,3.27,0,0,0,3.34,2.84,3.75,3.75,0,0,0,2.92-1.43l1.11,1.15a5.41,5.41,0,0,1-4,1.91,5,5,0,0,1-5.06-5.1,4.82,4.82,0,0,1,4.85-5.1C172.37,224.39,174.38,226.43,174.38,229.55Zm-1.72-.9a2.92,2.92,0,0,0-3-2.62,3,3,0,0,0-3.09,2.62Z"/><path d="M183.56,225.84v-7.37h1.76v15.87h-1.61v-1.4a3.79,3.79,0,0,1-3.28,1.65,5.12,5.12,0,0,1,0-10.2A3.86,3.86,0,0,1,183.56,225.84Zm0,1.87A3.44,3.44,0,0,0,180.7,226a3.48,3.48,0,0,0,0,6.93,3.44,3.44,0,0,0,2.86-1.68Z"/><path d="M203.59,229.49a5,5,0,1,1-5-5.1A5,5,0,0,1,203.59,229.49Zm-1.76,0A3.24,3.24,0,1,0,198.6,233,3.25,3.25,0,0,0,201.83,229.49Z"/><path d="M205.61,230.88v-6.24h1.76v5.94A2.16,2.16,0,0,0,209.7,233a2.93,2.93,0,0,0,2.42-1.6v-6.72h1.76v9.7h-1.63v-1.49a3.46,3.46,0,0,1-3,1.74A3.53,3.53,0,0,1,205.61,230.88Z"/><path d="M215.73,224.64h1.89v-3h1.77v3h3v1.6h-3v5.23c0,.94.46,1.49,1.4,1.49a2.32,2.32,0,0,0,1.12-.4l.65,1.45a4,4,0,0,1-2,.58,2.83,2.83,0,0,1-2.92-3v-5.31h-1.89Z"/><path d="M229.51,224.64h1.89v-3h1.76v3h3v1.6h-3v5.23a1.3,1.3,0,0,0,1.41,1.49,2.31,2.31,0,0,0,1.11-.4l.65,1.45a4,4,0,0,1-2,.58,2.83,2.83,0,0,1-2.92-3v-5.31h-1.89Z"/><path d="M247.57,229.49a5,5,0,1,1-5-5.1A5,5,0,0,1,247.57,229.49Zm-1.77,0a3.24,3.24,0,1,0-3.23,3.47A3.25,3.25,0,0,0,245.8,229.49Z"/><path d="M265.44,229.49a4.87,4.87,0,0,1-4.71,5.1,3.77,3.77,0,0,1-3.27-1.65v1.4h-1.62V218.47h1.77v7.37a3.83,3.83,0,0,1,3.12-1.45A4.88,4.88,0,0,1,265.44,229.49Zm-7.83,1.79a3.43,3.43,0,0,0,2.85,1.68,3.48,3.48,0,0,0,0-6.93,3.43,3.43,0,0,0-2.85,1.68Z"/><path d="M276.36,229.55c0,.19,0,.34,0,.57H268.5a3.29,3.29,0,0,0,3.34,2.84,3.75,3.75,0,0,0,2.92-1.43l1.11,1.15a5.41,5.41,0,0,1-4,1.91,5,5,0,0,1-5.06-5.1,4.82,4.82,0,0,1,4.85-5.1C274.34,224.39,276.36,226.43,276.36,229.55Zm-1.72-.9a2.93,2.93,0,0,0-3-2.62,3,3,0,0,0-3.08,2.62Z"/><path d="M283.33,224.64h2V221.3a3,3,0,0,1,3-3.08,4,4,0,0,1,2,.56l-.66,1.45a2.45,2.45,0,0,0-1.13-.38,1.39,1.39,0,0,0-1.47,1.56v3.23h2.52v1.6h-2.52v8.1h-1.76v-8.1h-2Z"/><path d="M291.46,230.88v-6.24h1.76v5.94a2.16,2.16,0,0,0,2.33,2.38,2.93,2.93,0,0,0,2.42-1.6v-6.72h1.76v9.7h-1.64v-1.49a3.43,3.43,0,0,1-3,1.74A3.53,3.53,0,0,1,291.46,230.88Z"/><path d="M310.69,228.11v6.23h-1.76V228.4A2.15,2.15,0,0,0,306.6,226a3.06,3.06,0,0,0-2.42,1.64v6.67h-1.76v-9.7h1.64V226a3.45,3.45,0,0,1,3-1.62A3.53,3.53,0,0,1,310.69,228.11Z"/><path d="M320.54,225.84v-7.37h1.76v15.87h-1.61v-1.4a3.79,3.79,0,0,1-3.28,1.65,5.12,5.12,0,0,1,0-10.2A3.86,3.86,0,0,1,320.54,225.84Zm0,1.87a3.43,3.43,0,0,0-2.85-1.68,3.47,3.47,0,0,0,0,6.93,3.43,3.43,0,0,0,2.85-1.68Z"/><path d="M333.43,228v6.38h-1.61v-1.4a4.1,4.1,0,0,1-3.3,1.65,3.45,3.45,0,0,1-3.61-3.31c0-1.89,1.66-3.24,3.84-3.24a5.41,5.41,0,0,1,2.92.8v-.52a2.21,2.21,0,0,0-2.46-2.29,6.66,6.66,0,0,0-2.89.82l-.74-1.47a7.2,7.2,0,0,1,3.63-1C332.07,224.39,333.43,226.15,333.43,228Zm-1.76,3.61v-1.36a4.59,4.59,0,0,0-2.54-.7c-1.51,0-2.46.76-2.46,1.77,0,1.26,1.14,1.76,2.23,1.76A3.72,3.72,0,0,0,331.67,231.57Z"/><path d="M349.73,228.11v6.23H348v-6c0-1.58-.82-2.35-2.08-2.35a2.5,2.5,0,0,0-2.08,1.55v6.76H342v-6c0-1.58-.81-2.35-2.07-2.35a2.53,2.53,0,0,0-2.08,1.55v6.76h-1.77v-9.7h1.64v1.43a3,3,0,0,1,2.69-1.68,3,3,0,0,1,3,1.81,3.21,3.21,0,0,1,2.9-1.81C348.39,224.39,349.73,225.71,349.73,228.11Z"/><path d="M361.32,229.55c0,.19,0,.34,0,.57h-7.83a3.27,3.27,0,0,0,3.34,2.84,3.75,3.75,0,0,0,2.92-1.43l1.11,1.15a5.41,5.41,0,0,1-4,1.91,5,5,0,0,1-5.06-5.1,4.82,4.82,0,0,1,4.85-5.1C359.31,224.39,361.32,226.43,361.32,229.55Zm-1.72-.9a2.92,2.92,0,0,0-3-2.62,3,3,0,0,0-3.09,2.62Z"/><path d="M371.61,228.11v6.23h-1.76V228.4a2.15,2.15,0,0,0-2.33-2.37,3.06,3.06,0,0,0-2.42,1.64v6.67h-1.76v-9.7H365V226a3.45,3.45,0,0,1,3-1.62A3.53,3.53,0,0,1,371.61,228.11Z"/><path d="M373.46,224.64h1.89v-3h1.77v3h3v1.6h-3v5.23c0,.94.46,1.49,1.4,1.49a2.26,2.26,0,0,0,1.11-.4l.66,1.45a4,4,0,0,1-2,.58,2.83,2.83,0,0,1-2.92-3v-5.31h-1.89Z"/><path d="M390.26,228v6.38h-1.62v-1.4a4.1,4.1,0,0,1-3.29,1.65,3.44,3.44,0,0,1-3.61-3.31c0-1.89,1.65-3.24,3.84-3.24a5.45,5.45,0,0,1,2.92.8v-.52A2.21,2.21,0,0,0,386,226a6.73,6.73,0,0,0-2.9.82l-.73-1.47a7.2,7.2,0,0,1,3.63-1C388.89,224.39,390.26,226.15,390.26,228Zm-1.76,3.61v-1.36a4.63,4.63,0,0,0-2.54-.7c-1.52,0-2.46.76-2.46,1.77,0,1.26,1.13,1.76,2.22,1.76A3.73,3.73,0,0,0,388.5,231.57Z"/><path d="M393.33,218.47h1.76v15.87h-1.76Z"/><path d="M405.23,220.34a1.2,1.2,0,1,1-1.19,1.19A1.21,1.21,0,0,1,405.23,220.34Zm-.88,4.3h1.77v9.7h-1.77Z"/><path d="M417.39,228.11v6.23h-1.76V228.4A2.15,2.15,0,0,0,413.3,226a3.06,3.06,0,0,0-2.42,1.64v6.67h-1.76v-9.7h1.64V226a3.45,3.45,0,0,1,3-1.62A3.53,3.53,0,0,1,417.39,228.11Z"/><path d="M439.57,228.11v6.23H437.8v-6c0-1.58-.82-2.35-2.08-2.35a2.49,2.49,0,0,0-2.07,1.55v6.76h-1.77v-6c0-1.58-.82-2.35-2.08-2.35a2.55,2.55,0,0,0-2.08,1.55v6.76H426v-9.7h1.64v1.43a3,3,0,0,1,2.69-1.68,3,3,0,0,1,3,1.81,3.21,3.21,0,0,1,2.9-1.81C438.22,224.39,439.57,225.71,439.57,228.11Z"/><path d="M442.24,237.28a2.2,2.2,0,0,0,1.15.51c.78,0,1.13-.55,1.51-1.5l.76-1.91-4.54-9.74h2l3.4,7.67,2.9-7.67h1.91s-4.87,12.26-5.11,12.83a2.83,2.83,0,0,1-2.68,1.95,3.59,3.59,0,0,1-2.06-.69Z"/><path d="M466.91,228.11v6.23h-1.76V228.4a2.15,2.15,0,0,0-2.34-2.37,3.05,3.05,0,0,0-2.41,1.64v6.67h-1.76v-9.7h1.63V226a3.47,3.47,0,0,1,3-1.62A3.53,3.53,0,0,1,466.91,228.11Z"/><path d="M478.5,229.55c0,.19,0,.34,0,.57h-7.83A3.27,3.27,0,0,0,474,233a3.75,3.75,0,0,0,2.92-1.43l1.11,1.15a5.41,5.41,0,0,1-4,1.91,5,5,0,0,1-5.06-5.1,4.82,4.82,0,0,1,4.85-5.1C476.49,224.39,478.5,226.43,478.5,229.55Zm-1.72-.9a2.92,2.92,0,0,0-3-2.62,3,3,0,0,0-3.09,2.62Z"/><path d="M481.9,224.64l2.46,3.57,2.44-3.57h1.95l-3.26,4.7,3.49,5H486.9l-2.67-3.8-2.62,3.8h-2l3.52-5-3.31-4.7Z"/><path d="M490,224.64h1.89v-3h1.76v3h3v1.6h-3v5.23A1.3,1.3,0,0,0,495,233a2.31,2.31,0,0,0,1.11-.4l.65,1.45a4,4,0,0,1-2,.58,2.83,2.83,0,0,1-2.92-3v-5.31H490Z"/><path d="M66,249.84v1.41a3.83,3.83,0,0,1,3.28-1.66,5.12,5.12,0,0,1,0,10.2,3.89,3.89,0,0,1-3.13-1.44v6H64.34V249.84Zm.15,6.66A3.44,3.44,0,0,0,69,258.16a3.47,3.47,0,0,0,0-6.93,3.44,3.44,0,0,0-2.85,1.66Z"/><path d="M81.71,249.84l-.65,1.6a2.46,2.46,0,0,0-1.11-.21,2.69,2.69,0,0,0-2.23,1.64v6.67H76v-9.7h1.63v1.49a3.26,3.26,0,0,1,2.71-1.74A4.1,4.1,0,0,1,81.71,249.84Z"/><path d="M92.08,254.69a5,5,0,1,1-5-5.1A5,5,0,0,1,92.08,254.69Zm-1.76,0a3.24,3.24,0,1,0-3.23,3.47A3.25,3.25,0,0,0,90.32,254.69Z"/><path d="M101.26,251v-7.37H103v15.87h-1.61v-1.4a3.79,3.79,0,0,1-3.28,1.65,5.12,5.12,0,0,1,0-10.2A3.86,3.86,0,0,1,101.26,251Zm0,1.87a3.44,3.44,0,0,0-2.86-1.68,3.48,3.48,0,0,0,0,6.93,3.44,3.44,0,0,0,2.86-1.68Z"/><path d="M106.09,256.08v-6.24h1.77v5.94a2.15,2.15,0,0,0,2.33,2.38,2.92,2.92,0,0,0,2.41-1.6v-6.72h1.76v9.7h-1.63v-1.49a3.45,3.45,0,0,1-3,1.74A3.53,3.53,0,0,1,106.09,256.08Z"/><path d="M125.35,257.93a5.25,5.25,0,0,1-4,1.86,5.1,5.1,0,0,1,0-10.2,5.18,5.18,0,0,1,3.86,1.74l-1.19,1.07a3.61,3.61,0,0,0-2.67-1.17,3.47,3.47,0,0,0,0,6.93,3.54,3.54,0,0,0,2.83-1.39Z"/><path d="M126.23,249.84h1.89v-3h1.76v3h3v1.6h-3v5.23a1.3,1.3,0,0,0,1.41,1.49,2.26,2.26,0,0,0,1.11-.4l.65,1.45a4,4,0,0,1-2,.58,2.83,2.83,0,0,1-2.92-3v-5.31h-1.89Z"/><path d="M154.45,253.31v6.23h-1.76v-6c0-1.58-.82-2.35-2.08-2.35a2.5,2.5,0,0,0-2.08,1.55v6.76h-1.76v-6c0-1.58-.82-2.35-2.08-2.35a2.53,2.53,0,0,0-2.08,1.55v6.76h-1.76v-9.7h1.63v1.43a3,3,0,0,1,2.69-1.68,3,3,0,0,1,3,1.81,3.21,3.21,0,0,1,2.9-1.81C153.11,249.59,154.45,250.91,154.45,253.31Z"/><path d="M165.2,253.16v6.38h-1.61v-1.4a4.1,4.1,0,0,1-3.3,1.65,3.45,3.45,0,0,1-3.61-3.31c0-1.89,1.66-3.24,3.84-3.24a5.41,5.41,0,0,1,2.92.8v-.52a2.21,2.21,0,0,0-2.46-2.29,6.66,6.66,0,0,0-2.89.82l-.74-1.47a7.2,7.2,0,0,1,3.63-1C163.84,249.59,165.2,251.35,165.2,253.16Zm-1.76,3.61v-1.36a4.59,4.59,0,0,0-2.54-.7c-1.51,0-2.46.76-2.46,1.77,0,1.26,1.14,1.76,2.23,1.76A3.72,3.72,0,0,0,163.44,256.77Z"/><path d="M176.17,253.31v6.23H174.4V253.6a2.15,2.15,0,0,0-2.33-2.37,3.05,3.05,0,0,0-2.41,1.64v6.67h-1.77v-9.7h1.64v1.37a3.45,3.45,0,0,1,3-1.62A3.54,3.54,0,0,1,176.17,253.31Z"/><path d="M186.92,253.16v6.38H185.3v-1.4a4.1,4.1,0,0,1-3.29,1.65,3.45,3.45,0,0,1-3.62-3.31c0-1.89,1.66-3.24,3.85-3.24a5.39,5.39,0,0,1,2.91.8v-.52a2.2,2.2,0,0,0-2.45-2.29,6.73,6.73,0,0,0-2.9.82l-.73-1.47a7.2,7.2,0,0,1,3.63-1C185.55,249.59,186.92,251.35,186.92,253.16Zm-1.77,3.61v-1.36a4.59,4.59,0,0,0-2.54-.7c-1.51,0-2.45.76-2.45,1.77,0,1.26,1.13,1.76,2.22,1.76A3.72,3.72,0,0,0,185.15,256.77Z"/><path d="M196.77,258.32a3.9,3.9,0,0,1-3.13,1.47,5.12,5.12,0,0,1,0-10.2,3.76,3.76,0,0,1,3.27,1.66v-1.41h1.62v9.74a4.74,4.74,0,0,1-5.1,5,5.91,5.91,0,0,1-4.24-1.84l1.07-1.33a4.26,4.26,0,0,0,3.17,1.54,3,3,0,0,0,3.34-3.32Zm0-5.45a3.51,3.51,0,0,0-2.86-1.64,3.48,3.48,0,0,0,0,6.93,3.46,3.46,0,0,0,2.86-1.64Z"/><path d="M210.12,254.75c0,.19,0,.34,0,.57h-7.83a3.28,3.28,0,0,0,3.34,2.84,3.75,3.75,0,0,0,2.92-1.43l1.11,1.15a5.41,5.41,0,0,1-4,1.91,5,5,0,0,1-5.06-5.1,4.82,4.82,0,0,1,4.85-5.1C208.11,249.59,210.12,251.63,210.12,254.75Zm-1.72-.9a2.92,2.92,0,0,0-3-2.62,3,3,0,0,0-3.09,2.62Z"/><path d="M225.75,253.31v6.23H224v-6c0-1.58-.82-2.35-2.08-2.35a2.49,2.49,0,0,0-2.07,1.55v6.76h-1.77v-6c0-1.58-.82-2.35-2.08-2.35a2.55,2.55,0,0,0-2.08,1.55v6.76h-1.76v-9.7h1.64v1.43a3,3,0,0,1,2.69-1.68,3,3,0,0,1,3,1.81,3.21,3.21,0,0,1,2.9-1.81C224.4,249.59,225.75,250.91,225.75,253.31Z"/><path d="M237.34,254.75c0,.19,0,.34,0,.57h-7.83a3.27,3.27,0,0,0,3.33,2.84,3.73,3.73,0,0,0,2.92-1.43l1.12,1.15a5.42,5.42,0,0,1-4,1.91,5,5,0,0,1-5.06-5.1,4.83,4.83,0,0,1,4.85-5.1C235.32,249.59,237.34,251.63,237.34,254.75Zm-1.72-.9a2.93,2.93,0,0,0-3-2.62,3,3,0,0,0-3.08,2.62Z"/><path d="M247.63,253.31v6.23h-1.76V253.6a2.15,2.15,0,0,0-2.34-2.37,3.05,3.05,0,0,0-2.41,1.64v6.67h-1.76v-9.7H241v1.37a3.47,3.47,0,0,1,3-1.62A3.53,3.53,0,0,1,247.63,253.31Z"/><path d="M249.48,249.84h1.89v-3h1.76v3h3v1.6h-3v5.23a1.3,1.3,0,0,0,1.41,1.49,2.31,2.31,0,0,0,1.11-.4l.65,1.45a4,4,0,0,1-2,.58,2.83,2.83,0,0,1-2.92-3v-5.31h-1.89Z"/><path d="M271.25,258.32a3.85,3.85,0,0,1-3.12,1.47,5.12,5.12,0,0,1,0-10.2,3.76,3.76,0,0,1,3.27,1.66v-1.41H273v9.74a4.74,4.74,0,0,1-5.1,5,6,6,0,0,1-4.25-1.84l1.08-1.33a4.26,4.26,0,0,0,3.17,1.54,3,3,0,0,0,3.33-3.32Zm0-5.45a3.48,3.48,0,0,0-2.85-1.64,3.48,3.48,0,0,0,0,6.93,3.44,3.44,0,0,0,2.85-1.64Z"/><path d="M276.9,245.54a1.2,1.2,0,1,1-1.19,1.19A1.21,1.21,0,0,1,276.9,245.54Zm-.88,4.3h1.77v9.7H276Z"/><path d="M288,258.32a3.9,3.9,0,0,1-3.13,1.47,5.12,5.12,0,0,1,0-10.2,3.79,3.79,0,0,1,3.28,1.66v-1.41h1.61v9.74a4.74,4.74,0,0,1-5.1,5,5.91,5.91,0,0,1-4.24-1.84l1.07-1.33a4.29,4.29,0,0,0,3.17,1.54,3,3,0,0,0,3.34-3.32Zm0-5.45a3.51,3.51,0,0,0-2.86-1.64,3.48,3.48,0,0,0,0,6.93,3.46,3.46,0,0,0,2.86-1.64Z"/><path d="M293.47,257.4a1.2,1.2,0,1,1,0,2.39,1.2,1.2,0,0,1,0-2.39Z"/><path d="M69.93,301.46l-.75,2a2.49,2.49,0,0,0-1-.2,2.25,2.25,0,0,0-1.91,1.15v5.58H64.08v-8.53h2v1.24a2.79,2.79,0,0,1,2.33-1.46A4.61,4.61,0,0,1,69.93,301.46Z"/><path d="M78.77,305.64c0,.16,0,.48,0,.81H72.38a2.42,2.42,0,0,0,2.39,1.73,3.4,3.4,0,0,0,2.34-.87l1.08,1.62a5.45,5.45,0,0,1-3.42,1.23,4.49,4.49,0,0,1-4.59-4.49,4.3,4.3,0,1,1,8.59,0Zm-2.16-.76a2.16,2.16,0,0,0-4.23,0Z"/><path d="M87.84,304.38v5.56h-2v-1.08a3.45,3.45,0,0,1-2.81,1.3A2.88,2.88,0,0,1,80,307.29a3.06,3.06,0,0,1,3.34-2.82,4.16,4.16,0,0,1,2.38.61v-.49c0-1.11-1.08-1.47-1.84-1.47a6.89,6.89,0,0,0-2.55.63l-.7-1.78a8.55,8.55,0,0,1,3.36-.78C86.4,301.19,87.84,302.43,87.84,304.38Zm-2.16,3v-.89a4.3,4.3,0,0,0-1.94-.43c-.67,0-1.59.29-1.59,1.21s.88,1.1,1.55,1.1A2.52,2.52,0,0,0,85.68,307.37Z"/><path d="M98.16,309.94h-2v-1.11a3,3,0,0,1-2.58,1.33,4.5,4.5,0,0,1,0-9A3.07,3.07,0,0,1,96,302.31v-6h2.16ZM96,304.4a2.38,2.38,0,0,0-2-1.19,2.47,2.47,0,0,0,0,4.93A2.38,2.38,0,0,0,96,307Z"/><path d="M118.75,304.45v5.49h-2.16V305c0-1.17-.45-1.8-1.53-1.8a2,2,0,0,0-1.68,1.1v5.63h-2.16V305c0-1.17-.45-1.8-1.53-1.8a2,2,0,0,0-1.67,1.1v5.63h-2.16v-8.53h2v1.24a3,3,0,0,1,2.53-1.46,2.72,2.72,0,0,1,2.64,1.5,3,3,0,0,1,2.72-1.5A2.94,2.94,0,0,1,118.75,304.45Z"/><path d="M121.19,311.72a2,2,0,0,0,1.14.56c.74,0,1-.21,1.46-1.26l.34-.88L120,301.41h2.39l2.88,6.25,2.26-6.25h2.32l-4.14,10.44a3.31,3.31,0,0,1-3.21,2.45,3.77,3.77,0,0,1-2.28-.9Z"/><path d="M135.29,311.92a2.35,2.35,0,0,0,1,.36c.47,0,1.25-.11,1.25-1.76v-9.11h2.16v9.31c0,2.79-1.89,3.58-3.17,3.58a4,4,0,0,1-2-.56Zm3.33-14.69a1.43,1.43,0,1,1-1.42,1.42A1.41,1.41,0,0,1,138.62,297.23Z"/><path d="M150.73,305.67a4.56,4.56,0,1,1-4.55-4.48A4.48,4.48,0,0,1,150.73,305.67Zm-2.19,0a2.36,2.36,0,1,0-2.36,2.47A2.33,2.33,0,0,0,148.54,305.67Z"/><path d="M152.31,306.94v-5.53h2.17v4.93c0,1.26.59,1.8,1.69,1.8a2.11,2.11,0,0,0,1.69-1v-5.69H160v8.53h-2V308.7a3.08,3.08,0,0,1-5.69-1.76Z"/><path d="M168,301.46l-.76,2a2.41,2.41,0,0,0-1-.2,2.25,2.25,0,0,0-1.91,1.15v5.58h-2.16v-8.53h2v1.24a2.78,2.78,0,0,1,2.32-1.46A4.64,4.64,0,0,1,168,301.46Z"/><path d="M176.85,304.41v5.53h-2.16v-5a1.57,1.57,0,0,0-1.69-1.74,2.09,2.09,0,0,0-1.69,1.1v5.63h-2.17v-8.53h2v1.24a3,3,0,0,1,2.56-1.46A3.06,3.06,0,0,1,176.85,304.41Z"/><path d="M187,305.64c0,.16,0,.48,0,.81h-6.37a2.42,2.42,0,0,0,2.39,1.73,3.4,3.4,0,0,0,2.34-.87l1.08,1.62a5.45,5.45,0,0,1-3.42,1.23,4.49,4.49,0,0,1-4.59-4.49,4.3,4.3,0,1,1,8.59,0Zm-2.16-.76a2.16,2.16,0,0,0-4.23,0Z"/><path d="M188.89,311.72a2,2,0,0,0,1.13.56c.74,0,1-.21,1.46-1.26l.34-.88-4.15-8.73h2.39l2.88,6.25,2.25-6.25h2.32l-4.14,10.44a3.3,3.3,0,0,1-3.2,2.45,3.78,3.78,0,0,1-2.29-.9Z"/><circle class="cls-2" cx="360.64" cy="553.42" r="71.36"/><circle class="cls-3" cx="360.64" cy="553.42" r="66.44"/><circle class="cls-4" cx="360.64" cy="553.42" r="61.52"/><path class="cls-5" d="M405.89,511.76c-1.95.43-4,1.53-5.88,1.53-2.61,0-5.39-2-8-1.65-2.3.36-4.16,2.64-6.31,3.69-1.14-1.48-2.08-3.27-3.61-4.05-2.17-1.11-5.22-.1-7.5-.84s-4.19-3.35-6.57-3.72-5,1.52-7.4,1.52-5-1.9-7.4-1.52-4.25,3-6.57,3.72-5.33-.27-7.5.84-3.11,4.14-5.09,5.58-5.13,1.39-6.87,3.13-1.72,4.94-3.13,6.87-4.49,2.95-5.58,5.09-.1,5.21-.84,7.5-3.35,4.19-3.72,6.57,1.52,5,1.52,7.4-1.9,5-1.52,7.4,3,4.25,3.72,6.57-.27,5.33.84,7.5,4.14,3.11,5.58,5.09,1.39,5.13,3.13,6.87,4.94,1.72,6.87,3.13,2.95,4.49,5.09,5.58,5.21.1,7.5.84,4.19,3.35,6.57,3.72,5-1.52,7.4-1.52,5,1.9,7.4,1.52l.09,0a10.83,10.83,0,0,1,3.23,1.38c2.13,1.55,3.18,4.85,5.48,6s5.63.1,8.1.9a7.67,7.67,0,0,1,1.62.81,61.5,61.5,0,0,0,19.33-97.45Z"/><path class="cls-6" d="M344.64,509.13a87.33,87.33,0,0,1,77.45,47c0-.88.07-1.77.07-2.66a61.51,61.51,0,0,0-109.8-38.11A87.23,87.23,0,0,1,344.64,509.13Z"/><path class="cls-7" d="M338.43,602.83a2.46,2.46,0,0,1-2.43-2.06c-.62-3.78-1.41-7.37-2.1-10.53-.5-2.27-1.22-5.55-1.67-8.24a7.41,7.41,0,0,1,5-8.24l3.5-1.17c10.64-3.52,32.77-10.87,29.43-40.84-.46-4.16-.57-11.89,3.83-16.87a2.46,2.46,0,0,1,3.69,3.26c-3.15,3.56-3,9.72-2.62,13.07,3.77,33.93-22.78,42.74-32.78,46l-3.5,1.17a2.51,2.51,0,0,0-1.72,2.78c.42,2.56,1.12,5.75,1.59,7.87.73,3.33,1.53,7,2.18,10.89a2.47,2.47,0,0,1-2,2.83Z"/><path class="cls-8" d="M312.51,536.06a2.46,2.46,0,0,1-1.11-4.66,80,80,0,0,1,9.48-4c.06-1.38.17-2.75.28-4.14.06-.73.14-1.44.23-2.12a2.46,2.46,0,1,1,4.88.63c-.08.61-.15,1.25-.21,1.89-.15,2-.29,3.71-.3,5.51a2.47,2.47,0,0,1-1.66,2.32,78.88,78.88,0,0,0-10.47,4.32A2.5,2.5,0,0,1,312.51,536.06Z"/><path class="cls-8" d="M383.39,518.73c-.43.42-4.23,4.33-3.22,13.45,3.23,29.23-16,42.52-32.7,48.52a6.3,6.3,0,0,0-4,7.26l.17.76a130.18,130.18,0,0,1,3.51,24.66s0,0,0,.06c1.53.34,3.09.64,4.67.86a2.42,2.42,0,0,0,.23-1.07,136,136,0,0,0-3.62-25.57l-.17-.76a1.34,1.34,0,0,1,.85-1.57c15-5.4,39.71-19.56,35.93-53.69-.74-6.67,1.67-9.28,1.73-9.35a2.46,2.46,0,1,0-3.4-3.56Z"/><path class="cls-7" d="M393,540.3a2.51,2.51,0,0,0-2.55,2.37c-.79,20.5-16.92,37.05-32.56,44.37a5.76,5.76,0,0,0-3.26,6.28A122.5,122.5,0,0,1,357,614.27a2.54,2.54,0,0,0,.13.56c1.16.07,2.33.11,3.51.11.39,0,.77,0,1.15,0a2.62,2.62,0,0,0,.14-.74,129.09,129.09,0,0,0-2.43-21.78.83.83,0,0,1,.51-.9c15.75-7.36,34.46-24.52,35.39-48.64A2.46,2.46,0,0,0,393,540.3Z"/><path class="cls-8" d="M376.2,587.4a69.22,69.22,0,0,1-9.75,6.36,2.44,2.44,0,0,0-1.26,2.56,130.29,130.29,0,0,1,1.62,16.24,2.4,2.4,0,0,0,1.12,1.93c1.08-.12,2.16-.28,3.22-.46a2.44,2.44,0,0,0,.58-1.64,134.62,134.62,0,0,0-1.42-15.14,76,76,0,0,0,8.91-6,2.46,2.46,0,0,0-3-3.89Z"/><path class="cls-8" d="M363.15,534.15h-.06a2.46,2.46,0,0,0-2.4,2.52c.47,18.79-13.67,23.48-23,26.58-6.21,2.06-10.59,4.08-13.25,7.81-3.06,4.31-2.33,11.3-.16,21.19.83,3.78,1.74,8,2.36,12.42,1.55,1,3.15,2,4.8,2.9a2.49,2.49,0,0,0,.36-1.52,151,151,0,0,0-2.71-14.86c-1.59-7.21-2.76-14.29-.64-17.27,1.88-2.64,5.52-4.25,10.78-6,9.43-3.12,27-8.93,26.4-31.38A2.46,2.46,0,0,0,363.15,534.15Z"/><path class="cls-7" d="M356,512.48c-2.58,3.11-6.71,10-5.38,21.54,1.62,14-5.8,16.48-16.07,19.89-6.61,2.19-14.11,4.68-18.76,11.21-5.77,8.11-3.57,18.3-1.19,29.1a61.85,61.85,0,0,0,4.9,4.95,2.43,2.43,0,0,0,.72-2.24c-.26-1.22-.52-2.43-.78-3.62-2.24-10.18-4.18-19,.36-25.34,3.72-5.22,10.11-7.34,16.3-9.39,10.07-3.34,21.49-7.13,19.41-25.13-1.06-9.2,1.74-14.77,4.28-17.83a2.46,2.46,0,0,0-3.79-3.14Z"/><path class="cls-8" d="M348.44,509a2.47,2.47,0,0,0-3.34,1c-3.53,6.43-5.23,16.55-4.24,25.21.69,6,.7,6.07-9.39,9.42-7.64,2.53-17.16,5.69-23.68,14.84a29.33,29.33,0,0,0-5.28,14.14,62,62,0,0,0,3.33,7.82,2.47,2.47,0,0,0,1.39-2.3c-.24-6.75,1.21-12.09,4.57-16.81,5.59-7.84,14.26-10.71,21.22-13,10.78-3.58,13.84-5,12.73-14.66-.87-7.6.63-16.75,3.67-22.27A2.46,2.46,0,0,0,348.44,509Z"/><path class="cls-7" d="M336.09,509.43a2.45,2.45,0,0,0-3.14,1.48c-2.82,7.85-2.62,17.36-2.06,23.46-1,.34-1.91.65-2.53.86-8.05,2.67-20.2,6.7-28.58,18.47-.23.31-.41.66-.63,1q.08,3.3.47,6.49a2.46,2.46,0,0,0,2.05-1.26,32.07,32.07,0,0,1,2.12-3.36c7.44-10.46,18.68-14.19,26.13-16.66,1-.34,3-1,4.49-1.55A2.47,2.47,0,0,0,336,536c0-.09,0-.22,0-.32-.61-5.27-1.2-15.28,1.61-23.13A2.46,2.46,0,0,0,336.09,509.43Z"/><path class="cls-9" d="M315.68,511.45a62.82,62.82,0,0,0-5.26,6.46c27.78-7.9,48.15-5.31,60.36-1.69,13.34,3.94,20.14,9.89,20.21,9.95a2.45,2.45,0,0,0,1.64.63,2.46,2.46,0,0,0,1.64-4.29C393.15,521.5,367.37,499.11,315.68,511.45Z"/><path class="cls-9" d="M341.87,494.83a61.1,61.1,0,0,0-10.57,4.51c49.63.13,67.46,26.55,67.71,26.93a2.46,2.46,0,0,0,2.07,1.13,2.4,2.4,0,0,0,1.32-.4,2.45,2.45,0,0,0,.74-3.4C402.42,522.48,386.37,498.33,341.87,494.83Z"/><path class="cls-9" d="M412.5,543.83A2.46,2.46,0,0,0,415,546h.25a2.47,2.47,0,0,0,2.2-2.7c-.12-1.17-2.79-23.83-29.69-45.16a61.2,61.2,0,0,0-16.66-5.37C408.89,515,412.46,543.42,412.5,543.83Z"/><circle class="cls-10" cx="390.17" cy="590.33" r="12.3"/><path class="cls-11" d="M395.29,597.51a12.3,12.3,0,0,1-10.87-18A12.3,12.3,0,1,0,401,596.08,12.21,12.21,0,0,1,395.29,597.51Z"/><circle class="cls-10" cx="403.7" cy="574.34" r="13.53"/><path class="cls-11" d="M409.34,582.23a13.53,13.53,0,0,1-12-19.86,13.53,13.53,0,1,0,18.28,18.29A13.42,13.42,0,0,1,409.34,582.23Z"/><circle class="cls-10" cx="400.01" cy="531.27" r="12.3"/><path class="cls-11" d="M405.14,538.45a12.3,12.3,0,0,1-10.88-18.05A12.3,12.3,0,1,0,410.89,537,12.27,12.27,0,0,1,405.14,538.45Z"/><circle class="cls-10" cx="407.39" cy="553.42" r="14.76"/><path class="cls-11" d="M413.54,562a14.76,14.76,0,0,1-14.76-14.76,14.61,14.61,0,0,1,1.72-6.9,14.76,14.76,0,1,0,19.94,20A14.69,14.69,0,0,1,413.54,562Z"/></svg>