<svg id="Layer_6" data-name="Layer 6" xmlns="http://www.w3.org/2000/svg" viewBox="0 0 570 730"><defs><style>.cls-1{font-size:24px;}.cls-1,.cls-8{font-family:Europa-Bold;font-weight:700;}.cls-2{font-size:20px;font-family:Europa-Regular;}.cls-3{letter-spacing:-0.01em;}.cls-4{letter-spacing:-0.02em;}.cls-5{letter-spacing:-0.01em;}.cls-6{letter-spacing:-0.01em;}.cls-7{letter-spacing:-0.07em;}.cls-8{font-size:18px;}.cls-9{letter-spacing:-0.02em;}.cls-10{font-size:21px;}.cls-11{fill:#f7f0e6;}.cls-12{fill:#eee2d4;}.cls-13{fill:#ffbe50;}.cls-14{fill:#ffcd6e;}.cls-15{fill:#addf6e;}.cls-16{fill:#ffe6a0;}.cls-17{fill:#ffdc8c;}.cls-18{fill:#d2eb5f;}.cls-19{fill:#f5dcb4;}.cls-20{fill:#e6c8a5;}</style></defs><text class="cls-1" transform="translate(70 133.64)">Phonomenal</text><text class="cls-2" transform="translate(70 193.19)">a <tspan class="cls-3" x="15.84" y="0">V</tspan><tspan x="27.4" y="0">ietnamese Pho joint I </tspan><tspan x="0" y="24">acqui</tspan><tspan class="cls-4" x="46.12" y="24">r</tspan><tspan x="52.6" y="24">ed and </tspan><tspan class="cls-5" x="117.72" y="24">r</tspan><tspan x="124.28" y="24">an in an attempt</tspan><tspan x="0" y="48">to ta</tspan><tspan class="cls-4" x="41.68" y="48">k</tspan><tspan x="51.24" y="48">e a b</tspan><tspan class="cls-4" x="94.5" y="48">r</tspan><tspan x="100.98" y="48">eak f</tspan><tspan class="cls-4" x="143.96" y="48">r</tspan><tspan x="150.44" y="48">om the </tspan><tspan class="cls-6" x="216.68" y="48">w</tspan><tspan x="231.36" y="48">ork</tspan><tspan x="0" y="72">office envi</tspan><tspan class="cls-4" x="87.46" y="72">r</tspan><tspan x="93.94" y="72">onment. </tspan><tspan class="cls-7" x="169.26" y="72">T</tspan><tspan x="178.22" y="72">urned out</tspan><tspan x="0" y="96">to be a </tspan><tspan class="cls-3" x="67.18" y="96">v</tspan><tspan x="76.38" y="96">ery useful experience in </tspan><tspan x="0" y="120">my next p</tspan><tspan class="cls-4" x="85.92" y="120">r</tspan><tspan x="92.4" y="120">oduct anagement gig.</tspan><tspan class="cls-8"><tspan class="cls-9" x="0" y="170.4">r</tspan><tspan x="6.68" y="170.4">ead my journey</tspan><tspan class="cls-10" x="134.55" y="170.4"> </tspan></tspan></text><circle class="cls-11" cx="440.64" cy="546.27" r="71.36"/><circle class="cls-12" cx="440.64" cy="546.27" r="66.44"/><circle class="cls-13" cx="440.64" cy="546.27" r="61.52"/><path class="cls-14" d="M485.89,504.61c-1.95.43-4,1.53-5.88,1.53-2.61,0-5.39-2.05-8-1.64-2.3.36-4.16,2.63-6.31,3.69-1.14-1.49-2.08-3.27-3.61-4.06-2.17-1.1-5.22-.09-7.5-.83s-4.19-3.35-6.57-3.73-5,1.52-7.4,1.52-5-1.9-7.4-1.52-4.25,3-6.57,3.73-5.33-.27-7.5.83-3.11,4.14-5.09,5.58-5.13,1.39-6.87,3.13-1.72,4.95-3.13,6.88-4.49,2.95-5.58,5.08-.1,5.22-.84,7.51-3.35,4.18-3.72,6.57,1.52,5,1.52,7.39-1.9,5-1.52,7.4,3,4.26,3.72,6.57-.27,5.33.84,7.5,4.14,3.11,5.58,5.09,1.39,5.14,3.13,6.88,4.94,1.72,6.87,3.12,2.95,4.5,5.09,5.58,5.21.1,7.5.84,4.19,3.35,6.57,3.73,5-1.53,7.4-1.53,5,1.91,7.4,1.53l.09,0a11.09,11.09,0,0,1,3.23,1.38c2.13,1.56,3.18,4.85,5.48,6s5.63.11,8.1.91a7.18,7.18,0,0,1,1.62.8,61.5,61.5,0,0,0,19.33-97.45Z"/><path class="cls-15" d="M424.65,502a87.32,87.32,0,0,1,77.44,46.95c0-.88.07-1.76.07-2.66a61.51,61.51,0,0,0-109.8-38.1A87,87,0,0,1,424.65,502Z"/><path class="cls-16" d="M418.43,595.69a2.47,2.47,0,0,1-2.43-2.07c-.62-3.78-1.41-7.37-2.1-10.53-.5-2.27-1.22-5.54-1.67-8.24a7.42,7.42,0,0,1,5-8.24l3.5-1.16c10.64-3.53,32.77-10.87,29.43-40.84-.46-4.16-.57-11.89,3.83-16.87a2.46,2.46,0,0,1,3.69,3.25c-3.15,3.57-3,9.72-2.62,13.07,3.77,33.93-22.78,42.74-32.78,46.06l-3.5,1.16a2.53,2.53,0,0,0-1.72,2.78c.42,2.56,1.12,5.76,1.59,7.87.73,3.33,1.53,7,2.18,10.9a2.46,2.46,0,0,1-2,2.82A1.87,1.87,0,0,1,418.43,595.69Z"/><path class="cls-17" d="M392.51,528.91a2.46,2.46,0,0,1-1.11-4.65,80.23,80.23,0,0,1,9.48-4c.06-1.38.17-2.75.28-4.14.06-.73.14-1.43.23-2.12a2.46,2.46,0,1,1,4.88.63c-.08.61-.15,1.25-.21,1.9-.15,1.94-.29,3.7-.3,5.51a2.47,2.47,0,0,1-1.66,2.31,79.69,79.69,0,0,0-10.47,4.32A2.5,2.5,0,0,1,392.51,528.91Z"/><path class="cls-17" d="M463.39,511.58c-.43.42-4.23,4.34-3.22,13.45,3.23,29.23-16,42.52-32.7,48.53a6.29,6.29,0,0,0-4,7.26l.17.76a129.93,129.93,0,0,1,3.51,24.65s0,0,0,.06c1.53.35,3.09.64,4.67.87a2.47,2.47,0,0,0,.23-1.08,135.78,135.78,0,0,0-3.62-25.56l-.17-.76a1.34,1.34,0,0,1,.85-1.57c15-5.41,39.71-19.57,35.93-53.7-.74-6.66,1.67-9.28,1.73-9.35a2.46,2.46,0,1,0-3.4-3.56Z"/><path class="cls-16" d="M473,533.15a2.52,2.52,0,0,0-2.55,2.37c-.79,20.5-16.92,37.06-32.56,44.37a5.76,5.76,0,0,0-3.26,6.28,122.5,122.5,0,0,1,2.34,21,2.77,2.77,0,0,0,.13.57c1.16.06,2.33.1,3.51.1.39,0,.77,0,1.15,0a2.49,2.49,0,0,0,.14-.73,129.2,129.2,0,0,0-2.43-21.79.82.82,0,0,1,.51-.89c15.75-7.37,34.46-24.53,35.39-48.64A2.47,2.47,0,0,0,473,533.15Z"/><path class="cls-17" d="M456.2,580.26a70.06,70.06,0,0,1-9.75,6.35,2.45,2.45,0,0,0-1.26,2.56,130.26,130.26,0,0,1,1.62,16.25,2.43,2.43,0,0,0,1.12,1.93c1.08-.13,2.16-.29,3.22-.47a2.43,2.43,0,0,0,.58-1.63,135,135,0,0,0-1.42-15.15,76,76,0,0,0,8.91-6,2.46,2.46,0,1,0-3-3.88Z"/><path class="cls-17" d="M443.15,527h-.06a2.47,2.47,0,0,0-2.4,2.52c.47,18.8-13.67,23.48-23,26.58-6.21,2.06-10.59,4.09-13.25,7.82-3.06,4.3-2.33,11.3-.16,21.18.83,3.78,1.74,8,2.36,12.43,1.55,1,3.15,2,4.8,2.89a2.48,2.48,0,0,0,.36-1.52,150.75,150.75,0,0,0-2.71-14.85c-1.59-7.21-2.76-14.3-.64-17.28,1.88-2.64,5.52-4.25,10.78-6,9.43-3.12,27-8.93,26.4-31.37A2.46,2.46,0,0,0,443.15,527Z"/><path class="cls-16" d="M436,505.33c-2.58,3.11-6.71,10-5.38,21.54,1.62,14-5.8,16.48-16.07,19.89C408,549,400.46,551.44,395.81,558c-5.77,8.11-3.57,18.31-1.19,29.11a61.72,61.72,0,0,0,4.9,4.94,2.42,2.42,0,0,0,.72-2.24c-.26-1.22-.52-2.43-.78-3.62-2.24-10.18-4.18-19,.36-25.33,3.72-5.22,10.11-7.35,16.3-9.4,10.07-3.34,21.49-7.13,19.41-25.12-1.06-9.2,1.74-14.78,4.28-17.84a2.46,2.46,0,0,0-3.79-3.14Z"/><path class="cls-17" d="M428.44,501.83a2.45,2.45,0,0,0-3.34,1c-3.53,6.42-5.23,16.55-4.24,25.2.69,6,.7,6.07-9.39,9.42-7.64,2.53-17.16,5.69-23.68,14.84a29.33,29.33,0,0,0-5.28,14.14,60.81,60.81,0,0,0,3.33,7.82,2.45,2.45,0,0,0,1.39-2.3c-.24-6.75,1.21-12.09,4.57-16.81,5.59-7.84,14.26-10.71,21.22-13,10.78-3.58,13.84-5,12.73-14.65-.87-7.6.63-16.76,3.67-22.27A2.46,2.46,0,0,0,428.44,501.83Z"/><path class="cls-16" d="M416.09,502.28a2.46,2.46,0,0,0-3.14,1.48c-2.82,7.86-2.62,17.36-2.06,23.46-1,.34-1.91.65-2.53.86-8.05,2.67-20.2,6.7-28.58,18.47-.23.32-.41.66-.63,1q.08,3.29.47,6.48a2.47,2.47,0,0,0,2.05-1.25,32.07,32.07,0,0,1,2.12-3.36c7.44-10.46,18.68-14.19,26.13-16.66,1-.35,3-1,4.49-1.56a2.46,2.46,0,0,0,1.58-2.3c0-.1,0-.23,0-.32-.61-5.28-1.2-15.29,1.61-23.14A2.46,2.46,0,0,0,416.09,502.28Z"/><path class="cls-18" d="M395.68,504.31a61.65,61.65,0,0,0-5.26,6.45c27.78-7.9,48.15-5.3,60.36-1.69C464.12,513,470.92,519,471,519a2.49,2.49,0,0,0,1.64.62,2.46,2.46,0,0,0,1.64-4.29C473.15,514.36,447.37,492,395.68,504.31Z"/><path class="cls-18" d="M421.87,487.68a61.1,61.1,0,0,0-10.57,4.51c49.63.14,67.46,26.56,67.71,26.93a2.46,2.46,0,1,0,4.13-2.66C482.42,515.34,466.38,491.19,421.87,487.68Z"/><path class="cls-18" d="M492.5,536.69a2.46,2.46,0,0,0,2.45,2.2h.25a2.47,2.47,0,0,0,2.2-2.7c-.12-1.17-2.79-23.83-29.69-45.15a60.87,60.87,0,0,0-16.66-5.38C488.89,507.88,492.46,536.28,492.5,536.69Z"/><circle class="cls-19" cx="470.17" cy="583.19" r="12.3" transform="translate(-210.67 895.64) rotate(-75.78)"/><path class="cls-20" d="M475.29,590.36a12.3,12.3,0,0,1-10.87-18.05A12.3,12.3,0,1,0,481,588.93,12.21,12.21,0,0,1,475.29,590.36Z"/><circle class="cls-19" cx="483.7" cy="567.19" r="13.53" transform="translate(-255.42 470.42) rotate(-42.08)"/><path class="cls-20" d="M489.34,575.09a13.53,13.53,0,0,1-12-19.86,13.53,13.53,0,1,0,18.28,18.28A13.42,13.42,0,0,1,489.34,575.09Z"/><circle class="cls-19" cx="480.01" cy="524.13" r="12.3"/><path class="cls-20" d="M485.14,531.31a12.3,12.3,0,0,1-10.88-18.06,12.3,12.3,0,1,0,16.63,16.63A12.27,12.27,0,0,1,485.14,531.31Z"/><circle class="cls-19" cx="487.39" cy="546.27" r="14.76"/><path class="cls-20" d="M493.54,554.89a14.76,14.76,0,0,1-14.76-14.77,14.54,14.54,0,0,1,1.72-6.89,14.76,14.76,0,1,0,19.94,19.94A14.69,14.69,0,0,1,493.54,554.89Z"/></svg>