<svg id="f89444d8-df3f-4bc7-9dad-514c5d16fdb4" data-name="phonomenal" xmlns="http://www.w3.org/2000/svg" viewBox="0 0 570 730"><defs><style>.a7431ac7-c66d-46cb-b101-8f5d346f8c22{fill:#ffbe50;}</style></defs><path class="a7431ac7-c66d-46cb-b101-8f5d346f8c22" d="M330.41,435.826c-5.853,7.055-15.226,22.788-12.209,48.9,3.672,31.838-13.175,37.424-36.486,45.16-15.013,4.975-32.023,10.616-42.585,25.449-5.733,8.052-8.225,18.2-8.758,27.95-.434,7.921-.8,22.3,6.469,27.524a11.745,11.745,0,0,0,9.567,1.825c.505-6.3-3.412-14.375-4.043-20.978-.981-10.277-.318-21.162,5.865-29.84,8.445-11.855,22.962-16.672,37-21.331C308.1,532.9,334.017,524.3,329.3,483.446c-2.412-20.889,3.949-33.546,9.71-40.486a5.586,5.586,0,1,0-8.6-7.134Z"/><path class="a7431ac7-c66d-46cb-b101-8f5d346f8c22" d="M285.971,393.813a5.584,5.584,0,0,0-7.582,2.2c-8.025,14.582-11.893,37.577-9.629,57.222,1.56,13.518,1.593,13.775-21.325,21.379-17.354,5.756-38.951,12.919-53.747,33.693a66.609,66.609,0,0,0-12,32.106,138.74,138.74,0,0,0,7.565,17.745,5.572,5.572,0,0,0,3.154-5.209c-.546-15.324,2.755-27.452,10.382-38.161,12.678-17.8,32.356-24.326,48.166-29.568,24.479-8.123,31.429-11.44,28.9-33.267-1.986-17.25,1.435-38.042,8.319-50.561A5.58,5.58,0,0,0,285.971,393.813Z"/><path class="a7431ac7-c66d-46cb-b101-8f5d346f8c22" d="M253.4,383.494a5.576,5.576,0,0,0-7.146,3.371c-6.388,17.822-5.93,39.41-4.665,53.256-2.2.77-4.337,1.479-5.75,1.948-18.265,6.056-45.864,15.215-64.887,41.925-.514.723-.923,1.508-1.417,2.247a140.471,140.471,0,0,0,1.068,14.714,5.561,5.561,0,0,0,4.637-2.847,78.524,78.524,0,0,1,4.812-7.627c16.906-23.742,42.421-32.21,59.328-37.817,2.373-.785,6.737-2.236,10.185-3.54a5.586,5.586,0,0,0,3.606-5.226,6.41,6.41,0,0,0-.049-.731c-1.38-11.969-2.739-34.7,3.651-52.525A5.591,5.591,0,0,0,253.4,383.494Z"/><path class="a7431ac7-c66d-46cb-b101-8f5d346f8c22" d="M226.152,365.332a5.576,5.576,0,0,0-7.146,3.371c-6.388,17.822-5.93,39.41-4.665,53.256-2.2.77-4.337,1.479-5.749,1.948a234.13,234.13,0,0,0-23.074,8.671,139.422,139.422,0,0,0-13.093,6.865c-4.571,2.692-5.833,3.447-5.859,9.188q-.02,4.157-.037,8.314c3.446-.855,7.019-4.945,10.018-6.851a111.2,111.2,0,0,1,12.785-6.938,211.183,211.183,0,0,1,22.8-8.654c2.373-.785,6.737-2.236,10.185-3.54a5.586,5.586,0,0,0,3.606-5.226,6.645,6.645,0,0,0-.048-.731c-1.381-11.969-2.739-34.7,3.65-52.525A5.59,5.59,0,0,0,226.152,365.332Z"/><path class="a7431ac7-c66d-46cb-b101-8f5d346f8c22" d="M405.5,519.708a5.578,5.578,0,0,0-7.147,3.371c-6.387,17.822-5.929,39.41-4.664,53.256-2.2.77-4.338,1.479-5.75,1.948-18.265,6.056-45.864,15.215-64.888,41.925-.513.723-.922,1.508-1.417,2.247.091,4.481-1.034,10.579,5.5,9.792,4.118-.5,10.314-12.391,13.42-15.524a89.358,89.358,0,0,1,17.475-13.572c10.459-6.288,21.912-10.455,33.449-14.273,2.373-.785,6.737-2.236,10.185-3.54a5.587,5.587,0,0,0,3.606-5.226,6.647,6.647,0,0,0-.049-.731c-1.381-11.969-2.739-34.7,3.65-52.525A5.59,5.59,0,0,0,405.5,519.708Z"/><path d="M76.776,140.843h5.713a5.38,5.38,0,1,1,0,10.753H79.656v6.048h-2.88Zm8.353,5.376c0-1.584-1.032-2.64-3-2.64H79.656v5.28h2.472C84.1,148.859,85.129,147.8,85.129,146.219Z"/><path d="M100.633,150.275v7.369h-2.88V151a2.1,2.1,0,0,0-2.256-2.329,2.811,2.811,0,0,0-2.257,1.488v7.489H90.36V139.5h2.88v8.136a3.863,3.863,0,0,1,3.217-1.656A4.076,4.076,0,0,1,100.633,150.275Z"/><path d="M114.889,151.956a6.073,6.073,0,1,1-6.073-5.977A5.983,5.983,0,0,1,114.889,151.956Zm-2.929,0a3.147,3.147,0,1,0-3.144,3.288A3.114,3.114,0,0,0,111.96,151.956Z"/><path d="M127.272,150.275v7.369h-2.879V151a2.1,2.1,0,0,0-2.257-2.329,2.807,2.807,0,0,0-2.256,1.464v7.513H117V146.267h2.688v1.656a3.931,3.931,0,0,1,3.408-1.944A4.076,4.076,0,0,1,127.272,150.275Z"/><path d="M141.528,151.956a6.073,6.073,0,1,1-6.072-5.977A5.983,5.983,0,0,1,141.528,151.956Zm-2.928,0a3.147,3.147,0,1,0-3.144,3.288A3.114,3.114,0,0,0,138.6,151.956Z"/><path d="M160.825,150.323v7.321h-2.881v-6.577c0-1.56-.6-2.4-2.04-2.4a2.7,2.7,0,0,0-2.232,1.464v7.513h-2.88v-6.577c0-1.56-.6-2.4-2.04-2.4a2.7,2.7,0,0,0-2.232,1.464v7.513h-2.881V146.267h2.689v1.656a3.947,3.947,0,0,1,3.36-1.944,3.64,3.64,0,0,1,3.528,1.992,3.984,3.984,0,0,1,3.624-1.992C159.145,145.979,160.825,147.587,160.825,150.323Z"/><path d="M174.384,151.908c0,.216,0,.648-.024,1.08h-8.5a3.249,3.249,0,0,0,3.193,2.3,4.578,4.578,0,0,0,3.12-1.152l1.44,2.16a7.286,7.286,0,0,1-4.56,1.632,5.98,5.98,0,0,1-6.121-5.976,5.729,5.729,0,1,1,11.449-.048ZM171.5,150.9a2.878,2.878,0,0,0-5.641,0Z"/><path d="M186.768,150.275v7.369h-2.88V151a2.1,2.1,0,0,0-2.257-2.329,2.807,2.807,0,0,0-2.256,1.464v7.513H176.5V146.267h2.688v1.656a3.931,3.931,0,0,1,3.408-1.944A4.077,4.077,0,0,1,186.768,150.275Z"/><path d="M199.631,150.228v7.416h-2.664V156.2a4.605,4.605,0,0,1-3.744,1.728,3.847,3.847,0,0,1-4.1-3.816c0-2.184,1.992-3.768,4.464-3.768a5.528,5.528,0,0,1,3.168.816v-.648c0-1.489-1.44-1.969-2.448-1.969a9.233,9.233,0,0,0-3.408.84l-.937-2.376a11.529,11.529,0,0,1,4.489-1.032C197.711,145.979,199.631,147.635,199.631,150.228Zm-2.88,3.984v-1.176a5.744,5.744,0,0,0-2.592-.577c-.888,0-2.112.385-2.112,1.609,0,1.2,1.176,1.464,2.064,1.464A3.373,3.373,0,0,0,196.751,154.212Z"/><path d="M202.847,139.5h2.88v18.145h-2.88Z"/><path d="M75.92,197.613H77.6v14H75.92Z"/><path d="M85.6,202.374h1.8v-2.82h1.681v2.82h2.88V203.9h-2.88v4.98c0,.9.44,1.421,1.34,1.421a2.193,2.193,0,0,0,1.06-.38l.62,1.38a3.807,3.807,0,0,1-1.92.56,2.7,2.7,0,0,1-2.781-2.9V203.9H85.6Z"/><path d="M102.8,207a4.762,4.762,0,1,1-4.761-4.861A4.733,4.733,0,0,1,102.8,207Zm-1.68,0a3.088,3.088,0,1,0-3.081,3.3A3.1,3.1,0,0,0,101.122,207Z"/><path d="M113.6,207a4.762,4.762,0,1,1-4.761-4.861A4.733,4.733,0,0,1,113.6,207Zm-1.681,0a3.088,3.088,0,1,0-3.08,3.3A3.1,3.1,0,0,0,111.921,207Z"/><path d="M117.56,207.135v4.481h-1.681V196.493h1.681v9.982l3.961-4.1h2.2l-4.321,4.361,4.682,4.881h-2.341Z"/><path d="M138.681,205.535v6.081h-1.54v-1.34a3.906,3.906,0,0,1-3.141,1.58,3.288,3.288,0,0,1-3.44-3.16c0-1.8,1.58-3.081,3.66-3.081a5.178,5.178,0,0,1,2.781.76v-.5a2.107,2.107,0,0,0-2.341-2.181,6.393,6.393,0,0,0-2.76.781l-.7-1.4a6.884,6.884,0,0,1,3.46-.94C137.381,202.134,138.681,203.814,138.681,205.535ZM137,208.976v-1.3a4.428,4.428,0,0,0-2.421-.66c-1.44,0-2.34.72-2.34,1.681,0,1.2,1.08,1.68,2.12,1.68A3.551,3.551,0,0,0,137,208.976Z"/><path d="M156.341,207a4.643,4.643,0,0,1-4.481,4.861,3.6,3.6,0,0,1-3.12-1.58v1.34H147.2V196.493h1.681v7.022a3.67,3.67,0,0,1,2.98-1.381A4.643,4.643,0,0,1,156.341,207Zm-7.461,1.7a3.282,3.282,0,0,0,2.721,1.6,3.31,3.31,0,0,0,0-6.6,3.282,3.282,0,0,0-2.721,1.6Z"/><path d="M163.74,202.374l-.62,1.521a2.334,2.334,0,0,0-1.06-.2,2.572,2.572,0,0,0-2.121,1.561v6.361h-1.68v-9.242h1.561v1.42a3.092,3.092,0,0,1,2.58-1.66A3.863,3.863,0,0,1,163.74,202.374Z"/><path d="M173.221,207.055a5.246,5.246,0,0,1-.02.54h-7.462a3.117,3.117,0,0,0,3.181,2.7,3.569,3.569,0,0,0,2.781-1.36l1.06,1.1a5.151,5.151,0,0,1-3.841,1.82A4.722,4.722,0,0,1,164.1,207a4.6,4.6,0,0,1,4.621-4.861C171.3,202.134,173.221,204.075,173.221,207.055Zm-1.64-.86a2.783,2.783,0,0,0-2.861-2.5,2.867,2.867,0,0,0-2.941,2.5Z"/><path d="M182.821,205.535v6.081H181.28v-1.34a3.905,3.905,0,0,1-3.14,1.58,3.288,3.288,0,0,1-3.441-3.16c0-1.8,1.58-3.081,3.661-3.081a5.178,5.178,0,0,1,2.781.76v-.5a2.107,2.107,0,0,0-2.341-2.181,6.388,6.388,0,0,0-2.76.781l-.7-1.4a6.886,6.886,0,0,1,3.461-.94C181.521,202.134,182.821,203.814,182.821,205.535Zm-1.68,3.441v-1.3a4.432,4.432,0,0,0-2.421-.66c-1.44,0-2.341.72-2.341,1.681,0,1.2,1.08,1.68,2.121,1.68A3.551,3.551,0,0,0,181.141,208.976Z"/><path d="M187.419,207.135v4.481h-1.68V196.493h1.68v9.982l3.961-4.1h2.2l-4.321,4.361,4.681,4.881H191.6Z"/><path d="M199.979,202.374h1.92v-3.181a2.83,2.83,0,0,1,2.841-2.94,3.814,3.814,0,0,1,1.94.54l-.62,1.38a2.388,2.388,0,0,0-1.08-.36,1.326,1.326,0,0,0-1.4,1.48v3.081h2.4V203.9h-2.4v7.721H201.9V203.9h-1.92Z"/><path d="M213.2,202.374l-.62,1.521a2.334,2.334,0,0,0-1.06-.2,2.57,2.57,0,0,0-2.121,1.561v6.361h-1.68v-9.242h1.56v1.42a3.092,3.092,0,0,1,2.581-1.66A3.863,3.863,0,0,1,213.2,202.374Z"/><path d="M223.081,207a4.762,4.762,0,1,1-4.761-4.861A4.733,4.733,0,0,1,223.081,207Zm-1.681,0a3.088,3.088,0,1,0-3.08,3.3A3.1,3.1,0,0,0,221.4,207Z"/><path d="M237.961,205.675v5.941h-1.68v-5.681c0-1.5-.78-2.241-1.981-2.241a2.38,2.38,0,0,0-1.98,1.481v6.441h-1.68v-5.681c0-1.5-.781-2.241-1.981-2.241a2.416,2.416,0,0,0-1.98,1.481v6.441H225v-9.242h1.56v1.36a2.822,2.822,0,0,1,2.561-1.6,2.879,2.879,0,0,1,2.88,1.72,3.053,3.053,0,0,1,2.761-1.72C236.681,202.134,237.961,203.4,237.961,205.675Z"/><path d="M245.318,202.374h1.8v-2.82H248.8v2.82h2.88V203.9H248.8v4.98c0,.9.44,1.421,1.34,1.421a2.193,2.193,0,0,0,1.06-.38l.62,1.38a3.807,3.807,0,0,1-1.92.56,2.7,2.7,0,0,1-2.781-2.9V203.9h-1.8Z"/><path d="M261.88,205.675v5.941H260.2v-5.661a2.051,2.051,0,0,0-2.221-2.261,2.91,2.91,0,0,0-2.3,1.561v6.361H254V196.493h1.681v7a3.248,3.248,0,0,1,2.72-1.361A3.364,3.364,0,0,1,261.88,205.675Z"/><path d="M272.92,207.055a5.246,5.246,0,0,1-.02.54h-7.462a3.117,3.117,0,0,0,3.181,2.7,3.568,3.568,0,0,0,2.78-1.36l1.06,1.1a5.148,5.148,0,0,1-3.84,1.82A4.722,4.722,0,0,1,263.8,207a4.6,4.6,0,0,1,4.621-4.861C271,202.134,272.92,204.075,272.92,207.055Zm-1.641-.86a2.783,2.783,0,0,0-2.86-2.5,2.866,2.866,0,0,0-2.941,2.5Z"/><path d="M288.34,210.076a4.984,4.984,0,0,1-3.781,1.78,4.862,4.862,0,0,1,0-9.722,4.953,4.953,0,0,1,3.681,1.66l-1.14,1.021a3.417,3.417,0,0,0-2.541-1.121,3.309,3.309,0,0,0,0,6.6,3.394,3.394,0,0,0,2.7-1.32Z"/><path d="M298.859,207a4.762,4.762,0,1,1-4.76-4.861A4.732,4.732,0,0,1,298.859,207Zm-1.679,0a3.088,3.088,0,1,0-3.081,3.3A3.1,3.1,0,0,0,297.18,207Z"/><path d="M306.258,202.374l-.619,1.521a2.341,2.341,0,0,0-1.061-.2,2.57,2.57,0,0,0-2.121,1.561v6.361h-1.68v-9.242h1.561v1.42a3.092,3.092,0,0,1,2.58-1.66A3.863,3.863,0,0,1,306.258,202.374Z"/><path d="M309.117,202.374v1.34a3.638,3.638,0,0,1,3.121-1.58,4.877,4.877,0,0,1,0,9.722,3.715,3.715,0,0,1-2.98-1.38v5.741h-1.681V202.374Zm.141,6.342a3.284,3.284,0,0,0,2.721,1.58,3.31,3.31,0,0,0,0-6.6,3.284,3.284,0,0,0-2.721,1.581Z"/><path d="M327.519,207a4.763,4.763,0,1,1-4.761-4.861A4.732,4.732,0,0,1,327.519,207Zm-1.681,0a3.088,3.088,0,1,0-3.08,3.3A3.1,3.1,0,0,0,325.838,207Z"/><path d="M334.918,202.374l-.62,1.521a2.336,2.336,0,0,0-1.061-.2,2.57,2.57,0,0,0-2.12,1.561v6.361h-1.68v-9.242H331v1.42a3.092,3.092,0,0,1,2.58-1.66A3.865,3.865,0,0,1,334.918,202.374Z"/><path d="M343.678,205.535v6.081h-1.54v-1.34a3.906,3.906,0,0,1-3.141,1.58,3.288,3.288,0,0,1-3.441-3.16c0-1.8,1.581-3.081,3.661-3.081a5.172,5.172,0,0,1,2.78.76v-.5a2.106,2.106,0,0,0-2.34-2.181,6.4,6.4,0,0,0-2.761.781l-.7-1.4a6.89,6.89,0,0,1,3.461-.94C342.378,202.134,343.678,203.814,343.678,205.535ZM342,208.976v-1.3a4.427,4.427,0,0,0-2.42-.66c-1.44,0-2.341.72-2.341,1.681,0,1.2,1.08,1.68,2.12,1.68A3.548,3.548,0,0,0,342,208.976Z"/><path d="M345.437,202.374h1.8v-2.82h1.681v2.82H351.8V203.9h-2.881v4.98c0,.9.44,1.421,1.34,1.421a2.193,2.193,0,0,0,1.06-.38l.621,1.38a3.807,3.807,0,0,1-1.92.56,2.7,2.7,0,0,1-2.782-2.9V203.9h-1.8Z"/><path d="M362.237,207.055c0,.18,0,.32-.019.54h-7.462a3.117,3.117,0,0,0,3.181,2.7,3.571,3.571,0,0,0,2.781-1.36l1.059,1.1a5.15,5.15,0,0,1-3.84,1.82A4.722,4.722,0,0,1,353.115,207a4.6,4.6,0,0,1,4.621-4.861C360.317,202.134,362.237,204.075,362.237,207.055Zm-1.639-.86a2.785,2.785,0,0,0-2.862-2.5,2.866,2.866,0,0,0-2.94,2.5Z"/><path d="M83.762,231.055a5.246,5.246,0,0,1-.02.54H76.28a3.117,3.117,0,0,0,3.181,2.7,3.569,3.569,0,0,0,2.781-1.36l1.06,1.1a5.151,5.151,0,0,1-3.841,1.82A4.722,4.722,0,0,1,74.64,231a4.6,4.6,0,0,1,4.621-4.861C81.842,226.134,83.762,228.075,83.762,231.055Zm-1.64-.86a2.783,2.783,0,0,0-2.861-2.5,2.867,2.867,0,0,0-2.941,2.5Z"/><path d="M93.562,229.675v5.941H91.881v-5.661a2.05,2.05,0,0,0-2.22-2.261,2.913,2.913,0,0,0-2.3,1.561v6.361H85.68v-9.242h1.561v1.3a3.287,3.287,0,0,1,2.84-1.54A3.365,3.365,0,0,1,93.562,229.675Z"/><path d="M96.8,226.374l2.841,6.262,2.84-6.262H104.2l-4.621,9.642-4.621-9.642Z"/><path d="M106.74,222.273a1.141,1.141,0,1,1-1.14,1.141A1.153,1.153,0,0,1,106.74,222.273Zm-.84,4.1h1.681v9.242H105.9Z"/><path d="M115.921,226.374l-.62,1.521a2.334,2.334,0,0,0-1.06-.2,2.57,2.57,0,0,0-2.121,1.561v6.361h-1.68v-9.242H112v1.42a3.092,3.092,0,0,1,2.581-1.66A3.863,3.863,0,0,1,115.921,226.374Z"/><path d="M125.8,231a4.762,4.762,0,1,1-4.761-4.861A4.733,4.733,0,0,1,125.8,231Zm-1.68,0a3.088,3.088,0,1,0-3.081,3.3A3.1,3.1,0,0,0,124.122,231Z"/><path d="M135.6,229.675v5.941h-1.681v-5.661a2.05,2.05,0,0,0-2.22-2.261,2.91,2.91,0,0,0-2.3,1.561v6.361h-1.68v-9.242h1.56v1.3a3.288,3.288,0,0,1,2.841-1.54A3.365,3.365,0,0,1,135.6,229.675Z"/><path d="M151.123,229.675v5.941h-1.681v-5.681c0-1.5-.78-2.241-1.981-2.241a2.382,2.382,0,0,0-1.98,1.481v6.441H143.8v-5.681c0-1.5-.78-2.241-1.981-2.241a2.416,2.416,0,0,0-1.98,1.481v6.441h-1.68v-9.242h1.56v1.36a2.822,2.822,0,0,1,2.561-1.6,2.879,2.879,0,0,1,2.88,1.72,3.053,3.053,0,0,1,2.761-1.72C149.842,226.134,151.123,227.4,151.123,229.675Z"/><path d="M162.161,231.055a5.246,5.246,0,0,1-.02.54h-7.462a3.117,3.117,0,0,0,3.181,2.7,3.569,3.569,0,0,0,2.781-1.36l1.06,1.1a5.151,5.151,0,0,1-3.841,1.82A4.722,4.722,0,0,1,153.039,231a4.6,4.6,0,0,1,4.621-4.861C160.241,226.134,162.161,228.075,162.161,231.055Zm-1.64-.86a2.784,2.784,0,0,0-2.861-2.5,2.867,2.867,0,0,0-2.941,2.5Z"/><path d="M171.961,229.675v5.941H170.28v-5.661a2.05,2.05,0,0,0-2.22-2.261,2.913,2.913,0,0,0-2.3,1.561v6.361h-1.68v-9.242h1.561v1.3a3.285,3.285,0,0,1,2.84-1.54A3.365,3.365,0,0,1,171.961,229.675Z"/><path d="M173.719,226.374h1.8v-2.82H177.2v2.82h2.88V227.9H177.2v4.98c0,.9.44,1.421,1.34,1.421a2.193,2.193,0,0,0,1.06-.38l.62,1.38a3.807,3.807,0,0,1-1.92.56,2.7,2.7,0,0,1-2.781-2.9V227.9h-1.8Z"/><path d="M195.321,229.535v6.081H193.78v-1.34a3.905,3.905,0,0,1-3.14,1.58,3.288,3.288,0,0,1-3.441-3.16c0-1.8,1.58-3.081,3.661-3.081a5.178,5.178,0,0,1,2.781.76v-.5a2.107,2.107,0,0,0-2.341-2.181,6.388,6.388,0,0,0-2.76.781l-.7-1.4a6.886,6.886,0,0,1,3.461-.94C194.021,226.134,195.321,227.814,195.321,229.535Zm-1.68,3.441v-1.3a4.432,4.432,0,0,0-2.421-.66c-1.44,0-2.341.72-2.341,1.681,0,1.2,1.08,1.68,2.121,1.68A3.551,3.551,0,0,0,193.641,232.976Z"/><path d="M205.761,229.675v5.941H204.08v-5.661a2.05,2.05,0,0,0-2.22-2.261,2.91,2.91,0,0,0-2.3,1.561v6.361h-1.68v-9.242h1.56v1.3a3.288,3.288,0,0,1,2.841-1.54A3.365,3.365,0,0,1,205.761,229.675Z"/><path d="M215.14,227.515v-7.022h1.681v15.123H215.28v-1.34a3.6,3.6,0,0,1-3.12,1.58,4.877,4.877,0,0,1,0-9.722A3.67,3.67,0,0,1,215.14,227.515Zm0,1.78a3.282,3.282,0,0,0-2.72-1.6,3.31,3.31,0,0,0,0,6.6,3.282,3.282,0,0,0,2.72-1.6Z"/><path d="M233.021,229.535v6.081H231.48v-1.34a3.906,3.906,0,0,1-3.141,1.58,3.288,3.288,0,0,1-3.44-3.16c0-1.8,1.58-3.081,3.661-3.081a5.172,5.172,0,0,1,2.78.76v-.5a2.106,2.106,0,0,0-2.34-2.181,6.4,6.4,0,0,0-2.761.781l-.7-1.4a6.886,6.886,0,0,1,3.461-.94C231.72,226.134,233.021,227.814,233.021,229.535Zm-1.681,3.441v-1.3a4.428,4.428,0,0,0-2.421-.66c-1.44,0-2.34.72-2.34,1.681,0,1.2,1.08,1.68,2.121,1.68A3.548,3.548,0,0,0,231.34,232.976Z"/><path d="M243.48,234.076a4.983,4.983,0,0,1-3.78,1.78,4.862,4.862,0,0,1,0-9.722,4.952,4.952,0,0,1,3.68,1.66l-1.14,1.021a3.414,3.414,0,0,0-2.54-1.121,3.309,3.309,0,0,0,0,6.6,3.391,3.391,0,0,0,2.7-1.32Z"/><path d="M253.621,226.374v13.843H251.94v-5.741a3.718,3.718,0,0,1-2.981,1.38,4.877,4.877,0,0,1,0-9.722,3.638,3.638,0,0,1,3.121,1.58v-1.34Zm-1.681,2.9a3.283,3.283,0,0,0-2.72-1.581,3.31,3.31,0,0,0,0,6.6,3.283,3.283,0,0,0,2.72-1.58Z"/><path d="M256.179,232.315v-5.941h1.68v5.662a2.049,2.049,0,0,0,2.221,2.26,2.781,2.781,0,0,0,2.3-1.521v-6.4h1.681v9.242H262.5V234.2a3.274,3.274,0,0,1-2.84,1.66A3.363,3.363,0,0,1,256.179,232.315Z"/><path d="M267.759,222.273a1.141,1.141,0,1,1-1.14,1.141A1.153,1.153,0,0,1,267.759,222.273Zm-.84,4.1h1.68v9.242h-1.68Z"/><path d="M276.939,226.374l-.62,1.521a2.334,2.334,0,0,0-1.06-.2,2.57,2.57,0,0,0-2.12,1.561v6.361h-1.681v-9.242h1.561v1.42a3.092,3.092,0,0,1,2.581-1.66A3.86,3.86,0,0,1,276.939,226.374Z"/><path d="M286.42,231.055a5.246,5.246,0,0,1-.02.54h-7.462a3.118,3.118,0,0,0,3.181,2.7,3.569,3.569,0,0,0,2.781-1.36l1.06,1.1a5.151,5.151,0,0,1-3.841,1.82A4.722,4.722,0,0,1,277.3,231a4.6,4.6,0,0,1,4.621-4.861C284.5,226.134,286.42,228.075,286.42,231.055Zm-1.64-.86a2.783,2.783,0,0,0-2.861-2.5,2.866,2.866,0,0,0-2.94,2.5Z"/><path d="M295.16,227.515v-7.022h1.68v15.123H295.3v-1.34a3.6,3.6,0,0,1-3.12,1.58,4.877,4.877,0,0,1,0-9.722A3.67,3.67,0,0,1,295.16,227.515Zm0,1.78a3.284,3.284,0,0,0-2.721-1.6,3.31,3.31,0,0,0,0,6.6,3.284,3.284,0,0,0,2.721-1.6Z"/><path d="M313.04,229.535v6.081H311.5v-1.34a3.908,3.908,0,0,1-3.141,1.58,3.289,3.289,0,0,1-3.441-3.16c0-1.8,1.58-3.081,3.661-3.081a5.172,5.172,0,0,1,2.78.76v-.5a2.106,2.106,0,0,0-2.339-2.181,6.4,6.4,0,0,0-2.761.781l-.7-1.4a6.881,6.881,0,0,1,3.461-.94C311.74,226.134,313.04,227.814,313.04,229.535Zm-1.681,3.441v-1.3a4.427,4.427,0,0,0-2.42-.66c-1.44,0-2.34.72-2.34,1.681,0,1.2,1.08,1.68,2.12,1.68A3.548,3.548,0,0,0,311.359,232.976Z"/><path d="M321.559,221.613h3.62c2.921,0,4.781,1.54,4.781,4.221s-1.86,4.221-4.781,4.221h-1.941v5.561h-1.679Zm3.52,6.842c1.9,0,3.2-.841,3.2-2.621s-1.3-2.621-3.2-2.621h-1.841v5.242Z"/><path d="M340,229.675v5.941h-1.681v-5.661a2.05,2.05,0,0,0-2.22-2.261,2.913,2.913,0,0,0-2.3,1.561v6.361h-1.68V220.493h1.68v7a3.252,3.252,0,0,1,2.721-1.361A3.365,3.365,0,0,1,340,229.675Z"/><path d="M351.439,231a4.762,4.762,0,1,1-4.76-4.861A4.732,4.732,0,0,1,351.439,231Zm-1.68,0a3.088,3.088,0,1,0-3.08,3.3A3.1,3.1,0,0,0,349.759,231Z"/><path d="M80.761,250.374l-.62,1.521a2.334,2.334,0,0,0-1.06-.2,2.572,2.572,0,0,0-2.121,1.561v6.361H75.28v-9.242h1.561v1.42a3.092,3.092,0,0,1,2.58-1.66A3.863,3.863,0,0,1,80.761,250.374Z"/><path d="M90.242,255.055a5.246,5.246,0,0,1-.02.54H82.76a3.117,3.117,0,0,0,3.181,2.7,3.569,3.569,0,0,0,2.781-1.36l1.06,1.1a5.151,5.151,0,0,1-3.841,1.82A4.722,4.722,0,0,1,81.12,255a4.6,4.6,0,0,1,4.621-4.861C88.322,250.134,90.242,252.075,90.242,255.055Zm-1.64-.86a2.783,2.783,0,0,0-2.861-2.5,2.867,2.867,0,0,0-2.941,2.5Z"/><path d="M92.72,256.835a3.567,3.567,0,0,0,2.8,1.5c.94,0,2-.4,2-1.14,0-.8-.68-1.2-2.1-1.481-1.981-.4-3.381-1.18-3.381-2.92,0-1.34,1.34-2.661,3.4-2.661a4.8,4.8,0,0,1,3.421,1.4l-1.1,1.14a3.392,3.392,0,0,0-2.32-1.021c-1.18,0-1.76.581-1.76,1.181,0,.7.719,1.08,2.24,1.4,1.76.38,3.261,1.04,3.261,2.921,0,1.78-1.881,2.7-3.661,2.7a5.064,5.064,0,0,1-3.961-1.94Z"/><path d="M100.459,250.374h1.8v-2.82h1.68v2.82h2.881V251.9H103.94v4.98a1.238,1.238,0,0,0,1.341,1.421,2.193,2.193,0,0,0,1.06-.38l.62,1.38a3.807,3.807,0,0,1-1.92.56,2.7,2.7,0,0,1-2.781-2.9V251.9h-1.8Z"/><path d="M116.461,253.535v6.081h-1.54v-1.34a3.906,3.906,0,0,1-3.141,1.58,3.288,3.288,0,0,1-3.44-3.16c0-1.8,1.58-3.081,3.66-3.081a5.174,5.174,0,0,1,2.781.76v-.5a2.107,2.107,0,0,0-2.341-2.181,6.393,6.393,0,0,0-2.76.781l-.7-1.4a6.884,6.884,0,0,1,3.46-.94C115.161,250.134,116.461,251.814,116.461,253.535Zm-1.68,3.441v-1.3a4.428,4.428,0,0,0-2.421-.66c-1.44,0-2.34.72-2.34,1.681,0,1.2,1.08,1.68,2.121,1.68A3.548,3.548,0,0,0,114.781,256.976Z"/><path d="M119.02,256.315v-5.941h1.68v5.662a2.049,2.049,0,0,0,2.22,2.26,2.783,2.783,0,0,0,2.3-1.521v-6.4h1.68v9.242h-1.56V258.2a3.276,3.276,0,0,1-2.841,1.66A3.363,3.363,0,0,1,119.02,256.315Z"/><path d="M134.94,250.374l-.62,1.521a2.334,2.334,0,0,0-1.06-.2,2.57,2.57,0,0,0-2.12,1.561v6.361h-1.681v-9.242h1.561v1.42a3.092,3.092,0,0,1,2.581-1.66A3.86,3.86,0,0,1,134.94,250.374Z"/><path d="M143.7,253.535v6.081h-1.54v-1.34a3.906,3.906,0,0,1-3.141,1.58,3.288,3.288,0,0,1-3.44-3.16c0-1.8,1.58-3.081,3.66-3.081a5.178,5.178,0,0,1,2.781.76v-.5a2.107,2.107,0,0,0-2.341-2.181,6.393,6.393,0,0,0-2.76.781l-.7-1.4a6.884,6.884,0,0,1,3.46-.94C142.4,250.134,143.7,251.814,143.7,253.535Zm-1.68,3.441v-1.3a4.428,4.428,0,0,0-2.421-.66c-1.44,0-2.34.72-2.34,1.681,0,1.2,1.08,1.68,2.12,1.68A3.548,3.548,0,0,0,142.021,256.976Z"/><path d="M154.141,253.675v5.941H152.46v-5.661a2.05,2.05,0,0,0-2.22-2.261,2.913,2.913,0,0,0-2.3,1.561v6.361h-1.68v-9.242h1.561v1.3a3.287,3.287,0,0,1,2.84-1.54A3.365,3.365,0,0,1,154.141,253.675Z"/><path d="M155.9,250.374h1.8v-2.82h1.681v2.82h2.88V251.9h-2.88v4.98c0,.9.44,1.421,1.34,1.421a2.193,2.193,0,0,0,1.06-.38l.62,1.38a3.807,3.807,0,0,1-1.92.56,2.7,2.7,0,0,1-2.781-2.9V251.9h-1.8Z"/><path d="M165.239,257.576a1.14,1.14,0,1,1-1.14,1.14A1.153,1.153,0,0,1,165.239,257.576Z"/><path d="M177.44,247.213h-4.021v-1.6h9.722v1.6h-4.02v12.4H177.44Z"/><path d="M192.941,253.675v5.941h-1.68v-5.661a2.051,2.051,0,0,0-2.221-2.261,2.91,2.91,0,0,0-2.3,1.561v6.361h-1.681V244.493h1.681v7a3.25,3.25,0,0,1,2.72-1.361A3.364,3.364,0,0,1,192.941,253.675Z"/><path d="M203.981,255.055a5.246,5.246,0,0,1-.02.54H196.5a3.117,3.117,0,0,0,3.181,2.7,3.568,3.568,0,0,0,2.78-1.36l1.061,1.1a5.151,5.151,0,0,1-3.841,1.82A4.722,4.722,0,0,1,194.859,255a4.6,4.6,0,0,1,4.621-4.861C202.061,250.134,203.981,252.075,203.981,255.055Zm-1.641-.86a2.783,2.783,0,0,0-2.86-2.5,2.866,2.866,0,0,0-2.941,2.5Z"/><path d="M219.981,255.055a5.246,5.246,0,0,1-.02.54H212.5a3.117,3.117,0,0,0,3.181,2.7,3.568,3.568,0,0,0,2.78-1.36l1.061,1.1a5.151,5.151,0,0,1-3.841,1.82A4.722,4.722,0,0,1,210.859,255a4.6,4.6,0,0,1,4.621-4.861C218.061,250.134,219.981,252.075,219.981,255.055Zm-1.641-.86a2.783,2.783,0,0,0-2.86-2.5,2.866,2.866,0,0,0-2.941,2.5Z"/><path d="M223.219,250.374l2.341,3.4,2.32-3.4h1.861l-3.1,4.481,3.32,4.761h-1.98L225.439,256l-2.5,3.62h-1.88l3.36-4.761-3.16-4.481Z"/><path d="M233.219,250.374v1.34a3.638,3.638,0,0,1,3.121-1.58,4.877,4.877,0,0,1,0,9.722,3.718,3.718,0,0,1-2.981-1.38v5.741h-1.68V250.374Zm.14,6.342a3.284,3.284,0,0,0,2.721,1.58,3.31,3.31,0,0,0,0-6.6,3.284,3.284,0,0,0-2.721,1.581Z"/><path d="M251.221,255.055a5.246,5.246,0,0,1-.02.54h-7.462a3.116,3.116,0,0,0,3.18,2.7,3.569,3.569,0,0,0,2.781-1.36l1.06,1.1a5.151,5.151,0,0,1-3.841,1.82A4.721,4.721,0,0,1,242.1,255a4.6,4.6,0,0,1,4.621-4.861C249.3,250.134,251.221,252.075,251.221,255.055Zm-1.641-.86a2.783,2.783,0,0,0-2.86-2.5,2.866,2.866,0,0,0-2.941,2.5Z"/><path d="M258.62,250.374,258,251.9a2.336,2.336,0,0,0-1.061-.2,2.57,2.57,0,0,0-2.12,1.561v6.361h-1.68v-9.242h1.56v1.42a3.092,3.092,0,0,1,2.581-1.66A3.863,3.863,0,0,1,258.62,250.374Z"/><path d="M261.079,246.273a1.141,1.141,0,1,1-1.141,1.141A1.153,1.153,0,0,1,261.079,246.273Zm-.84,4.1h1.68v9.242h-1.68Z"/><path d="M273.26,255.055a5.246,5.246,0,0,1-.02.54h-7.462a3.117,3.117,0,0,0,3.181,2.7,3.569,3.569,0,0,0,2.781-1.36l1.06,1.1a5.151,5.151,0,0,1-3.841,1.82A4.722,4.722,0,0,1,264.138,255a4.6,4.6,0,0,1,4.621-4.861C271.34,250.134,273.26,252.075,273.26,255.055Zm-1.64-.86a2.783,2.783,0,0,0-2.861-2.5,2.867,2.867,0,0,0-2.941,2.5Z"/><path d="M283.06,253.675v5.941h-1.681v-5.661a2.05,2.05,0,0,0-2.22-2.261,2.913,2.913,0,0,0-2.3,1.561v6.361h-1.68v-9.242h1.561v1.3a3.287,3.287,0,0,1,2.84-1.54A3.365,3.365,0,0,1,283.06,253.675Z"/><path d="M293.52,258.076a4.984,4.984,0,0,1-3.781,1.78,4.862,4.862,0,0,1,0-9.722,4.953,4.953,0,0,1,3.681,1.66l-1.141,1.021a3.414,3.414,0,0,0-2.54-1.121,3.309,3.309,0,0,0,0,6.6,3.391,3.391,0,0,0,2.7-1.32Z"/><path d="M303.641,255.055a5,5,0,0,1-.021.54h-7.462a3.117,3.117,0,0,0,3.181,2.7,3.566,3.566,0,0,0,2.78-1.36l1.061,1.1a5.154,5.154,0,0,1-3.841,1.82A4.722,4.722,0,0,1,294.518,255a4.6,4.6,0,0,1,4.621-4.861C301.72,250.134,303.641,252.075,303.641,255.055ZM302,254.2a2.784,2.784,0,0,0-2.861-2.5,2.867,2.867,0,0,0-2.941,2.5Z"/><path d="M310.357,250.374h1.8v-2.82h1.681v2.82h2.881V251.9h-2.881v4.98c0,.9.44,1.421,1.34,1.421a2.193,2.193,0,0,0,1.06-.38l.62,1.38a3.8,3.8,0,0,1-1.92.56,2.7,2.7,0,0,1-2.781-2.9V251.9h-1.8Z"/><path d="M318.678,256.315v-5.941h1.68v5.662a2.049,2.049,0,0,0,2.22,2.26,2.781,2.781,0,0,0,2.3-1.521v-6.4h1.681v9.242H325V258.2a3.275,3.275,0,0,1-2.841,1.66A3.363,3.363,0,0,1,318.678,256.315Z"/><path d="M334.6,250.374l-.62,1.521a2.341,2.341,0,0,0-1.061-.2,2.57,2.57,0,0,0-2.12,1.561v6.361h-1.681v-9.242h1.561v1.42a3.092,3.092,0,0,1,2.58-1.66A3.865,3.865,0,0,1,334.6,250.374Z"/><path d="M343.8,253.675v5.941h-1.681v-5.661a2.05,2.05,0,0,0-2.221-2.261,2.908,2.908,0,0,0-2.3,1.561v6.361h-1.681v-9.242h1.561v1.3a3.285,3.285,0,0,1,2.84-1.54A3.365,3.365,0,0,1,343.8,253.675Z"/><path d="M354.838,255.055a5.246,5.246,0,0,1-.02.54h-7.462a3.118,3.118,0,0,0,3.181,2.7,3.571,3.571,0,0,0,2.781-1.36l1.06,1.1a5.151,5.151,0,0,1-3.841,1.82,4.721,4.721,0,0,1-4.82-4.861,4.6,4.6,0,0,1,4.62-4.861C352.918,250.134,354.838,252.075,354.838,255.055Zm-1.64-.86a2.784,2.784,0,0,0-2.861-2.5,2.868,2.868,0,0,0-2.941,2.5Z"/><path d="M363.577,251.515v-7.022h1.681v15.123h-1.54v-1.34a3.6,3.6,0,0,1-3.121,1.58,4.877,4.877,0,0,1,0-9.722A3.67,3.67,0,0,1,363.577,251.515Zm0,1.78a3.282,3.282,0,0,0-2.721-1.6,3.31,3.31,0,0,0,0,6.6,3.282,3.282,0,0,0,2.721-1.6Z"/><path d="M382.657,255a4.762,4.762,0,1,1-4.761-4.861A4.732,4.732,0,0,1,382.657,255Zm-1.68,0a3.088,3.088,0,1,0-3.081,3.3A3.1,3.1,0,0,0,380.977,255Z"/><path d="M384.575,256.315v-5.941h1.681v5.662a2.049,2.049,0,0,0,2.22,2.26,2.781,2.781,0,0,0,2.3-1.521v-6.4h1.681v9.242H390.9V258.2a3.272,3.272,0,0,1-2.84,1.66A3.364,3.364,0,0,1,384.575,256.315Z"/><path d="M394.215,250.374h1.8v-2.82h1.68v2.82h2.881V251.9H397.7v4.98a1.238,1.238,0,0,0,1.34,1.421,2.194,2.194,0,0,0,1.061-.38l.62,1.38a3.807,3.807,0,0,1-1.92.56,2.7,2.7,0,0,1-2.781-2.9V251.9h-1.8Z"/><path d="M75.96,274.374l2.841,6.262,2.841-6.262h1.72l-4.621,9.642-4.621-9.642Z"/><path d="M92.962,279.055a5.246,5.246,0,0,1-.02.54H85.48a3.118,3.118,0,0,0,3.181,2.7,3.569,3.569,0,0,0,2.781-1.36l1.06,1.1a5.151,5.151,0,0,1-3.841,1.82A4.722,4.722,0,0,1,83.84,279a4.6,4.6,0,0,1,4.621-4.861C91.042,274.134,92.962,276.075,92.962,279.055Zm-1.64-.86a2.783,2.783,0,0,0-2.861-2.5,2.866,2.866,0,0,0-2.94,2.5Z"/><path d="M100.361,274.374l-.62,1.521a2.334,2.334,0,0,0-1.06-.2,2.57,2.57,0,0,0-2.12,1.561v6.361H94.88v-9.242h1.561v1.42a3.092,3.092,0,0,1,2.58-1.66A3.863,3.863,0,0,1,100.361,274.374Z"/><path d="M101.66,286.417a2.15,2.15,0,0,0,1.1.48c.74,0,1.081-.52,1.441-1.42l.72-1.821-4.321-9.282h1.9l3.241,7.3,2.76-7.3h1.821s-4.641,11.683-4.861,12.223a2.717,2.717,0,0,1-2.561,1.86,3.41,3.41,0,0,1-1.96-.66Z"/><path d="M117.28,280.315v-5.941h1.68v5.662a2.05,2.05,0,0,0,2.221,2.26,2.781,2.781,0,0,0,2.3-1.521v-6.4h1.681v9.242H123.6V282.2a3.276,3.276,0,0,1-2.841,1.66A3.363,3.363,0,0,1,117.28,280.315Z"/><path d="M128.28,280.835a3.567,3.567,0,0,0,2.8,1.5c.94,0,2-.4,2-1.14,0-.8-.681-1.2-2.1-1.481-1.981-.4-3.381-1.18-3.381-2.92,0-1.34,1.34-2.661,3.4-2.661a4.8,4.8,0,0,1,3.421,1.4l-1.1,1.14a3.392,3.392,0,0,0-2.32-1.021c-1.18,0-1.76.581-1.76,1.181,0,.7.72,1.08,2.24,1.4,1.76.38,3.261,1.04,3.261,2.921,0,1.78-1.881,2.7-3.661,2.7a5.064,5.064,0,0,1-3.961-1.94Z"/><path d="M145.3,279.055a5.246,5.246,0,0,1-.02.54H137.82a3.116,3.116,0,0,0,3.18,2.7,3.569,3.569,0,0,0,2.781-1.36l1.06,1.1a5.151,5.151,0,0,1-3.841,1.82A4.721,4.721,0,0,1,136.18,279a4.6,4.6,0,0,1,4.621-4.861C143.381,274.134,145.3,276.075,145.3,279.055Zm-1.641-.86a2.783,2.783,0,0,0-2.86-2.5,2.866,2.866,0,0,0-2.941,2.5Z"/><path d="M146.339,274.374h1.921v-3.181a2.83,2.83,0,0,1,2.841-2.94,3.814,3.814,0,0,1,1.94.54l-.62,1.38a2.388,2.388,0,0,0-1.08-.36,1.327,1.327,0,0,0-1.4,1.48v3.081h2.4V275.9h-2.4v7.721h-1.68V275.9h-1.921Z"/><path d="M154.08,280.315v-5.941h1.68v5.662a2.049,2.049,0,0,0,2.22,2.26,2.781,2.781,0,0,0,2.3-1.521v-6.4h1.68v9.242H160.4V282.2a3.274,3.274,0,0,1-2.84,1.66A3.363,3.363,0,0,1,154.08,280.315Z"/><path d="M164.879,268.493h1.681v15.123h-1.681Z"/><path d="M174.2,274.374h1.92v-3.181a2.83,2.83,0,0,1,2.841-2.94,3.814,3.814,0,0,1,1.94.54l-.62,1.38a2.388,2.388,0,0,0-1.08-.36,1.326,1.326,0,0,0-1.4,1.48v3.081h2.4V275.9h-2.4v7.721h-1.681V275.9H174.2Z"/><path d="M190.581,279a4.762,4.762,0,1,1-4.761-4.861A4.732,4.732,0,0,1,190.581,279Zm-1.68,0a3.088,3.088,0,1,0-3.081,3.3A3.1,3.1,0,0,0,188.9,279Z"/><path d="M197.98,274.374l-.62,1.521a2.334,2.334,0,0,0-1.06-.2,2.57,2.57,0,0,0-2.121,1.561v6.361H192.5v-9.242h1.561v1.42a3.09,3.09,0,0,1,2.58-1.66A3.863,3.863,0,0,1,197.98,274.374Z"/><path d="M217.862,277.675v5.941h-1.681v-5.681c0-1.5-.78-2.241-1.98-2.241a2.38,2.38,0,0,0-1.98,1.481v6.441H210.54v-5.681c0-1.5-.78-2.241-1.98-2.241a2.417,2.417,0,0,0-1.981,1.481v6.441H204.9v-9.242h1.56v1.36a2.824,2.824,0,0,1,2.561-1.6,2.879,2.879,0,0,1,2.88,1.72,3.055,3.055,0,0,1,2.761-1.72C216.582,274.134,217.862,275.4,217.862,277.675Z"/><path d="M220.4,286.417a2.155,2.155,0,0,0,1.1.48c.74,0,1.08-.52,1.44-1.42l.72-1.821-4.321-9.282h1.9l3.24,7.3,2.761-7.3h1.821s-4.642,11.683-4.862,12.223a2.716,2.716,0,0,1-2.56,1.86,3.415,3.415,0,0,1-1.961-.66Z"/><path d="M243.9,277.675v5.941h-1.68v-5.661a2.05,2.05,0,0,0-2.22-2.261,2.91,2.91,0,0,0-2.3,1.561v6.361h-1.68v-9.242h1.56v1.3a3.287,3.287,0,0,1,2.84-1.54A3.364,3.364,0,0,1,243.9,277.675Z"/><path d="M254.94,279.055a5.246,5.246,0,0,1-.02.54h-7.462a3.118,3.118,0,0,0,3.181,2.7,3.569,3.569,0,0,0,2.781-1.36l1.06,1.1a5.151,5.151,0,0,1-3.841,1.82A4.722,4.722,0,0,1,245.818,279a4.6,4.6,0,0,1,4.621-4.861C253.02,274.134,254.94,276.075,254.94,279.055Zm-1.64-.86a2.783,2.783,0,0,0-2.861-2.5,2.866,2.866,0,0,0-2.94,2.5Z"/><path d="M258.179,274.374l2.34,3.4,2.321-3.4h1.86l-3.1,4.481,3.32,4.761h-1.981L260.4,280l-2.5,3.62h-1.88l3.361-4.761-3.161-4.481Z"/><path d="M265.838,274.374h1.8v-2.82h1.681v2.82h2.88V275.9h-2.88v4.98c0,.9.44,1.421,1.34,1.421a2.193,2.193,0,0,0,1.06-.38l.62,1.38a3.807,3.807,0,0,1-1.92.56,2.7,2.7,0,0,1-2.781-2.9V275.9h-1.8Z"/><path d="M281.3,274.374v1.34a3.637,3.637,0,0,1,3.12-1.58,4.877,4.877,0,0,1,0,9.722,3.721,3.721,0,0,1-2.981-1.38v5.741h-1.68V274.374Zm.139,6.342a3.286,3.286,0,0,0,2.721,1.58,3.31,3.31,0,0,0,0-6.6,3.286,3.286,0,0,0-2.721,1.581Z"/><path d="M296.3,274.374l-.619,1.521a2.341,2.341,0,0,0-1.061-.2,2.57,2.57,0,0,0-2.121,1.561v6.361h-1.68v-9.242h1.561v1.42a3.092,3.092,0,0,1,2.58-1.66A3.863,3.863,0,0,1,296.3,274.374Z"/><path d="M306.18,279a4.762,4.762,0,1,1-4.76-4.861A4.732,4.732,0,0,1,306.18,279Zm-1.68,0a3.088,3.088,0,1,0-3.08,3.3A3.1,3.1,0,0,0,304.5,279Z"/><path d="M314.92,275.515v-7.022h1.68v15.123h-1.54v-1.34a3.6,3.6,0,0,1-3.121,1.58,4.877,4.877,0,0,1,0-9.722A3.673,3.673,0,0,1,314.92,275.515Zm0,1.78a3.284,3.284,0,0,0-2.721-1.6,3.31,3.31,0,0,0,0,6.6,3.284,3.284,0,0,0,2.721-1.6Z"/><path d="M319.518,280.315v-5.941h1.68v5.662a2.049,2.049,0,0,0,2.22,2.26,2.781,2.781,0,0,0,2.3-1.521v-6.4h1.68v9.242h-1.56V282.2a3.275,3.275,0,0,1-2.841,1.66A3.363,3.363,0,0,1,319.518,280.315Z"/><path d="M337.858,282.076a4.98,4.98,0,0,1-3.78,1.78,4.862,4.862,0,0,1,0-9.722,4.956,4.956,0,0,1,3.681,1.66l-1.141,1.021a3.411,3.411,0,0,0-2.54-1.121,3.309,3.309,0,0,0,0,6.6,3.391,3.391,0,0,0,2.7-1.32Z"/><path d="M338.7,274.374h1.8v-2.82h1.681v2.82h2.881V275.9h-2.881v4.98c0,.9.44,1.421,1.34,1.421a2.193,2.193,0,0,0,1.06-.38l.62,1.38a3.807,3.807,0,0,1-1.92.56,2.7,2.7,0,0,1-2.781-2.9V275.9h-1.8Z"/><path d="M358.1,274.374l-.62,1.521a2.341,2.341,0,0,0-1.061-.2,2.57,2.57,0,0,0-2.12,1.561v6.361h-1.681v-9.242h1.561v1.42a3.092,3.092,0,0,1,2.58-1.66A3.865,3.865,0,0,1,358.1,274.374Z"/><path d="M367.979,279a4.762,4.762,0,1,1-4.761-4.861A4.733,4.733,0,0,1,367.979,279Zm-1.681,0a3.088,3.088,0,1,0-3.08,3.3A3.1,3.1,0,0,0,366.3,279Z"/><path d="M370.257,268.493h1.68v15.123h-1.68Z"/><path d="M383.338,279.055a5.246,5.246,0,0,1-.02.54h-7.462a3.118,3.118,0,0,0,3.181,2.7,3.571,3.571,0,0,0,2.781-1.36l1.06,1.1a5.151,5.151,0,0,1-3.841,1.82,4.721,4.721,0,0,1-4.82-4.861,4.6,4.6,0,0,1,4.62-4.861C381.418,274.134,383.338,276.075,383.338,279.055Zm-1.64-.86a2.784,2.784,0,0,0-2.861-2.5,2.868,2.868,0,0,0-2.941,2.5Z"/><path d="M80.932,325.536l-.756,1.944a2.483,2.483,0,0,0-1.027-.2,2.256,2.256,0,0,0-1.908,1.153v5.581H75.08v-8.535h2.053v1.243a2.779,2.779,0,0,1,2.323-1.458A4.643,4.643,0,0,1,80.932,325.536Z"/><path d="M89.771,329.713c0,.162,0,.486-.019.81H83.378a2.438,2.438,0,0,0,2.395,1.728,3.435,3.435,0,0,0,2.341-.864l1.08,1.621a5.465,5.465,0,0,1-3.421,1.224,4.486,4.486,0,0,1-4.591-4.483,4.3,4.3,0,1,1,8.589-.036Zm-2.161-.756a2.159,2.159,0,0,0-4.232,0Z"/><path d="M98.842,328.453v5.563h-2v-1.08a3.454,3.454,0,0,1-2.808,1.3,2.885,2.885,0,0,1-3.079-2.863c0-1.638,1.494-2.827,3.349-2.827a4.146,4.146,0,0,1,2.377.613v-.487c0-1.116-1.081-1.476-1.837-1.476a6.933,6.933,0,0,0-2.557.63l-.7-1.782a8.642,8.642,0,0,1,3.367-.774C97.4,325.266,98.842,326.508,98.842,328.453Zm-2.16,2.988v-.882a4.321,4.321,0,0,0-1.945-.432c-.666,0-1.585.288-1.585,1.206,0,.9.883,1.1,1.549,1.1A2.533,2.533,0,0,0,96.682,331.441Z"/><path d="M109.157,334.016h-2V332.9a2.95,2.95,0,0,1-2.575,1.332,4.5,4.5,0,0,1,0-8.966A3.044,3.044,0,0,1,107,326.382V320.4h2.161ZM107,328.471a2.365,2.365,0,0,0-2.035-1.189,2.47,2.47,0,0,0,0,4.934A2.365,2.365,0,0,0,107,331.027Z"/><path d="M129.75,328.524v5.492h-2.161v-4.933c0-1.171-.45-1.8-1.53-1.8a2.025,2.025,0,0,0-1.675,1.1v5.636h-2.161v-4.933c0-1.171-.45-1.8-1.53-1.8a2.025,2.025,0,0,0-1.674,1.1v5.636h-2.162v-8.535h2.017v1.243a2.961,2.961,0,0,1,2.521-1.458,2.731,2.731,0,0,1,2.647,1.494,2.989,2.989,0,0,1,2.719-1.494A2.943,2.943,0,0,1,129.75,328.524Z"/><path d="M132.193,335.8a2.03,2.03,0,0,0,1.135.558c.738,0,1.044-.216,1.458-1.26l.342-.883-4.159-8.733h2.4l2.881,6.248,2.251-6.248h2.322l-4.141,10.444a3.3,3.3,0,0,1-3.2,2.449,3.778,3.778,0,0,1-2.286-.9Z"/><path d="M146.288,336a2.342,2.342,0,0,0,1.026.36c.468,0,1.242-.108,1.242-1.765v-9.111h2.161v9.31c0,2.79-1.891,3.583-3.169,3.583a4.013,4.013,0,0,1-2.035-.559Zm3.331-14.693a1.423,1.423,0,1,1-1.423,1.423A1.414,1.414,0,0,1,149.619,321.3Z"/><path d="M161.734,329.749a4.556,4.556,0,1,1-4.555-4.483A4.489,4.489,0,0,1,161.734,329.749Zm-2.2,0a2.361,2.361,0,1,0-2.358,2.467A2.336,2.336,0,0,0,159.537,329.749Z"/><path d="M163.314,331.009v-5.528h2.162v4.934c0,1.26.593,1.8,1.692,1.8a2.1,2.1,0,0,0,1.692-1.045v-5.69h2.161v8.535H169v-1.242a3.077,3.077,0,0,1-5.69-1.765Z"/><path d="M179.031,325.536l-.757,1.944a2.481,2.481,0,0,0-1.026-.2,2.256,2.256,0,0,0-1.908,1.153v5.581h-2.161v-8.535h2.052v1.243a2.781,2.781,0,0,1,2.323-1.458A4.645,4.645,0,0,1,179.031,325.536Z"/><path d="M187.851,328.488v5.528H185.69v-4.987A1.575,1.575,0,0,0,184,327.282a2.105,2.105,0,0,0-1.692,1.1v5.636h-2.161v-8.535h2.016v1.243a2.949,2.949,0,0,1,2.557-1.458A3.057,3.057,0,0,1,187.851,328.488Z"/><path d="M198.021,329.713c0,.162,0,.486-.019.81h-6.374a2.438,2.438,0,0,0,2.4,1.728,3.435,3.435,0,0,0,2.341-.864l1.08,1.621a5.465,5.465,0,0,1-3.421,1.224,4.486,4.486,0,0,1-4.591-4.483,4.3,4.3,0,1,1,8.589-.036Zm-2.161-.756a2.159,2.159,0,0,0-4.232,0Z"/><path d="M199.89,335.8a2.025,2.025,0,0,0,1.134.558c.739,0,1.044-.216,1.458-1.26l.343-.883-4.159-8.733h2.394l2.881,6.248,2.251-6.248h2.323l-4.142,10.444a3.3,3.3,0,0,1-3.2,2.449,3.778,3.778,0,0,1-2.286-.9Z"/><path class="a7431ac7-c66d-46cb-b101-8f5d346f8c22" d="M361.578,465.873a5.585,5.585,0,0,0-7.583,2.2c-8.025,14.582-11.892,37.577-9.628,57.222,1.56,13.518,1.593,13.775-21.325,21.379-17.354,5.756-38.951,12.919-53.747,33.692-7.425,10.426-15.008,26.335-9.693,38.811.845,1.983,2.286,3.94,4.39,4.41,5.895,1.317,4.636-12.73,5.381-16.219a55.148,55.148,0,0,1,9.021-20.52c12.678-17.8,32.356-24.326,48.167-29.568,24.478-8.123,31.429-11.441,28.9-33.267-1.986-17.25,1.435-38.042,8.319-50.561A5.578,5.578,0,0,0,361.578,465.873Z"/><path class="a7431ac7-c66d-46cb-b101-8f5d346f8c22" d="M384.28,484.035a5.584,5.584,0,0,0-7.582,2.2c-8.025,14.583-11.893,37.578-9.629,57.222,1.56,13.519,1.593,13.776-21.325,21.38C328.39,570.6,306.793,577.758,292,598.532a64.855,64.855,0,0,0-10.22,20.692c-2.217,8.386.635,10.015,9.133,9.864a3.763,3.763,0,0,0,1.631-.274,2.564,2.564,0,0,0,1.116-2.8c-1.448-7.221,3.124-14.939,7.439-21,12.679-17.8,32.356-24.326,48.167-29.568,24.479-8.123,31.429-11.441,28.9-33.268-1.986-17.249,1.435-38.041,8.319-50.56A5.579,5.579,0,0,0,384.28,484.035Z"/><path class="a7431ac7-c66d-46cb-b101-8f5d346f8c22" d="M308.859,416.854a5.584,5.584,0,0,0-7.582,2.2c-8.025,14.582-11.893,37.578-9.629,57.222,1.56,13.519,1.593,13.776-21.325,21.38-17.354,5.755-38.951,12.918-53.747,33.692-8.392,11.783-14.8,29.723-13.643,44.2.2,2.512.487,5.125,1.841,7.25s4.1,3.578,6.445,2.649c6.166-2.446,3.98-17.962,4.726-23.092a55.922,55.922,0,0,1,9.73-24.527c12.679-17.8,32.356-24.326,48.167-29.569,24.479-8.123,31.429-11.44,28.9-33.267-1.986-17.25,1.435-38.041,8.319-50.561A5.578,5.578,0,0,0,308.859,416.854Z"/></svg>