<svg id="personal_site_logo" data-name="personal site logo" xmlns="http://www.w3.org/2000/svg" viewBox="0 0 137.71 135.81"><defs><style>.cls-1{fill:#23283f;}</style></defs><path class="cls-1" d="M54,115.35l-.48-.08c-.32-.07-.52-.09-1.14-.25s-1.12-.25-2-.54-1.65-.49-2.77-.93-2.11-.81-3.43-1.41a37.1,37.1,0,0,1-3.73-1.87,43,43,0,0,1-4.12-2.58A51.47,51.47,0,0,1,32,104.32c-1.54-1.36-2.79-2.6-4.31-4.22a41.27,41.27,0,0,1-4-5,44.16,44.16,0,0,1-3.56-5.81,48.4,48.4,0,0,1-2.92-6.59c-.81-2.44-1.47-4.76-2.07-7.34a51.47,51.47,0,0,1-1-7.7,53.81,53.81,0,0,1,1.47-16,56,56,0,0,1,6.16-15.15,55.33,55.33,0,0,1,4.65-6.69A56.69,56.69,0,0,1,31.94,24a58,58,0,0,1,12.58-8.89C46.63,14.06,49,13,51,12.21a51.57,51.57,0,0,1,6.58-2c2-.46,4.29-.92,6.15-1.16s4-.45,5.69-.5,3.45,0,4.89,0,3.22.23,4.41.37,2.49.34,3.41.49,1.94.36,2.56.5l1.43.3.48.08s0,0,0-.06l0,0,0-.05,0-.05,0,0-.06-.05-.07,0-.07,0-.07,0-.08,0-.08,0-.09,0-.08,0-.09,0-.09,0-.09,0-.09,0-.08,0-.09,0-.08,0-.08,0-.08,0-.07,0-.07,0-.06-.05-.06,0,0-.05,0,0,0-.05,0,0,0-.05a.13.13,0,0,1,0-.06,1.81,1.81,0,0,0-.42-.15c-.28-.08-1-.25-1.55-.37s-1.53-.35-2.34-.48-2-.34-3.07-.45-2.5-.26-3.76-.32-2.92-.09-4.38-.08-3.58.16-5.21.33-3.87.51-5.63.87-4.07,1-5.93,1.53-4.18,1.46-6.08,2.26A54.12,54.12,0,0,0,40,15.08c-1.86,1.12-4.06,2.57-5.87,3.91a55.85,55.85,0,0,0-5.67,4.84c-1.64,1.63-3.47,3.65-5,5.47a54.66,54.66,0,0,0-4.38,6.29,55.62,55.62,0,0,0-3.54,6.81c-.92,2.21-1.85,4.75-2.54,7a52.32,52.32,0,0,0-1.66,7.35c-.33,2.34-.57,4.91-.67,7.22a50,50,0,0,0,.23,7.16c.24,2.23.61,4.59,1.05,6.71a48.22,48.22,0,0,0,1.76,6.33c.71,1.93,1.47,3.92,2.3,5.67s1.76,3.5,2.68,5.05,1.92,3,2.89,4.37,1.95,2.6,2.92,3.69,1.92,2.11,2.81,3,1.74,1.74,2.54,2.42,1.5,1.31,2.15,1.81l1.64,1.26c.44.35.8.6,1,.77a1.73,1.73,0,0,1,.34.28,1.56,1.56,0,0,1-.39-.21c-.25-.16-.62-.4-1.08-.73l-1.7-1.23a26.61,26.61,0,0,1-2.22-1.81c-.79-.71-1.7-1.5-2.6-2.41s-1.88-1.93-2.87-3-2-2.42-3-3.75-2-2.88-2.94-4.44-1.87-3.36-2.72-5.13A44.5,44.5,0,0,1,13.15,84c-.62-2-1.28-4.23-1.73-6.37s-.8-4.57-1-6.83a52.05,52.05,0,0,1-.18-7.3c.1-2.33.4-5,.74-7.34a52.94,52.94,0,0,1,1.77-7.47,54.92,54.92,0,0,1,2.75-7.3c1-2.18,2.36-4.67,3.61-6.73a59.91,59.91,0,0,1,9.86-12c1.74-1.56,3.87-3.34,5.69-4.69a59.23,59.23,0,0,1,6.25-4c1.93-1,4.32-2.2,6.24-3s4.35-1.62,6.22-2.2,4.28-1.08,6.06-1.45,4.11-.61,5.76-.79,3.84-.21,5.32-.23,3.52.06,4.79.18,2.78.27,3.83.42,2.33.36,3.14.51,1.84.36,2.4.5l1.26.3.44.1a2.54,2.54,0,0,0-.54-.19c-.36-.12-1.25-.4-2-.57s-2-.49-3-.68-2.64-.46-4-.63-3.63-.41-5.32-.44-4.2-.08-6.14.08-4.68.44-6.83.83-5,1.1-7.33,1.76a66.76,66.76,0,0,0-7.87,3,68.8,68.8,0,0,0-7.81,4.33A72.23,72.23,0,0,0,28,21.48a57.37,57.37,0,0,0-6.88,7.28,71.6,71.6,0,0,0-5.6,8.29,57.7,57.7,0,0,0-4.34,9.56,73.78,73.78,0,0,0-2.6,10A76.19,76.19,0,0,0,7.71,67a58.92,58.92,0,0,0,1,10.53,75.11,75.11,0,0,0,2.64,9.87,59.05,59.05,0,0,0,4.31,9.29,73.13,73.13,0,0,0,5.51,8.08,54.5,54.5,0,0,0,6.67,7A66.36,66.36,0,0,0,35,117.18a62.22,62.22,0,0,0,7.54,4.13c2.37,1,5.07,2,7.36,2.79a53.89,53.89,0,0,0,7.23,1.72c2.16.36,4.57.63,6.52.76s4.1.12,5.79.07,3.56-.22,5-.39,2.78-.41,3.85-.59,2.12-.44,2.86-.6,1.43-.34,1.81-.44a2.35,2.35,0,0,1,.58-.11,1.85,1.85,0,0,1-.55.22c-.37.12-1.07.35-1.8.53s-1.78.47-2.85.69-2.46.46-3.85.66-3.29.39-5,.47-3.89.1-5.84,0-4.41-.37-6.57-.72a52.23,52.23,0,0,1-7.32-1.69c-2.29-.73-5.05-1.74-7.42-2.77a62.69,62.69,0,0,1-7.64-4.14,67.81,67.81,0,0,1-7.3-5.51,56,56,0,0,1-6.78-7A74.07,74.07,0,0,1,15,97.06a75.75,75.75,0,0,1-4.3-9.15A61.42,61.42,0,0,1,6.92,67a77.65,77.65,0,0,1,.86-10.45,76.82,76.82,0,0,1,2.59-10.11,59.83,59.83,0,0,1,4.37-9.71,74.59,74.59,0,0,1,5.62-8.41,74.15,74.15,0,0,1,6.7-7.19,59,59,0,0,1,7.74-6,69.8,69.8,0,0,1,7.88-4.43C45,9.64,48,8.48,50.29,7.7A63.79,63.79,0,0,1,58,5.76c2.14-.41,5-.73,6.89-.91s4.54-.17,6.22-.16,4,.21,5.41.36,3,.39,4.08.56,2.37.45,3.09.6,1.68.39,2.05.47a2.46,2.46,0,0,0,.53.1,2.88,2.88,0,0,0-.7-.3c-.44-.16-1.51-.47-2.36-.69S80.91,5.22,79.68,5s-3.53-.63-5.13-.78-4.25-.37-6.18-.35-4.89.11-7.1.36A66.69,66.69,0,0,0,53,5.62c-2.41.64-5.73,1.67-8.29,2.62a64.54,64.54,0,0,0-9.17,4.48,82.86,82.86,0,0,0-8.47,6,67.21,67.21,0,0,0-8,8A85.28,85.28,0,0,0,12.59,36a69.81,69.81,0,0,0-5,11,71.72,71.72,0,0,0-2.88,12,72.33,72.33,0,0,0-.5,12.49A75.37,75.37,0,0,0,6.18,84a75.87,75.87,0,0,0,4.33,11.72A74.69,74.69,0,0,0,17,106.25a73.24,73.24,0,0,0,8.26,9,70.06,70.06,0,0,0,9.63,7.16,84.31,84.31,0,0,0,10.11,5,65.17,65.17,0,0,0,10.82,3.11A78.57,78.57,0,0,0,66,131.66a76.16,76.16,0,0,0,9.67-.46,73.85,73.85,0,0,0,8.81-1.74,66.47,66.47,0,0,0,7.76-2.66c2-.88,4.59-2.1,6.26-3s3.82-2.26,5.13-3.16,3.08-2.17,4-3,2-1.71,2.67-2.29l1.43-1.31c.32-.3.75-.74.75-.74l-3.13,2.91-3,2.44-3.14,2.27-3.61,2.27-3.42,1.84-3.52,1.63-3.61,1.43L85,129.4l-3.78.95-3.82.72-4.28.51-3.89.21-3.91,0-4.32-.3-3.88-.55-3.84-.77-3.8-1-3.72-1.22-4-1.64-3.54-1.71-3.42-1.91-3.66-2.36L28,118l-3-2.53-2.83-2.7-2.94-3.2-2.46-3.05-2.27-3.19-2.29-3.69-1.84-3.46L8.71,92.59,7.15,88.53,6,84.78,5.05,81,4.33,77.1l-.48-4.35-.2-3.94,0-4L4,60.46l.56-3.91.8-3.88,1-3.83,1.43-4.2L9.36,41l1.74-3.56L13,34l2.43-3.7,2.39-3.16,2.56-3,3.08-3.17,2.94-2.65,3.08-2.47,3.23-2.28,3.77-2.3L40,9.37l3.6-1.64,4.14-1.56L51.55,5l3.86-.94,4.38-.76,4-.41,4-.19,4,.06,4.47.37S64.9,1.62,60.82,2.09A88,88,0,0,0,50.09,4.2a69.91,69.91,0,0,0-12.55,5,86.87,86.87,0,0,0-11.92,8,79,79,0,0,0-11,11.74A75.36,75.36,0,0,0,6,45.25,80.94,80.94,0,0,0,2,65.37c-.19,6,.94,15.88,2.84,21.8s6.2,14.83,9.88,19.71,10.72,12,15.83,15.38A81.63,81.63,0,0,0,49,131.06a82.37,82.37,0,0,0,16.59,2.73c3.87.1,8.44-.24,8.76-.28s2.35-.24,4.57-.59a85.68,85.68,0,0,0,9.71-2.28,82.74,82.74,0,0,0,11.77-5,76.58,76.58,0,0,0,12-8.28,90.47,90.47,0,0,0,10-10.72,78.34,78.34,0,0,0,7.77-13.55,77.64,77.64,0,0,0,4.47-14.79,88.44,88.44,0,0,0,1.07-14,84.68,84.68,0,0,0-1.61-13,81.43,81.43,0,0,0-3.79-11.86,95.11,95.11,0,0,0-5.06-9.73,87.75,87.75,0,0,0-5.81-8c-1.56-1.86-4-4.38-5.41-5.74-5.69-4-4.29-2.32-9.52-4.32-7.59-3-17.61.24-19.33,3.58s.5,12.35,9.66,21.47a40,40,0,0,1,3.57,3.52A29.08,29.08,0,0,1,102,44.79a38.45,38.45,0,0,1,3.47,6.11,29.21,29.21,0,0,1,2.49,7A32.54,32.54,0,0,1,109.22,66a26.44,26.44,0,0,1-.4,8.81c-.75,4.34-.76,5.52-2.7,9.87s-2.47,5.75-5.48,9.59a36.73,36.73,0,0,1-7.89,7.95c-3.73,3-4.71,3.64-9.06,5.41s-5.74,2.41-9.73,3a36.57,36.57,0,0,1-8.31.75c-2.9-.12-4-.18-4.21-.21a28.66,28.66,0,0,1-3.25-.4,35.67,35.67,0,0,1-6.76-1.54,39,39,0,0,1-8.78-3.8,39,39,0,0,1-9.1-6.77,36.62,36.62,0,0,1-7.8-9.79,41.63,41.63,0,0,1-5.29-12.68A43.31,43.31,0,0,1,19,62.05,53,53,0,0,1,21.66,47.9a43.07,43.07,0,0,1,6.2-12.36,53.51,53.51,0,0,1,9.08-10.09,51.17,51.17,0,0,1,10.56-7,5.73,5.73,0,0,0-1,.24,12.11,12.11,0,0,0-1.42.51c-.56.23-1.16.46-1.85.82s-1.42.69-2.22,1.17-1.64.95-2.53,1.56-1.79,1.23-2.75,2-1.89,1.53-2.9,2.4a38.34,38.34,0,0,0-2.9,2.83,42,42,0,0,0-2.85,3.27c-.95,1.23-1.84,2.45-2.76,3.8a45.61,45.61,0,0,0-2.47,4.16,48.94,48.94,0,0,0-2.14,4.56A47.71,47.71,0,0,0,18,50.57a50.31,50.31,0,0,0-1.28,5.15,49.19,49.19,0,0,0-.76,5.33,54.29,54.29,0,0,0-.21,5.43,52.12,52.12,0,0,0,.37,5.43,52.74,52.74,0,0,0,2.41,10.53,32,32,0,0,0,1.9,4.73,50.68,50.68,0,0,0,2.39,4.57,48.46,48.46,0,0,0,2.73,4.18,46.64,46.64,0,0,0,3,3.74A45,45,0,0,0,31.68,103c1.21,1.1,2.23,2,3.43,3a37,37,0,0,0,3.23,2.34,31.26,31.26,0,0,0,3.1,1.93c1.18.64,2.07,1.12,3.17,1.65s1.9.87,2.9,1.3,1.69.65,2.57,1,1.44.47,2.19.71,1.14.34,1.73.51h0"/></svg>