<svg id="Layer_2" data-name="Layer 2" xmlns="http://www.w3.org/2000/svg" viewBox="0 0 570 730"><defs><style>.cls-1{font-size:24px;}.cls-1,.cls-7{font-family:Europa-Bold;font-weight:700;}.cls-2,.cls-9{font-size:21px;}.cls-2{font-family:Europa-Regular;}.cls-3{letter-spacing:-0.01em;}.cls-4{letter-spacing:-0.02em;}.cls-5{letter-spacing:-0.01em;}.cls-6{letter-spacing:-0.02em;}.cls-7{font-size:18px;}.cls-8{letter-spacing:-0.02em;}.cls-10{fill:#8a7cce;}</style></defs><text class="cls-1" transform="translate(63 129.64)">Theana</text><text class="cls-2" transform="translate(63 183.94)">Theana helps use<tspan class="cls-3" x="157.35" y="0">r</tspan><tspan x="164.24" y="0">s be in the p</tspan><tspan class="cls-4" x="278.04" y="0">r</tspan><tspan x="284.84" y="0">esent in their </tspan><tspan class="cls-5" x="411.15" y="0">w</tspan><tspan x="426.57" y="0">ork </tspan><tspan x="0" y="25.2">or play by int</tspan><tspan class="cls-4" x="120.62" y="25.2">r</tspan><tspan x="127.43" y="25.2">oducing b</tspan><tspan class="cls-6" x="217.26" y="25.2">r</tspan><tspan x="224.07" y="25.2">eathing and </tspan><tspan class="cls-4" x="338.1" y="25.2">r</tspan><tspan x="344.9" y="25.2" xml:space="preserve">eflection    </tspan><tspan x="0" y="50.4">mic</tspan><tspan class="cls-4" x="31.39" y="50.4">r</tspan><tspan x="38.2" y="50.4">o-exe</tspan><tspan class="cls-6" x="88.64" y="50.4">r</tspan><tspan x="95.44" y="50.4">cises. </tspan><tspan class="cls-7"><tspan class="cls-8" x="0" y="100.8">r</tspan><tspan x="6.68" y="100.8">ead case study</tspan><tspan class="cls-9" x="130.59" y="100.8"> </tspan></tspan></text><path class="cls-10" d="M346.16,605.93l-.51-.09c-.34-.07-.55-.09-1.21-.27s-1.19-.26-2.13-.57-1.76-.52-2.94-1-2.24-.87-3.64-1.5a37.89,37.89,0,0,1-4-2,45.45,45.45,0,0,1-4.38-2.73,54.36,54.36,0,0,1-4.59-3.59,61.89,61.89,0,0,1-4.58-4.48,44.87,44.87,0,0,1-4.22-5.27,48,48,0,0,1-3.78-6.18,49,49,0,0,1-3.1-7c-.87-2.6-1.57-5.06-2.2-7.8a54,54,0,0,1-1.07-8.19,54.53,54.53,0,0,1,.14-8.47,59.26,59.26,0,0,1,8-24.61,60.38,60.38,0,0,1,4.94-7.11A61,61,0,0,1,329.2,503.6a60.76,60.76,0,0,1,6.89-4.2c2.24-1.12,4.73-2.23,6.92-3.09a55.32,55.32,0,0,1,7-2.17c2.13-.49,4.56-1,6.54-1.24s4.28-.47,6-.52,3.66,0,5.2,0,3.42.25,4.69.39,2.64.36,3.62.53,2.06.38,2.72.52l1.52.32a2.52,2.52,0,0,0,.51.08l0,0,0-.06,0-.05s0,0-.05-.05l-.06-.05-.06-.05-.07,0-.07-.05-.08-.05-.09,0-.08,0-.09,0-.09-.05-.1,0-.09,0-.1,0-.09,0-.09,0-.09,0-.09-.05-.09,0-.08-.05-.08-.05-.07,0A.18.18,0,0,0,379,493l-.06,0-.05-.05-.05-.05,0-.06,0-.05,0-.06a.43.43,0,0,1,0,0s-.15-.08-.44-.16-1.07-.27-1.65-.4-1.63-.37-2.48-.5-2.16-.37-3.27-.48-2.65-.28-4-.34-3.1-.1-4.66-.09-3.8.17-5.53.35-4.11.54-6,.93-4.33,1-6.3,1.62-4.44,1.55-6.46,2.4a56.34,56.34,0,0,0-6.66,3.38c-2,1.18-4.32,2.72-6.24,4.14a59.4,59.4,0,0,0-6,5.15c-1.75,1.73-3.69,3.88-5.29,5.81a58.25,58.25,0,0,0-4.66,6.69,57.06,57.06,0,0,0-3.76,7.24c-1,2.35-2,5.05-2.71,7.48a55.69,55.69,0,0,0-1.75,7.81c-.36,2.48-.62,5.22-.72,7.68a53.29,53.29,0,0,0,.25,7.6c.25,2.38.65,4.89,1.11,7.14a52.19,52.19,0,0,0,1.87,6.72c.75,2.06,1.56,4.17,2.45,6s1.86,3.72,2.84,5.36,2,3.24,3.07,4.65,2.08,2.76,3.11,3.92,2,2.24,3,3.2,1.85,1.85,2.71,2.57,1.59,1.39,2.28,1.92l1.74,1.35c.47.37.85.63,1.1.82a1.75,1.75,0,0,1,.36.29,1.43,1.43,0,0,1-.41-.23c-.27-.16-.67-.41-1.16-.77l-1.8-1.3c-.7-.52-1.53-1.18-2.36-1.93s-1.8-1.6-2.77-2.56-2-2-3.05-3.21-2.13-2.57-3.18-4-2.13-3.07-3.13-4.72-2-3.58-2.89-5.45a48.76,48.76,0,0,1-2.5-6.23c-.67-2.11-1.37-4.5-1.85-6.77s-.84-4.86-1.1-7.26a54.09,54.09,0,0,1-.18-7.76c.1-2.48.42-5.29.78-7.8a56.5,56.5,0,0,1,1.88-7.94,58.52,58.52,0,0,1,2.92-7.76c1.1-2.32,2.51-5,3.84-7.15a60.33,60.33,0,0,1,4.85-6.74,61.69,61.69,0,0,1,5.63-6c1.84-1.67,4.1-3.55,6.05-5a61.39,61.39,0,0,1,6.64-4.24c2.05-1.1,4.58-2.34,6.62-3.19s4.63-1.73,6.62-2.35,4.55-1.15,6.44-1.54,4.37-.65,6.12-.83,4.09-.23,5.66-.25,3.73.06,5.09.19,2.95.28,4.07.44,2.47.38,3.33.55,2,.38,2.55.53l1.34.32.47.1a3.13,3.13,0,0,0-.57-.2c-.39-.12-1.34-.42-2.11-.6s-2.09-.53-3.22-.72-2.82-.5-4.29-.68-3.86-.44-5.65-.47-4.47-.08-6.53.09-5,.47-7.26.89-5.33,1.16-7.79,1.87a70.54,70.54,0,0,0-8.37,3.21,74.32,74.32,0,0,0-8.3,4.6,78.92,78.92,0,0,0-7.9,6.05,62.59,62.59,0,0,0-7.31,7.74,79,79,0,0,0-6,8.81,61.72,61.72,0,0,0-4.61,10.16,78.24,78.24,0,0,0-2.76,10.63,79.1,79.1,0,0,0-.93,11,62.6,62.6,0,0,0,1,11.19,81,81,0,0,0,2.81,10.49,62.45,62.45,0,0,0,4.59,9.87,75.27,75.27,0,0,0,5.85,8.58,57.42,57.42,0,0,0,7.09,7.42,68.88,68.88,0,0,0,7.66,5.83,66.49,66.49,0,0,0,8,4.39c2.52,1.11,5.39,2.17,7.82,3a56.45,56.45,0,0,0,7.69,1.82c2.29.38,4.85.67,6.92.81s4.37.13,6.16.07,3.78-.22,5.26-.41,3-.43,4.09-.63,2.26-.46,3-.63,1.53-.37,1.93-.47a2.59,2.59,0,0,1,.61-.11,2.72,2.72,0,0,1-.58.23c-.39.13-1.14.36-1.91.56s-1.89.5-3,.73-2.62.49-4.1.71-3.49.41-5.29.49-4.13.11-6.2,0-4.69-.39-7-.76a57.47,57.47,0,0,1-7.78-1.8c-2.43-.78-5.36-1.84-7.89-3a67,67,0,0,1-8.11-4.39,72.77,72.77,0,0,1-7.76-5.86,59.55,59.55,0,0,1-7.21-7.49,79.1,79.1,0,0,1-5.94-8.65,83.18,83.18,0,0,1-4.57-9.73,65.5,65.5,0,0,1-3-10.84,64.23,64.23,0,0,1-1.06-11.34,66,66,0,0,1,3.66-21.85,64.37,64.37,0,0,1,4.64-10.32,81.84,81.84,0,0,1,6-8.94,79.79,79.79,0,0,1,7.12-7.64,63.18,63.18,0,0,1,8.22-6.4,78.15,78.15,0,0,1,8.38-4.71c2.49-1.14,5.68-2.37,8.08-3.2a69.17,69.17,0,0,1,8.22-2.07c2.28-.43,5.27-.77,7.33-1s4.82-.19,6.61-.17,4.28.22,5.75.38,3.2.42,4.33.59,2.52.49,3.29.64,1.78.41,2.17.5a2.5,2.5,0,0,0,.57.11,3,3,0,0,0-.74-.32c-.47-.16-1.61-.49-2.51-.73s-2.47-.61-3.78-.87-3.74-.67-5.45-.83-4.51-.4-6.57-.38-5.19.12-7.54.39a69.51,69.51,0,0,0-8.77,1.51c-2.57.67-6.09,1.78-8.81,2.79a67.75,67.75,0,0,0-9.74,4.76,85,85,0,0,0-9,6.36,71.13,71.13,0,0,0-8.52,8.49,89,89,0,0,0-6.89,9.88,73.68,73.68,0,0,0-5.3,11.74,75.19,75.19,0,0,0-3.06,12.79,77.28,77.28,0,0,0-.54,13.27A67.93,67.93,0,0,0,299.94,585a79.31,79.31,0,0,0,6.86,11.25,77.05,77.05,0,0,0,8.77,9.6,74.41,74.41,0,0,0,10.24,7.61,88.08,88.08,0,0,0,10.74,5.27,69.52,69.52,0,0,0,11.5,3.31,83.38,83.38,0,0,0,10.89,1.21,80.2,80.2,0,0,0,10.29-.49,74.9,74.9,0,0,0,9.36-1.85,71.57,71.57,0,0,0,8.24-2.82c2.16-.94,4.88-2.24,6.66-3.22s4.05-2.4,5.44-3.35,3.28-2.31,4.28-3.15,2.18-1.82,2.84-2.43l1.51-1.39c.35-.32.8-.79.8-.79L405,606.86l-3.2,2.6-3.34,2.41-3.84,2.41-3.63,2L387.29,618l-3.84,1.52-4.34,1.37-4,1-4.06.77-4.54.54-4.15.22-4.15,0-4.59-.32-4.12-.58-4.09-.82-4-1.07-4-1.29-4.29-1.75-3.76-1.81-3.64-2-3.89-2.51-3.34-2.49L315.31,606l-3-2.87-3.11-3.4-2.62-3.24-2.41-3.39-2.43-3.92-2-3.68L298,581.74l-1.65-4.32-1.24-4-1-4.06-.76-4.11-.52-4.62-.21-4.19,0-4.19.36-4.68.6-4.16.85-4.12,1.09-4.07,1.51-4.46,1.62-3.89,1.84-3.79,2.07-3.67,2.58-3.94,2.54-3.36,2.72-3.2,3.27-3.38,3.13-2.81,3.28-2.62,3.43-2.43,4-2.44,3.72-2,3.83-1.74,4.4-1.66,4-1.23,4.1-1,4.66-.8,4.2-.45,4.23-.19,4.23.06,4.76.4s-12-1.63-16.33-1.14a96,96,0,0,0-11.4,2.24,75,75,0,0,0-13.34,5.32A93.23,93.23,0,0,0,316,501.58a84.43,84.43,0,0,0-11.66,12.48,79,79,0,0,0-9.23,17.37,85.52,85.52,0,0,0-4.19,21.38c-.2,6.38,1,16.88,3,23.17s6.58,15.76,10.5,20.95,11.39,12.76,16.81,16.34a87,87,0,0,0,19.61,9.35,88,88,0,0,0,17.62,2.9c4.12.11,9-.25,9.32-.3s2.49-.25,4.86-.62A91.5,91.5,0,0,0,383,622.17a87.63,87.63,0,0,0,12.51-5.29,81.22,81.22,0,0,0,12.73-8.79,95.48,95.48,0,0,0,10.62-11.4,72.78,72.78,0,0,0,13-30.12A93.82,93.82,0,0,0,433,551.71a90,90,0,0,0-1.71-13.84,86.9,86.9,0,0,0-4-12.61,99.94,99.94,0,0,0-5.38-10.34,89.51,89.51,0,0,0-6.18-8.48c-1.65-2-4.29-4.66-5.75-6.1-6-4.24-4.56-2.47-10.11-4.59-8.06-3.17-18.72.25-20.55,3.8s.54,13.13,10.27,22.82a43.58,43.58,0,0,1,3.8,3.74,31.89,31.89,0,0,1,3.8,4.82,42,42,0,0,1,3.68,6.5,31,31,0,0,1,2.65,7.41,35,35,0,0,1,1.37,8.66,28.24,28.24,0,0,1-.42,9.37c-.8,4.61-.82,5.86-2.87,10.48s-2.64,6.11-5.83,10.19a38.66,38.66,0,0,1-8.39,8.45c-4,3.14-5,3.87-9.63,5.75s-6.09,2.56-10.34,3.2-5.73.93-8.82.8-4.23-.19-4.48-.22a28.6,28.6,0,0,1-3.45-.43,37.4,37.4,0,0,1-7.19-1.64,48.08,48.08,0,0,1-19-11.23,38.78,38.78,0,0,1-8.29-10.41c-2.75-4.79-4.3-7.89-5.62-13.47A45.71,45.71,0,0,1,309,549.28a55.9,55.9,0,0,1,2.84-15,45.6,45.6,0,0,1,6.59-13.13A56.72,56.72,0,0,1,328,510.38a54.19,54.19,0,0,1,11.22-7.49,6.86,6.86,0,0,0-1.05.25,13.55,13.55,0,0,0-1.5.54c-.6.25-1.24.5-2,.87s-1.52.74-2.37,1.25-1.74,1-2.68,1.66-1.9,1.31-2.93,2.09-2,1.63-3.08,2.55-2,1.9-3.08,3a45.54,45.54,0,0,0-3,3.48c-1,1.3-1.95,2.6-2.94,4s-1.74,2.84-2.62,4.43a56.48,56.48,0,0,0-5.48,15.5,55.47,55.47,0,0,0-.81,5.66,52.81,52.81,0,0,0-.22,5.77,55.91,55.91,0,0,0,.39,5.78A56.14,56.14,0,0,0,308.44,571a33.9,33.9,0,0,0,2,5,55.12,55.12,0,0,0,5.43,9.29,49.06,49.06,0,0,0,3.18,4,46.67,46.67,0,0,0,3.36,3.5c1.28,1.17,2.37,2.11,3.64,3.16a37.64,37.64,0,0,0,3.44,2.49,34.62,34.62,0,0,0,3.29,2.06c1.26.68,2.2,1.19,3.37,1.75s2,.92,3.08,1.37,1.8.7,2.74,1,1.52.5,2.32.76,1.21.36,1.84.54h0"/></svg>