<svg id="bf110f5f-1fcd-4f77-827e-a05688a70453" data-name="theana" xmlns="http://www.w3.org/2000/svg" viewBox="0 0 570 730"><defs><style>.b999ac6c-1500-428e-a9bb-793c723ecbe5{fill:#8a7cce;}</style></defs><path class="b999ac6c-1500-428e-a9bb-793c723ecbe5" d="M261.847,596.946a7.509,7.509,0,0,1-.989-.175c-.657-.134-1.052-.173-2.312-.514s-2.284-.5-4.083-1.089-3.37-1-5.646-1.889-4.293-1.664-6.979-2.872a74.668,74.668,0,0,1-7.6-3.826,89.65,89.65,0,0,1-8.4-5.246,104.721,104.721,0,0,1-8.8-6.868,119.4,119.4,0,0,1-8.785-8.591,83.735,83.735,0,0,1-8.082-10.113,90.919,90.919,0,0,1-7.257-11.836,96.84,96.84,0,0,1-5.944-13.428c-1.657-4.973-3.01-9.692-4.213-14.952a104.721,104.721,0,0,1-2.056-15.7,106.64,106.64,0,0,1,.278-16.239,108.235,108.235,0,0,1,2.724-16.3,109.988,109.988,0,0,1,5.127-15.884,112.279,112.279,0,0,1,7.42-14.984,114.308,114.308,0,0,1,9.476-13.642,116.325,116.325,0,0,1,23.594-22.013,114.053,114.053,0,0,1,13.212-8.053c4.292-2.159,9.063-4.287,13.276-5.924a104.34,104.34,0,0,1,13.4-4.155c4.084-.94,8.741-1.887,12.528-2.378s8.2-.908,11.6-1.013,7.022-.064,9.965-.01,6.564.469,8.987.754,5.069.689,6.936,1,3.953.735,5.226,1.008,2.247.476,2.9.606a5.72,5.72,0,0,0,.983.163,1.009,1.009,0,0,0-.047-.108.984.984,0,0,0-.064-.105,1.187,1.187,0,0,0-.08-.1c-.029-.033-.061-.066-.1-.1s-.07-.066-.109-.1-.079-.064-.121-.095-.087-.063-.133-.093-.094-.061-.143-.092-.1-.059-.152-.089-.1-.06-.16-.089-.11-.058-.166-.087-.113-.057-.171-.086-.117-.057-.176-.085-.118-.057-.178-.086-.12-.056-.18-.084-.12-.057-.18-.085-.12-.056-.179-.085-.119-.056-.177-.084-.117-.057-.175-.086-.114-.057-.169-.085-.11-.058-.164-.087-.106-.059-.157-.088-.1-.059-.149-.09-.094-.06-.139-.09-.088-.062-.129-.093-.081-.063-.117-.1-.072-.063-.1-.1a1.168,1.168,0,0,1-.09-.1.8.8,0,0,1-.075-.1.962.962,0,0,1-.058-.1.658.658,0,0,1-.039-.107.521.521,0,0,1-.021-.11,3.086,3.086,0,0,0-.849-.311c-.568-.173-2.046-.511-3.166-.756s-3.112-.708-4.754-.966-4.133-.707-6.261-.923-5.087-.527-7.662-.651-5.955-.184-8.934-.174-7.286.332-10.61.678-7.877,1.04-11.469,1.776-8.3,1.942-12.073,3.109-8.514,2.985-12.39,4.606a110.576,110.576,0,0,0-12.762,6.471c-3.784,2.266-8.276,5.228-11.964,7.949a114.435,114.435,0,0,0-11.538,9.869c-3.353,3.317-7.072,7.439-10.147,11.14a113.709,113.709,0,0,0-8.922,12.815,111.341,111.341,0,0,0-7.209,13.88c-1.881,4.512-3.781,9.68-5.191,14.341a107.162,107.162,0,0,0-3.367,14.976c-.682,4.763-1.177,10-1.374,14.716a102.76,102.76,0,0,0,.475,14.576c.488,4.557,1.246,9.367,2.14,13.686a96.114,96.114,0,0,0,3.585,12.881c1.435,3.948,2.99,7.994,4.688,11.563s3.569,7.129,5.451,10.276,3.9,6.214,5.882,8.907,3.98,5.306,5.963,7.529,3.912,4.294,5.716,6.135,3.546,3.537,5.182,4.915,3.061,2.676,4.378,3.688,2.435,1.876,3.338,2.581,1.627,1.218,2.1,1.57a3.717,3.717,0,0,1,.7.568,3.816,3.816,0,0,1-.8-.44c-.509-.314-1.276-.8-2.215-1.476s-2.094-1.515-3.448-2.5a58.486,58.486,0,0,1-4.54-3.693c-1.6-1.445-3.452-3.064-5.295-4.9s-3.825-3.943-5.847-6.169-4.084-4.925-6.1-7.631-4.084-5.879-6-9.046-3.815-6.85-5.543-10.447a92.725,92.725,0,0,1-4.8-11.94c-1.269-4.047-2.618-8.621-3.532-12.98s-1.616-9.32-2.117-13.92a105.966,105.966,0,0,1-.354-14.868c.193-4.758.813-10.14,1.5-14.95a110.5,110.5,0,0,1,3.611-15.232,112.908,112.908,0,0,1,5.592-14.863c2.123-4.457,4.815-9.512,7.363-13.718a116.977,116.977,0,0,1,9.3-12.92,118.855,118.855,0,0,1,10.787-11.507c3.541-3.185,7.879-6.8,11.6-9.553a117.349,117.349,0,0,1,12.736-8.133c3.924-2.11,8.785-4.479,12.7-6.123s8.869-3.305,12.681-4.493,8.725-2.2,12.351-2.96,8.371-1.233,11.728-1.6,7.836-.44,10.846-.467,7.162.119,9.756.355,5.662.548,7.8.85,4.741.734,6.391,1.051,3.759.738,4.886,1.012,1.993.481,2.578.619.89.2.9.2a4.895,4.895,0,0,0-1.094-.393c-.744-.231-2.557-.8-4.038-1.145s-4.008-1.009-6.185-1.388-5.4-.953-8.226-1.291-7.392-.841-10.829-.9-8.557-.162-12.518.169-9.523.888-13.91,1.7-10.227,2.234-14.933,3.585a135.287,135.287,0,0,0-16.039,6.164,142.25,142.25,0,0,0-15.914,8.822,147.548,147.548,0,0,0-15.142,11.6,119.076,119.076,0,0,0-14.019,14.82,149.9,149.9,0,0,0-11.4,16.9,119.126,119.126,0,0,0-8.85,19.47,150.776,150.776,0,0,0-5.28,20.386,152.364,152.364,0,0,0-1.8,21.063,121.111,121.111,0,0,0,1.944,21.456,154.363,154.363,0,0,0,5.4,20.1,119.677,119.677,0,0,0,8.782,18.936,148.414,148.414,0,0,0,11.223,16.45,111.327,111.327,0,0,0,13.59,14.219,134.551,134.551,0,0,0,14.693,11.172,125.734,125.734,0,0,0,15.356,8.41c4.832,2.14,10.329,4.168,14.987,5.693a107.785,107.785,0,0,0,14.732,3.495c4.406.736,9.305,1.29,13.279,1.554s8.367.248,11.812.139,7.237-.432,10.073-.8,5.663-.819,7.851-1.2,4.325-.888,5.822-1.212,2.924-.706,3.693-.893a4.761,4.761,0,0,1,1.182-.226,4.833,4.833,0,0,1-1.124.441c-.751.254-2.177.705-3.659,1.09s-3.632.954-5.809,1.39-5.027.948-7.855,1.36-6.7.788-10.137.941-7.928.207-11.9-.019-8.979-.755-13.388-1.458a109.118,109.118,0,0,1-14.915-3.442c-4.663-1.5-10.285-3.54-15.122-5.656a127.735,127.735,0,0,1-15.553-8.43,136.6,136.6,0,0,1-14.883-11.23,114,114,0,0,1-13.816-14.361,151.139,151.139,0,0,1-11.377-16.576,155.95,155.95,0,0,1-8.775-18.654,125.433,125.433,0,0,1-7.7-42.512,127.016,127.016,0,0,1,7.023-41.895,122.776,122.776,0,0,1,8.893-19.783A153.858,153.858,0,0,1,193.3,419.705a152.29,152.29,0,0,1,13.645-14.649,121.176,121.176,0,0,1,15.765-12.271,146.992,146.992,0,0,1,16.056-9.028c4.792-2.182,10.892-4.546,15.506-6.137a129.834,129.834,0,0,1,15.753-3.961c4.368-.831,10.1-1.493,14.045-1.853s9.254-.353,12.676-.331,8.2.439,11.016.735,6.148.806,8.317,1.138,4.821.929,6.295,1.221,3.425.794,4.167.964a4.254,4.254,0,0,0,1.093.2,6.046,6.046,0,0,0-1.43-.6c-.9-.32-3.086-.952-4.813-1.41s-4.729-1.157-7.239-1.661-7.177-1.288-10.44-1.59-8.657-.767-12.594-.727-9.958.234-14.469.736a135.55,135.55,0,0,0-16.808,2.9c-4.915,1.3-11.664,3.407-16.887,5.342a130.392,130.392,0,0,0-18.679,9.127,166.408,166.408,0,0,0-17.264,12.191,139.392,139.392,0,0,0-16.34,16.277,175.074,175.074,0,0,0-13.207,18.942A143.758,143.758,0,0,0,167.3,457.774a145.511,145.511,0,0,0-5.865,24.509,148.56,148.56,0,0,0-1.019,25.447,151.632,151.632,0,0,0,4,25.225,130.74,130.74,0,0,0,21.961,45.452,149.088,149.088,0,0,0,16.816,18.4,144.021,144.021,0,0,0,19.624,14.6,171.264,171.264,0,0,0,20.606,10.1,133.6,133.6,0,0,0,22.044,6.334,159.326,159.326,0,0,0,20.874,2.314,152.467,152.467,0,0,0,19.714-.933,144.858,144.858,0,0,0,17.952-3.549,136.488,136.488,0,0,0,15.8-5.408c4.128-1.788,9.346-4.285,12.754-6.165s7.779-4.6,10.444-6.421,6.272-4.44,8.2-6.048,4.17-3.477,5.442-4.648l2.9-2.675c.657-.606,1.527-1.5,1.527-1.5l-6.364,5.919-6.132,4.982-6.412,4.616-7.357,4.625-6.963,3.741-7.171,3.331-7.356,2.911-8.312,2.638-7.688,1.925-7.794,1.473-8.708,1.039-7.942.428-7.959-.044-8.806-.616-7.9-1.107-7.829-1.575-7.727-2.037-7.595-2.489-8.225-3.344-7.2-3.472-6.982-3.893-7.454-4.807-6.4-4.786-6.1-5.153-5.786-5.5-5.978-6.52-5.006-6.212-4.636-6.492-4.653-7.519-3.748-7.046-3.336-7.253-3.178-8.275-2.361-7.641-1.913-7.771-1.457-7.876-1-8.871-.4-8.022.076-8.039.693-8.96,1.151-7.978,1.623-7.9,2.089-7.8,2.909-8.555,3.1-7.459,3.536-7.261,3.96-7.038,4.948-7.551,4.859-6.44L193.428,411l6.264-6.471,5.99-5.388,6.292-5.029,6.572-4.657,7.682-4.681,7.127-3.757,7.336-3.34,8.44-3.174,7.723-2.354,7.854-1.9,8.934-1.547,8.058-.847,8.1-.372,8.118.107,9.115.77s-22.994-3.124-31.3-2.174a180.609,180.609,0,0,0-21.861,4.294,143.089,143.089,0,0,0-25.565,10.189,178.062,178.062,0,0,0-24.284,16.247,161.47,161.47,0,0,0-22.358,23.917c-5.631,7.634-14.045,22.735-17.7,33.3s-7.654,28.768-8.031,40.994,1.922,32.358,5.8,44.409,12.623,30.214,20.123,40.159,21.836,24.475,32.239,31.329,27.177,14.938,37.582,17.931,25.9,5.333,33.79,5.554,17.2-.485,17.86-.566,4.777-.488,9.313-1.189a178.789,178.789,0,0,0,19.783-4.657A168.643,168.643,0,0,0,356.4,617.937a155.01,155.01,0,0,0,24.414-16.858,182.524,182.524,0,0,0,20.349-21.847c5.334-6.847,12.346-19.657,15.84-27.6a157.249,157.249,0,0,0,9.1-30.131,179.23,179.23,0,0,0,2.178-28.487,170.6,170.6,0,0,0-3.27-26.545,167.438,167.438,0,0,0-7.728-24.176,190.757,190.757,0,0,0-10.307-19.814,174.541,174.541,0,0,0-11.841-16.252c-3.17-3.793-8.224-8.939-11.024-11.7-11.583-8.125-8.74-4.73-19.385-8.8-15.461-6.074-35.89.491-39.4,7.295s1.035,25.17,19.686,43.739a81.444,81.444,0,0,1,7.285,7.179,60.507,60.507,0,0,1,7.275,9.235,79.234,79.234,0,0,1,7.064,12.457c2.854,5.907,3.2,7.228,5.07,14.208s2.082,8.854,2.625,16.6.726,9.107-.8,17.95-1.557,11.244-5.5,20.1-5.047,11.711-11.167,19.538-8.482,10.193-16.086,16.2-9.6,7.407-18.456,11.021-11.689,4.9-19.825,6.137-11,1.768-16.919,1.521-8.1-.361-8.584-.421a56.734,56.734,0,0,1-6.618-.812,72.168,72.168,0,0,1-13.778-3.151c-6.625-2.19-10.281-3.385-17.9-7.736a79.193,79.193,0,0,1-18.535-13.8c-7.047-6.742-10.625-10.758-15.893-19.946s-8.231-15.137-10.767-25.824-3.7-17.974-3.015-28.882a107.485,107.485,0,0,1,5.457-28.825,87.1,87.1,0,0,1,12.624-25.172,109.005,109.005,0,0,1,18.505-20.568,104.613,104.613,0,0,1,21.507-14.365,14.6,14.6,0,0,0-2.019.486,28.145,28.145,0,0,0-2.878,1.038c-1.148.479-2.365.948-3.777,1.67s-2.9,1.413-4.534,2.39-3.327,1.938-5.143,3.178-3.645,2.51-5.6,4.017-3.853,3.112-5.916,4.886a79.288,79.288,0,0,0-5.891,5.77,83.839,83.839,0,0,0-5.825,6.669c-1.923,2.492-3.734,4.99-5.624,7.726a94.172,94.172,0,0,0-5.021,8.5A96.513,96.513,0,0,0,192,455.01a99.1,99.1,0,0,0-3.545,9.949,100.808,100.808,0,0,0-2.6,10.482A102.718,102.718,0,0,0,184.3,486.3a105.346,105.346,0,0,0,.331,22.139,105.254,105.254,0,0,0,4.9,21.44,65.173,65.173,0,0,0,3.883,9.644,102.693,102.693,0,0,0,4.856,9.308,99.055,99.055,0,0,0,5.566,8.511,94.106,94.106,0,0,0,6.1,7.63,88.545,88.545,0,0,0,6.433,6.7c2.464,2.248,4.549,4.05,6.982,6.065a73.591,73.591,0,0,0,6.592,4.779,66.977,66.977,0,0,0,6.319,3.94c2.4,1.3,4.2,2.277,6.445,3.356s3.873,1.772,5.913,2.637,3.445,1.33,5.246,2,2.925.966,4.451,1.456,2.322.7,3.536,1.036h0"/><path d="M79.968,143.579H75.336v-2.736H87.481v2.736H82.849v14.065H79.968Z"/><path d="M99.865,150.275v7.369h-2.88V151a2.1,2.1,0,0,0-2.256-2.329,2.811,2.811,0,0,0-2.257,1.488v7.489h-2.88V139.5h2.88v8.136a3.861,3.861,0,0,1,3.216-1.656A4.076,4.076,0,0,1,99.865,150.275Z"/><path d="M113.425,151.908c0,.216,0,.648-.024,1.08h-8.5a3.247,3.247,0,0,0,3.192,2.3,4.582,4.582,0,0,0,3.121-1.152l1.44,2.16a7.29,7.29,0,0,1-4.561,1.632,5.979,5.979,0,0,1-6.12-5.976,5.729,5.729,0,1,1,11.449-.048Zm-2.881-1.009a2.878,2.878,0,0,0-5.64,0Z"/><path d="M125.521,150.228v7.416h-2.665V156.2a4.605,4.605,0,0,1-3.744,1.728,3.847,3.847,0,0,1-4.1-3.816c0-2.184,1.992-3.768,4.464-3.768a5.529,5.529,0,0,1,3.169.816v-.648c0-1.489-1.441-1.969-2.449-1.969a9.233,9.233,0,0,0-3.408.84l-.936-2.376a11.521,11.521,0,0,1,4.488-1.032C123.6,145.979,125.521,147.635,125.521,150.228Zm-2.88,3.984v-1.176a5.751,5.751,0,0,0-2.593-.577c-.888,0-2.112.385-2.112,1.609,0,1.2,1.176,1.464,2.064,1.464A3.374,3.374,0,0,0,122.641,154.212Z"/><path d="M138.672,150.275v7.369h-2.88V151a2.1,2.1,0,0,0-2.256-2.329,2.807,2.807,0,0,0-2.256,1.464v7.513H128.4V146.267h2.689v1.656a3.931,3.931,0,0,1,3.408-1.944A4.076,4.076,0,0,1,138.672,150.275Z"/><path d="M151.536,150.228v7.416h-2.664V156.2a4.605,4.605,0,0,1-3.744,1.728,3.847,3.847,0,0,1-4.1-3.816c0-2.184,1.993-3.768,4.465-3.768a5.528,5.528,0,0,1,3.168.816v-.648c0-1.489-1.44-1.969-2.448-1.969a9.233,9.233,0,0,0-3.408.84l-.937-2.376a11.529,11.529,0,0,1,4.489-1.032C149.616,145.979,151.536,147.635,151.536,150.228Zm-2.88,3.984v-1.176a5.744,5.744,0,0,0-2.592-.577c-.888,0-2.112.385-2.112,1.609,0,1.2,1.176,1.464,2.064,1.464A3.373,3.373,0,0,0,148.656,154.212Z"/><path d="M76.016,197.675h1.763v14.7H76.016Z"/><path d="M80.636,197.675h1.469v5H80.636Z"/><path d="M97.9,206.136v6.236H96.131v-5.963c0-1.575-.819-2.351-2.078-2.351a2.5,2.5,0,0,0-2.079,1.553v6.761H90.21v-5.963c0-1.575-.818-2.351-2.078-2.351a2.536,2.536,0,0,0-2.079,1.553v6.761H84.29v-9.7h1.637V204.1a2.963,2.963,0,0,1,2.688-1.68,3.022,3.022,0,0,1,3.023,1.806,3.205,3.205,0,0,1,2.9-1.806C96.551,202.42,97.9,203.743,97.9,206.136Z"/><path d="M116.438,207.522a4.874,4.874,0,0,1-4.7,5.1,3.776,3.776,0,0,1-3.275-1.659v1.407h-1.617V196.5h1.764v7.37a3.854,3.854,0,0,1,3.128-1.449A4.874,4.874,0,0,1,116.438,207.522Zm-7.831,1.785a3.445,3.445,0,0,0,2.855,1.679,3.474,3.474,0,0,0,0-6.928,3.445,3.445,0,0,0-2.855,1.679Z"/><path d="M118.457,208.908v-6.236h1.763v5.942a2.151,2.151,0,0,0,2.331,2.372,2.919,2.919,0,0,0,2.414-1.595v-6.719h1.764v9.7h-1.638v-1.491a3.437,3.437,0,0,1-2.981,1.743A3.53,3.53,0,0,1,118.457,208.908Z"/><path d="M130.615,198.368a1.2,1.2,0,1,1-1.2,1.2A1.21,1.21,0,0,1,130.615,198.368Zm-.882,4.3H131.5v9.7h-1.764Z"/><path d="M134.878,196.5h1.764v15.873h-1.764Z"/><path d="M146.867,203.869V196.5h1.764v15.873h-1.617v-1.407a3.776,3.776,0,0,1-3.275,1.659,5.119,5.119,0,0,1,0-10.2A3.854,3.854,0,0,1,146.867,203.869Zm0,1.868a3.445,3.445,0,0,0-2.855-1.679,3.474,3.474,0,0,0,0,6.928,3.445,3.445,0,0,0,2.855-1.679Z"/><path d="M152.9,198.368a1.2,1.2,0,1,1-1.2,1.2A1.21,1.21,0,0,1,152.9,198.368Zm-.882,4.3h1.763v9.7h-1.763Z"/><path d="M165.053,206.136v6.236h-1.764V206.43a2.151,2.151,0,0,0-2.331-2.372,3.055,3.055,0,0,0-2.414,1.637v6.677H156.78v-9.7h1.638v1.365a3.451,3.451,0,0,1,2.981-1.617A3.531,3.531,0,0,1,165.053,206.136Z"/><path d="M174.9,211.154a3.9,3.9,0,0,1-3.129,1.47,5.119,5.119,0,0,1,0-10.2,3.777,3.777,0,0,1,3.276,1.659v-1.407h1.617v9.742a4.741,4.741,0,0,1-5.1,5.039,5.918,5.918,0,0,1-4.241-1.848l1.071-1.322a4.282,4.282,0,0,0,3.17,1.532A3.024,3.024,0,0,0,174.9,212.5Zm0-5.459a3.493,3.493,0,0,0-2.856-1.637,3.474,3.474,0,0,0,0,6.928,3.449,3.449,0,0,0,2.856-1.637Z"/><path d="M193.3,205.989v6.383h-1.616v-1.407a4.1,4.1,0,0,1-3.3,1.659,3.452,3.452,0,0,1-3.611-3.317c0-1.89,1.659-3.234,3.842-3.234a5.431,5.431,0,0,1,2.919.8v-.525a2.211,2.211,0,0,0-2.457-2.288,6.718,6.718,0,0,0-2.9.818l-.735-1.469a7.227,7.227,0,0,1,3.632-.987C191.933,202.42,193.3,204.184,193.3,205.989Zm-1.763,3.612v-1.365a4.648,4.648,0,0,0-2.541-.693c-1.512,0-2.456.756-2.456,1.764,0,1.259,1.133,1.763,2.225,1.763A3.725,3.725,0,0,0,191.534,209.6Z"/><path d="M204.259,206.136v6.236H202.5V206.43a2.151,2.151,0,0,0-2.331-2.372,3.055,3.055,0,0,0-2.415,1.637v6.677h-1.763v-9.7h1.638v1.365a3.449,3.449,0,0,1,2.981-1.617A3.53,3.53,0,0,1,204.259,206.136Z"/><path d="M220.891,205.989v6.383h-1.617v-1.407a4.1,4.1,0,0,1-3.3,1.659,3.451,3.451,0,0,1-3.611-3.317c0-1.89,1.658-3.234,3.842-3.234a5.425,5.425,0,0,1,2.918.8v-.525a2.21,2.21,0,0,0-2.456-2.288,6.725,6.725,0,0,0-2.9.818l-.734-1.469a7.222,7.222,0,0,1,3.632-.987C219.526,202.42,220.891,204.184,220.891,205.989Zm-1.764,3.612v-1.365a4.642,4.642,0,0,0-2.54-.693c-1.512,0-2.457.756-2.457,1.764,0,1.259,1.134,1.763,2.226,1.763A3.722,3.722,0,0,0,219.127,209.6Z"/><path d="M225.2,202.672v1.407a3.819,3.819,0,0,1,3.276-1.659,5.119,5.119,0,0,1,0,10.2,3.9,3.9,0,0,1-3.129-1.449V217.2h-1.763V202.672Zm.147,6.656a3.447,3.447,0,0,0,2.856,1.658,3.474,3.474,0,0,0,0-6.928,3.447,3.447,0,0,0-2.856,1.658Z"/><path d="M236.81,202.672v1.407a3.818,3.818,0,0,1,3.275-1.659,5.119,5.119,0,0,1,0,10.2,3.9,3.9,0,0,1-3.128-1.449V217.2h-1.764V202.672Zm.147,6.656a3.447,3.447,0,0,0,2.855,1.658,3.474,3.474,0,0,0,0-6.928,3.447,3.447,0,0,0-2.855,1.658Z"/><path d="M251.846,202.672h1.89v-2.961H255.5v2.961h3.023v1.6H255.5V209.5a1.3,1.3,0,0,0,1.406,1.49,2.3,2.3,0,0,0,1.113-.4l.651,1.449a4,4,0,0,1-2.016.588,2.836,2.836,0,0,1-2.918-3.044v-5.312h-1.89Z"/><path d="M269.232,206.136v6.236h-1.763V206.43a2.151,2.151,0,0,0-2.331-2.372,3.053,3.053,0,0,0-2.414,1.637v6.677H260.96V196.5h1.764v7.349a3.413,3.413,0,0,1,2.855-1.428A3.53,3.53,0,0,1,269.232,206.136Z"/><path d="M279.984,205.989v6.383h-1.616v-1.407a4.1,4.1,0,0,1-3.3,1.659,3.452,3.452,0,0,1-3.611-3.317c0-1.89,1.659-3.234,3.842-3.234a5.431,5.431,0,0,1,2.919.8v-.525a2.211,2.211,0,0,0-2.457-2.288,6.718,6.718,0,0,0-2.9.818l-.735-1.469a7.227,7.227,0,0,1,3.632-.987C278.62,202.42,279.984,204.184,279.984,205.989Zm-1.763,3.612v-1.365a4.648,4.648,0,0,0-2.541-.693c-1.512,0-2.456.756-2.456,1.764,0,1.259,1.133,1.763,2.225,1.763A3.725,3.725,0,0,0,278.221,209.6Z"/><path d="M281.834,202.672h1.89v-2.961h1.763v2.961h3.024v1.6h-3.024V209.5a1.3,1.3,0,0,0,1.408,1.49,2.307,2.307,0,0,0,1.112-.4l.651,1.449a4,4,0,0,1-2.015.588,2.836,2.836,0,0,1-2.919-3.044v-5.312h-1.89Z"/><path d="M305.352,207.585a5.509,5.509,0,0,1-.021.567H297.5a3.27,3.27,0,0,0,3.338,2.834,3.747,3.747,0,0,0,2.918-1.427l1.113,1.154a5.407,5.407,0,0,1-4.031,1.911,4.957,4.957,0,0,1-5.061-5.1,4.824,4.824,0,0,1,4.851-5.1C303.336,202.42,305.352,204.457,305.352,207.585Zm-1.721-.9a2.922,2.922,0,0,0-3-2.624,3.009,3.009,0,0,0-3.087,2.624Z"/><path d="M315.643,206.136v6.236h-1.764V206.43a2.151,2.151,0,0,0-2.331-2.372,3.055,3.055,0,0,0-2.415,1.637v6.677h-1.764v-9.7h1.639v1.365a3.448,3.448,0,0,1,2.98-1.617A3.532,3.532,0,0,1,315.643,206.136Z"/><path d="M326.394,205.989v6.383h-1.617v-1.407a4.1,4.1,0,0,1-3.3,1.659,3.452,3.452,0,0,1-3.611-3.317c0-1.89,1.658-3.234,3.842-3.234a5.431,5.431,0,0,1,2.919.8v-.525a2.21,2.21,0,0,0-2.456-2.288,6.726,6.726,0,0,0-2.9.818l-.734-1.469a7.228,7.228,0,0,1,3.633-.987C325.029,202.42,326.394,204.184,326.394,205.989ZM324.63,209.6v-1.365a4.646,4.646,0,0,0-2.54-.693c-1.512,0-2.457.756-2.457,1.764,0,1.259,1.134,1.763,2.225,1.763A3.725,3.725,0,0,0,324.63,209.6Z"/><path d="M339.057,207.522a4.874,4.874,0,0,1-4.7,5.1,3.775,3.775,0,0,1-3.276-1.659v1.407h-1.617V196.5h1.764v7.37a3.852,3.852,0,0,1,3.129-1.449A4.874,4.874,0,0,1,339.057,207.522Zm-7.832,1.785a3.443,3.443,0,0,0,2.855,1.679,3.474,3.474,0,0,0,0-6.928,3.443,3.443,0,0,0-2.855,1.679Z"/><path d="M341.452,196.5h1.764v15.873h-1.764Z"/><path d="M355.185,207.585a5.509,5.509,0,0,1-.021.567h-7.832a3.272,3.272,0,0,0,3.338,2.834,3.747,3.747,0,0,0,2.919-1.427l1.112,1.154a5.4,5.4,0,0,1-4.031,1.911,4.956,4.956,0,0,1-5.06-5.1,4.824,4.824,0,0,1,4.851-5.1C353.169,202.42,355.185,204.457,355.185,207.585Zm-1.722-.9a2.92,2.92,0,0,0-3-2.624,3.008,3.008,0,0,0-3.087,2.624Z"/><path d="M363.082,208.908v-6.236h1.764v5.942a2.151,2.151,0,0,0,2.33,2.372,2.92,2.92,0,0,0,2.415-1.595v-6.719h1.763v9.7h-1.637v-1.491a3.438,3.438,0,0,1-2.982,1.743A3.531,3.531,0,0,1,363.082,208.908Z"/><path d="M374.632,209.454a3.74,3.74,0,0,0,2.939,1.574c.988,0,2.1-.42,2.1-1.2,0-.84-.714-1.26-2.2-1.554-2.079-.42-3.549-1.239-3.549-3.066,0-1.406,1.406-2.792,3.569-2.792a5.046,5.046,0,0,1,3.591,1.47l-1.155,1.2a3.564,3.564,0,0,0-2.436-1.07c-1.239,0-1.847.609-1.847,1.238,0,.735.756,1.134,2.351,1.47,1.848.4,3.423,1.092,3.423,3.066,0,1.868-1.975,2.834-3.843,2.834a5.316,5.316,0,0,1-4.157-2.037Z"/><path d="M392.5,207.585a5.509,5.509,0,0,1-.021.567h-7.832a3.272,3.272,0,0,0,3.338,2.834,3.747,3.747,0,0,0,2.919-1.427l1.113,1.154a5.405,5.405,0,0,1-4.032,1.911,4.956,4.956,0,0,1-5.059-5.1,4.823,4.823,0,0,1,4.85-5.1C390.485,202.42,392.5,204.457,392.5,207.585Zm-1.722-.9a2.919,2.919,0,0,0-3-2.624,3.009,3.009,0,0,0-3.087,2.624Z"/><path d="M400.271,202.672l-.65,1.6a2.466,2.466,0,0,0-1.113-.21,2.7,2.7,0,0,0-2.226,1.637v6.677h-1.763v-9.7h1.637v1.491a3.248,3.248,0,0,1,2.709-1.743A4.053,4.053,0,0,1,400.271,202.672Z"/><path d="M401.994,209.454a3.743,3.743,0,0,0,2.94,1.574c.986,0,2.1-.42,2.1-1.2,0-.84-.714-1.26-2.205-1.554-2.078-.42-3.548-1.239-3.548-3.066,0-1.406,1.408-2.792,3.57-2.792a5.035,5.035,0,0,1,3.589,1.47l-1.154,1.2a3.563,3.563,0,0,0-2.435-1.07c-1.239,0-1.848.609-1.848,1.238,0,.735.756,1.134,2.352,1.47,1.847.4,3.421,1.092,3.421,3.066,0,1.868-1.972,2.834-3.841,2.834a5.317,5.317,0,0,1-4.158-2.037Z"/><path d="M74.5,227.872h1.89v-2.96h1.763v2.96h3.024v1.6H78.157V234.7a1.3,1.3,0,0,0,1.407,1.491,2.3,2.3,0,0,0,1.113-.4l.651,1.448a4,4,0,0,1-2.016.588,2.836,2.836,0,0,1-2.918-3.044v-5.312H74.5Z"/><path d="M92.562,232.722a5,5,0,1,1-5-5.1A4.967,4.967,0,0,1,92.562,232.722Zm-1.764,0a3.241,3.241,0,1,0-3.233,3.465A3.252,3.252,0,0,0,90.8,232.722Z"/><path d="M110.433,232.722a4.874,4.874,0,0,1-4.7,5.1,3.777,3.777,0,0,1-3.275-1.658v1.406h-1.617V221.7H102.6v7.37a3.854,3.854,0,0,1,3.128-1.449A4.874,4.874,0,0,1,110.433,232.722Zm-7.832,1.785a3.446,3.446,0,0,0,2.856,1.68,3.474,3.474,0,0,0,0-6.929,3.446,3.446,0,0,0-2.856,1.68Z"/><path d="M121.353,232.785a5.509,5.509,0,0,1-.021.567H113.5a3.272,3.272,0,0,0,3.339,2.835,3.744,3.744,0,0,0,2.918-1.428l1.113,1.155a5.408,5.408,0,0,1-4.031,1.91,4.955,4.955,0,0,1-5.06-5.1,4.823,4.823,0,0,1,4.85-5.1C119.337,227.62,121.353,229.657,121.353,232.785Zm-1.722-.9a2.92,2.92,0,0,0-3-2.624,3.009,3.009,0,0,0-3.087,2.624Z"/><path d="M142.856,231.336v6.236h-1.764v-5.963c0-1.574-.819-2.351-2.078-2.351a2.5,2.5,0,0,0-2.079,1.554v6.76h-1.764v-5.963c0-1.574-.818-2.351-2.078-2.351a2.537,2.537,0,0,0-2.079,1.554v6.76H129.25v-9.7h1.638V229.3a2.963,2.963,0,0,1,2.688-1.68,3.022,3.022,0,0,1,3.023,1.806,3.205,3.205,0,0,1,2.9-1.806C141.512,227.62,142.856,228.943,142.856,231.336Z"/><path d="M154.869,232.722a5,5,0,1,1-5-5.1A4.967,4.967,0,0,1,154.869,232.722Zm-1.764,0a3.241,3.241,0,1,0-3.233,3.465A3.253,3.253,0,0,0,153.1,232.722Z"/><path d="M162.639,227.872l-.651,1.6a2.461,2.461,0,0,0-1.113-.21,2.7,2.7,0,0,0-2.225,1.638v6.676h-1.764v-9.7h1.638v1.491a3.246,3.246,0,0,1,2.708-1.743A4.056,4.056,0,0,1,162.639,227.872Z"/><path d="M172.593,232.785a5.509,5.509,0,0,1-.021.567H164.74a3.272,3.272,0,0,0,3.339,2.835A3.746,3.746,0,0,0,171,234.759l1.113,1.155a5.408,5.408,0,0,1-4.031,1.91,4.955,4.955,0,0,1-5.06-5.1,4.823,4.823,0,0,1,4.85-5.1C170.577,227.62,172.593,229.657,172.593,232.785Zm-1.722-.9a2.921,2.921,0,0,0-3-2.624,3.009,3.009,0,0,0-3.087,2.624Z"/><path d="M181.687,223.568a1.2,1.2,0,1,1-1.2,1.2A1.21,1.21,0,0,1,181.687,223.568Zm-.882,4.3h1.764v9.7h-1.764Z"/><path d="M193.844,231.336v6.236h-1.763V231.63a2.151,2.151,0,0,0-2.331-2.372,3.055,3.055,0,0,0-2.415,1.638v6.676h-1.763v-9.7h1.637v1.365a3.451,3.451,0,0,1,2.982-1.617A3.53,3.53,0,0,1,193.844,231.336Z"/><path d="M201.574,227.872h1.889v-2.96h1.764v2.96h3.023v1.6h-3.023V234.7a1.3,1.3,0,0,0,1.407,1.491,2.3,2.3,0,0,0,1.113-.4l.65,1.448a3.992,3.992,0,0,1-2.015.588,2.837,2.837,0,0,1-2.919-3.044v-5.312h-1.889Z"/><path d="M218.96,231.336v6.236H217.2V231.63a2.151,2.151,0,0,0-2.33-2.372,3.055,3.055,0,0,0-2.415,1.638v6.676h-1.763V221.7h1.763v7.349a3.415,3.415,0,0,1,2.856-1.428A3.531,3.531,0,0,1,218.96,231.336Z"/><path d="M230.552,232.785a5.509,5.509,0,0,1-.021.567H222.7a3.272,3.272,0,0,0,3.339,2.835,3.746,3.746,0,0,0,2.918-1.428l1.113,1.155a5.408,5.408,0,0,1-4.031,1.91,4.955,4.955,0,0,1-5.06-5.1,4.823,4.823,0,0,1,4.85-5.1C228.536,227.62,230.552,229.657,230.552,232.785Zm-1.722-.9a2.921,2.921,0,0,0-3-2.624,3.009,3.009,0,0,0-3.087,2.624Z"/><path d="M240.066,227.872v1.407a3.818,3.818,0,0,1,3.275-1.659,5.119,5.119,0,0,1,0,10.2,3.9,3.9,0,0,1-3.128-1.449V242.4h-1.764V227.872Zm.147,6.656a3.447,3.447,0,0,0,2.855,1.659,3.474,3.474,0,0,0,0-6.929,3.447,3.447,0,0,0-2.855,1.659Z"/><path d="M255.815,227.872l-.651,1.6a2.461,2.461,0,0,0-1.113-.21,2.7,2.7,0,0,0-2.225,1.638v6.676h-1.764v-9.7H251.7v1.491a3.246,3.246,0,0,1,2.708-1.743A4.056,4.056,0,0,1,255.815,227.872Z"/><path d="M265.769,232.785a5.509,5.509,0,0,1-.021.567h-7.832a3.272,3.272,0,0,0,3.338,2.835,3.747,3.747,0,0,0,2.919-1.428l1.113,1.155a5.409,5.409,0,0,1-4.032,1.91,4.956,4.956,0,0,1-5.06-5.1,4.823,4.823,0,0,1,4.85-5.1C263.753,227.62,265.769,229.657,265.769,232.785Zm-1.722-.9a2.921,2.921,0,0,0-3-2.624,3.008,3.008,0,0,0-3.086,2.624Z"/><path d="M268.374,234.654a3.742,3.742,0,0,0,2.939,1.575c.987,0,2.1-.42,2.1-1.2,0-.84-.714-1.26-2.2-1.554-2.078-.42-3.548-1.239-3.548-3.065,0-1.407,1.407-2.793,3.569-2.793a5.043,5.043,0,0,1,3.591,1.47l-1.155,1.2a3.563,3.563,0,0,0-2.436-1.071c-1.238,0-1.847.609-1.847,1.239,0,.734.756,1.133,2.351,1.469,1.848.4,3.423,1.092,3.423,3.066,0,1.868-1.974,2.834-3.843,2.834a5.317,5.317,0,0,1-4.157-2.036Z"/><path d="M286.243,232.785c0,.189,0,.336-.02.567h-7.832a3.271,3.271,0,0,0,3.338,2.835,3.744,3.744,0,0,0,2.918-1.428l1.113,1.155a5.405,5.405,0,0,1-4.031,1.91,4.956,4.956,0,0,1-5.06-5.1,4.823,4.823,0,0,1,4.85-5.1C284.228,227.62,286.243,229.657,286.243,232.785Zm-1.722-.9a2.92,2.92,0,0,0-3-2.624,3.008,3.008,0,0,0-3.086,2.624Z"/><path d="M296.533,231.336v6.236H294.77V231.63a2.152,2.152,0,0,0-2.331-2.372,3.055,3.055,0,0,0-2.415,1.638v6.676h-1.763v-9.7H289.9v1.365a3.451,3.451,0,0,1,2.982-1.617A3.53,3.53,0,0,1,296.533,231.336Z"/><path d="M298.383,227.872h1.889v-2.96h1.764v2.96h3.024v1.6h-3.024V234.7a1.3,1.3,0,0,0,1.407,1.491,2.308,2.308,0,0,0,1.113-.4l.651,1.448a4,4,0,0,1-2.016.588,2.837,2.837,0,0,1-2.919-3.044v-5.312h-1.889Z"/><path d="M314.2,223.568a1.2,1.2,0,1,1-1.2,1.2A1.21,1.21,0,0,1,314.2,223.568Zm-.881,4.3h1.764v9.7h-1.764Z"/><path d="M326.353,231.336v6.236h-1.764V231.63a2.151,2.151,0,0,0-2.331-2.372,3.055,3.055,0,0,0-2.414,1.638v6.676H318.08v-9.7h1.638v1.365a3.451,3.451,0,0,1,2.981-1.617A3.531,3.531,0,0,1,326.353,231.336Z"/><path d="M334.082,227.872h1.89v-2.96h1.763v2.96h3.024v1.6h-3.024V234.7a1.3,1.3,0,0,0,1.408,1.491,2.3,2.3,0,0,0,1.112-.4l.651,1.448a4,4,0,0,1-2.015.588,2.836,2.836,0,0,1-2.919-3.044v-5.312h-1.89Z"/><path d="M351.468,231.336v6.236H349.7V231.63a2.151,2.151,0,0,0-2.331-2.372,3.055,3.055,0,0,0-2.414,1.638v6.676H343.2V221.7h1.764v7.349a3.415,3.415,0,0,1,2.855-1.428A3.531,3.531,0,0,1,351.468,231.336Z"/><path d="M363.06,232.785a5.509,5.509,0,0,1-.021.567h-7.832a3.272,3.272,0,0,0,3.338,2.835,3.747,3.747,0,0,0,2.919-1.428l1.112,1.155a5.405,5.405,0,0,1-4.031,1.91,4.955,4.955,0,0,1-5.06-5.1,4.824,4.824,0,0,1,4.851-5.1C361.044,227.62,363.06,229.657,363.06,232.785Zm-1.722-.9a2.921,2.921,0,0,0-3-2.624,3.009,3.009,0,0,0-3.087,2.624Z"/><path d="M366.273,223.568a1.2,1.2,0,1,1-1.2,1.2A1.21,1.21,0,0,1,366.273,223.568Zm-.88,4.3h1.763v9.7h-1.763Z"/><path d="M375.912,227.872l-.65,1.6a2.468,2.468,0,0,0-1.114-.21,2.7,2.7,0,0,0-2.225,1.638v6.676h-1.764v-9.7H371.8v1.491a3.246,3.246,0,0,1,2.709-1.743A4.053,4.053,0,0,1,375.912,227.872Z"/><path d="M383.914,227.872l2.6,6.278,2.56-6.278h1.2l2.582,6.278,2.583-6.278h1.806l-4.43,10.12-3.191-7.285-3.191,7.285L382,227.872Z"/><path d="M407.915,232.722a5,5,0,1,1-5-5.1A4.967,4.967,0,0,1,407.915,232.722Zm-1.764,0a3.241,3.241,0,1,0-3.233,3.465A3.252,3.252,0,0,0,406.151,232.722Z"/><path d="M415.686,227.872l-.651,1.6a2.466,2.466,0,0,0-1.113-.21A2.7,2.7,0,0,0,411.7,230.9v6.676h-1.763v-9.7h1.637v1.491a3.248,3.248,0,0,1,2.709-1.743A4.063,4.063,0,0,1,415.686,227.872Z"/><path d="M419.214,232.869v4.7H417.45V221.7h1.764v10.477l4.157-4.3h2.31l-4.535,4.577,4.913,5.123H423.6Z"/><path d="M84.666,257.922a5,5,0,1,1-5-5.1A4.968,4.968,0,0,1,84.666,257.922Zm-1.764,0a3.241,3.241,0,1,0-3.233,3.464A3.252,3.252,0,0,0,82.9,257.922Z"/><path d="M92.437,253.072l-.651,1.595a2.47,2.47,0,0,0-1.113-.209,2.7,2.7,0,0,0-2.226,1.637v6.677H86.684v-9.7h1.637v1.49a3.246,3.246,0,0,1,2.709-1.742A4.056,4.056,0,0,1,92.437,253.072Z"/><path d="M101.32,253.072v1.407a3.819,3.819,0,0,1,3.276-1.659,5.119,5.119,0,0,1,0,10.2,3.9,3.9,0,0,1-3.129-1.449V267.6H99.7V253.072Zm.147,6.656a3.447,3.447,0,0,0,2.856,1.658,3.474,3.474,0,0,0,0-6.928,3.447,3.447,0,0,0-2.856,1.658Z"/><path d="M111.694,246.9h1.764v15.873h-1.764Z"/><path d="M124.586,256.389v6.383H122.97v-1.407a4.1,4.1,0,0,1-3.3,1.659,3.452,3.452,0,0,1-3.611-3.317c0-1.89,1.659-3.234,3.842-3.234a5.431,5.431,0,0,1,2.919.8v-.525a2.21,2.21,0,0,0-2.457-2.288,6.718,6.718,0,0,0-2.9.818l-.735-1.469a7.227,7.227,0,0,1,3.632-.987C123.222,252.82,124.586,254.583,124.586,256.389ZM122.823,260v-1.364a4.648,4.648,0,0,0-2.541-.693c-1.511,0-2.456.756-2.456,1.764,0,1.259,1.133,1.763,2.225,1.763A3.725,3.725,0,0,0,122.823,260Z"/><path d="M127.255,265.711a2.258,2.258,0,0,0,1.155.5c.777,0,1.133-.546,1.511-1.49l.756-1.911-4.535-9.742h2l3.4,7.663,2.9-7.663h1.91s-4.871,12.261-5.1,12.828a2.852,2.852,0,0,1-2.687,1.953,3.58,3.58,0,0,1-2.058-.693Z"/><path d="M143.656,259.308v-6.236h1.763v5.942a2.151,2.151,0,0,0,2.331,2.372,2.92,2.92,0,0,0,2.415-1.6v-6.719h1.763v9.7h-1.637v-1.491a3.438,3.438,0,0,1-2.982,1.743A3.53,3.53,0,0,1,143.656,259.308Z"/><path d="M155.206,259.854a3.74,3.74,0,0,0,2.939,1.574c.987,0,2.1-.42,2.1-1.2,0-.839-.714-1.259-2.205-1.553-2.079-.42-3.548-1.239-3.548-3.066,0-1.406,1.406-2.792,3.569-2.792a5.039,5.039,0,0,1,3.59,1.47l-1.154,1.2a3.564,3.564,0,0,0-2.436-1.07c-1.239,0-1.848.608-1.848,1.238,0,.735.756,1.134,2.352,1.47,1.848.4,3.422,1.092,3.422,3.065,0,1.869-1.973,2.835-3.842,2.835a5.316,5.316,0,0,1-4.157-2.037Z"/><path d="M165.369,248.768a1.2,1.2,0,1,1-1.2,1.2A1.209,1.209,0,0,1,165.369,248.768Zm-.882,4.3h1.764v9.7h-1.764Z"/><path d="M177.526,256.536v6.236h-1.763V256.83a2.151,2.151,0,0,0-2.331-2.372,3.053,3.053,0,0,0-2.414,1.637v6.677h-1.764v-9.7h1.638v1.365a3.449,3.449,0,0,1,2.981-1.617A3.53,3.53,0,0,1,177.526,256.536Z"/><path d="M187.375,261.554a3.9,3.9,0,0,1-3.128,1.47,5.119,5.119,0,0,1,0-10.2,3.774,3.774,0,0,1,3.275,1.659v-1.407h1.617v9.742a4.74,4.74,0,0,1-5.1,5.039,5.918,5.918,0,0,1-4.241-1.848l1.071-1.322a4.279,4.279,0,0,0,3.17,1.532,3.023,3.023,0,0,0,3.338-3.317Zm0-5.459a3.49,3.49,0,0,0-2.855-1.637,3.474,3.474,0,0,0,0,6.928,3.447,3.447,0,0,0,2.855-1.637Z"/><path d="M207.682,257.922a4.874,4.874,0,0,1-4.7,5.1,3.777,3.777,0,0,1-3.276-1.659v1.407h-1.617V246.9h1.764v7.37a3.855,3.855,0,0,1,3.129-1.449A4.874,4.874,0,0,1,207.682,257.922Zm-7.832,1.785a3.446,3.446,0,0,0,2.856,1.679,3.474,3.474,0,0,0,0-6.928,3.446,3.446,0,0,0-2.856,1.679Z"/><path d="M215.453,253.072l-.651,1.595a2.47,2.47,0,0,0-1.113-.209,2.7,2.7,0,0,0-2.226,1.637v6.677H209.7v-9.7h1.637v1.49a3.246,3.246,0,0,1,2.709-1.742A4.056,4.056,0,0,1,215.453,253.072Z"/><path d="M225.406,257.985a5.509,5.509,0,0,1-.021.567h-7.831a3.271,3.271,0,0,0,3.338,2.834,3.747,3.747,0,0,0,2.919-1.428l1.112,1.155a5.4,5.4,0,0,1-4.031,1.911,4.957,4.957,0,0,1-5.06-5.1,4.823,4.823,0,0,1,4.85-5.1C223.391,252.82,225.406,254.856,225.406,257.985Zm-1.721-.9a2.92,2.92,0,0,0-3-2.624,3.008,3.008,0,0,0-3.086,2.624Z"/><path d="M235.486,256.389v6.383H233.87v-1.407a4.1,4.1,0,0,1-3.3,1.659,3.452,3.452,0,0,1-3.611-3.317c0-1.89,1.659-3.234,3.842-3.234a5.431,5.431,0,0,1,2.919.8v-.525a2.21,2.21,0,0,0-2.457-2.288,6.718,6.718,0,0,0-2.9.818l-.735-1.469a7.227,7.227,0,0,1,3.632-.987C234.122,252.82,235.486,254.583,235.486,256.389ZM233.723,260v-1.364a4.648,4.648,0,0,0-2.541-.693c-1.512,0-2.456.756-2.456,1.764,0,1.259,1.133,1.763,2.225,1.763A3.725,3.725,0,0,0,233.723,260Z"/><path d="M237.336,253.072h1.89v-2.961h1.763v2.961h3.024v1.595h-3.024V259.9a1.3,1.3,0,0,0,1.407,1.49,2.3,2.3,0,0,0,1.113-.4l.651,1.449a4,4,0,0,1-2.016.588,2.836,2.836,0,0,1-2.918-3.045v-5.312h-1.89Z"/><path d="M254.722,256.536v6.236h-1.764V256.83a2.15,2.15,0,0,0-2.33-2.372,3.055,3.055,0,0,0-2.415,1.637v6.677H246.45V246.9h1.763v7.349a3.415,3.415,0,0,1,2.856-1.428A3.531,3.531,0,0,1,254.722,256.536Z"/><path d="M258.608,248.768a1.2,1.2,0,1,1-1.2,1.2A1.209,1.209,0,0,1,258.608,248.768Zm-.881,4.3h1.763v9.7h-1.763Z"/><path d="M270.766,256.536v6.236H269V256.83a2.151,2.151,0,0,0-2.331-2.372,3.055,3.055,0,0,0-2.414,1.637v6.677h-1.764v-9.7h1.638v1.365a3.451,3.451,0,0,1,2.981-1.617A3.531,3.531,0,0,1,270.766,256.536Z"/><path d="M280.615,261.554a3.9,3.9,0,0,1-3.129,1.47,5.119,5.119,0,0,1,0-10.2,3.777,3.777,0,0,1,3.276,1.659v-1.407h1.616v9.742a4.74,4.74,0,0,1-5.1,5.039,5.918,5.918,0,0,1-4.241-1.848l1.071-1.322a4.282,4.282,0,0,0,3.17,1.532,3.024,3.024,0,0,0,3.339-3.317Zm0-5.459a3.493,3.493,0,0,0-2.856-1.637,3.474,3.474,0,0,0,0,6.928,3.449,3.449,0,0,0,2.856-1.637Z"/><path d="M299.01,256.389v6.383h-1.616v-1.407a4.1,4.1,0,0,1-3.3,1.659,3.451,3.451,0,0,1-3.612-3.317c0-1.89,1.659-3.234,3.842-3.234a5.425,5.425,0,0,1,2.918.8v-.525a2.21,2.21,0,0,0-2.456-2.288,6.718,6.718,0,0,0-2.9.818l-.735-1.469a7.227,7.227,0,0,1,3.632-.987C297.646,252.82,299.01,254.583,299.01,256.389ZM297.246,260v-1.364a4.642,4.642,0,0,0-2.54-.693c-1.512,0-2.456.756-2.456,1.764,0,1.259,1.133,1.763,2.225,1.763A3.722,3.722,0,0,0,297.246,260Z"/><path d="M309.973,256.536v6.236h-1.764V256.83a2.151,2.151,0,0,0-2.331-2.372,3.055,3.055,0,0,0-2.415,1.637v6.677H301.7v-9.7h1.639v1.365a3.448,3.448,0,0,1,2.98-1.617A3.532,3.532,0,0,1,309.973,256.536Z"/><path d="M319.821,254.269V246.9h1.764v15.873h-1.616v-1.407a3.779,3.779,0,0,1-3.276,1.659,5.119,5.119,0,0,1,0-10.2A3.854,3.854,0,0,1,319.821,254.269Zm0,1.868a3.445,3.445,0,0,0-2.855-1.679,3.474,3.474,0,0,0,0,6.928,3.445,3.445,0,0,0,2.855-1.679Z"/><path d="M336.285,253.072l-.65,1.595a2.478,2.478,0,0,0-1.114-.209A2.7,2.7,0,0,0,332.3,256.1v6.677h-1.764v-9.7h1.638v1.49a3.246,3.246,0,0,1,2.709-1.742A4.053,4.053,0,0,1,336.285,253.072Z"/><path d="M346.238,257.985a5.509,5.509,0,0,1-.021.567h-7.831a3.271,3.271,0,0,0,3.339,2.834,3.746,3.746,0,0,0,2.918-1.428l1.113,1.155a5.41,5.41,0,0,1-4.031,1.911,4.957,4.957,0,0,1-5.061-5.1,4.823,4.823,0,0,1,4.85-5.1C344.223,252.82,346.238,254.856,346.238,257.985Zm-1.721-.9a2.921,2.921,0,0,0-3-2.624,3.007,3.007,0,0,0-3.086,2.624Z"/><path d="M354.723,250.174a1.828,1.828,0,1,0-3.654,0v2.9h2.163v1.595h-2.163v8.1h-1.763v-8.1h-1.974v-1.595h1.974v-2.814a3.59,3.59,0,1,1,7.18,0v12.514h-1.763Z"/><path d="M368.456,257.985c0,.189,0,.336-.02.567H360.6a3.271,3.271,0,0,0,3.337,2.834,3.744,3.744,0,0,0,2.919-1.428l1.113,1.155a5.405,5.405,0,0,1-4.032,1.911,4.956,4.956,0,0,1-5.059-5.1,4.822,4.822,0,0,1,4.85-5.1C366.44,252.82,368.456,254.856,368.456,257.985Zm-1.722-.9a2.918,2.918,0,0,0-3-2.624,3.007,3.007,0,0,0-3.086,2.624Z"/><path d="M378.768,261.155a5.235,5.235,0,0,1-3.969,1.869,5.1,5.1,0,0,1,0-10.2,5.2,5.2,0,0,1,3.863,1.742l-1.2,1.071a3.583,3.583,0,0,0-2.666-1.175,3.472,3.472,0,0,0,0,6.928A3.56,3.56,0,0,0,377.633,260Z"/><path d="M379.65,253.072h1.89v-2.961H383.3v2.961h3.023v1.595H383.3V259.9a1.3,1.3,0,0,0,1.407,1.49,2.3,2.3,0,0,0,1.112-.4l.652,1.449a4,4,0,0,1-2.016.588,2.836,2.836,0,0,1-2.919-3.045v-5.312h-1.89Z"/><path d="M389.582,248.768a1.2,1.2,0,1,1-1.2,1.2A1.209,1.209,0,0,1,389.582,248.768Zm-.881,4.3h1.764v9.7H388.7Z"/><path d="M402.79,257.922a5,5,0,1,1-5-5.1A4.968,4.968,0,0,1,402.79,257.922Zm-1.764,0a3.241,3.241,0,1,0-3.233,3.464A3.252,3.252,0,0,0,401.026,257.922Z"/><path d="M413.08,256.536v6.236h-1.764V256.83a2.15,2.15,0,0,0-2.33-2.372,3.055,3.055,0,0,0-2.415,1.637v6.677h-1.763v-9.7h1.637v1.365a3.451,3.451,0,0,1,2.982-1.617A3.531,3.531,0,0,1,413.08,256.536Z"/><path d="M88.949,281.736v6.236H87.186v-5.963c0-1.574-.819-2.351-2.079-2.351a2.5,2.5,0,0,0-2.079,1.553v6.761H81.265v-5.963c0-1.574-.819-2.351-2.079-2.351a2.536,2.536,0,0,0-2.079,1.553v6.761H75.344v-9.7h1.637V279.7a2.963,2.963,0,0,1,2.688-1.68,3.022,3.022,0,0,1,3.023,1.806,3.205,3.205,0,0,1,2.9-1.806C87.605,278.02,88.949,279.343,88.949,281.736Z"/><path d="M92.836,273.968a1.2,1.2,0,1,1-1.2,1.2A1.21,1.21,0,0,1,92.836,273.968Zm-.881,4.3h1.763v9.7H91.955Z"/><path d="M105.015,286.355a5.232,5.232,0,0,1-3.969,1.869,5.1,5.1,0,0,1,0-10.2,5.2,5.2,0,0,1,3.864,1.743l-1.2,1.07a3.586,3.586,0,0,0-2.667-1.175,3.472,3.472,0,0,0,0,6.928,3.561,3.561,0,0,0,2.835-1.385Z"/><path d="M112.491,278.272l-.651,1.6a2.461,2.461,0,0,0-1.113-.21A2.7,2.7,0,0,0,108.5,281.3v6.677h-1.763v-9.7h1.637v1.491a3.246,3.246,0,0,1,2.709-1.743A4.056,4.056,0,0,1,112.491,278.272Z"/><path d="M122.864,283.122a5,5,0,1,1-5-5.1A4.966,4.966,0,0,1,122.864,283.122Zm-1.763,0a3.241,3.241,0,1,0-3.234,3.464A3.252,3.252,0,0,0,121.1,283.122Z"/><path d="M124.231,282.009h5.606v1.68h-5.606Z"/><path d="M140.777,283.185a5.509,5.509,0,0,1-.021.567h-7.832a3.271,3.271,0,0,0,3.339,2.834,3.747,3.747,0,0,0,2.918-1.427l1.113,1.154a5.407,5.407,0,0,1-4.031,1.911,4.955,4.955,0,0,1-5.06-5.1,4.823,4.823,0,0,1,4.85-5.1C138.761,278.02,140.777,280.057,140.777,283.185Zm-1.722-.9a2.92,2.92,0,0,0-3-2.624,3.008,3.008,0,0,0-3.087,2.624Z"/><path d="M144.18,278.272l2.457,3.569,2.435-3.569h1.953l-3.254,4.7,3.485,5h-2.079l-2.666-3.8-2.625,3.8h-1.973l3.527-5-3.317-4.7Z"/><path d="M161.966,283.185a5.509,5.509,0,0,1-.021.567h-7.832a3.271,3.271,0,0,0,3.339,2.834,3.747,3.747,0,0,0,2.918-1.427l1.113,1.154a5.407,5.407,0,0,1-4.031,1.911,4.955,4.955,0,0,1-5.06-5.1,4.823,4.823,0,0,1,4.85-5.1C159.95,278.02,161.966,280.057,161.966,283.185Zm-1.722-.9a2.92,2.92,0,0,0-3-2.624,3.008,3.008,0,0,0-3.087,2.624Z"/><path d="M169.736,278.272l-.651,1.6a2.453,2.453,0,0,0-1.112-.21,2.7,2.7,0,0,0-2.226,1.637v6.677h-1.764v-9.7h1.638v1.491a3.246,3.246,0,0,1,2.709-1.743A4.053,4.053,0,0,1,169.736,278.272Z"/><path d="M179.082,286.355a5.232,5.232,0,0,1-3.969,1.869,5.1,5.1,0,0,1,0-10.2,5.2,5.2,0,0,1,3.864,1.743l-1.2,1.07a3.586,3.586,0,0,0-2.667-1.175,3.472,3.472,0,0,0,0,6.928,3.561,3.561,0,0,0,2.835-1.385Z"/><path d="M182,273.968a1.2,1.2,0,1,1-1.2,1.2A1.21,1.21,0,0,1,182,273.968Zm-.881,4.3h1.763v9.7H181.12Z"/><path d="M186.474,285.054a3.74,3.74,0,0,0,2.939,1.574c.987,0,2.1-.42,2.1-1.2,0-.84-.714-1.26-2.205-1.554-2.079-.42-3.548-1.239-3.548-3.066,0-1.406,1.407-2.792,3.569-2.792a5.039,5.039,0,0,1,3.59,1.47l-1.154,1.2a3.563,3.563,0,0,0-2.436-1.071c-1.239,0-1.848.609-1.848,1.238,0,.735.756,1.134,2.352,1.47,1.848.4,3.422,1.092,3.422,3.066,0,1.868-1.973,2.834-3.842,2.834a5.317,5.317,0,0,1-4.157-2.036Z"/><path d="M204.343,283.185a5.509,5.509,0,0,1-.021.567H196.49a3.271,3.271,0,0,0,3.339,2.834,3.747,3.747,0,0,0,2.918-1.427l1.113,1.154a5.407,5.407,0,0,1-4.031,1.911,4.955,4.955,0,0,1-5.06-5.1,4.823,4.823,0,0,1,4.85-5.1C202.327,278.02,204.343,280.057,204.343,283.185Zm-1.722-.9a2.92,2.92,0,0,0-3-2.624,3.008,3.008,0,0,0-3.087,2.624Z"/><path d="M206.948,285.054a3.743,3.743,0,0,0,2.94,1.574c.987,0,2.1-.42,2.1-1.2,0-.84-.714-1.26-2.2-1.554-2.079-.42-3.549-1.239-3.549-3.066,0-1.406,1.407-2.792,3.57-2.792a5.042,5.042,0,0,1,3.59,1.47l-1.155,1.2a3.562,3.562,0,0,0-2.435-1.071c-1.239,0-1.848.609-1.848,1.238,0,.735.756,1.134,2.352,1.47,1.847.4,3.422,1.092,3.422,3.066,0,1.868-1.974,2.834-3.842,2.834a5.317,5.317,0,0,1-4.158-2.036Z"/><path d="M216.986,285.831a1.2,1.2,0,1,1-1.2,1.2A1.209,1.209,0,0,1,216.986,285.831Z"/><path d="M80.932,326.292l-.756,1.944a2.483,2.483,0,0,0-1.027-.2,2.256,2.256,0,0,0-1.908,1.152v5.582H75.08v-8.535h2.053v1.243a2.779,2.779,0,0,1,2.323-1.459A4.628,4.628,0,0,1,80.932,326.292Z"/><path d="M89.771,330.469c0,.162,0,.486-.019.81H83.378a2.438,2.438,0,0,0,2.395,1.728,3.435,3.435,0,0,0,2.341-.864l1.08,1.621a5.465,5.465,0,0,1-3.421,1.224,4.486,4.486,0,0,1-4.591-4.483,4.3,4.3,0,1,1,8.589-.036Zm-2.161-.757a2.16,2.16,0,0,0-4.232,0Z"/><path d="M98.842,329.208v5.564h-2v-1.081a3.453,3.453,0,0,1-2.808,1.3,2.885,2.885,0,0,1-3.079-2.863c0-1.638,1.494-2.827,3.349-2.827a4.146,4.146,0,0,1,2.377.613v-.487c0-1.116-1.081-1.476-1.837-1.476a6.933,6.933,0,0,0-2.557.63l-.7-1.783a8.642,8.642,0,0,1,3.367-.774C97.4,326.021,98.842,327.264,98.842,329.208Zm-2.16,2.989v-.882a4.321,4.321,0,0,0-1.945-.432c-.666,0-1.585.288-1.585,1.206,0,.9.883,1.1,1.549,1.1A2.533,2.533,0,0,0,96.682,332.2Z"/><path d="M109.157,334.772h-2v-1.116a2.95,2.95,0,0,1-2.575,1.332,4.5,4.5,0,0,1,0-8.967A3.043,3.043,0,0,1,107,327.138V321.16h2.161ZM107,329.227a2.365,2.365,0,0,0-2.035-1.189,2.47,2.47,0,0,0,0,4.934A2.365,2.365,0,0,0,107,331.783Z"/><path d="M125.392,330.505a4.556,4.556,0,1,1-4.555-4.484A4.489,4.489,0,0,1,125.392,330.505Zm-2.2,0a2.361,2.361,0,1,0-2.358,2.467A2.336,2.336,0,0,0,123.2,330.505Z"/><path d="M134.68,329.244v5.528h-2.16v-4.987a1.576,1.576,0,0,0-1.693-1.747,2.105,2.105,0,0,0-1.692,1.1v5.636h-2.161v-8.535h2.016v1.243a2.951,2.951,0,0,1,2.557-1.459A3.058,3.058,0,0,1,134.68,329.244Z"/><path d="M140.42,334.988a4.5,4.5,0,0,1,0-8.967A3.057,3.057,0,0,1,143,327.354v-1.117h2v8.607c0,2.971-2.2,4.285-4.592,4.285a6.145,6.145,0,0,1-4.051-1.62l1.224-1.656a4.321,4.321,0,0,0,2.827,1.26c1.675,0,2.431-.919,2.431-2.2V333.89A3.047,3.047,0,0,1,140.42,334.988Zm2.413-5.761a2.365,2.365,0,0,0-2.035-1.189,2.47,2.47,0,0,0,0,4.934,2.4,2.4,0,0,0,2.035-1.189Z"/><path d="M155.686,330.505a4.556,4.556,0,1,1-4.555-4.484A4.489,4.489,0,0,1,155.686,330.505Zm-2.2,0a2.361,2.361,0,1,0-2.358,2.467A2.336,2.336,0,0,0,153.489,330.505Z"/><path d="M158.689,322.06a1.423,1.423,0,1,1-1.422,1.422A1.414,1.414,0,0,1,158.689,322.06Zm-1.08,4.177h2.161v8.535h-2.161Z"/><path d="M169.977,329.244v5.528h-2.161v-4.987a1.575,1.575,0,0,0-1.692-1.747,2.105,2.105,0,0,0-1.692,1.1v5.636h-2.161v-8.535h2.016v1.243a2.949,2.949,0,0,1,2.557-1.459A3.059,3.059,0,0,1,169.977,329.244Z"/><path d="M175.718,334.988a4.5,4.5,0,0,1,0-8.967,3.059,3.059,0,0,1,2.575,1.333v-1.117h2v8.607c0,2.971-2.2,4.285-4.592,4.285a6.141,6.141,0,0,1-4.051-1.62l1.224-1.656a4.321,4.321,0,0,0,2.827,1.26c1.675,0,2.431-.919,2.431-2.2V333.89A3.048,3.048,0,0,1,175.718,334.988Zm2.413-5.761a2.365,2.365,0,0,0-2.035-1.189,2.47,2.47,0,0,0,0,4.934,2.4,2.4,0,0,0,2.035-1.189Z"/><path d="M193.862,331.927l1.423,1.441a4.619,4.619,0,0,1-3.529,1.62,4.485,4.485,0,1,1,0-8.967,4.576,4.576,0,0,1,3.493,1.585l-1.5,1.332a2.652,2.652,0,0,0-2-.9,2.468,2.468,0,0,0,0,4.934A2.519,2.519,0,0,0,193.862,331.927Z"/><path d="M196.687,331.765v-5.528h2.161v4.934c0,1.26.593,1.8,1.692,1.8a2.1,2.1,0,0,0,1.692-1.045v-5.69h2.161v8.535h-2.017V333.53a3.076,3.076,0,0,1-5.689-1.765Z"/><path d="M207.216,331.873a4.015,4.015,0,0,0,2.575,1.225c.882,0,1.621-.253,1.621-.775,0-.558-.4-.666-1.693-.936-1.693-.36-3.169-1.08-3.169-2.7,0-1.332,1.332-2.665,3.673-2.665a5.446,5.446,0,0,1,3.2,1.044l-1.08,1.585a3.967,3.967,0,0,0-2.125-.738c-.81,0-1.548.288-1.548.81s.576.648,2.016.954c1.693.361,2.9.919,2.9,2.683,0,1.459-1.548,2.629-3.727,2.629a5.321,5.321,0,0,1-3.853-1.549Z"/><path d="M214.56,326.237h1.675V323.7H218.4v2.538h2.574v1.945H218.4v3.439c0,1.045.54,1.351,1.116,1.351a1.71,1.71,0,0,0,.9-.306l.792,1.764a3.888,3.888,0,0,1-2.053.558,2.856,2.856,0,0,1-2.916-3.025v-3.781H214.56Z"/><path d="M231.266,330.505a4.556,4.556,0,1,1-4.555-4.484A4.488,4.488,0,0,1,231.266,330.505Zm-2.2,0a2.361,2.361,0,1,0-2.358,2.467A2.336,2.336,0,0,0,229.069,330.505Z"/><path d="M245.74,329.28v5.492h-2.161v-4.934c0-1.17-.45-1.8-1.53-1.8a2.025,2.025,0,0,0-1.675,1.1v5.636h-2.161v-4.934c0-1.17-.45-1.8-1.53-1.8a2.025,2.025,0,0,0-1.674,1.1v5.636h-2.161v-8.535h2.016v1.243a2.963,2.963,0,0,1,2.521-1.459,2.731,2.731,0,0,1,2.647,1.5,2.989,2.989,0,0,1,2.719-1.5A2.943,2.943,0,0,1,245.74,329.28Z"/><path d="M255.908,330.469c0,.162,0,.486-.018.81h-6.374a2.437,2.437,0,0,0,2.4,1.728,3.434,3.434,0,0,0,2.34-.864l1.081,1.621a5.469,5.469,0,0,1-3.421,1.224,4.486,4.486,0,0,1-4.592-4.483,4.3,4.3,0,1,1,8.589-.036Zm-2.16-.757a1.985,1.985,0,0,0-2.143-1.728,1.964,1.964,0,0,0-2.089,1.728Z"/><path d="M263.341,326.292l-.756,1.944a2.481,2.481,0,0,0-1.026-.2,2.256,2.256,0,0,0-1.909,1.152v5.582h-2.161v-8.535h2.053v1.243a2.779,2.779,0,0,1,2.323-1.459A4.628,4.628,0,0,1,263.341,326.292Z"/><path d="M277.9,334.772h-2v-1.116a2.95,2.95,0,0,1-2.574,1.332,4.5,4.5,0,0,1,0-8.967,3.042,3.042,0,0,1,2.412,1.117V321.16H277.9Zm-2.161-5.545a2.365,2.365,0,0,0-2.035-1.189,2.47,2.47,0,0,0,0,4.934,2.365,2.365,0,0,0,2.035-1.189Z"/><path d="M281.735,322.06a1.423,1.423,0,1,1-1.423,1.422A1.414,1.414,0,0,1,281.735,322.06Zm-1.08,4.177h2.16v8.535h-2.16Z"/><path d="M285.983,331.873a4.011,4.011,0,0,0,2.575,1.225c.881,0,1.62-.253,1.62-.775,0-.558-.4-.666-1.693-.936-1.692-.36-3.169-1.08-3.169-2.7,0-1.332,1.332-2.665,3.674-2.665a5.45,5.45,0,0,1,3.2,1.044l-1.081,1.585a3.958,3.958,0,0,0-2.124-.738c-.81,0-1.549.288-1.549.81s.577.648,2.017.954c1.692.361,2.9.919,2.9,2.683,0,1.459-1.548,2.629-3.727,2.629a5.324,5.324,0,0,1-3.854-1.549Z"/><path d="M300.133,331.927l1.422,1.441a4.619,4.619,0,0,1-3.529,1.62,4.485,4.485,0,1,1,0-8.967,4.579,4.579,0,0,1,3.494,1.585l-1.5,1.332a2.656,2.656,0,0,0-2-.9,2.468,2.468,0,0,0,0,4.934A2.522,2.522,0,0,0,300.133,331.927Z"/><path d="M311.49,330.505a4.556,4.556,0,1,1-4.554-4.484A4.487,4.487,0,0,1,311.49,330.505Zm-2.2,0a2.361,2.361,0,1,0-2.358,2.467A2.335,2.335,0,0,0,309.294,330.505Z"/><path d="M314.1,326.237l2.161,4.646,2.16-4.646h2.322l-4.518,8.967-4.52-8.967Z"/><path d="M329.545,330.469c0,.162,0,.486-.018.81h-6.374a2.436,2.436,0,0,0,2.395,1.728,3.438,3.438,0,0,0,2.341-.864l1.08,1.621a5.469,5.469,0,0,1-3.421,1.224,4.486,4.486,0,0,1-4.592-4.483,4.3,4.3,0,1,1,8.589-.036Zm-2.161-.757a2.159,2.159,0,0,0-4.231,0Z"/><path d="M336.978,326.292l-.756,1.944a2.489,2.489,0,0,0-1.027-.2,2.256,2.256,0,0,0-1.908,1.152v5.582h-2.161v-8.535h2.053v1.243a2.779,2.779,0,0,1,2.323-1.459A4.636,4.636,0,0,1,336.978,326.292Z"/><path d="M338.38,336.555a2.026,2.026,0,0,0,1.135.558c.738,0,1.044-.217,1.458-1.26l.342-.883-4.159-8.733h2.395l2.881,6.248,2.25-6.248h2.323l-4.142,10.444a3.3,3.3,0,0,1-3.2,2.448,3.78,3.78,0,0,1-2.286-.9Z"/></svg>